<svg xmlns="http://www.w3.org/2000/svg" width="508" height="425.291" viewBox="0 0 508 425.291">
  <g id="Group_532" data-name="Group 532" transform="translate(-402 -747)">
    <path id="Path_503" data-name="Path 503" d="M4305.28,7169.318a252.988,252.988,0,0,1-65.29,170H3862.57a252.987,252.987,0,0,1-65.29-170c0-140.28,113.72-254,254-254S4305.28,7029.038,4305.28,7169.318Z" transform="translate(-3395.28 -6168.317)" fill="#eeeec9"/>
    <g id="Group_367" data-name="Group 367" transform="translate(-3395.28 -6168.317)">
      <path id="Path_505" data-name="Path 505" d="M4049.557,7110.779c-7-1.9-13.986-3.837-21-5.68-3.716-.976-4.022-2.793-2.176-5.971,25.911-44.607,62.5-72.31,115.924-73.27,20.017-.359,39.882,1.223,59.031,7.522,13.534,4.452,26.2,10.458,33.477,23.852a6,6,0,0,0,3.149,2.619c23.571,10.112,32.254,29.788,34.348,53.669-2.783,6.77-.631,13.849-1.29,20.755-.316,3.309-.235,7.469-4.7,7.226-6.75-.369-12.883,1.986-19.793,2.6l.49.415a2.71,2.71,0,0,0-.048-.647c-.129-.4-.31-.785-.469-1.176a1.4,1.4,0,0,0,.029,1.4,22.975,22.975,0,0,1-.929,6.051l-.006,0c-2.151.041-4.376-.006-3.864,3.226l.051-.129-1.645,1.579c-2.042,5.152-5.912,2.609-9.273,2.2l-3.5-1.589-2.516-1.175-1.759-1-8.286-5.158q-.7-.435-1.4-.871l-4.532-3.886-3.072-2.987-3.874-4.425-3.822-5.655-1.764-2.957a1.2,1.2,0,0,0-.466-1.221l-.936-1.693-1.578-3.893-1.174-2.3.123-.483c-4.469-3.789-9.582-1.108-14.4-1.43l-45.114-.025-26.785-.766-4.251-.169-15.512-.493a12.741,12.741,0,0,0-7.036.019C4069.491,7112.375,4059.416,7112.362,4049.557,7110.779Z" fill="#383837"/>
      <path id="Path_506" data-name="Path 506" d="M4132.808,7116.281l45.114.025c4.549,2.993,9.625.677,14.4,1.43l-.123.485,1.174,2.3,1.578,3.893.936,1.693a1.2,1.2,0,0,1,.466,1.221c-.015,1.345.206,2.55,1.764,2.957l3.822,5.655c-.347,2.909.719,4.582,3.874,4.425l3.072,2.987c-.175,3.261,1.546,4.312,4.532,3.886q.7.437,1.4.871c-3.368,5.47-9.086,3.9-13.183,2.879-11.654-2.9-22.911-.624-34.308.736-2.133.255-3.159,1.784-3.856,3.617-6.727-5.5-14.342-6.621-22.6-4.579-3.013-2.5-6.291-1.151-9.318-.312-2.988.828-6.142,1.932-8.934.927-11.715-4.22-23.217,2.682-34.846.327-1.467-.3-2.614.791-3.243,2.2-7.642-5.127-15.741-4.9-24.063-2.056a2.208,2.208,0,0,0-2.221,1.738l-2.919,2.434c.025-2.624-.672-4.9-3.857-4.381-4.452.72-8-1.617-11.861-2.938.693-12.285,4.231-23.86,8.761-35.188,5.055-.04,9.879-.042,14.711,2.609,5.228,2.869,11.248,5.107,16.146-1.251a12.741,12.741,0,0,1,7.036-.019c1.294,4.8,4.094,7.792,9.386,6.891,3.4-.578,7.025-1.463,6.126-6.4l4.251.169C4114.842,7119.574,4123.817,7118.2,4132.808,7116.281Z" fill="#ebd0bf"/>
      <path id="Path_507" data-name="Path 507" d="M4238.442,7205.18c-2.282,7.916-4.146,16.006-9.411,22.685-2.871-.576-4.849.868-6.838,2.708a10.889,10.889,0,0,1-9.819,2.648c-17.337-3.339-34.945-1.082-52.4-1.977-12.1-.621-24.7.686-37.043.582-17.279-.145-34.632,1.685-51.839-1.276-4.444-.765-7.524.657-8.595,5.671-4.289-3.109-6.657-7.645-11.63-8.44-4.625-6.85-6.824-14.595-8.335-22.594,2.958-2.775,5.589.808,8.765.575,13.006-.954,26.138-1.311,39.215.094,6.588.707,13.28,1.653,19.833,1.19,9.988-.706,20.042-1.3,29.984-1.588,28.8-.827,57.631-.249,86.45-.345C4230.669,7205.1,4234.552,7206.958,4238.442,7205.18Z" fill="#f5d4a9"/>
      <path id="Path_508" data-name="Path 508" d="M4238.442,7205.18c-3.89,1.778-7.773-.08-11.663-.067-28.819.1-57.654-.482-86.45.345-9.942.286-20,.882-29.984,1.588-6.553.463-13.245-.483-19.833-1.19-13.077-1.4-26.209-1.048-39.215-.094-3.176.233-5.807-3.35-8.765-.575-3.465-7.2-2.825-14.957-3.079-22.592,4.175,0,8.348.027,12.52-.02,1.807-.021,3.857.29,4.505-2.182,1.438-5.489,3.013-6.751,5.121-.253.168.519,1.585.635,2.421.938,10.141,8.186,17.153,7.554,25.922-2.335,4.455,2.472,8.639,5.6,14.166,5.274,12.415-.743,25.1,2.053,37.194-2.86l-.02-.021,1.335,1.481.034.03,1.527,1.32-.046-.045c-.371,7.438,2.743,6.546,7,2.929l2.836.074c1.6,1.607,3.012,2,3.986-.589l-.093.147c1.391.29,2.544.1,3.023-1.479l5.23-4.775a6.24,6.24,0,0,0,5.658,3.544c19.613.122,39.227.107,58.84.28,4.006.036,7.669-2.252,11.769-1.3a59.188,59.188,0,0,0,25.682.13c4.659-.964,7.814.623,8.711,5.61-8.044,13.429-19.227,16.508-32.794,8.742-3.387-1.939-4.671-.595-5.29,2.385A33.18,33.18,0,0,0,4238.442,7205.18Z" fill="#f3d3af"/>
      <path id="Path_509" data-name="Path 509" d="M4182.052,7276.73c24.8,5.991,48.57,14.382,69.166,30.011,11.527,8.747,21.054,19.168,26.708,32.91-2.489,1.474-4.841.806-7.05.809-31.93.055-63.862-.078-95.79.147-5.6.039-7.765-.392-6.268-7.1,3.571-16.006,6.1-32.245,9.056-48.384q-.013-3.318-.027-6.645C4178.816,7276.853,4180.542,7277.052,4182.052,7276.73Z" fill="#24446e"/>
      <path id="Path_510" data-name="Path 510" d="M4276.772,7188.494c-.9-4.987-4.052-6.574-8.711-5.61a59.188,59.188,0,0,1-25.682-.13c-4.1-.953-7.763,1.335-11.769,1.3-19.613-.173-39.227-.158-58.84-.28a6.24,6.24,0,0,1-5.658-3.544c5.267-8.949,4.342-17.24-2.646-24.886.7-1.834,1.723-3.363,3.856-3.618,11.4-1.36,22.654-3.632,34.308-.736,4.1,1.018,9.815,2.591,13.183-2.879l8.287,5.158,1.758,1,2.516,1.175c.649,1.665,2.049,1.677,3.5,1.589,3.361.406,7.231,2.949,9.272-2.2l1.646-1.579-.052.128q1.932-1.614,3.865-3.225l.006,0c8.051-5.076,16.283-9.114,26.017-4.537a13.438,13.438,0,0,1,7.927,10C4281.6,7166.775,4282.982,7177.983,4276.772,7188.494Z" fill="#efd1b7"/>
      <path id="Path_511" data-name="Path 511" d="M4129.511,7289.695c2.086,15.341,4.045,30.7,6.348,46.007.559,3.719-.033,4.9-4.013,4.881q-42.612-.225-85.227,0c-5.084.031-4.724-2.411-3.536-5.649,3.385-9.224,10.2-15.627,17.915-21.171,14.643-10.529,31.176-17.113,48.152-22.73q7.982-2.642,15.969-5.259l3.282-.12Z" fill="#24446e"/>
      <path id="Path_512" data-name="Path 512" d="M4128.4,7285.653l-3.282.12c-11.514-3-23.01-5.789-33.426-12.115a92.749,92.749,0,0,1-23.86-20.39c2.293-6.551,5.145-.6,7.737-.346,9.247,7.583,15.732,7.693,23.514.4,9.065-8.5,11.684-8.482,20.978.129,7.627,7.067,15.028,7.561,23.327,1.37,2.427-1.811,4.561-4.013,6.839-6.024,5.574-4.923,12.773-4.263,17.037,1.721a67.461,67.461,0,0,1,3.768,6.74c-1.8,3.133.164,3.336,1.795,1.723,3.846-3.8,8.44-2.985,12.971-3.035,3.011-.033,6.293.743,8.978-.2,5.935-2.085,7.966.438,8.519,5.74q-10.62,7.623-21.241,15.245c-1.513.322-3.239.123-4.208,1.748A122.323,122.323,0,0,1,4128.4,7285.653Z" fill="#fad59c"/>
      <path id="Path_513" data-name="Path 513" d="M4203.3,7261.485c-.553-5.3-2.584-7.825-8.519-5.74-2.685.943-5.967.167-8.978.2-4.531.05-9.125-.767-12.971,3.035-1.631,1.613-3.6,1.41-1.8-1.722.592-.665,1.746-1.377,1.7-1.989-.795-9.635-12.609-15.909-21.245-11.443-3.861,2-6.433,5.424-9.59,8.2-6.205,5.459-12.354,5.722-18.12-.037-6.232-6.223-12.9-10.023-21.935-7.217-5-1.886-10.22-1.19-15.354-1.212-1.791-.007-2.711,1.64-2.936,3.439-1.147,9.161,5.869,5.22,9.856,6.14-9.014,4.926-12.72,3.313-18.173-8.112-.7-1.465-.882-3.641-3.008-2.866-2.715.991-.416,2.626.088,3.85.967,2.352,2.163,4.61,3.264,6.908-2.6-.249-5.449-6.2-7.742.347-7.2-7.468-13.162-15.758-16.965-25.488,4.972.8,7.34,5.332,11.629,8.441,1.071-5.014,4.151-6.436,8.595-5.671,17.207,2.961,34.56,1.131,51.839,1.276,12.348.1,24.943-1.2,37.043-.582,17.455.9,35.063-1.362,52.4,1.977a10.889,10.889,0,0,0,9.819-2.648c1.989-1.84,3.967-3.284,6.838-2.708C4221.565,7239.923,4215.5,7253.051,4203.3,7261.485Z" fill="#f8d4a3"/>
      <path id="Path_514" data-name="Path 514" d="M4064.02,7181.078c-.836-.3-2.253-.419-2.421-.938-2.108-6.5-3.683-5.236-5.121.253-.648,2.472-2.7,2.161-4.505,2.182-4.172.047-8.345.018-12.52.02a95.357,95.357,0,0,1,.154-33.893c3.862,1.321,7.408,3.658,11.86,2.938,3.185-.514,3.882,1.757,3.857,4.381-.755,6.489,1.825,5.524,5.849,2.875,8.887-5.85,19.571-3.864,23.784,4.35,2.9,5.649,2.064,11.016-2.668,15.319-3.561,3.239-7.71,3.213-11.636.526a6.736,6.736,0,0,1-2.586-8.675c1.368-3.411,4.076-4.386,7.444-2.956,1.928.819,4.1,2.511,5.247-.45,1.124-2.9-1.469-4.153-3.584-5.1-6.261-2.793-13.448,1.275-15.057,8.332C4061.226,7174.152,4062.4,7177.641,4064.02,7181.078Z" fill="#eccfb5"/>
      <path id="Path_515" data-name="Path 515" d="M4152.053,7340.52c-8.8,0-8.794,0-6.906-8.994.771-3.672,1.164-7.46,2.307-11.009a11.571,11.571,0,0,0-1.832-11.205c-1.008-1.4-4.006-3.527-1.41-5.219,3.086-2.011,5.873-5.932,10.5-4.093,6.715,2.672,7.479,4.842,3.41,10.964a9.264,9.264,0,0,0-1.342,7.928c.992,4.1,1.853,8.237,2.7,12.373C4161.376,7340.521,4161.358,7340.525,4152.053,7340.52Z" fill="#294870"/>
      <path id="Path_516" data-name="Path 516" d="M4128.4,7285.653a122.323,122.323,0,0,0,49.446-7.175q.013,3.324.027,6.645a7.252,7.252,0,0,0-2.01.6c-14.742,9.681-30.213,10.688-46.353,3.972Z" fill="#ebb780"/>
      <path id="Path_517" data-name="Path 517" d="M4271.623,7145.607c-9.734-4.577-17.966-.539-26.017,4.537l1.417-5.63c6.42-1.027,12.553-3.382,19.3-3.013,4.461.243,4.38-3.917,4.7-7.226.659-6.906-1.493-13.985,1.29-20.755C4274.2,7124.261,4273.215,7134.94,4271.623,7145.607Z" fill="#413e3a"/>
      <path id="Path_518" data-name="Path 518" d="M4079.224,7114.872c-4.9,6.358-10.918,4.12-16.146,1.251-4.832-2.651-9.656-2.649-14.711-2.609q.6-1.368,1.19-2.735C4059.416,7112.362,4069.491,7112.375,4079.224,7114.872Z" fill="#ead2c9"/>
      <path id="Path_519" data-name="Path 519" d="M4101.772,7115.346c.9,4.935-2.728,5.82-6.126,6.4-5.292.9-8.092-2.087-9.386-6.891Z" fill="#ead2c9"/>
      <path id="Path_520" data-name="Path 520" d="M4132.808,7116.281c-8.991,1.917-17.966,3.293-26.785-.766Z" fill="#ead2c9"/>
      <path id="Path_521" data-name="Path 521" d="M4192.318,7117.736c-4.771-.753-9.847,1.563-14.4-1.43C4182.736,7116.628,4187.849,7113.947,4192.318,7117.736Z" fill="#ead2c9"/>
      <path id="Path_522" data-name="Path 522" d="M4213.413,7147.239c-2.986.426-4.707-.625-4.532-3.886Z" fill="#ead2c9"/>
      <path id="Path_523" data-name="Path 523" d="M4205.809,7140.366c-3.155.157-4.221-1.516-3.874-4.425Z" fill="#ead2c9"/>
      <path id="Path_524" data-name="Path 524" d="M4245.6,7150.149q-1.932,1.613-3.865,3.225C4241.224,7150.143,4243.449,7150.19,4245.6,7150.149Z" fill="#413e3a"/>
      <path id="Path_525" data-name="Path 525" d="M4246.045,7143.677l.461-.986c.159.391.34.775.469,1.176a2.71,2.71,0,0,1,.048.647C4246.7,7144.237,4246.369,7143.96,4246.045,7143.677Z" fill="#413e3a"/>
      <path id="Path_526" data-name="Path 526" d="M4198.113,7130.286c-1.558-.407-1.779-1.612-1.764-2.957Z" fill="#ead2c9"/>
      <path id="Path_527" data-name="Path 527" d="M4230.869,7157.028c-1.446.088-2.846.076-3.5-1.589Z" fill="#ebd0bf"/>
      <path id="Path_528" data-name="Path 528" d="M4224.858,7154.264l-1.758-1Z" fill="#ebd0bf"/>
      <path id="Path_529" data-name="Path 529" d="M4241.787,7153.246l-1.646,1.579Z" fill="#413e3a"/>
      <path id="Path_530" data-name="Path 530" d="M4195.883,7126.108l-.936-1.693Z" fill="#ead2c9"/>
      <path id="Path_531" data-name="Path 531" d="M4193.369,7120.522l-1.174-2.3Q4192.781,7119.368,4193.369,7120.522Z" fill="#ead2c9"/>
      <path id="Path_532" data-name="Path 532" d="M4141.3,7181.157c-12.095,4.913-24.779,2.117-37.194,2.86-5.527.331-9.711-2.8-14.164-5.273a22.425,22.425,0,0,0,.836-17.363c2.155-3.214.509-4.015-2.5-3.949l-.75-1.1a2.2,2.2,0,0,0-1.943-1.778,1.086,1.086,0,0,1-1.056-.645c.629-1.409,1.776-2.5,3.243-2.2,11.629,2.355,23.131-4.547,34.846-.327,2.792,1,5.946-.1,8.934-.927,3.027-.839,6.305-2.185,9.317.311q-3.3,1.819-6.594,3.641l-1.439,1.179a3.811,3.811,0,0,0-.449.538,3.022,3.022,0,0,0,.975,4.3c2.077,1.432,3.379-.5,4.9-1.451,9.7-6.078,20.564-3.714,24.455,5.365,2.305,5.376,1.06,10.185-3.093,14.049-3.483,3.242-7.626,3.541-11.584.829-3.271-2.241-4.353-5.446-2.575-9.2,1.45-3.063,3.982-3.856,7.014-2.653,2.124.843,4.674,2.893,5.642-.652.863-3.161-2.244-4.3-4.654-5.108-5.331-1.791-10.92.907-13.379,6.16C4137.868,7172.484,4139.013,7176.862,4141.3,7181.157Z" fill="#edd0b5"/>
      <path id="Path_533" data-name="Path 533" d="M4141.3,7181.157c-2.289-4.3-3.434-8.673-1.221-13.4,2.459-5.253,8.048-7.951,13.379-6.16,2.41.81,5.517,1.947,4.654,5.108-.968,3.545-3.518,1.5-5.642.652-3.032-1.2-5.564-.41-7.014,2.653-1.778,3.756-.7,6.961,2.575,9.2,3.958,2.712,8.1,2.413,11.584-.829,4.153-3.864,5.4-8.673,3.093-14.049-3.891-9.079-14.754-11.443-24.455-5.365-1.516.95-2.818,2.883-4.9,1.451a3.022,3.022,0,0,1-.975-4.3,3.811,3.811,0,0,1,.449-.538l1.439-1.179q3.3-1.821,6.594-3.641c8.257-2.041,15.872-.923,22.6,4.58,6.988,7.647,7.913,15.938,2.646,24.887l-5.23,4.775-3.023,1.479.094-.145q-1.994.3-3.987.587l-2.836-.074-7-2.929.046.045-1.527-1.32-.034-.03-1.335-1.481Z" fill="#413e3a"/>
      <path id="Path_534" data-name="Path 534" d="M4090.78,7161.381a22.425,22.425,0,0,1-.836,17.363c-8.771,9.888-15.783,10.52-25.924,2.334-1.622-3.437-2.794-6.926-1.9-10.833,1.609-7.057,8.8-11.125,15.057-8.332,2.115.944,4.708,2.2,3.584,5.1-1.148,2.961-3.319,1.269-5.247.45-3.368-1.43-6.076-.455-7.444,2.956a6.736,6.736,0,0,0,2.586,8.675c3.926,2.687,8.075,2.713,11.636-.526,4.732-4.3,5.566-9.67,2.668-15.319-4.213-8.214-14.9-10.2-23.784-4.35-4.024,2.649-6.6,3.614-5.849-2.875l2.919-2.435,2.221-1.737c8.322-2.847,16.421-3.071,24.063,2.056a1.087,1.087,0,0,0,1.058.645l1.941,1.778q.375.552.751,1.1Q4089.53,7159.406,4090.78,7161.381Z" fill="#413e3a"/>
      <path id="Path_535" data-name="Path 535" d="M4060.464,7151.849l-2.221,1.737A2.208,2.208,0,0,1,4060.464,7151.849Z" fill="#eccfb5"/>
      <path id="Path_536" data-name="Path 536" d="M4144.132,7183.922l7,2.929C4146.875,7190.468,4143.761,7191.36,4144.132,7183.922Z" fill="#edd0b5"/>
      <path id="Path_537" data-name="Path 537" d="M4153.966,7186.925q1.994-.292,3.987-.587C4156.978,7188.929,4155.561,7188.532,4153.966,7186.925Z" fill="#edd0b5"/>
      <path id="Path_538" data-name="Path 538" d="M4157.859,7186.483l3.023-1.479C4160.4,7186.578,4159.25,7186.773,4157.859,7186.483Z" fill="#edd0b5"/>
      <path id="Path_539" data-name="Path 539" d="M4141.282,7181.136l1.335,1.481Z" fill="#edd0b5"/>
      <path id="Path_540" data-name="Path 540" d="M4142.651,7182.647l1.527,1.32Z" fill="#edd0b5"/>
      <path id="Path_541" data-name="Path 541" d="M4101.838,7244.774c9.033-2.806,15.7.994,21.935,7.217,5.766,5.759,11.915,5.5,18.12.037,3.157-2.778,5.729-6.2,9.59-8.2,8.636-4.466,20.45,1.808,21.245,11.443.05.612-1.1,1.324-1.7,1.989a67.167,67.167,0,0,0-3.767-6.741c-4.264-5.984-11.463-6.644-17.037-1.721-2.278,2.011-4.412,4.213-6.839,6.024-8.3,6.191-15.7,5.7-23.327-1.37-9.294-8.611-11.913-8.627-20.978-.129-7.782,7.294-14.267,7.184-23.514-.4-1.1-2.3-2.292-4.557-3.259-6.909-.5-1.224-2.8-2.859-.088-3.85,2.126-.775,2.309,1.4,3.008,2.866,5.453,11.425,9.159,13.038,18.173,8.112C4096.356,7250.494,4099.805,7248.347,4101.838,7244.774Z" fill="#d57469"/>
      <path id="Path_542" data-name="Path 542" d="M4101.838,7244.774c-2.033,3.573-5.482,5.72-8.434,8.367-3.987-.92-11,3.021-9.856-6.14.225-1.8,1.145-3.446,2.936-3.439C4091.618,7243.584,4096.843,7242.888,4101.838,7244.774Z" fill="#fad59c"/>
      <path id="Path_543" data-name="Path 543" d="M4090.78,7161.381q-1.251-1.975-2.5-3.949C4091.289,7157.366,4092.935,7158.167,4090.78,7161.381Z" fill="#ebd0bf"/>
      <path id="Path_544" data-name="Path 544" d="M4134.273,7154.4l-1.439,1.179Z" fill="#ebd0bf"/>
      <path id="Path_545" data-name="Path 545" d="M4087.526,7156.328l-1.941-1.778A2.2,2.2,0,0,1,4087.526,7156.328Z" fill="#ebd0bf"/>
    </g>
  </g>
</svg>
