<svg xmlns="http://www.w3.org/2000/svg" width="508" height="428" viewBox="0 0 508 428">
  <g id="Group_530" data-name="Group 530" transform="translate(-459 -745)">
    <path id="Path_610" data-name="Path 610" d="M967,7167.318a252.988,252.988,0,0,1-65.29,170H524.29a252.988,252.988,0,0,1-65.29-170c0-140.28,113.72-254,254-254S967,7027.038,967,7167.318Z" transform="translate(0 -6168.317)" fill="#d9f1dd"/>
    <g id="Group_391" data-name="Group 391" transform="translate(0 -6168.317)">
      <path id="Path_612" data-name="Path 612" d="M817.169,7023.318c7.186,2.939,15.011,2.461,22.439,4.216,14.121,3.337,28.484,6.967,38.7,17.639,7.314,7.641,15.383,13.707,23.748,19.942,16.363,12.2,21.281,30.487,22.768,49.844a126.244,126.244,0,0,1-.979,28.248c-14.566-3.953-24.967,3.109-34.307,12.978a4.8,4.8,0,0,0-4.154.313c-17.582-7.206-32.348-17.69-39.432-36.124-1.951-5.075-4.267-6.422-9.551-6.393-45.708.247-91.472,1.514-136.916-5.246-6.6-1.7-13.18-3.456-19.794-5.088-4.233-1.045-5.032-2.909-2.737-6.864,21.726-37.433,51.958-63.419,95.543-71.674,1.706-.323,3.9.458,4.944-1.791h5.675c.931,1.844,2.672,1.224,4.162,1.37l14.466-.054c4.154-.845,8.673,1.814,12.588-1.316Z" fill="#373737"/>
      <path id="Path_613" data-name="Path 613" d="M801.743,7024.634l-14.465.054a3.576,3.576,0,0,0,.094-1.37h14.189A4.758,4.758,0,0,0,801.743,7024.634Z" fill="#413e39"/>
      <path id="Path_614" data-name="Path 614" d="M801.743,7024.634a4.758,4.758,0,0,1-.182-1.316h12.77C810.416,7026.448,805.9,7023.789,801.743,7024.634Z" fill="#6e6e6e"/>
      <path id="Path_615" data-name="Path 615" d="M787.372,7023.318a3.576,3.576,0,0,1-.094,1.37c-1.491-.146-3.232.474-4.163-1.37Z" fill="#6e6e6e"/>
      <path id="Path_616" data-name="Path 616" d="M699.484,7108.735c45.444,6.76,91.208,5.493,136.916,5.246,5.284-.029,7.6,1.318,9.551,6.393,7.084,18.434,21.85,28.918,39.43,36.124-9.249,7.832-18.89,15.258-27.6,23.653-5.179,4.994-12.94,7.671-15.091,15.61-.273.706-.546,1.413-.824,2.12-1.428-2.274-3.556-1.891-4.727-.336-3.973,5.276-8.949,3.7-13.985,2.636-2.993-.63-6.031-1.043-9.039-1.609a511.1,511.1,0,0,0-53.131-7.586c-15.158-1.227-29.4,3.518-43.393,8.6-4.581,1.662-7.269.586-10.323-2.9-6.37-7.263-11.655-15.474-19-21.886-.052-20.275,1.765-40.245,9.419-59.306A55.012,55.012,0,0,0,699.484,7108.735Zm19.972,48.728c-1.687,1.338-3.427,2.521-4.922,3.957-1.676,1.61-5.388,2.839-2.667,5.966,2.172,2.5,4.588.194,6-1.42,5.2-5.935,10.16-4.948,15.485-.265,1.665,1.463,4.052,3.611,5.968.668,1.861-2.858-1.013-4.394-2.954-5.318-6.373-3.036-5.9-5.772-.219-9.087,1.881-1.1,4.559-2.756,2.347-5.542-1.871-2.358-4.116-.675-5.439.836-5.5,6.277-10.928,5.991-16.606.376a7.7,7.7,0,0,0-1.807-1.09,2.641,2.641,0,0,0-3.724.84c-.885,1.318-.487,2.65.712,3.764C714.019,7153.369,717.447,7154.3,719.456,7157.463Zm85.107-.366c-2.989,2.415-5.41,4.3-7.74,6.285a2.762,2.762,0,0,0-.655,3.812,2.683,2.683,0,0,0,3.8.631,23.533,23.533,0,0,0,4.544-3.362c3.532-3.48,6.993-4.229,10.812-.44a20.2,20.2,0,0,0,3.5,2.388c1.613,1.025,3.455,2.328,4.962.218,1.722-2.411-.059-4.171-2.015-5.1-6.673-3.163-7.17-6.265-.439-10.024,1.76-.982,3.924-2.643,1.961-5.071-1.91-2.362-4.053-.786-5.442.742-5.423,5.964-10.85,6.454-16.611.571a8.815,8.815,0,0,0-1.79-1.126,2.666,2.666,0,0,0-3.779.539c-1.425,1.712-.545,3.083.908,4.173C799.015,7153.16,801.511,7154.9,804.563,7157.1Z" fill="#fbd698"/>
      <path id="Path_617" data-name="Path 617" d="M841.874,7197.881l.819-2.121c8.6-3.674,14.621-10.81,21.419-16.719,8.587-7.465,18.689-13.326,25.425-22.856,9.34-9.869,19.741-16.931,34.307-12.978,11.371,12.295,13,34.168,3.587,48.223-5.5,8.209-18.255,11.392-29.208,6.024-5.458-2.675-6.034-.651-7.138,3.655-4.938,19.256-13.589,36.577-27.379,51.109-3.719-.951-5.9-3.93-8.083-6.629-8.136-10.045-12.968-21.8-17.58-33.761C835.679,7205.7,835.292,7201.091,841.874,7197.881Z" fill="#fbd799"/>
      <path id="Path_618" data-name="Path 618" d="M838.556,7277.132c18.448,5.077,36.439,11.289,52.919,21.267,16.415,9.938,30.22,22.318,38.781,41.542H819.531c-.874-2.621.266-5.11.719-7.57,2.878-15.649,5.954-31.262,8.965-46.886.867-1.464.5-2.982.2-4.5A15.356,15.356,0,0,1,838.556,7277.132Z" fill="#23446e"/>
      <path id="Path_619" data-name="Path 619" d="M781.663,7295.883c.141,8.138,1.837,16.074,3.113,24.065l.589,2.444c.467,4.429.683,8.9,1.484,13.274.585,3.19-.261,4.21-3.446,4.2q-43.527-.1-87.056.015c-3.625.012-3.77-1.5-2.975-4.318,2.082-7.368,6.829-12.86,12.443-17.658,17.242-14.735,38.09-22.215,59.186-29.167,1.335-.44,2.637-.98,3.954-1.474q5.59.238,11.183.475a.761.761,0,0,0,.276.869c-.085,1.937-.2,3.879.967,5.6l.058-.086c-.113.187-.357.409-.317.55A8.319,8.319,0,0,0,781.663,7295.883Z" fill="#24446e"/>
      <path id="Path_620" data-name="Path 620" d="M780.139,7287.744l-11.184-.477c-12.744-3.948-25.59-7.574-36.511-15.83a111.51,111.51,0,0,1-28.555-31.845c-1.907-3.168-.116-5.919-.278-8.853,1.794-7.039,3.6-14.071,5.371-21.115.578-2.305,1.029-4.69-.64-6.744-6.169-7.588-11.893-15.567-19.243-22.128-.87-1.9-3.64-3.534-.827-5.949,7.344,6.408,12.629,14.619,19,21.882,3.054,3.482,5.742,4.558,10.323,2.9,13.992-5.077,28.235-9.822,43.393-8.6a511.1,511.1,0,0,1,53.131,7.586c3.008.566,6.046.979,9.039,1.609,5.036,1.059,10.012,2.64,13.985-2.636,1.171-1.555,3.3-1.938,4.727.336-6.577,3.21-6.19,7.821-3.826,13.947,4.612,11.957,9.444,23.716,17.58,33.761,2.186,2.7,4.364,5.678,8.083,6.629,1.167,3.473-.886,5.567-2.949,7.992-6.2,7.28-14.744,11.364-22.2,16.922a15.335,15.335,0,0,0-9.143,3.861C813.314,7285.627,796.95,7288.317,780.139,7287.744Zm7.186-3.2a87.435,87.435,0,0,0,20.466-1.5c17.967-3.25,34.192-10.257,48.011-22.355,2.3-2.014,5.631-3.821,1.723-7.855-11.236-11.6-17.93-25.9-22.58-41.108-1.656-5.418-4.667-7.442-9.883-8.217-13.235-1.966-26.453-4.1-39.605-6.567-22.419-4.2-44.367-3.795-65.752,5.168-4.208,1.764-7.142,3.719-7.969,8.748-1.141,6.94-3.186,13.733-4.9,20.576-.923,3.685.029,6.716,2.079,9.953Q736.3,7284.658,787.325,7284.54Z" fill="#aedcf3"/>
      <path id="Path_621" data-name="Path 621" d="M829.215,7285.485c-3.011,15.624-6.087,31.237-8.965,46.886-.453,2.46-1.593,4.949-.719,7.57-3.656-.38-7.134,2.843-10.886.539,2.589-.24,4.3-.711,3.3-4.229-1.537-5.375-2.085-11.038-3.705-16.381-1.292-4.264-.891-7.79,2.143-10.928,3.513-3.634,2.15-5.9-1.841-7.73-1.878-.862-3.3-2.659-5.571-2.744q-.006-1.768-.011-3.541c6.42-.771,11.509-4.825,17.353-7C823.179,7286.864,825.537,7283.657,829.215,7285.485Z" fill="#f4f6f6"/>
      <path id="Path_622" data-name="Path 622" d="M802.968,7298.468c2.27.085,3.693,1.882,5.571,2.744,3.991,1.833,5.354,4.1,1.841,7.73-3.034,3.138-3.435,6.664-2.143,10.928,1.62,5.343,2.168,11.006,3.705,16.381,1.006,3.518-.708,3.989-3.3,4.229l-2.916.007a1.017,1.017,0,0,0-1.249-.021,46.146,46.146,0,0,0-6.758-.22c-3.714.4-3.272-2.01-3.257-4.262q.384-.9.768-1.786l.693-4.34a5.748,5.748,0,0,0,1.133-4.269q.649-2.848,1.3-5.7l.186-1.377c1.362-2.774,1.375-5.44-.8-7.82-4.685-5.123-2.735-8.35,2.915-10.646A12.922,12.922,0,0,0,802.968,7298.468Z" fill="#28466f"/>
      <path id="Path_623" data-name="Path 623" d="M689.1,7180.752c7.35,6.561,13.074,14.54,19.243,22.128,1.669,2.054,1.218,4.439.64,6.744-1.766,7.044-3.577,14.076-5.371,21.115C693.656,7215.564,689.849,7198.6,689.1,7180.752Z" fill="#f9d79c"/>
      <path id="Path_624" data-name="Path 624" d="M829.215,7285.485c-3.678-1.828-6.036,1.379-8.905,2.445-5.844,2.172-10.933,6.226-17.353,7-4.819-.727-9.117-3.512-14.107-3.563l-8.436-2.753a.761.761,0,0,1-.276-.869c16.812.575,33.176-2.115,49.275-6.749C829.712,7282.5,830.082,7284.021,829.215,7285.485Z" fill="#e6b886"/>
      <path id="Path_625" data-name="Path 625" d="M780.414,7288.611l8.436,2.753c-1.495,3.558-4.534,3.064-7.468,2.845C780.21,7292.49,780.329,7290.548,780.414,7288.611Z" fill="#f4f6f6"/>
      <path id="Path_626" data-name="Path 626" d="M797.059,7325.589a5.748,5.748,0,0,1-1.133,4.269c-1.07-.2-2.51-.205-2.316-1.741C793.843,7326.258,795.411,7325.761,797.059,7325.589Z" fill="#f4f6f6"/>
      <path id="Path_627" data-name="Path 627" d="M781.663,7295.883a8.319,8.319,0,0,1-.541-1.21c-.04-.141.2-.363.317-.55Q781.55,7295,781.663,7295.883Z" fill="#f4f6f6"/>
      <path id="Path_628" data-name="Path 628" d="M798.543,7318.515l-.186,1.377a5.532,5.532,0,0,1-.3-1.027C798.043,7318.768,798.371,7318.632,798.543,7318.515Z" fill="#f4f6f6"/>
      <path id="Path_629" data-name="Path 629" d="M785.365,7322.392l-.589-2.444Z" fill="#f4f6f6"/>
      <path id="Path_630" data-name="Path 630" d="M795.233,7334.2q-.384.891-.768,1.786C794.721,7335.391,794.977,7334.794,795.233,7334.2Z" fill="#f4f6f6"/>
      <path id="Path_631" data-name="Path 631" d="M804.48,7340.466a1.017,1.017,0,0,1,1.249.021Z" fill="#f4f6f6"/>
      <path id="Path_632" data-name="Path 632" d="M889.537,7156.185c-6.736,9.53-16.838,15.391-25.425,22.856-6.8,5.909-12.817,13.045-21.419,16.719,2.151-7.938,9.912-10.615,15.091-15.609,8.707-8.4,18.348-15.821,27.6-23.653A4.809,4.809,0,0,1,889.537,7156.185Z" fill="#b1d8e8"/>
      <path id="Path_633" data-name="Path 633" d="M719.456,7157.463c-2.009-3.165-5.437-4.094-7.825-6.315-1.2-1.114-1.6-2.446-.712-3.764a2.641,2.641,0,0,1,3.724-.84,7.7,7.7,0,0,1,1.807,1.09c5.678,5.615,11.11,5.9,16.606-.376,1.323-1.511,3.568-3.194,5.439-.836,2.212,2.786-.466,4.444-2.347,5.542-5.678,3.315-6.154,6.051.219,9.087,1.941.924,4.815,2.46,2.954,5.318-1.916,2.943-4.3.795-5.968-.668-5.325-4.683-10.289-5.67-15.485.265-1.413,1.614-3.829,3.917-6,1.42-2.721-3.127.991-4.356,2.667-5.966C716.029,7159.984,717.769,7158.8,719.456,7157.463Z" fill="#423e38"/>
      <path id="Path_634" data-name="Path 634" d="M804.563,7157.1c-3.052-2.2-5.548-3.937-7.981-5.762-1.453-1.09-2.333-2.461-.908-4.173a2.666,2.666,0,0,1,3.779-.539,8.815,8.815,0,0,1,1.79,1.126c5.761,5.883,11.188,5.393,16.611-.571,1.389-1.528,3.532-3.1,5.442-.742,1.963,2.428-.2,4.089-1.961,5.071-6.731,3.759-6.234,6.861.439,10.024,1.956.927,3.737,2.687,2.015,5.1-1.507,2.11-3.349.807-4.962-.218a20.2,20.2,0,0,1-3.5-2.388c-3.819-3.789-7.28-3.04-10.812.44a23.533,23.533,0,0,1-4.544,3.362,2.683,2.683,0,0,1-3.8-.631,2.762,2.762,0,0,1,.655-3.812C799.153,7161.393,801.574,7159.512,804.563,7157.1Z" fill="#413e39"/>
      <path id="Path_635" data-name="Path 635" d="M787.325,7284.54q-51.075.125-78.409-43.152c-2.05-3.237-3-6.268-2.079-9.953,1.713-6.843,3.758-13.636,4.9-20.576.827-5.029,3.761-6.984,7.969-8.748,21.385-8.963,43.333-9.365,65.752-5.168,13.152,2.462,26.37,4.6,39.605,6.567,5.216.775,8.227,2.8,9.883,8.217,4.65,15.208,11.344,29.509,22.58,41.108,3.908,4.034.578,5.841-1.723,7.855-13.819,12.1-30.044,19.1-48.011,22.355A87.435,87.435,0,0,1,787.325,7284.54Z" fill="#fcfdfc"/>
      <path id="Path_636" data-name="Path 636" d="M692.431,7274.178a13.037,13.037,0,0,1,9.674,1.727c1.029.589,2.1,1.3,1.419,2.783-.6,1.32-1.6,1.347-2.934,1.057-9.245-2.007-10.09-1.647-15.447,6.39-2.707,4.061-6.162,7.088-10.988,8.311-1.334.338-2.806.662-3.409-1.047-.617-1.748.675-2.364,2.047-2.807,4.757-1.537,7.8-4.948,10.41-9.05C685.386,7278.113,688.127,7275.1,692.431,7274.178Z" fill="#a0b4d0"/>
      <path id="Path_637" data-name="Path 637" d="M686.589,7250.411c3.052-.957,6.229-.1,9.244,1.665,1.206.708,2.383,1.528,1.4,3.186-.776,1.311-1.875.956-3.093.6-7.972-2.328-9.9-1.655-14.419,5.53a21.891,21.891,0,0,1-10.568,9c-1.562.629-3.539,1.274-4.444-.713-1.013-2.227.958-2.916,2.609-3.356,4.414-1.177,7.029-4.366,9.341-8S681.74,7251.593,686.589,7250.411Z" fill="#a0b4d0"/>
    </g>
  </g>
</svg>
