<svg xmlns="http://www.w3.org/2000/svg" viewBox="0 0 746.61 635"><defs><style>.cls-1{fill:#ffb8c4;}.cls-2{fill:#595b5c;}.cls-3{fill:#d6dce0;}.cls-4{fill:#fbdbb7;}.cls-5{fill:#e84661;}.cls-6{fill:#fdfdfd;}.cls-7{fill:#dcf1fa;}.cls-8{fill:#f14080;}</style></defs><g id="Layer_2" data-name="Layer 2"><g id="Layer_1-2" data-name="Layer 1"><path class="cls-1" d="M98.92,628c-1-4.82-5.12-7.49-8.11-10.76-9.45-10.37-17.55-21.77-25.67-33.11a267.42,267.42,0,0,1-19.22-31.2c-9.4-17.9-18-36.18-24.71-55.37-5.74-16.38-10.1-33.16-14.2-49.88-2.42-9.88-3.34-20.59-4.38-31C.67,397-.57,377.17.26,357.35c.28-6.56.3-13.29,2.44-19.68,5.74,8.34,13.87,10.87,23.71,10.84,65.66-.18,131.32-.06,197-.2a12.13,12.13,0,0,1,9.51,4.09c12.82,13,25.79,25.94,38.78,38.81,1.73,1.72,3.12,5,6.4,3.35,2.92-1.45,2.07-4.57,2.08-7.12.06-8.54,0-17.07,0-25.61,0-13.26,0-13.26,13.27-13.4,15.21-.17,23.82-8.8,23.82-23.86,0-67.28-.21-134.56.23-201.84.07-11.07-7.8-20.38-20.41-20.22-39.84.49-79.69.2-119.53.17-19.72,0-39.43-.16-59.14-.24,3-5.7,8.11-9.44,12.92-13.3,10.93-8.75,21.83-17.58,33.31-25.58,9.5-6.63,19.68-12.35,29.8-18.05,11.31-6.38,23.38-11.24,35.19-16.62,14-6.4,28.7-10.61,43.34-15a317.52,317.52,0,0,1,43.47-9.26A386.74,386.74,0,0,1,381.72.06,355.93,355.93,0,0,1,443,6.77c11.31,2.21,22.53,4.67,33.56,7.94A363.23,363.23,0,0,1,527,33.33a422.38,422.38,0,0,1,47.4,25.33,320.77,320.77,0,0,1,35.68,25.7c15.08,12.75,29.69,26.25,42.53,41.36,11.19,13.17,22.09,26.58,31.68,41a329.78,329.78,0,0,1,23.54,40.64A432.31,432.31,0,0,1,725,247.52c6.26,17.52,10.8,35.47,15,53.5,1.83,7.94,2.13,16.46,3.44,24.5,3.33,20.35,3.11,40.71,3.23,61.12.1,16.85-3.56,33.28-5.47,49.9-2,17.48-7.08,34.31-12.28,51-4.17,13.36-10.09,26.17-15,39.3-4,10.78-10.84,20.16-15.13,30.8-.57,1.43-2,2.49-3,3.78-9,11.92-15.8,25.25-24.59,37.38-6.89,9.51-15.21,17.43-22.85,26.09a5,5,0,0,0-1.68,3.08c-11.28.18-8.84,1.88-11-8.49-2.34-11.08-4.74-22.16-6.69-33.32-.73-4.17-4.39-9.2,2-12.52.7-.36.67-2.65.53-4-.76-7.46-.64-15-2-22.39C626.06,528,619,510.74,604.6,497a83.61,83.61,0,0,0-47.81-23.09c-6.42-.85-10.21-3.76-13.61-8.52-3.52-4.92-7-9.61-14.52-8.44-5.26.82-7-2.13-5.69-7.35.78-3.18,3.56-3.05,5.69-3.76,13.39-4.48,24.75-11.92,33.64-22.91a99.59,99.59,0,0,0,21.28-48.74c.47-3.12,1.88-4.08,4.83-5,12.2-3.78,18.81-13.89,18-26.19-.39-6.12-3.38-10.72-7.49-14.85l.22-.14-.16.1c-2.63-1.7-1.62-4.38-1.63-6.66-.07-19.1.11-38.2-.12-57.3-.06-5.54,1-9.85,5.21-14,7.46-7.35,8.83-16.31,4.44-23-12.48-18.93-29.4-33-49.64-42.67-23.17-11.08-48-15-73.49-12.77S437.6,184,430.2,211.28c-.66,2.43-1.78,2.94-4.24,2.91-10.31-.15-18.53,4.3-24.23,12.73a52.45,52.45,0,0,0-8.84,24.35c-2.31,22.9-.65,45.88-1,68.82-.06,3.89-.91,7-3.53,9.83-9.73,10.55-7.5,32,10.41,38.31,5.55,2,6.71,4.63,7.66,9.4,4.58,22.92,14.17,43,33.45,57.45a75.05,75.05,0,0,0,23.31,11.5c4.25,1.3,3.17,4.48,3.28,7.39.09,2.41-1.19,3.53-3.36,3.07-9.55-2-14.29,4-18.94,10.74-1.74,2.51-3.47,5.42-7.45,5.48-6.54.1-12.78,2.06-18.94,4.07-1.93.63-3.57.95-5.07-.46-4.6-4.32-10.47-4.3-16.07-4.31q-90.53-.15-181.07,0a46.65,46.65,0,0,0-12,1.24c-10.23,2.78-14,9.32-14,23.28q0,52.42,0,104.85c0,3.41,1.2,7.36-4.28,8.31-2,.35-1.51,2.83-1.59,4.71-.2,4.78,3,8.54,3.93,13Z"/><path class="cls-2" d="M98.92,628h88.76c-.94-4.47-4.13-8.23-3.93-13,.08-1.88-.42-4.36,1.59-4.71,5.48-.95,4.28-4.9,4.28-8.31q0-52.43,0-104.85c0-14,3.74-20.5,14-23.28a46.65,46.65,0,0,1,12-1.24q90.54-.13,181.07,0c5.6,0,11.47,0,16.07,4.31,1.5,1.41,3.14,1.09,5.07.46,6.16-2,12.4-4,18.94-4.07,4-.06,5.71-3,7.45-5.48,4.65-6.7,9.39-12.76,18.94-10.74,2.17.46,3.45-.66,3.36-3.07-.11-2.91,1-6.09-3.28-7.39a75.05,75.05,0,0,1-23.31-11.5c-19.28-14.43-28.87-34.53-33.45-57.45-.95-4.77-2.11-7.43-7.66-9.4-17.91-6.34-20.14-27.76-10.41-38.31,2.62-2.84,3.47-5.94,3.53-9.83.32-22.94-1.34-45.92,1-68.82a52.45,52.45,0,0,1,8.84-24.35c5.7-8.43,13.92-12.88,24.23-12.73,2.46,0,3.58-.48,4.24-2.91,7.4-27.3,27.9-37.3,53.57-39.56s50.32,1.69,73.49,12.77c20.24,9.68,37.16,23.74,49.64,42.67,4.39,6.65,3,15.61-4.44,23-4.24,4.17-5.27,8.48-5.21,14,.23,19.1,0,38.2.12,57.3,0,2.28-1,5,1.63,6.66l-.06,0c4.11,4.13,7.1,8.73,7.49,14.85.79,12.3-5.82,22.41-18,26.19-2.95.91-4.36,1.87-4.83,5a99.59,99.59,0,0,1-21.28,48.74c-8.89,11-20.25,18.43-33.64,22.91-2.13.71-4.91.58-5.69,3.76-1.27,5.22.43,8.17,5.69,7.35,7.56-1.17,11,3.52,14.52,8.44,3.4,4.76,7.19,7.67,13.61,8.52A83.61,83.61,0,0,1,604.6,497C619,510.74,626.06,528,629.49,547.25c1.33,7.43,1.21,14.93,2,22.39.14,1.35.17,3.64-.53,4-6.44,3.32-2.78,8.35-2,12.52,2,11.16,4.35,22.24,6.69,33.32,2.2,10.37-.24,8.67,11,8.49,11.37.06,22.74.07,34.12.23,2.59,0,6.54-1.12,6.48,3.28s-4.11,3-6.61,3q-138.66.12-277.34.07-167.31,0-334.64-.12c-3.07,0-8.74,2.47-8.81-3s5.56-3,8.64-3.12C78.6,627.92,88.76,628.05,98.92,628ZM305.1,609.63v-.19c34.15,0,68.3-.15,102.45.17,5.17,0,6.37-1.13,6.34-6.16-.21-35.77-.1-71.55-.11-107.32,0-13.05-3.93-16.88-17.24-16.88H213c-1.62,0-3.25,0-4.87.07-6.92.42-11.62,4.95-11.64,11.93-.12,38,0,76-.15,114,0,3.45,1,4.44,4.5,4.43C235.58,609.57,270.34,609.63,305.1,609.63ZM578.44,322.44c0-18.13,0-33.17,0-48.2,0-7.26-.06-7.16-6.7-5.33-34,9.37-68.21,11.89-102.64,2-10.29-2.95-20.31-6.76-31.45-6.09-17.12,1-25.9,8.87-26.32,26-.56,22.94-.52,45.9-.5,68.85,0,12.29,3,24.07,7.35,35.51,8.6,22.55,23.82,38.45,47.19,45.43,17.2,5.15,34.74,5.1,52.34,1.52,14.56-3,27.17-9.57,37.22-20.32,13.12-14.05,19.86-31.38,22.53-50.13C579.91,354.34,577.82,336.79,578.44,322.44ZM524.06,515.63c-2.88,4-.73,8.17-.76,12.09-.18,31.29,0,62.59-.23,93.87-.05,5.57,1.76,6.91,6.95,6.74,10.76-.36,21.54-.31,32.31-.07,5.38.11,7.49-1.51,7.41-7.31-.3-22.76-.15-45.52,0-68.27,0-2-1.39-5.65,2.62-5.56,3.18.08,3.66,3.15,3.33,5.54-1.28,9.25,3.24,16.87,6.48,24.88,1,2.52,2.42,3.25,5.18,2.45,10.51-3,21-6.2,31.66-8.57,4.73-1,5.82-3.21,5.7-7.48-.49-17.33-4.53-33.68-13.62-48.48-12.18-19.85-30.41-30.78-53.05-35-6-1.12-8.91.87-10.36,6.84-2.3,9.43-5.09,18.76-8.1,28-2.85,8.73-3.09,8.64-10.47,3.62C527.45,517.79,525.76,516.73,524.06,515.63Zm-57-1.11c-3.2,2.06-5.48,3-7.1,4.65-6,6-7.89,2.82-9.6-2.63-3.39-10.76-6.59-21.6-9.73-32.44-.74-2.53-1.45-5-4.67-4.3-4.33.91-8.81.78-13,2.8-2.51,1.21-3,2.46-3,5,.14,25.79.15,51.58.19,77.37,0,12-.11,24,.08,35.95.05,3-.81,7.08,2.84,8.52,3.17,1.25,2.91,3.32,3.09,5.74.23,3-1.16,5.48-2.16,8.13-.85,2.26-1.14,4.61,2.45,4.64,12.36.08,24.73.07,37.09.22,3.78.05,3.56-2.42,3.56-4.9q0-12.79,0-25.59Zm5.87-21.14c0,44.5,0,87.72-.06,130.93,0,3.43,1.51,3.93,4.4,3.9,11.16-.11,22.33-.29,33.49.08,4.69.16,5.62-1.37,5.6-5.78-.17-41.41-.1-82.82-.13-124.22,0-1.33.52-2.8-.93-4.33C501.58,503.32,487.6,503,472.9,493.38ZM305.7,616H233.8c-13,0-26,.16-39,0-5.36-.09-4.82,2.13-2.65,5.31,3.34,4.9,8.08,7,14,6.93,15.64-.1,31.28-.05,46.92-.05q74.94,0,149.89.06c5.67,0,10.38-1.51,14.06-5.78,1.31-1.51,2.81-3.52,2.05-5.42s-3.23-.95-4.91-.95Q359.93,616,305.7,616ZM515.94,465.71c0-4.27,0-8.53,0-12.8,0-2.33-.07-3.53-3.31-3.06a122.26,122.26,0,0,1-35.17.25c-3-.43-4.07-.37-4.33,3.13a126.78,126.78,0,0,0,.06,23.7c1,8.86,5.3,14.45,13.82,16.36,8.88,2,17.55,2.13,24.62-5.61C517.67,481.09,515.76,473.24,515.94,465.71ZM615.4,628.17c4.05,0,8.11,0,12.16,0,1.74,0,3.42-.06,2.91-2.53-3.12-14.81-6.32-29.6-9.34-44.42-.55-2.75-1.68-3.16-4.16-2.43-6.78,2-13.56,4-20.45,5.48-3.82.82-5,2.06-4.1,6.08,1.73,7.27,3,14.66,4.23,22C599.38,628.16,599.34,628.17,615.4,628.17ZM467,485.38c0-5.28-.2-10.56.07-15.82.21-4.33-1.06-6.36-5.79-6.11-5.26.28-15.1,8.56-15.64,13.79a6.75,6.75,0,0,0,.37,2.37c2.42,8.55,4.75,17.13,7.34,25.63,2.44,8,2.4,7.69,9.56,3.22,3.26-2,4.31-4.27,4.14-7.87C466.84,495.53,467,490.45,467,485.38Zm56.09.15h0c0,4.47.33,9-.09,13.4-.48,5.18,1.26,8.43,5.64,11.47s5.39,1.77,6.38-2.42c1.47-6.28,2.61-12.72,4.88-18.71,4.8-12.72,4.43-15.43-5.27-24.21-3-2.75-6.63-1.65-9.81-1.09-2.93.52-1.66,3.67-1.71,5.72C523,475,523.12,480.25,523.12,485.53Zm52.56,94.91c0,15.66,0,29.87,0,44.07,0,2,0,3.91,2.72,3.6,4.83-.57,9.9,1.57,14.46-1.31.34-.22.09-1.56-.07-2.35q-3.45-17-6.95-33.89c-.23-1.14-.14-3-1.69-2.69C578.94,589,578.75,584.15,575.68,580.44Zm9.18-235.13V360.5c0,1.72,0,3.21,2.63,2.65,6.58-1.38,12.85-10.08,12.74-18S594,329,587.62,327.67c-2.56-.54-2.75.61-2.75,2.46Q584.87,337.72,584.86,345.31Zm-180.55.38h0c0-4.85,0-9.71,0-14.56,0-3-.48-4.69-4.14-3a19.74,19.74,0,0,0-11.06,17.4,18.45,18.45,0,0,0,10.9,16.73c2.87,1.23,4.47,1.21,4.31-2.63C404.16,355,404.31,350.34,404.31,345.69Z"/><path class="cls-2" d="M118.43,102.44c19.71.08,39.42.22,59.14.24,39.84,0,79.69.32,119.53-.17,12.61-.16,20.48,9.15,20.41,20.22-.44,67.28-.23,134.56-.23,201.84,0,15.06-8.61,23.69-23.82,23.86-13.27.14-13.27.14-13.27,13.4,0,8.54,0,17.07,0,25.61,0,2.55.84,5.67-2.08,7.12-3.28,1.63-4.67-1.63-6.4-3.35-13-12.87-26-25.77-38.78-38.81a12.13,12.13,0,0,0-9.51-4.09c-65.66.14-131.32,0-197,.2-9.84,0-18-2.5-23.71-10.84A38.22,38.22,0,0,1,.05,322.83q.14-99.67.07-199.35c0-14.56,6.26-20.74,20.77-20.78Q69.66,102.6,118.43,102.44ZM6.54,161.33c-.09,54.87-.28,109.74-.16,164.6,0,10.76,6.68,16.17,17.89,16.17q100.61,0,201.22-.08a13.82,13.82,0,0,1,10.71,4.6c6.79,7,13.82,13.76,20.64,20.74,5.17,5.29,10.17,10.76,15.24,16.15l1.75-1V360.23c0-18.06,0-18.06,17.74-18.14,14.26-.07,19.55-5.3,19.55-19.47q0-77.43,0-154.87a46.51,46.51,0,0,0-.11-4.87c-.18-1.69-1.31-1.76-2.63-1.18,3.3.19,2.71-2.37,2.75-4.18.11-4.87-.39-9.79.08-14.62.51-5.37-1.75-6.24-6.56-6.23q-127.77.21-255.52.12c-12.81,0-25.62.1-38.42-.06-3.44,0-4.68,1-4.53,4.5C6.48,147.93,6.44,154.63,6.54,161.33Zm152.17-30.77q73.17,0,146.34,0c1.94,0,4.34,1,5.76-.89,3.85-5.06-1.26-18.37-7.72-19.88a42.2,42.2,0,0,0-9.67-.84q-136.29-.06-272.56,0c-10.8,0-14.31,4-14.72,15.41-.17,5,1.05,6.41,6.23,6.39C61.15,130.47,109.93,130.56,158.71,130.56Z"/><polygon class="cls-2" points="599 328.1 599.16 328 598.94 328.14 599 328.1"/><path class="cls-3" d="M305.1,609.63c-34.76,0-69.52-.06-104.28.08-3.5,0-4.51-1-4.5-4.43.11-38,0-76,.15-114,0-7,4.72-11.51,11.64-11.93,1.62-.1,3.25-.07,4.87-.07H396.54c13.31,0,17.24,3.83,17.24,16.88,0,35.77-.1,71.55.11,107.32,0,5-1.17,6.2-6.34,6.16-34.15-.32-68.3-.17-102.45-.17Zm-15.69-65.89a15.56,15.56,0,0,0,31.09,1.46c.32-8.83-6.59-16.33-15.17-16.48A15.57,15.57,0,0,0,289.41,543.74Z"/><path class="cls-4" d="M578.44,322.44c-.62,14.35,1.47,31.9-1,49.25-2.67,18.75-9.41,36.08-22.53,50.13-10,10.75-22.66,17.36-37.22,20.32-17.6,3.58-35.14,3.63-52.34-1.52-23.37-7-38.59-22.88-47.19-45.43-4.36-11.44-7.34-23.22-7.35-35.51,0-22.95-.06-45.91.5-68.85.42-17.12,9.2-25,26.32-26,11.14-.67,21.16,3.14,31.45,6.09,34.43,9.87,68.61,7.35,102.64-2,6.64-1.83,6.68-1.93,6.7,5.33C578.48,289.27,578.44,304.31,578.44,322.44Zm-83.85,63.18v0c-6.3,0-12.6,0-18.9,0-9.11,0-10.89,2.68-7.44,11.39C475,414.22,501,419.87,514.36,407c4.47-4.31,7.5-9.47,8-15.89.32-4-1.37-5.55-5.24-5.5C509.63,385.69,502.11,385.62,494.59,385.62Zm3.22-46.23h0c0-3.86,0-7.71,0-11.57,0-2.3-.76-4.23-3.33-4.06-2.15.15-2.81,2-2.81,4,0,4.87-.16,9.74.06,14.6.16,3.62-.43,6.12-4,8.25-5.39,3.17-6.81,9.68-4.43,15.52,1.85,4.57,8.88,8.05,14.24,7.13,1.71-.29,3.33-.74,3.35-2.79a3,3,0,0,0-2.92-3.28,28.86,28.86,0,0,1-4.17-.58c-2.64-.77-4.79-2-4.86-5.33s1.08-5.56,4.44-6.19c3.81-.72,4.78-3.1,4.54-6.62C497.64,345.48,497.81,342.43,497.81,339.39ZM533.07,311c-2.58.59-6.86-1.51-7,3.29-.09,4.19,4.1,3.19,6.56,3.35,6.31.42,12.4,1.36,18.07,4.37,1.71.91,3.88,2.42,5.3,0,1.6-2.76-.42-4.17-2.68-5.62C547.15,312.44,540.11,312.06,533.07,311Zm-66.43,3.5a3.37,3.37,0,0,0-2.38-3.33c-4.68-1.79-23.82,2.91-27.18,6.64-1.16,1.29-2,2.68-.86,4.33A2.69,2.69,0,0,0,440,323c7.14-4.55,15.27-5,23.32-5.75C465.08,317.11,466.4,316.35,466.64,314.54Zm-18.75,27.51c-.07,4.53.27,9.2,6.14,9.26,5.62.05,6.69-4.43,6.7-9s-.54-9.05-6.36-9.17S447.94,337.56,447.89,342.05Zm96.44.41c.08-7.26-3.29-11-8.29-9.08-3.33,1.27-4.26,4-4.12,7.34.15,3.77-.81,8,3.58,10.16C540.39,353.26,544.25,349.5,544.33,342.46Z"/><path class="cls-5" d="M524.06,515.63c1.7,1.1,3.39,2.16,5,3.27,7.38,5,7.62,5.11,10.47-3.62,3-9.23,5.8-18.56,8.1-28,1.45-6,4.38-8,10.36-6.84,22.64,4.23,40.87,15.16,53.05,35,9.09,14.8,13.13,31.15,13.62,48.48.12,4.27-1,6.44-5.7,7.48-10.66,2.37-21.15,5.53-31.66,8.57-2.76.8-4.16.07-5.18-2.45-3.24-8-7.76-15.63-6.48-24.88.33-2.39-.15-5.46-3.33-5.54-4-.09-2.6,3.53-2.62,5.56-.14,22.75-.29,45.51,0,68.27.08,5.8-2,7.42-7.41,7.31-10.77-.24-21.55-.29-32.31.07-5.19.17-7-1.17-6.95-6.74.27-31.28,0-62.58.23-93.87C523.33,523.8,521.18,519.67,524.06,515.63Z"/><path class="cls-5" d="M467,514.52v83.17q0,12.79,0,25.59c0,2.48.22,5-3.56,4.9-12.36-.15-24.73-.14-37.09-.22-3.59,0-3.3-2.38-2.45-4.64,1-2.65,2.39-5.12,2.16-8.13-.18-2.42.08-4.49-3.09-5.74-3.65-1.44-2.79-5.5-2.84-8.52-.19-12-.07-24-.08-35.95,0-25.79-.05-51.58-.19-77.37,0-2.55.52-3.8,3-5,4.21-2,8.69-1.89,13-2.8,3.22-.68,3.93,1.77,4.67,4.3,3.14,10.84,6.34,21.68,9.73,32.44,1.71,5.45,3.59,8.61,9.6,2.63C461.55,517.55,463.83,516.58,467,514.52Z"/><path class="cls-6" d="M472.9,493.38c14.7,9.59,28.68,9.94,42.37.58,1.45,1.53.93,3,.93,4.33,0,41.4,0,82.81.13,124.22,0,4.41-.91,5.94-5.6,5.78-11.16-.37-22.33-.19-33.49-.08-2.89,0-4.41-.47-4.4-3.9C472.93,581.1,472.9,537.88,472.9,493.38Z"/><path class="cls-3" d="M305.7,616q54.24,0,108.46.05c1.68,0,4.13-1,4.91.95s-.74,3.91-2.05,5.42c-3.68,4.27-8.39,5.8-14.06,5.78q-74.94-.16-149.89-.06c-15.64,0-31.28,0-46.92.05-5.92,0-10.66-2-14-6.93-2.17-3.18-2.71-5.4,2.65-5.31,13,.21,26,0,39,0Z"/><path class="cls-4" d="M515.94,465.71c-.18,7.53,1.73,15.38-4.3,22-7.07,7.74-15.74,7.59-24.62,5.61-8.52-1.91-12.81-7.5-13.82-16.36a126.78,126.78,0,0,1-.06-23.7c.26-3.5,1.35-3.56,4.33-3.13a122.26,122.26,0,0,0,35.17-.25c3.24-.47,3.34.73,3.31,3.06C515.9,457.18,515.94,461.44,515.94,465.71Z"/><path class="cls-4" d="M615.4,628.17c-16.06,0-16,0-18.75-15.8-1.28-7.36-2.5-14.75-4.23-22-.95-4,.28-5.26,4.1-6.08,6.89-1.47,13.67-3.51,20.45-5.48,2.48-.73,3.61-.32,4.16,2.43,3,14.82,6.22,29.61,9.34,44.42.51,2.47-1.17,2.54-2.91,2.53C623.51,628.15,619.45,628.17,615.4,628.17Z"/><path class="cls-5" d="M467,485.38c0,5.07-.18,10.15.06,15.21.17,3.6-.88,5.84-4.14,7.87-7.16,4.47-7.12,4.77-9.56-3.22-2.59-8.5-4.92-17.08-7.34-25.63a6.75,6.75,0,0,1-.37-2.37c.54-5.23,10.38-13.51,15.64-13.79,4.73-.25,6,1.78,5.79,6.11C466.83,474.82,467,480.1,467,485.38Z"/><path class="cls-5" d="M523.12,485.53c0-5.28-.09-10.56,0-15.84.05-2.05-1.22-5.2,1.71-5.72,3.18-.56,6.77-1.66,9.81,1.09,9.7,8.78,10.07,11.49,5.27,24.21-2.27,6-3.41,12.43-4.88,18.71-1,4.19-2.06,5.41-6.38,2.42s-6.12-6.29-5.64-11.47c.42-4.43.09-8.93.09-13.4Z"/><path class="cls-7" d="M575.68,580.44c3.07,3.71,3.26,8.54,8.46,7.43,1.55-.33,1.46,1.55,1.69,2.69q3.48,16.94,6.95,33.89c.16.79.41,2.13.07,2.35-4.56,2.88-9.63.74-14.46,1.31-2.69.31-2.73-1.65-2.72-3.6C575.69,610.31,575.68,596.1,575.68,580.44Z"/><path class="cls-4" d="M584.87,345.31V330.13c0-1.85.19-3,2.75-2.46,6.4,1.35,12.51,9.55,12.61,17.44s-6.16,16.66-12.74,18c-2.67.56-2.62-.93-2.63-2.65Q584.86,352.9,584.87,345.31Z"/><path class="cls-4" d="M404.31,345.69c0,4.65-.15,9.3.05,13.94.16,3.84-1.44,3.86-4.31,2.63a18.45,18.45,0,0,1-10.9-16.73,19.74,19.74,0,0,1,11.06-17.4c3.66-1.69,4.18,0,4.14,3-.05,4.85,0,9.71,0,14.56Z"/><path class="cls-6" d="M308.39,161.7c1.32-.58,2.45-.51,2.63,1.18a46.51,46.51,0,0,1,.11,4.87q0,77.44,0,154.87c0,14.17-5.29,19.4-19.55,19.47-17.74.08-17.74.08-17.74,18.14v22.26l-1.75,1c-5.07-5.39-10.07-10.86-15.24-16.15-6.82-7-13.85-13.75-20.64-20.74a13.82,13.82,0,0,0-10.71-4.6q-100.61.19-201.22.08c-11.21,0-17.86-5.41-17.89-16.17-.12-54.86.07-109.73.16-164.6l294.36,0-.11.39-.09-.4ZM159.3,205h43.91q22.56,0,45.13,0c1.78,0,3.92.31,4.08-2.4s-1.43-3.61-3.8-3.69c-1.42,0-2.85,0-4.27,0h-172l-4.27,0c-1.82,0-3.28.45-3.19,2.67a3.08,3.08,0,0,0,2.92,3.3,46.44,46.44,0,0,0,4.87.14ZM90.67,248.89c-6.08,0-12.17-.12-18.24,0a10.1,10.1,0,0,0-10.11,10.37c0,11.15,0,22.3,0,33.45,0,8.24,3.89,12.19,12.22,12.26,10.14.08,20.28,0,30.42,0,9.76,0,13.42-3.71,13.49-13.68.08-10.34,0-20.68,0-31,0-7.65-3.77-11.41-11.36-11.45C101.62,248.85,96.15,248.87,90.67,248.89Zm68.8,0H144.23c-9.93,0-13.53,3.5-13.61,13.46-.09,10.36-.05,20.72,0,31.08,0,7.25,3.9,11.43,11.11,11.55,11.37.19,22.75.21,34.13,0,6.87-.13,10.83-4.4,10.87-11.16q.09-17.07,0-34.13c0-6.74-4.06-10.72-10.83-10.77C170.44,248.84,165,248.87,159.47,248.87Zm95.6,27.46c0-5.68.05-11.37,0-17.06-.07-6.35-4.13-10.36-10.59-10.39q-16.46-.06-32.91,0c-8.26,0-12.22,3.29-12.49,11.43-.36,11.36-.26,22.75,0,34.12.13,6.49,3.81,10.33,10.19,10.48q17.66.42,35.35,0c6.75-.16,10.45-4.57,10.49-11.52C255.1,287.71,255.08,282,255.07,276.33Zm-94.75-51.87h3c9.32,0,18.65.07,28-.24,1.86-.07,4.89-.16,5-3.32s-2.62-2.56-4.44-2.69a430.84,430.84,0,0,0-66.63.12c-1.48.12-2.9.29-3.06,2.18-.19,2.19,1.21,2.55,3,2.89C136.85,225.64,148.62,223.78,160.32,224.46Z"/><path class="cls-8" d="M308.39,161.7l-7.69-.41h.2l-294.36,0c-.1-6.7-.06-13.4-.35-20.1-.15-3.47,1.09-4.54,4.53-4.5,12.8.16,25.61.06,38.42.06q127.75,0,255.52-.12c4.81,0,7.07.86,6.56,6.23-.47,4.83,0,9.75-.08,14.62C311.1,159.33,311.69,161.89,308.39,161.7Z"/><path class="cls-7" d="M158.71,130.56c-48.78,0-97.56-.09-146.34.13-5.18,0-6.4-1.38-6.23-6.39.41-11.4,3.92-15.41,14.72-15.41q136.27,0,272.56,0a42.2,42.2,0,0,1,9.67.84c6.46,1.51,11.57,14.82,7.72,19.88-1.42,1.87-3.82.89-5.76.89Q231.88,130.59,158.71,130.56ZM45.14,118.35c-1.92-1.74-3.45-5.41-5.94-5-2.86.42-6.37,3.27-5.68,6.66.48,2.31.85,7,4.67,6.63S43.59,122.24,45.14,118.35Zm-16.81,2c.32-4.29-2.13-5.57-5.62-5.61s-4.44,2-4.44,5.15c0,3.79,2.1,4.78,5.45,4.85S28.74,123.57,28.33,120.31Zm25.75,4.13c3.65-.08,5.66-1.27,5.44-4.71-.2-3.21-2.07-4.64-5.15-4.67s-4.23,1.68-4.31,4.6C50,122.9,51.23,124.66,54.08,124.44Z"/><path class="cls-2" d="M289.41,543.74a15.57,15.57,0,0,1,15.92-15c8.58.15,15.49,7.65,15.17,16.48a15.56,15.56,0,0,1-31.09-1.46ZM305,535.36a8.88,8.88,0,0,0-9.23,9.08,9.52,9.52,0,0,0,9.46,9.12c4.42,0,8.63-4.36,8.75-9C314.1,539.27,310.33,535.43,305,535.36Z"/><path class="cls-2" d="M494.59,385.62c7.52,0,15,.07,22.55,0,3.87-.05,5.56,1.52,5.24,5.5-.52,6.42-3.55,11.58-8,15.89-13.34,12.88-39.32,7.23-46.11-9.94-3.45-8.71-1.67-11.42,7.44-11.39,6.3,0,12.6,0,18.9,0Zm.64,6.11v0c-6.06,0-12.12.13-18.18,0-3.94-.12-3.9,1.48-2.49,4.35,1.1,2.24,2.91,2.46,5,2.45,5.66,0,11.32,0,17,0,4.65,0,9.31-.16,13.94,0,3.54.16,4.94-2.15,5.06-4.76.16-3.35-2.92-1.88-4.57-1.94C505.75,391.61,500.49,391.73,495.23,391.73Z"/><path class="cls-2" d="M497.81,339.39c0,3-.17,6.09,0,9.12.24,3.52-.73,5.9-4.54,6.62-3.36.63-4.51,2.87-4.44,6.19s2.22,4.56,4.86,5.33a28.86,28.86,0,0,0,4.17.58,3,3,0,0,1,2.92,3.28c0,2.05-1.64,2.5-3.35,2.79-5.36.92-12.39-2.56-14.24-7.13-2.38-5.84-1-12.35,4.43-15.52,3.62-2.13,4.21-4.63,4-8.25-.22-4.86-.06-9.73-.06-14.6,0-2,.66-3.89,2.81-4,2.57-.17,3.34,1.76,3.33,4.06,0,3.86,0,7.71,0,11.57Z"/><path class="cls-2" d="M533.07,311c7,1,14.08,1.4,20.29,5.37,2.26,1.45,4.28,2.86,2.68,5.62-1.42,2.44-3.59.93-5.3,0-5.67-3-11.76-3.95-18.07-4.37-2.46-.16-6.65.84-6.56-3.35C526.21,309.53,530.49,311.63,533.07,311Z"/><path class="cls-2" d="M466.64,314.54c-.24,1.81-1.56,2.57-3.32,2.75-8.05.79-16.18,1.2-23.32,5.75a2.69,2.69,0,0,1-3.78-.86c-1.17-1.65-.3-3,.86-4.33,3.36-3.73,22.5-8.43,27.18-6.64A3.37,3.37,0,0,1,466.64,314.54Z"/><path class="cls-2" d="M447.89,342.05c.05-4.49.59-9,6.48-8.89s6.38,4.73,6.36,9.17-1.08,9-6.7,9C448.16,351.25,447.82,346.58,447.89,342.05Z"/><path class="cls-2" d="M544.33,342.46c-.08,7-3.94,10.8-8.83,8.42-4.39-2.14-3.43-6.39-3.58-10.16-.14-3.31.79-6.07,4.12-7.34C541,331.48,544.41,335.2,544.33,342.46Z"/><path class="cls-3" d="M159.3,205H72.71a46.44,46.44,0,0,1-4.87-.14,3.08,3.08,0,0,1-2.92-3.3c-.09-2.22,1.37-2.67,3.19-2.67l4.27,0h172c1.42,0,2.85,0,4.27,0,2.37.08,3.94,1.1,3.8,3.69s-2.3,2.4-4.08,2.4q-22.58,0-45.13,0Z"/><path class="cls-3" d="M90.67,248.88c5.48,0,11,0,16.42,0,7.59,0,11.34,3.8,11.36,11.45,0,10.33.07,20.67,0,31-.07,10-3.73,13.65-13.49,13.68-10.14,0-20.28.07-30.42,0-8.33-.07-12.21-4-12.22-12.26,0-11.15,0-22.3,0-33.45a10.1,10.1,0,0,1,10.11-10.37C78.5,248.77,84.59,248.89,90.67,248.88Zm21.61,28.63c0-5.69-.12-11.38,0-17.06.12-3.91-1.49-5.51-5.39-5.47q-16.75.17-33.52,0c-3.71,0-5,1.71-5,5.22q.12,16.76,0,33.52c0,3.57,1.41,5.17,5.07,5.14,11.17-.09,22.35-.12,33.52,0,4,.05,5.41-1.71,5.29-5.53C112.15,288.08,112.27,282.79,112.28,277.51Z"/><path class="cls-3" d="M159.47,248.87c5.48,0,11,0,16.45,0,6.77.05,10.8,4,10.83,10.77q.08,17.07,0,34.13c0,6.76-4,11-10.87,11.16-11.38.23-22.76.21-34.13,0-7.21-.12-11.07-4.3-11.11-11.55-.07-10.36-.11-20.72,0-31.08.08-10,3.68-13.44,13.61-13.46Zm-.85,50c5.49,0,11-.12,16.46,0,3.8.11,5.61-1.26,5.57-5.27-.12-11.17-.1-22.35,0-33.52,0-3.61-1.47-5.12-5.1-5.09q-16.77.13-33.52,0c-3.49,0-5.29,1.2-5.26,4.95.1,11.38.07,22.75,0,34.13,0,3.32,1.45,4.82,4.78,4.78C147.24,298.78,152.93,298.83,158.62,298.83Z"/><path class="cls-3" d="M255.07,276.33c0,5.69,0,11.38,0,17.07,0,7-3.74,11.36-10.49,11.52q-17.67.4-35.35,0c-6.38-.15-10.06-4-10.19-10.48-.24-11.37-.34-22.76,0-34.12.27-8.14,4.23-11.4,12.49-11.43q16.45,0,32.91,0c6.46,0,10.52,4,10.59,10.39C255.12,265,255.07,270.65,255.07,276.33Zm-50,.62c0,5.49.12,11,0,16.46-.11,3.86,1.4,5.52,5.36,5.47,11.17-.12,22.35-.09,33.52,0,3.68,0,5-1.64,5-5.19q-.13-16.77,0-33.53c0-3.56-1.36-5.19-5-5.15q-16.77.13-33.53,0c-4,0-5.44,1.67-5.33,5.52C205.22,266,205.1,271.47,205.1,277Z"/><path class="cls-3" d="M160.32,224.46c-11.7-.68-23.47,1.18-35.14-1.06-1.79-.34-3.19-.7-3-2.89.16-1.89,1.58-2.06,3.06-2.18a430.84,430.84,0,0,1,66.63-.12c1.82.13,4.54-.5,4.44,2.69s-3.13,3.25-5,3.32c-9.31.31-18.64.2-28,.24Z"/><polygon class="cls-2" points="300.9 161.3 300.7 161.29 300.79 161.69 300.9 161.3"/><path class="cls-4" d="M45.14,118.35c-1.55,3.89-3,7.88-7,8.25S34,122.28,33.52,120c-.69-3.39,2.82-6.24,5.68-6.66C41.69,112.94,43.22,116.61,45.14,118.35Z"/><path class="cls-4" d="M28.33,120.31c.41,3.26-1.28,4.47-4.61,4.39s-5.46-1.06-5.45-4.85c0-3.11,1-5.2,4.44-5.15S28.65,116,28.33,120.31Z"/><path class="cls-8" d="M54.08,124.44c-2.85.22-4.1-1.54-4-4.78.08-2.92,1.24-4.62,4.31-4.6s5,1.46,5.15,4.67C59.74,123.17,57.73,124.36,54.08,124.44Z"/><path class="cls-6" d="M305,535.36c5.35.07,9.12,3.91,9,9.16-.12,4.68-4.33,9-8.75,9a9.52,9.52,0,0,1-9.46-9.12A8.88,8.88,0,0,1,305,535.36Z"/><path class="cls-7" d="M495.23,391.73c5.26,0,10.52-.12,15.76.07,1.65.06,4.73-1.41,4.57,1.94-.12,2.61-1.52,4.92-5.06,4.76-4.63-.2-9.29,0-13.94,0-5.65,0-11.31,0-17,0-2.12,0-3.93-.21-5-2.45-1.41-2.87-1.45-4.47,2.49-4.35,6.06.17,12.12,0,18.18,0Z"/><path class="cls-6" d="M112.28,277.51c0,5.28-.13,10.57,0,15.84.12,3.82-1.28,5.58-5.29,5.53-11.17-.13-22.35-.1-33.52,0-3.66,0-5.09-1.57-5.07-5.14q.12-16.75,0-33.52c0-3.51,1.27-5.25,5-5.22q16.75.13,33.52,0c3.9,0,5.51,1.56,5.39,5.47C112.16,266.13,112.28,271.82,112.28,277.51Zm-21.91,8.66c5.61-.14,9.64-4.3,9.33-9.6a9.34,9.34,0,0,0-9.42-9.1c-5.2.1-9.44,4.22-9.38,9.13C81,282.23,85,286.31,90.37,286.17Z"/><path class="cls-6" d="M158.62,298.83c-5.69,0-11.38-.05-17.06,0-3.33,0-4.8-1.46-4.78-4.78.05-11.38.08-22.75,0-34.13,0-3.75,1.77-5,5.26-4.95q16.75.12,33.52,0c3.63,0,5.13,1.48,5.1,5.09-.09,11.17-.11,22.35,0,33.52,0,4-1.77,5.38-5.57,5.27C169.6,298.71,164.11,298.83,158.62,298.83Zm0-12.35c5.3.12,9.39-3.88,9.74-9.53a9.34,9.34,0,0,0-8.72-9.81,9.91,9.91,0,0,0-10.44,9.47C149,281.54,153.57,286.36,158.61,286.48Z"/><path class="cls-6" d="M205.1,277c0-5.48.12-11,0-16.45-.11-3.85,1.37-5.56,5.33-5.52q16.77.18,33.53,0c3.68,0,5.06,1.59,5,5.15q-.14,16.77,0,33.53c0,3.55-1.33,5.22-5,5.19-11.17-.08-22.35-.11-33.52,0-4,.05-5.47-1.61-5.36-5.47C205.22,287.93,205.1,282.44,205.1,277Zm22.4-9.83c-4.77,0-10.33,5.3-10.16,9.64.19,4.93,5.11,9.78,10,9.86s9.56-4.57,9.49-9.31C236.75,271.81,232.44,267.1,227.5,267.12Z"/><path class="cls-5" d="M90.37,286.17c-5.37.14-9.4-3.94-9.47-9.57-.06-4.91,4.18-9,9.38-9.13a9.34,9.34,0,0,1,9.42,9.1C100,281.87,96,286,90.37,286.17Z"/><path class="cls-4" d="M158.61,286.48c-5-.12-9.64-4.94-9.42-9.87a9.91,9.91,0,0,1,10.44-9.47,9.34,9.34,0,0,1,8.72,9.81C168,282.6,163.91,286.6,158.61,286.48Z"/><path class="cls-3" d="M227.5,267.12c4.94,0,9.25,4.69,9.33,10.19.07,4.74-4.66,9.38-9.49,9.31s-9.81-4.93-10-9.86C217.17,272.42,222.73,267.15,227.5,267.12Z"/></g></g></svg>