<svg xmlns="http://www.w3.org/2000/svg" width="508" height="432.632" viewBox="0 0 508 432.632">
  <g id="Group_531" data-name="Group 531" transform="translate(-400 -745)">
    <path id="Path_549" data-name="Path 549" d="M2586,7167.318a252.988,252.988,0,0,1-65.29,170h-377.42a252.988,252.988,0,0,1-65.29-170c0-140.28,113.72-254,254-254S2586,7027.038,2586,7167.318Z" transform="translate(-1677.995 -6168.317)" fill="#eeeec9"/>
    <g id="Group_379" data-name="Group 379" transform="translate(-1677.995 -6168.317)">
      <path id="Path_551" data-name="Path 551" d="M2326.243,7111.826c-6.9-1.874-13.794-3.761-20.7-5.617-3.446-.927-4.6-2.352-2.494-5.982,26.257-45.193,63.278-73.443,117.4-74.641,20.873-.462,41.6,1.19,61.533,7.918,13.5,4.559,26.189,10.677,33.293,24.216.743,1.416,1.958,1.907,3.31,2.469,20.975,8.712,30.146,26.019,34.035,47.073,2.407,13.032,1.924,26.095.007,39.142-11.833-2.078-21.871,1.424-30.351,9.769-3.051,1.326-4.184,5.309-7.9,5.709l-1.817-1.132a1.27,1.27,0,0,0-1.092-.314c-.415-3.118-3.35-3.1-5.33-4.081-14.613-7.267-26.183-17.606-32.054-33.112-1.861-4.915-4.231-6.192-9.256-6.15C2418.557,7117.479,2372.262,7118.16,2326.243,7111.826Z" fill="#383837"/>
      <path id="Path_552" data-name="Path 552" d="M2326.243,7111.826c46.019,6.334,92.314,5.653,138.584,5.267,5.025-.042,7.4,1.235,9.256,6.15,5.871,15.506,17.441,25.845,32.054,33.112,1.98.985,4.915.963,5.33,4.081-5.892.423-11.967-2.406-17.067-1.993-15.273,1.239-30.514-.379-45.675.886-7.056.589-15.622-2.424-20.475,6.094-3.1-.355-4.1-10.469-9.109-1.957-13.128,5.085-26.757,2.462-40.191,2.408a5.659,5.659,0,0,1-5.817-4.25c-.97-3.188-1.913-3-5.1-.809-3.325,2.44-5.307,6.822-10.17,7.04-4.869-4.764-10.2-3.478-15.916-1.727-2.834.868-6.143.182-9.237.2-5.683.04-11.416-.5-16.932,1.472a120.289,120.289,0,0,1,9.478-51.869A25.663,25.663,0,0,0,2326.243,7111.826Z" fill="#fbb998"/>
      <path id="Path_553" data-name="Path 553" d="M2368.031,7160.815c3.189-2.19,4.132-2.379,5.1.809a5.659,5.659,0,0,0,5.817,4.25c13.434.054,27.063,2.677,40.191-2.408,9.348,13.331,22.657,20.2,38.213,23.352,1.773.359,4.276,1.138,4.746-1.418.462-2.509-.707-4.183-3.933-4.612-3.944-.524-7.745-2.125-11.608-3.26.615-3.119,2.8-2.8,4.972-2.152a99.375,99.375,0,0,0,29.917,3.941c23.648-.24,47.3-.114,70.951-.033a29.186,29.186,0,0,0,9.821-1.445c-2.767,17.29-12.77,26.8-27.122,25.9a22.21,22.21,0,0,1-9.443-2.857c-5.238-2.919-6.141-.29-5.991,4.174-.664-.245-1.9-.467-1.911-.738-.3-7.612-5.764-6.447-10.656-6.441-24.645.031-49.291,0-73.936.019q-58.042.056-116.085.157c-2.68-9.987-1.7-20.13-1.3-30.249,5.513-1.966,11.246-1.431,16.929-1.471,3.094-.021,6.4.665,9.237-.2,5.718-1.751,11.047-3.037,15.916,1.727a31.336,31.336,0,0,1-17.679,8.648c-3.033.392-6.926,1.622-6.2,5.224.779,3.849,6.138,2.831,7.756,2.118,9.48-4.175,19.259-8,26.932-15.491C2371.861,7165.242,2372.273,7162.992,2368.031,7160.815Z" fill="#fbc198"/>
      <path id="Path_554" data-name="Path 554" d="M2317.076,7198.051q58.043-.081,116.085-.157c24.645-.024,49.291.012,73.936-.019,4.892-.006,10.356-1.171,10.656,6.441.01.271,1.247.493,1.911.738q-2.769,7.9-5.54,15.793c-8.9,1.6-17.893,1.474-26.89,1.449-21.853-.063-43.708.124-65.559-.127-5.193-.06-9.289.6-11.176,6.034l.1-.094a2.759,2.759,0,0,0-1.377-2.956q-2.049-5.8-4.1-11.608c1.91-2.579,2.171-4.882-1.652-5.483-2.16-.34-5.6-1-5.987,1.866-.372,2.721,2.97,2.111,4.909,2.5q-2.219,7.1-4.438,14.193c-2.942-5.191-4.741,1.058-7.441.774-17.337-1.825-34.752-.594-52.132-.658-4.133-.015-8.3-3.126-12.427-.087C2320.964,7217.747,2319.024,7207.9,2317.076,7198.051Z" fill="#fcc798"/>
      <path id="Path_555" data-name="Path 555" d="M2453.5,7308.368q.376-2.073.755-4.146a5.8,5.8,0,0,0,.829-4.489l1.253-5.725q.5-2.179,1-4.36a14.311,14.311,0,0,0,.069-7.262c.825-1.3,2.222-1.407,3.535-1.69l14.288,3.2a.733.733,0,0,0,1.007.274c1.287,1.33,2.955,1.388,4.639,1.391l-.064-.042a2.93,2.93,0,0,0,3.008,1.119l12.78,4.554a3.183,3.183,0,0,0,3.012,1.315.458.458,0,0,0,.72.293l2.137,1.017a235.4,235.4,0,0,1,29.661,17.206l6.282,5.271a1.1,1.1,0,0,0,.649.558q5.4,5.721,10.8,11.443l1.231,1.617,1.695,2.479c7.2,13.189,7.2,13.189-8.028,13.189-30.474,0-60.949.049-91.423-.1-2.3-.012-6.073,2.142-6.688-2.676l.864-2.921q.27-2.052.539-4.106.138-.667.274-1.336.394-1.586.789-3.172l.176-1.4q.25-1.373.5-2.744c1.11-1.317,1.085-2.863.9-4.442a36.858,36.858,0,0,0,2.114-11.844Q2453.155,7309.6,2453.5,7308.368Z" fill="#24446f"/>
      <path id="Path_556" data-name="Path 556" d="M2460.947,7280.7c-1.313.283-2.71.388-3.535,1.691-16.173,6.129-32.982,8.049-50.152,7.57l-3.683-.251c-11.272-2.77-22.5-5.637-32.741-11.4-6.059-3.41-11.716-7.281-16.26-12.617q.81-1.441,1.62-2.883a200.856,200.856,0,0,1,37.12-7.62c8.881,10.741,12.59,11.01,20.219,1.463,17.069-.509,33.555,4.72,50.595,4.883-16.493-4.775-33.239-7.8-50.475-7.75l-.019-9.989c2.541,3.219,5.829,4.181,9.931,4.446,6.974.452,13.616-1.747,20.532-1.643,17.084.257,34.187-.374,51.223,1.5h0a2.971,2.971,0,0,0,1.469,2.887c-6.859,10.961-18.314,16.973-27.439,25.5A23.847,23.847,0,0,0,2460.947,7280.7Z" fill="#fbd399"/>
      <path id="Path_557" data-name="Path 557" d="M2403.577,7289.706l3.684.251q.369,1.914.737,3.827c-.138,2.089-.177,4.161,1.064,6l.416,4.274.578,2.463q1.938,17.319,3.875,34.638c-2.735,3.224-8.361-.8-10.407,4.154l-71.7,0c-.145-.908-.292-1.96-1.439-1.959s-1.294,1.053-1.44,1.96l-2.859.1-.752-1.7-.691,1.758-2.86.015a3.045,3.045,0,0,0-2.187-2.969q.5-2.367.992-4.735l2.749-5q5.79-6.067,11.58-12.135,2.109-1.61,4.22-3.216c18.145-11.6,37.923-19.437,58.522-25.392C2399.685,7291.448,2401.606,7290.491,2403.577,7289.706Z" fill="#24446f"/>
      <path id="Path_558" data-name="Path 558" d="M2562.22,7177.839a29.186,29.186,0,0,1-9.821,1.445c-23.651-.081-47.3-.207-70.951.033a99.375,99.375,0,0,1-29.917-3.941c-2.169-.653-4.357-.967-4.972,2.152-6.85-2.9-13.224-6.53-18.309-12.1,4.853-8.518,13.419-5.5,20.475-6.094,15.161-1.265,30.4.353,45.675-.886,5.1-.413,11.175,2.416,17.067,1.993a1.27,1.27,0,0,1,1.092.314l1.817,1.132c3.72-.4,4.853-4.383,7.9-5.709,8.42,4.788,17.062,5.364,26.327,2.355,4.076-1.324,9.713-3.435,10.147,4.7.088,1.642,2.089,1.579,3.505,1.655A47.144,47.144,0,0,1,2562.22,7177.839Z" fill="#fcbf99"/>
      <path id="Path_559" data-name="Path 559" d="M2495.322,7248.1c-17.036-1.877-34.139-1.246-51.223-1.5-6.916-.1-13.558,2.1-20.532,1.643-4.1-.265-7.39-1.227-9.931-4.446a3.99,3.99,0,0,1-.173-1.381c2.189-1.812,1.015-2.5-.975-2.917-.7-3.755-2.337-7.346-1.991-11.286,1.889-5.439,5.985-6.1,11.178-6.036,21.851.251,43.706.064,65.559.127,9,.025,17.986.155,26.89-1.449-2.4,10.345-8.924,18.51-14.374,27.245a2.96,2.96,0,0,0-.333,1.088l-2.626,1.8a2.971,2.971,0,0,1-1.469-2.887c1.836-.2,3.168-.961,2.382-3.027a2.412,2.412,0,0,0-2.2-.91C2493.126,7245.23,2495.038,7246.744,2495.322,7248.1Z" fill="#fccb98"/>
      <path id="Path_560" data-name="Path 560" d="M2356.2,7262.805l-1.62,2.88c-9.983-6.269-16.087-15.992-22.253-25.54-2.675-4.142-4.277-8.977-6.367-13.5,4.125-3.038,8.293.073,12.426.088,17.38.064,34.795-1.167,52.132.658,2.7.284,4.5-5.965,7.44-.774-1.147,8.739-4.589,17.067-4.649,26-4.112-1.264-7.557,1.99-11.463,1.754-8.545-.515-16.311,2.378-24.1,5.219C2356.342,7260.106,2355.176,7261,2356.2,7262.805Z" fill="#fbcd98"/>
      <path id="Path_561" data-name="Path 561" d="M2425.784,7316.678q-.438-.588-.877-1.177l-1.109-1.7.087.079c-.134-1.963-2.316-3.312-1.656-5.514l1.591-.9,3.113-1.956,1.281-.592c5.828-1.472,10.925,1.4,11.87,6.674l-.284.459q-1.545,2.46-3.095,4.917a.521.521,0,0,0-.424.705c-1.958,1.937-1.453,3.8.176,5.621.161.455.321.91.492,1.366-.029.768-.07,1.535-.11,2.3l2.01,8.843c.367,2.2.086,4.578,1.689,6.46-.323,1.261.274,3.094-1.83,3.286-1.416.129-2.851.035-4.278.046-11.942.1-11.942.1-10.7-11.129a5.631,5.631,0,0,0,1.154-4.577,21.345,21.345,0,0,0,1.774-8.585C2428.344,7319.385,2427.019,7318.04,2425.784,7316.678Z" fill="#294770"/>
      <path id="Path_562" data-name="Path 562" d="M2408,7293.784q-.369-1.915-.737-3.827c17.169.479,33.978-1.441,50.151-7.57a14.307,14.307,0,0,1-.069,7.261c-1.741-.135-3.229.252-4.07,1.974a1.066,1.066,0,0,0-1.107.467c-2.03.155-4.127.117-5.609,1.9-3.67.742-6.8,2.693-10.028,4.443a14.845,14.845,0,0,1-8.528,1.1c-1.142-1.276-2.67-1.3-4.208-1.293l-1.495-.826q-2.087-.359-4.174-.715A28.3,28.3,0,0,0,2408,7293.784Z" fill="#ebb780"/>
      <path id="Path_563" data-name="Path 563" d="M2562.259,7164.881c-1.416-.076-3.417-.013-3.505-1.655-.434-8.133-6.071-6.022-10.147-4.7-9.265,3.009-17.907,2.433-26.327-2.355,8.48-8.345,18.518-11.847,30.351-9.769C2557.053,7151.932,2561.72,7157.33,2562.259,7164.881Z" fill="#fbb998"/>
      <path id="Path_564" data-name="Path 564" d="M2453.315,7308.828a8.942,8.942,0,0,1-.32,3.49c-1.09,1.68-11.29.31-12.91-.73-.95-5.28-6.04-8.15-11.87-6.68l-.21-5.37a16.523,16.523,0,0,0,8.99-1.22c-.2,4.81,13.45-5.52,15-2a2.972,2.972,0,0,1,.13.43,28.005,28.005,0,0,0-.13-4.43c.84-1.72,3.61-2.8,5.35-2.67-.29,1.25-3.05,14.53-4.03,19.17Z" fill="#f6f7f7"/>
      <path id="Path_565" data-name="Path 565" d="M2549.87,7328.293q-5.4-5.722-10.8-11.443C2545.036,7316.592,2549.158,7320.958,2549.87,7328.293Z" fill="#f6f7f7"/>
      <path id="Path_566" data-name="Path 566" d="M2408,7293.784c3.524.452,16.836,3.814,20,5.534-3.02,1.029-12.979,15.969-16,17C2410.754,7314.473,2407.86,7295.873,2408,7293.784Z" fill="#f6f7f7"/>
      <path id="Path_567" data-name="Path 567" d="M2403.524,7345.318c2.046-4.951,7.672-.93,10.407-4.154a8.108,8.108,0,0,1,.91.232q.135,1.406.271,2.813C2411.481,7347,2407.408,7345.175,2403.524,7345.318Z" fill="#294770"/>
      <path id="Path_568" data-name="Path 568" d="M2538.417,7316.292l-6.282-5.271q.238-1.338.477-2.677l0,0C2535.7,7310.153,2539.6,7311.363,2538.417,7316.292Z" fill="#f6f7f7"/>
      <path id="Path_569" data-name="Path 569" d="M2422.229,7308.363c-.66,2.2,5.632,8.991,5.766,10.955-2.182-.118-16.371,4.537-17,1C2410.436,7317.176,2419.954,7308.347,2422.229,7308.363Z" fill="#f6f7f7"/>
      <path id="Path_570" data-name="Path 570" d="M2437,7298.318c1.482-1.782,13.141-6.074,15.171-6.229-.041,1.554.692,3.5-1.263,4.3C2448.681,7297.305,2437.932,7300.058,2437,7298.318Z" fill="#f6f7f7"/>
      <path id="Path_571" data-name="Path 571" d="M2425.784,7316.678c1.235,1.362-2.1,21.727-3.789,23.64C2418.375,7339.4,2422.774,7318.839,2425.784,7316.678Z" fill="#f6f7f7"/>
      <path id="Path_572" data-name="Path 572" d="M2436.705,7316.96q1.548-2.459,3.095-4.917C2441.649,7315.5,2440.354,7316.968,2436.705,7316.96Z" fill="#f6f7f7"/>
      <path id="Path_573" data-name="Path 573" d="M2450.7,7322.682c.187,1.579.212,3.125-.9,4.442Q2445.829,7324.008,2450.7,7322.682Z" fill="#f6f7f7"/>
      <path id="Path_574" data-name="Path 574" d="M2440.538,7342.257c-1.6-1.882-1.322-4.256-1.689-6.46C2445.013,7336.485,2439.482,7340.232,2440.538,7342.257Z" fill="#f6f7f7"/>
      <path id="Path_575" data-name="Path 575" d="M2455.087,7299.733a5.8,5.8,0,0,1-.829,4.489C2451.442,7302.154,2451.7,7300.654,2455.087,7299.733Z" fill="#f6f7f7"/>
      <path id="Path_576" data-name="Path 576" d="M2480.881,7285.559c-1.684,0-3.352-.061-4.639-1.391C2478.087,7283.633,2480.534,7281.1,2480.881,7285.559Z" fill="#f6f7f7"/>
      <path id="Path_577" data-name="Path 577" d="M2426.932,7305.5l-3.112,1.956c-.092-1.427-.185-3,1.4-3.6C2426.438,7303.4,2426.615,7304.671,2426.932,7305.5Z" fill="#f6f7f7"/>
      <path id="Path_578" data-name="Path 578" d="M2328.943,7345.317c.146-.907.294-1.959,1.44-1.96s1.294,1.051,1.439,1.959Z" fill="#294770"/>
      <path id="Path_579" data-name="Path 579" d="M2447.521,7339.883l-.864,2.921C2444.485,7341.1,2445.535,7340.355,2447.521,7339.883Z" fill="#f6f7f7"/>
      <path id="Path_580" data-name="Path 580" d="M2415.112,7344.209q-.135-1.407-.271-2.813c1.057.15,2.483.017,2.317,1.58C2417.107,7343.454,2415.828,7343.8,2415.112,7344.209Z" fill="#f6f7f7"/>
      <path id="Path_581" data-name="Path 581" d="M2319.594,7342.514a3.045,3.045,0,0,1,2.187,2.969C2318.9,7346.08,2318.008,7345.209,2319.594,7342.514Z" fill="#294770"/>
      <path id="Path_582" data-name="Path 582" d="M2436.457,7323.286c-1.629-1.824-2.134-3.684-.176-5.621Q2436.37,7320.475,2436.457,7323.286Z" fill="#f6f7f7"/>
      <path id="Path_583" data-name="Path 583" d="M2424.879,7329.883a5.631,5.631,0,0,1-1.154,4.577C2423.6,7332.805,2423.3,7331.107,2424.879,7329.883Z" fill="#f6f7f7"/>
      <path id="Path_584" data-name="Path 584" d="M2499.617,7292.5a3.183,3.183,0,0,1-3.012-1.315A2.935,2.935,0,0,1,2499.617,7292.5Z" fill="#f6f7f7"/>
      <path id="Path_585" data-name="Path 585" d="M2483.825,7286.636a2.93,2.93,0,0,1-3.008-1.119A2.857,2.857,0,0,1,2483.825,7286.636Z" fill="#f6f7f7"/>
      <path id="Path_586" data-name="Path 586" d="M2552.8,7332.389l-1.695-2.479A2.572,2.572,0,0,1,2552.8,7332.389Z" fill="#f6f7f7"/>
      <path id="Path_587" data-name="Path 587" d="M2324.641,7345.468l.691-1.758.752,1.7Z" fill="#294770"/>
      <path id="Path_588" data-name="Path 588" d="M2410.056,7306.526l-.578-2.463A2.054,2.054,0,0,1,2410.056,7306.526Z" fill="#f6f7f7"/>
      <path id="Path_589" data-name="Path 589" d="M2453.5,7308.368q-.346,1.234-.69,2.47Q2453.159,7309.607,2453.5,7308.368Z" fill="#f6f7f7"/>
      <path id="Path_590" data-name="Path 590" d="M2422.3,7297.414l1.495.826Q2423.047,7297.826,2422.3,7297.414Z" fill="#f6f7f7"/>
      <path id="Path_591" data-name="Path 591" d="M2532.612,7308.344l-.6-.331.6.329Z" fill="#f6f7f7"/>
      <path id="Path_592" data-name="Path 592" d="M2423.8,7313.8q.553.853,1.109,1.7Z" fill="#f6f7f7"/>
      <path id="Path_593" data-name="Path 593" d="M2436.839,7326.954c.04-.767.081-1.534.11-2.3A1.535,1.535,0,0,1,2436.839,7326.954Z" fill="#f6f7f7"/>
      <path id="Path_594" data-name="Path 594" d="M2449.3,7329.868l-.176,1.4a5.693,5.693,0,0,1-.332-1.046C2448.778,7330.129,2449.12,7329.988,2449.3,7329.868Z" fill="#f6f7f7"/>
      <path id="Path_595" data-name="Path 595" d="M2448.334,7334.441q-.137.668-.274,1.336A1.988,1.988,0,0,1,2448.334,7334.441Z" fill="#f6f7f7"/>
      <path id="Path_596" data-name="Path 596" d="M2502.474,7293.815l-2.137-1.017Z" fill="#f6f7f7"/>
      <path id="Path_597" data-name="Path 597" d="M2514.376,7161.882l-1.817-1.132Z" fill="#fbb998"/>
      <path id="Path_598" data-name="Path 598" d="M2428.25,7165.423c5.085,5.575,11.459,9.2,18.309,12.1,3.863,1.135,7.664,2.736,11.608,3.26,3.226.429,4.4,2.1,3.933,4.612-.47,2.556-2.973,1.777-4.746,1.418-15.556-3.151-28.865-10.021-38.213-23.352C2424.145,7154.954,2425.15,7165.068,2428.25,7165.423Z" fill="#443d39"/>
      <path id="Path_599" data-name="Path 599" d="M2368.031,7160.815c4.242,2.177,3.83,4.427.641,7.539-7.673,7.489-17.452,11.316-26.932,15.491-1.618.713-6.977,1.731-7.756-2.118-.728-3.6,3.165-4.832,6.2-5.224a31.336,31.336,0,0,0,17.679-8.648C2362.724,7167.637,2364.706,7163.255,2368.031,7160.815Z" fill="#443d39"/>
      <path id="Path_600" data-name="Path 600" d="M2393.3,7252.621c.06-8.934,3.5-17.262,4.649-26q2.22-7.1,4.438-14.194c1.615-1.352,2.509-.937,2.731,1.119q2.049,5.8,4.1,11.608a3.117,3.117,0,0,0,1.376,2.956l-.1.094c-.348,3.942,1.285,7.533,1.987,11.288a2.585,2.585,0,0,0,.977,2.917,3.99,3.99,0,0,0,.173,1.381q.009,5,.018,9.99-.06,1.434-.119,2.866c-7.629,9.547-11.338,9.278-20.219-1.462Q2393.312,7253.9,2393.3,7252.621Z" fill="#7edfa0"/>
      <path id="Path_601" data-name="Path 601" d="M2405.123,7213.545c-.222-2.056-1.116-2.471-2.731-1.119-1.938-.387-5.28.223-4.908-2.5.391-2.865,3.827-2.206,5.987-1.866C2407.294,7208.663,2407.033,7210.966,2405.123,7213.545Z" fill="#ebb780"/>
      <path id="Path_602" data-name="Path 602" d="M2410.6,7228.109a3.117,3.117,0,0,1-1.376-2.956A2.76,2.76,0,0,1,2410.6,7228.109Z" fill="#fccb98"/>
      <path id="Path_603" data-name="Path 603" d="M2413.535,7256.645q.059-1.433.119-2.866c17.237-.056,33.983,2.974,50.476,7.749C2447.09,7261.365,2430.6,7256.136,2413.535,7256.645Z" fill="#d7776c"/>
      <path id="Path_604" data-name="Path 604" d="M2393.3,7252.621q.006,1.281.011,2.562a200.773,200.773,0,0,0-37.12,7.619c-1.02-1.8.146-2.7,1.548-3.208,7.787-2.841,15.553-5.734,24.1-5.219C2385.748,7254.611,2389.193,7251.357,2393.3,7252.621Z" fill="#d7776c"/>
      <path id="Path_605" data-name="Path 605" d="M2495.322,7248.1c-.284-1.351-2.2-2.865.183-3.937a2.412,2.412,0,0,1,2.2.91c.786,2.066-.546,2.824-2.382,3.027Z" fill="#fbd399"/>
      <path id="Path_606" data-name="Path 606" d="M2413.463,7242.408a2.585,2.585,0,0,1-.977-2.917C2414.478,7239.907,2415.652,7240.6,2413.463,7242.408Z" fill="#fbd399"/>
    </g>
  </g>
</svg>
