<svg xmlns="http://www.w3.org/2000/svg" viewBox="0 0 80 80"><defs><style>.cls-1{fill:#b2b2b2;}</style></defs><g id="Layer_2" data-name="Layer 2"><g id="Layer_1-2" data-name="Layer 1"><path class="cls-1" d="M40,9A31,31,0,1,1,9,40,31,31,0,0,1,40,9m0-9A40,40,0,1,0,80,40,40,40,0,0,0,40,0Z"/><path class="cls-1" d="M24.22,30.75a1,1,0,0,0,.58.94L37,37.11l-8.4,9.5-3.72-1.4a1.17,1.17,0,0,0-.84,0L21,47.05a.87.87,0,0,0-.46.72,1,1,0,0,0,.26.83L32.18,60.09a1,1,0,0,0,.83.27,1,1,0,0,0,.74-.46l1.88-3a1,1,0,0,0,.11-.87l-1.36-3.74,9.55-8.27,5.33,12.4a1,1,0,0,0,.93.59l4.53-.29a1.06,1.06,0,0,0,.73-.37.92.92,0,0,0,.25-.8L52.43,37,58.1,29.5a4.54,4.54,0,0,0,.45-5.94,4.83,4.83,0,0,0-3.27-1.79A4.47,4.47,0,0,0,51.85,23L44.2,28.68,25.63,25.27a.79.79,0,0,0-.77.21.88.88,0,0,0-.42.68Z"/></g></g></svg>