<svg xmlns="http://www.w3.org/2000/svg" width="1037.395" height="874.385" viewBox="0 0 1037.395 874.385">
  <g id="Group_454" data-name="Group 454" transform="translate(-229.321 -605.04)">
    <circle id="Ellipse_320" data-name="Ellipse 320" cx="287.192" cy="287.192" r="287.192" transform="translate(542.331 755.04)" fill="#f3f3f3"/>
    <g id="Group_234" data-name="Group 234" transform="translate(-7256 -9475)">
      <path id="Path_215" data-name="Path 215" d="M8167.934,10833.306c-.473-1.781-2.215-1.4-3.379-1.851-19.79-7.663-25.1-33.5-9.555-47.912,3.046-2.823,3.774-4.982,1.794-8.428-1.033-1.8-1.523-3.907-2.571-5.691-1.223-2.081-.657-2.953,1.4-3.958,2.409-1.176,2.743.521,3.376,1.9a65.924,65.924,0,0,1,3,7.089c.781,2.406,1.646,3.089,4.439,2.383,3.432-.868,3.5-2.164,2.173-4.832-1-2-1.616-4.19-2.433-6.284-.648-1.661-.811-2.892,1.389-3.69,2.411-.876,3.208.083,3.592,2.191.113.622.477,1.194.641,1.813,1.555,5.833,3.85,9.97,11.181,10.761,7.021.759,12.5,5.746,16.236,11.89,1.519,2.5,2.887,3.384,5.651,2.107,2.175-1,4.612-1.429,6.807-2.4,1.9-.836,2.845-.56,3.631,1.458.82,2.105.014,3.177-1.831,3.427-8,1.088-10.359,4.9-10.071,13.426.389,11.533-6.9,19.582-17.363,24.486-1.242.583-3.276-.037-3.614,2.116Zm7.1-2.675a26.28,26.28,0,1,0-26.469-26.312A26.323,26.323,0,0,0,8175.038,10830.631Z" fill="#161717"/>
      <path id="Path_216" data-name="Path 216" d="M7485.321,10322.827c1.4-.353,1.327-1.7,1.707-2.668,5.655-14.443,19.744-22.824,34.036-20.2,15.13,2.775,25.927,15.448,25.935,30.438.008,15.042-10.578,27.458-25.917,30.355-1.914.362-3.958.337-3.6,3.275.246,2.025-1.391,1.713-2.64,1.77-1.507.068-2.53-.384-2.41-2.147.107-1.578-.173-2.635-2.132-3.053-12.68-2.707-20.623-10.516-24.222-22.891-.053-.183-.5-.252-.757-.374Zm30.835-20.507a28.133,28.133,0,1,0,28.161,28.26A27.98,27.98,0,0,0,7516.156,10302.32Z" fill="#161717"/>
      <path id="Path_217" data-name="Path 217" d="M8193.113,10356.362c-6.559,3.612-13.527,2.921-19.989,1.735-8.865-1.626-15.459.316-21.727,6.977-7.033,7.474-15.383,13.691-22.762,20.865-3.355,3.261-6.541,3.149-10.642,1.9,3.668-4.974,7.239-9.642,10.615-14.447,3.45-4.909,5.565-10.454,7.33-16.165.907-2.937-.052-4-2.974-4.306a115.615,115.615,0,0,1-11.911-1.86,6.641,6.641,0,0,0-6.551,1.764c-2.219,2.088-4.845,3.743-7.068,5.828-2.141,2.007-4.332,2.371-6.562,1.4-1.093-5.873,9.49-7.753,4.461-14.787,6-5.481-2.252-9.907-.5-15.454,2.288-.611,4.793-.153,6.025,2.878,3.739,9.2,11.1,11.442,20.207,11.568,7.7.107,7.73.571,6.656-7.343-1.415-10.426-4.915-20.245-9.135-30.1,4.779-.952,7.817.3,10.377,4.545,6.8,11.282,14.2,22.2,21.141,33.4a8.074,8.074,0,0,0,6.5,4.076c6.209.822,12.389,1.892,18.552,3.021A13.06,13.06,0,0,1,8193.113,10356.362Z" fill="#0a0d0d"/>
      <path id="Path_218" data-name="Path 218" d="M7637.217,10562.552c-5.021-.168-6.759-2.807-7.926-6.8-3.152-10.788-6.827-21.422-10.073-32.183-1-3.308-2.455-5.467-5.943-6.693-4.828-1.7-9.4-4.143-14.058-6.3a13.16,13.16,0,0,1-6.357-5.781c3.052-1.74,6.077-.9,8.89.137,4.514,1.663,9.137,3.288,13.25,5.716,4.034,2.382,7.122,1.815,10.947-.388,9.467-5.453,19.25-10.354,28.773-15.714,3.612-2.034,6.9-3.5,10.5.191-1.342,1.951-3.806,3.133-5.9,4.7-6.646,4.952-12.5,10.579-16.56,17.941-1.115,2.02-1.167,2.962,1.2,3.878,3.889,1.5,7.683,3.275,11.437,5.1a4.3,4.3,0,0,0,4.1-.025c2.757-1.308,5.643-2.357,8.338-3.775,2.43-1.278,4.5-1.256,6.736.865a66.763,66.763,0,0,0-5.95,5.571c-1.205,1.416-5.165,2.08-2.074,5.274-5.21,3.368-1.34,8.429-2.325,12.587-.15.633-.137,1.409-.947,1.294-1.6-.226-3.2-.639-3.852-2.4-1.054-2.863-2.11-5.728-3.053-8.627-.782-2.4-1.844-4.04-4.7-4.7a49.735,49.735,0,0,1-10.346-3.908c-2.794-1.351-3.66-.372-4.144,2.236a85.993,85.993,0,0,0-.2,27.871C7637.138,10559.857,7637.13,10561.13,7637.217,10562.552Z" fill="#0a0d0d"/>
      <path id="Path_219" data-name="Path 219" d="M8411,10304.97c-10.682-.91-18.274,3.431-22.627,13.4-1.6-2.324-3.521-3.764-2.085-6.079,5.61-9.042.93-16.151-4.009-23.448-1.728-2.551-2.715-2.216-4.642-.543-7.9,6.867-13.463,15.491-18.706,24.785-3.066-2.83-4.073-5.514-2.457-9.627,4.229-10.754,7.873-21.736,11.96-32.548a6.951,6.951,0,0,0-.458-6.714c-2.769-4.7-5.2-9.6-7.747-14.424a15.211,15.211,0,0,1-1.587-8.19,11.554,11.554,0,0,1,6.108,4.181c1.719,2.122,3.781,4.167,4.8,6.617,3.967,9.493,11.147,13.393,21.128,14.2,7.494.6,14.872,2.623,22.312,3.96,5.517.991,5.523.954,8.238,6.661-2.981,0-5.744.058-8.5-.011a53.9,53.9,0,0,0-23.1,4.078c-2,.861-2.4,1.721-1.11,3.458a10.155,10.155,0,0,1,1.4,2.526c2.8,7.675,7.745,12.51,16.354,12.841C8408.723,10300.187,8410.5,10301.513,8411,10304.97Z" fill="#0a0d0d"/>
      <path id="Path_220" data-name="Path 220" d="M8079.36,10482.174c2.56.468,3.861-1.464,5.119-3.006,6.179-7.572,14.562-10.7,23.819-12.184,7.506-1.2,16.979,3.193,18.552,8.616,1.839,6.343-.9,15.957-6.647,18.8-16.478,8.143-33.786,13.664-52.443,13.759Q8073.561,10495.167,8079.36,10482.174Z" fill="#f3f3f3"/>
      <path id="Path_221" data-name="Path 221" d="M7684.483,10291.5c9.078-.286,12.421,4.92,14.85,12.4,4.164,12.819,9.462,25.267,14.031,37.962a7.9,7.9,0,0,0,5.466,5.3c6.362,2.235,12.586,4.864,18.866,7.334a19.6,19.6,0,0,1,7.471,5.174c.943,1.045,2.313,2.011,1.608,3.677-.66,1.562-2.245,1.669-3.69,1.814a22.359,22.359,0,0,1-7.69-.2c-3.59-.884-7.544-1.072-10.71-2.753-10.732-5.7-19.816-2.956-29.164,3.573-7.749,5.411-16.737,9.052-24.477,14.474-6.543,4.582-12.183,4.146-18.439-.036,5.5-4.437,11.2-8.632,16.25-13.6a68.377,68.377,0,0,0,12.128-16.145c1.166-2.138,1.2-3.245-1.45-4.117-4.574-1.5-9.068-3.283-13.5-5.168a4.681,4.681,0,0,0-4.491.3c-2.687,1.454-5.6,2.551-8.111,4.252-4.569,3.1-8.882,2.857-14.387-.921,3.359-2.906,6.6-5.564,9.66-8.42,1.557-1.454,4.316-2.859,1.419-5.605a1.067,1.067,0,0,1,.238-1.683c5.5-2,2.476-6.239,2.582-9.637a13.992,13.992,0,0,1-.18-2.4c.452-2.013-1.781-5.575.7-5.74,2.614-.173,7.047.2,7.808,4.2,2.279,11.984,10.581,16.569,21.412,19.015,3.882.876,4.459.141,4.9-3.42,1.554-12.673-.18-25.046-2.69-37.392C7684.738,10293,7684.616,10292.244,7684.483,10291.5Zm-39.98,52.636c3.123,1.647,4.486.558,5.894-.148,3.736-1.872,7.476-3.741,11.164-5.706a4.612,4.612,0,0,1,4.485-.215c5.464,2.338,11.006,4.522,16.628,6.444,2.828.968,3.385,2.016,2.067,4.8a68.354,68.354,0,0,1-16.848,22.108c-3.069,2.717-6.209,5.354-9.326,8.033,2.808,2.226,5.115,1.632,7.749.089,13.321-7.8,26.771-15.382,40.1-23.177a7.3,7.3,0,0,1,6.717-.77c6.39,2.161,12.893,4.008,19.4,5.783,3.295.9,6.69,1.83,10.348.588-1.634-3.007-4.409-4.081-7.007-5.149-6.537-2.691-13.119-5.3-19.8-7.6a6.935,6.935,0,0,1-4.749-4.76c-5.417-14.778-11.091-29.463-16.52-44.237-1.126-3.062-2.625-5.065-6.163-4.776-.555,1.251.094,2.459.281,3.709,1.484,9.878,2.9,19.759,1.719,29.795-1.253,10.651-1.064,9.872-11.256,7.585-10.644-2.388-17.861-7.247-20.064-18.336-.336-1.7-1.114-3.471-4.559-2.808C7659.838,10327.557,7655.5,10336.989,7644.5,10344.141Z" fill="#161717"/>
      <path id="Path_222" data-name="Path 222" d="M7832.6,10734.755a17.929,17.929,0,0,1-17.963-15.056c-1.573-8.46,3.178-17.309,11.6-19.773,4.144-1.212,5.479-3.506,6.422-7.086.425-1.613.134-4.584,3.746-3.276,3.055,1.1,1.854,2.9,1.1,4.524-1.563,3.38-1.1,5.6,2.913,6.406a3.941,3.941,0,0,1,2.061,1.2c3.378,3.891,6.643,4.729,10.072.03,1.087-1.488,2.115-.754,3.02.461.869,1.166,2.094,2.162.2,3.51-1.176.835-2.181,1.906-3.333,2.78-1.926,1.463-2.644,2.957-2.173,5.686C7852.12,10724.9,7843.528,10734.69,7832.6,10734.755Z" fill="#0a0d0d"/>
      <path id="Path_223" data-name="Path 223" d="M8055.965,10625.548c-4.869,5.335-9.8,10.363-13.53,16.333-2.46,3.941-6.682,9.066-5.021,12.408,1.813,3.647,8.576,2.807,13.173,3.692,3.563.685,5.9-2.868,8.379-4.93,3.477-2.893,6.9-3.636,11.632-1.6-7.9,8.457-10.472,18.043-5.239,28.829-5.365.939-8.772-.8-10.23-5.132-3.254-9.674-11.9-8.043-19.086-9.377-2.668-.5-1.5,1.994-1.481,3.031.147,9.609,2.9,18.672,6.106,27.621.428,1.194.938,2.359,1.489,3.736-6.026.537-10.2-.775-13.15-6.729-4.906-9.917-10.948-19.267-16.294-28.975a7.535,7.535,0,0,0-5.844-4.2c-5.526-1.006-11.024-2.233-16.455-3.67-3.05-.806-7.456-2.083-6.94-5.415.533-3.442,5.241-3.095,8.276-2.957a151.786,151.786,0,0,1,17.731,1.9,7.362,7.362,0,0,0,6.547-1.786c8.425-6.975,17.267-13.483,25.319-20.857C8046.066,10623.149,8050.432,10623.21,8055.965,10625.548Zm-68.626,26.371c6.786,3.9,14.349,4.66,21.681,6.106a6.681,6.681,0,0,1,5.132,3.621c6.128,10.923,12.4,21.767,18.566,32.67,1.018,1.8,2.356,3.741,4.355,2.669,1.619-.869-.105-2.791-.533-4.178-2.573-8.316-4.65-16.715-4.779-25.49-.049-3.353.328-5.666,4.833-4.33a42.514,42.514,0,0,0,11.4,1.795c3.267.043,4.744,1.514,6.313,4.01,1.892,3.012,3.106,6.62,7.138,8.81-4.692-9.357-2.732-17.394,4.157-24.814a67.929,67.929,0,0,0-10.635,6.629c-1.265.9-2.327,2.064-4.282,1.578q-7.242-1.8-14.589-3.174c-2.317-.436-2.763-1.263-2.087-3.563a56.82,56.82,0,0,1,11.5-20.959c1.722-2.029,3.439-4.062,5.218-6.163-2.819-1.581-4.332-.149-5.983,1.2-7.591,6.215-15.557,12.017-22.747,18.661-5.422,5.009-10.715,6.833-18.073,5.036C7998.659,10650.748,7992.927,10649.711,7987.339,10651.919Z" fill="#161717"/>
      <path id="Path_224" data-name="Path 224" d="M8132.976,10143.944a26.143,26.143,0,0,1-3.724-.031c-1.948-.308-1.117-2.017-1.3-3.121-.331-1.994,1.22-2.064,2.487-1.857,4.99.814,7.386-1.408,9.682-5.9,3.445-6.741,9.914-9.389,17.49-8.515,7.434.856,13.106,5.044,14.648,12.088,1.208,5.521,3.929,6.339,8.415,6.724,1.415.121,4.743-1.01,4.106,2.877-.306,1.867-.763,3.063-2.974,2.451-.927-.256-1.894-.362-2.839-.558-3.6-.744-6.175-.715-8.342,3.568-3.414,6.749-9.868,9.547-17.426,8.636s-12.913-5.23-14.973-12.5C8137.233,10144.3,8135.788,10143.364,8132.976,10143.944Zm30.278-1.375a7.893,7.893,0,1,0-7.959,7.945A7.975,7.975,0,0,0,8163.254,10142.569Z" fill="#0a0d0d"/>
      <path id="Path_225" data-name="Path 225" d="M8079.36,10482.174q-5.8,12.993-11.6,25.986c-1.082.411-1.326-.384-1.679-1.116-6.346-13.139-12.629-26.321-16.7-40.381-3.36-11.605,1.543-22.85,11.315-26.567a16.629,16.629,0,0,1,17.6,3c6.282,5.318,8.554,12.309,7.133,20.344C8084.28,10469.939,8081.475,10475.957,8079.36,10482.174Zm-12.316,15.187c5.312-12.06,10.778-23.141,13.449-35.266,1.615-7.331-2.935-15.229-9.6-17.466-6.129-2.057-12.842,1.075-15.907,7.463-2.127,4.433-1.983,8.948-.609,13.586C8057.529,10476.31,8062.085,10486.365,8067.044,10497.36Z" fill="#0a0d0d"/>
      <path id="Path_226" data-name="Path 226" d="M8387.295,10150.288c-5.821-1.3-6.691,1.129-6.43,5.28.323,5.132.2,10.3.017,15.451-.1,2.75.859,3.608,3.575,3.561,7.889-.142,15.783-.1,23.672.021,1.162.018,3.44-1.032,3.318,1.392-.109,2.177-2.254,1.26-3.5,1.273-7.407.087-14.822.22-22.221-.039-3.676-.129-4.971.769-4.891,4.737.27,13.361.146,26.731.038,40.1-.012,1.521,1.224,4.3-1.225,4.4-2.727.114-1.446-2.729-1.458-4.218-.1-13.366-.245-26.736.045-40.1.091-4.176-1.228-5.112-5.133-4.937-7.072.318-14.169.16-21.254.037-1.371-.024-3.923,1.11-3.946-1.2-.027-2.7,2.694-1.418,4.14-1.45,6.922-.153,13.871-.412,20.767.042,4.715.312,5.7-1.486,5.4-5.677a85.522,85.522,0,0,1,.016-13.514c.381-4.375-.988-6.338-6.416-5.243l7.445-15.424Z" fill="#161717"/>
      <path id="Path_227" data-name="Path 227" d="M7912.174,10433.106a18.4,18.4,0,0,1-12.851-4.654c-1.717-1.535-2.79-1.493-4.3.218-1.7,1.921-3.782,3.5-5.577,5.343-1.44,1.48-2.42,2.074-4.165.09-1.623-1.845-.839-2.688.519-3.812.743-.615,1.373-1.372,2.143-1.947,4.184-3.124,6.576-6.262,4.547-12.318-1.965-5.865.166-11.976,4.724-16.387,2.484-2.4,2.98-4.48,1.87-7.513-.768-2.1-1.047-4.37-1.649-6.536-.537-1.935,0-2.765,2.061-3.323,2.381-.644,2.791.553,3.125,2.273.122.632.2,1.275.37,1.894.626,2.313.652,5.205,2.1,6.757,1.37,1.462,4.091-.389,6.251-.374,3.76.023,7.627.37,10.579,2.707,2.458,1.945,3.779.823,5.552-.573,2.653-2.09,5.435-4.017,8.094-6.1,1.537-1.2,2.5-1.323,3.815.519,1.295,1.813,1.057,2.729-.717,3.728a27.389,27.389,0,0,0-2.764,1.941c-2.324,1.723-5.4,3.016-6.736,5.319-1.315,2.272,1.734,4.622,2.436,7.147A20.21,20.21,0,0,1,7912.174,10433.106Zm-.255-2.629a17.576,17.576,0,0,0,17.78-17.18c.278-9.569-7.92-17.884-17.628-17.878a17.843,17.843,0,0,0-17.553,17.491A17.631,17.631,0,0,0,7911.919,10430.478Z" fill="#161717"/>
      <path id="Path_228" data-name="Path 228" d="M8442.669,10577.236c7.878,2.738,11.29,8.221,8.9,14.3a10.481,10.481,0,0,1-20.124-5.633c.176-.945.421-1.877.633-2.815q1.589-1.963,3.181-3.924l2.426-1.143Q8440.177,10577.628,8442.669,10577.236Z" fill="#e92528"/>
      <path id="Path_229" data-name="Path 229" d="M8409.208,10501.705c.645-3.829,1.106-6.35,1.483-8.883.258-1.735.592-3.05,2.944-2.65s2.841,1.36,2.222,3.6a28.4,28.4,0,0,0-1.28,7.56c.018,4.4-3.761,4.928-6.251,6.765-1.189.878-1.666-.368-2.141-1.123-1.872-2.98-3.615-6.046-5.575-8.967-1.038-1.548-.937-2.4.684-3.448,1.691-1.094,2.737-1.2,3.786.756C8406.1,10497.215,8407.414,10498.96,8409.208,10501.705Z" fill="#161717"/>
      <path id="Path_230" data-name="Path 230" d="M8415.316,10389.705c1.4-1.581-3.346-5.5,1.906-5.966s2.425,4,3.17,6.178c.658,1.919.412,4.13.749,6.183.322,1.959-.611,2.486-2.318,2.716-1.737.233-2.808-.1-2.933-2.062C8415.748,10394.515,8415.53,10392.28,8415.316,10389.705Z" fill="#161717"/>
      <path id="Path_231" data-name="Path 231" d="M8162.152,10721.72c-.618,1.458,1.9,4.22-2,4.546-1.952.164-2.964-.056-3.036-2.318-.106-3.344-.4-6.688-.81-10.008-.266-2.173.646-2.711,2.616-2.815,1.89-.1,2.5.493,2.535,2.377C8161.509,10716.206,8161.9,10718.9,8162.152,10721.72Z" fill="#161717"/>
      <path id="Path_232" data-name="Path 232" d="M7702.826,10538.234c-1.612.387-1.87-.747-2.021-2.2-.163-1.572-.258-2.874,1.848-3.142,3.351-.427,6.723-.819,10.013-1.556,2.1-.471,2.684.085,3.191,2.113.6,2.383-.453,2.761-2.308,3.03C7710.048,10536.986,7706.563,10537.615,7702.826,10538.234Z" fill="#161717"/>
      <path id="Path_233" data-name="Path 233" d="M7568.664,10322.791a30.816,30.816,0,0,0,3.851-.032c2.091-.215,1.868,1.2,1.938,2.446s.406,2.6-1.664,2.665c-3.682.117-7.368.3-11.035.646-2.134.2-2.242-1.056-2.5-2.573-.326-1.889.352-2.664,2.221-2.716C7563.553,10323.172,7565.63,10322.983,7568.664,10322.791Z" fill="#161717"/>
      <path id="Path_234" data-name="Path 234" d="M8313.083,10549c-1.606,0-3.224-.121-4.816.029-2.267.213-2.114-1.273-2.213-2.743s.045-2.436,1.947-2.449c3.692-.027,7.383-.281,11.075-.437,1.5-.063,2.513.313,2.265,2.166-.212,1.588.019,3.345-2.471,3.215-1.924-.1-3.857-.021-5.787-.021Z" fill="#161717"/>
      <path id="Path_235" data-name="Path 235" d="M8418.106,10369.929c.327,1.387-.192,2.166-1.668,2.171-1.319,0-3.047.981-3.462-1.312-.687-3.8-1.278-7.614-2-11.405-.4-2.11,1.232-1.768,2.331-2.179,1.441-.538,2.577-.453,2.889,1.3C8416.864,10362.309,8417.472,10366.121,8418.106,10369.929Z" fill="#161717"/>
      <path id="Path_236" data-name="Path 236" d="M8224.144,10152.734c4.164,1.313,8.309,2.469,12.331,3.954,1.936.714.188,2.163.1,3.262-.122,1.5-1.087,1.762-2.382,1.355-3.64-1.143-7.264-2.34-10.93-3.386-1.934-.551-1.394-1.8-1.063-3C8222.48,10153.9,8222.642,10152.658,8224.144,10152.734Z" fill="#161717"/>
      <path id="Path_237" data-name="Path 237" d="M7894.467,10360.825c.249-1.929-.884-4.128,2.409-4.334,3.529-.22,2.852,2.111,2.982,4.054.182,2.707.163,5.434.484,8.123.241,2.014-.357,2.83-2.4,3.146-2.359.365-2.662-.778-2.757-2.648C7895.041,10366.3,7894.7,10363.445,7894.467,10360.825Z" fill="#161717"/>
      <path id="Path_238" data-name="Path 238" d="M7975.776,10649.54c1.242-.334,1.806.518,2.122,2.307.385,2.177-.384,2.825-2.394,3.021-3.339.326-6.67.789-9.979,1.346-1.89.318-2.54-.334-2.721-2.182-.16-1.644-.144-2.809,1.874-3.042C7968.172,10650.585,7971.655,10650.084,7975.776,10649.54Z" fill="#161717"/>
      <path id="Path_239" data-name="Path 239" d="M8292.859,10545.248c1.705-.346,2.345.535,2.53,2.063.177,1.45.592,2.788-1.672,3.122-3.647.538-7.276,1.271-10.859,2.144-2.033.5-2.073-.881-2.426-2.055-.372-1.246-.824-2.628,1.085-3.024C8285.291,10546.713,8289.078,10545.994,8292.859,10545.248Z" fill="#161717"/>
      <path id="Path_240" data-name="Path 240" d="M8344.062,10550.717c-3.045-.353-6.216-.811-9.4-1.06-2.247-.176-2.891-1.046-2.653-3.356.273-2.67,1.9-2.054,3.394-1.881,3.177.367,6.332.936,9.513,1.243,2.2.214,2.44,1.249,2.141,3.2S8345.955,10551.364,8344.062,10550.717Z" fill="#161717"/>
      <path id="Path_241" data-name="Path 241" d="M7951.516,10656.718c.509,1.7-.424,2.142-1.63,2.436-3.4.824-6.823,1.557-10.162,2.572-1.832.559-2.484.16-3.018-1.667-.56-1.909-.362-2.965,1.7-3.438,3.254-.746,6.546-1.405,9.709-2.444C7950.978,10653.237,7951.447,10654.708,7951.516,10656.718Z" fill="#161717"/>
      <path id="Path_242" data-name="Path 242" d="M7854.36,10517.71c.284,1.423-1.158,1.411-2.452,1.53-1.257.115-2.6.527-2.9-1.462-.577-3.808-1.265-7.6-1.923-11.395-.359-2.07,1.288-1.723,2.412-2.082,1.454-.464,2.51-.313,2.807,1.433C7852.95,10509.532,7853.606,10513.328,7854.36,10517.71Z" fill="#161717"/>
      <path id="Path_243" data-name="Path 243" d="M7902.252,10304.926c1.735.653,4.343.076,3.183,3.441a55.847,55.847,0,0,0-2.2,9.366c-.321,2.011-.887,2.683-3.064,2.384-2.361-.324-2.468-1.44-2.031-3.274.781-3.277,1.415-6.594,2.263-9.854C7900.635,10306.088,7900.64,10304.539,7902.252,10304.926Z" fill="#161717"/>
      <path id="Path_244" data-name="Path 244" d="M7843.335,10478.237c2.042-.689,2.317.467,2.627,1.568.954,3.393,1.894,6.787,2.863,10.175.486,1.7.113,2.654-1.827,3.069-1.959.419-2.865.121-3.3-2.045a64.487,64.487,0,0,0-2.619-9.236C7840.048,10478.925,7841.648,10478.422,7843.335,10478.237Z" fill="#161717"/>
      <path id="Path_245" data-name="Path 245" d="M8053.036,10158.243c-1.354.2-.934-1.62-1.507-2.6-.744-1.271-.479-2.131.923-2.577,3.674-1.169,7.375-2.257,11.022-3.5,1.837-.629,2.273.493,2.652,1.781.307,1.042.975,2.43-.473,2.937C8061.711,10155.659,8057.688,10156.8,8053.036,10158.243Z" fill="#161717"/>
      <path id="Path_246" data-name="Path 246" d="M8419.469,10468.408c-.358,2.769-.752,5.449-1.039,8.14-.168,1.572-.307,2.788-2.515,2.364-1.752-.336-3.029-.5-2.582-2.841.507-2.655.628-5.381,1.05-8.056.3-1.9-.8-4.733,3.2-4.211S8418.721,10466.974,8419.469,10468.408Z" fill="#0a0d0d"/>
      <path id="Path_247" data-name="Path 247" d="M7851.453,10592.085c.1-1.755.291-3.511.259-5.264-.035-1.952.452-2.92,2.728-2.719,2.235.2,2.559,1.3,2.4,3.17-.256,3.023-.391,6.058-.531,9.09-.09,1.945-.409,3.289-3,3.114-2.77-.186-2.519-1.751-2.283-3.583C7851.188,10594.627,7851.309,10593.354,7851.453,10592.085Z" fill="#161717"/>
      <path id="Path_248" data-name="Path 248" d="M8412.967,10343.5c.515,1.944-.931,2.1-2.156,2.418-1.5.387-2.687.551-3.119-1.6-.687-3.419-1.656-6.788-2.646-10.138-.527-1.784-.084-2.575,1.771-2.987,1.5-.333,2.668-.942,3.188,1.263C8410.879,10336.169,8411.968,10339.826,8412.967,10343.5Z" fill="#161717"/>
      <path id="Path_249" data-name="Path 249" d="M8026.5,10356.019c-2.352.767-2.482-.587-2.744-1.91-.256-1.292-.714-2.631,1.155-3.028,3.769-.8,7.56-1.5,11.324-2.329,1.861-.408,2.172.617,2.343,2.077.146,1.244.871,2.559-1.172,2.955C8033.625,10354.517,8029.856,10355.328,8026.5,10356.019Z" fill="#161717"/>
      <path id="Path_250" data-name="Path 250" d="M8284.132,10182.18c-3.991-2.07-8.168-4.058-12.122-6.418-.994-.593.426-1.937.792-2.9.349-.912.968-1.644,2.2-1.02,3.7,1.874,7.427,3.68,11.116,5.566,1.2.615.779,1.553.224,2.4C8285.763,10180.689,8285.664,10182,8284.132,10182.18Z" fill="#161717"/>
      <path id="Path_251" data-name="Path 251" d="M8214.011,10588.217a28.662,28.662,0,0,1-2.535-2.74c-.791-1.1.26-1.753.944-2.322,2.815-2.337,5.714-4.573,8.506-6.937,1.307-1.105,2.2-.857,3.037.47.7,1.114,2.271,2.035.341,3.518-3.024,2.322-5.934,4.795-8.9,7.188A12.492,12.492,0,0,1,8214.011,10588.217Z" fill="#161717"/>
      <path id="Path_252" data-name="Path 252" d="M7854.689,10612.82c-.586,4.106-1.134,7.6-1.565,11.106-.211,1.712-.685,2.606-2.722,2.179-1.868-.393-2.84-.937-2.435-3.113.616-3.313,1.048-6.667,1.4-10.021.2-1.934,1.11-2.325,2.874-2.1C7853.881,10611.074,7855.23,10611.252,7854.689,10612.82Z" fill="#161717"/>
      <path id="Path_253" data-name="Path 253" d="M8237.7,10364.221c3.61,1.285,7.734,2.558,11.68,4.247,1.719.736.082,2.2-.119,3.326-.27,1.513-1.213,1.666-2.478,1.212-3.6-1.29-7.188-2.592-10.8-3.824-1.468-.5-1.631-1.456-.972-2.582C8235.561,10365.651,8235.193,10363.764,8237.7,10364.221Z" fill="#161717"/>
      <path id="Path_254" data-name="Path 254" d="M8089.723,10143.2c1.2-.327,1.514.927,1.712,2.288.184,1.258.608,2.616-1.293,3-3.773.768-7.552,1.512-11.307,2.361-2.024.459-1.933-1.094-2.342-2.213-.493-1.349-.65-2.46,1.272-2.84C8081.539,10145.049,8085.288,10144.169,8089.723,10143.2Z" fill="#161717"/>
      <path id="Path_255" data-name="Path 255" d="M7963.224,10377.36a1.5,1.5,0,0,1-.831,1.666c-3.5,1.889-7,3.788-10.472,5.727-1.778.992-2.026-.5-2.757-1.481-1.131-1.515-.935-2.51.746-3.384,3.1-1.613,6.235-3.2,9.225-5C7962.5,10372.849,7962.14,10376.224,7963.224,10377.36Z" fill="#161717"/>
      <path id="Path_256" data-name="Path 256" d="M7516.438,10377.238c1.9-.485,2.336.6,2.548,2.045.513,3.5.948,7.013,1.66,10.471.447,2.171-.729,2.382-2.305,2.678-1.8.336-2.711-.179-2.966-2.063-.451-3.343-.857-6.71-1.628-9.986C7513.111,10377.674,7514.664,10377.413,7516.438,10377.238Z" fill="#161717"/>
      <path id="Path_257" data-name="Path 257" d="M7856.881,10541.238c0,.192.026,1.633-.006,3.071-.045,2.008-1.644,1.554-2.816,1.7-1.23.152-2.193-.061-2.3-1.646-.238-3.674-.5-7.349-.88-11.009-.2-1.89.508-2.553,2.344-2.663,1.693-.1,2.759.145,2.871,2.126C7856.232,10535.209,7856.532,10537.595,7856.881,10541.238Z" fill="#161717"/>
      <path id="Path_258" data-name="Path 258" d="M8081.077,10674.129c-1.147,1.021-1.011,4.36-4.224,2.239-2.782-1.835-5.7-3.476-8.626-5.078-1.42-.779-2.455-1.348-1.256-3.209.922-1.431,1.441-2.827,3.548-1.489,3.082,1.959,6.305,3.7,9.431,5.588C8080.554,10672.546,8081.46,10672.885,8081.077,10674.129Z" fill="#161717"/>
      <path id="Path_259" data-name="Path 259" d="M7728.7,10532.723c-1.855.431-2.211-.863-2.533-2.159-.313-1.262-.737-2.421,1.219-2.944,3.56-.954,7.08-2.083,10.557-3.308,2.153-.758,2.338.616,2.887,2.044.555,1.444.616,2.381-1.109,2.9C7736.033,10530.37,7732.371,10531.563,7728.7,10532.723Z" fill="#161717"/>
      <path id="Path_260" data-name="Path 260" d="M8208.232,10153.892c-3.43-.752-6.7-1.564-10.018-2.16-1.751-.314-2.6-.916-2.171-2.838.393-1.754.774-2.981,3.134-2.31,3.389.965,6.87,1.617,10.335,2.287,2.067.4,2.057,1.53,1.536,3.163C8210.558,10153.575,8210.067,10154.837,8208.232,10153.892Z" fill="#161717"/>
      <path id="Path_261" data-name="Path 261" d="M8162.035,10688.3c-.239,3.367-.562,6.551-.654,9.741-.052,1.819-.58,2.56-2.531,2.427-1.978-.135-2.871-.74-2.637-2.881.346-3.172.536-6.366.66-9.555.083-2.123.683-3.07,3.126-2.828C8162.5,10685.456,8162.279,10686.834,8162.035,10688.3Z" fill="#161717"/>
      <path id="Path_262" data-name="Path 262" d="M7778.228,10513.05c-1.7,0-1.717-1.39-2.295-2.243-.7-1.028-1.032-1.98.423-2.732q5.313-2.747,10.582-5.581c1.56-.843,2.009.316,2.441,1.312.386.888,1.856,1.959.416,2.822C7785.967,10508.922,7782,10510.979,7778.228,10513.05Z" fill="#161717"/>
      <path id="Path_263" data-name="Path 263" d="M8224.414,10361.535c-.419,1.922-.474,4.015-3.528,2.969-3.03-1.038-6.172-1.772-9.294-2.521-1.773-.426-2.776-.869-2.252-3.175.509-2.241,1.5-2.511,3.358-1.972,3.238.939,6.488,1.837,9.742,2.722C8223.519,10359.852,8224.754,10359.926,8224.414,10361.535Z" fill="#161717"/>
      <path id="Path_264" data-name="Path 264" d="M7922.659,10256.992c.88,1.222,4.417.787,2.417,4.11-1.725,2.866-3.325,5.814-4.835,8.8-.893,1.762-1.708,2.208-3.676,1.216-2.039-1.027-1.981-1.974-1-3.643,1.7-2.883,3.222-5.868,4.9-8.764C7920.9,10257.969,7921.14,10256.825,7922.659,10256.992Z" fill="#161717"/>
      <path id="Path_265" data-name="Path 265" d="M8012.823,10357.951c.69,1.752-.819,1.761-1.763,2.072-3.317,1.094-6.687,2.032-9.986,3.177-1.821.631-2.562-.07-3.151-1.7-.7-1.934-.2-2.894,1.806-3.426a85.44,85.44,0,0,0,9.564-2.951C8012.453,10353.876,8012.213,10356.316,8012.823,10357.951Z" fill="#161717"/>
      <path id="Path_266" data-name="Path 266" d="M7914.154,10282.5c-1.652,4.255-3.127,8.448-4.929,12.5-.662,1.486-1.939-.041-2.924-.176-1.306-.18-2.033-.869-1.481-2.312,1.419-3.707,2.825-7.418,4.259-11.118.549-1.419,1.608-1.4,2.695-.737C7912.643,10281.182,7914.06,10281.121,7914.154,10282.5Z" fill="#161717"/>
      <path id="Path_267" data-name="Path 267" d="M8251.5,10774.335c-1.729-.4-1.91-1.867-2.653-2.831-.882-1.144-.047-1.637.812-2.189,2.96-1.907,5.974-3.745,8.811-5.824,1.7-1.249,2.56-1.046,3.787.674,1.326,1.857.741,2.651-.894,3.671C8257.979,10769.943,8254.7,10772.211,8251.5,10774.335Z" fill="#161717"/>
      <path id="Path_268" data-name="Path 268" d="M8138.093,10730.11c-.273,1.772-1.749,2.021-2.665,2.839-1.113.994-1.688.108-2.249-.658-2.265-3.1-4.5-6.217-6.764-9.315-.636-.869-.977-1.69.209-2.343,1.048-.576,2.184-2.533,3.168-1.405C8132.821,10722.7,8135.426,10726.547,8138.093,10730.11Z" fill="#161717"/>
      <path id="Path_269" data-name="Path 269" d="M8112.032,10140.045c2.587.016,4.888-1.3,5.155,2.354.264,3.6-2.3,2.347-3.85,2.614-2.852.492-5.762.637-8.624,1.078-1.884.29-2.588-.317-2.676-2.231-.077-1.664-.038-2.739,2.074-2.869C8107,10140.812,8109.862,10140.316,8112.032,10140.045Z" fill="#0a0d0d"/>
      <path id="Path_270" data-name="Path 270" d="M7618.288,10323.686c2.553.27,5.1.637,7.662.775,1.925.105,2.457.9,2.171,2.752-.257,1.665-.687,2.664-2.686,2.4-3.022-.394-6.069-.6-9.109-.843-1.838-.146-3.772.423-3.544-2.85.243-3.473,2.421-2.056,4.054-2.213a9.951,9.951,0,0,1,1.443.062Z" fill="#161717"/>
      <path id="Path_271" data-name="Path 271" d="M7538.357,10440.882c-.056,1.508-1.675,1.453-2.627,2.122s-1.7.605-2.264-.585c-1.717-3.612-3.481-7.2-5.261-10.782-.537-1.079-.356-1.961.776-2.273s2.632-2.062,3.406-.716C7534.607,10432.511,7536.34,10436.654,7538.357,10440.882Z" fill="#161717"/>
      <path id="Path_272" data-name="Path 272" d="M7900.554,10334.363c-.151,2.421-.436,5.624-.521,8.833-.053,2-.691,2.856-2.86,2.742-2.211-.118-2.691-1.039-2.448-3.062.382-3.19.541-6.407.771-9.614.129-1.809.553-2.955,2.888-2.7C7900.518,10330.791,7901.312,10331.52,7900.554,10334.363Z" fill="#161717"/>
      <path id="Path_273" data-name="Path 273" d="M7850.665,10639.592c-.716,3.78-1.442,7.563-2.142,11.35-.328,1.777-1.519,1.816-2.894,1.48-1.2-.294-2.737-.247-2.334-2.242.761-3.774,1.554-7.545,2.231-11.336.324-1.812,1.362-1.945,2.779-1.482C7849.431,10637.729,7851.083,10637.576,7850.665,10639.592Z" fill="#161717"/>
      <path id="Path_274" data-name="Path 274" d="M8052.673,10351.152c-1.8.579-2.546-.3-2.728-2.394-.158-1.818.249-2.615,2.188-2.763,3.35-.254,6.7-.64,10.013-1.2,2.12-.356,2.819.384,3.12,2.4.361,2.416-.959,2.581-2.743,2.748C8059.335,10350.246,8056.162,10350.716,8052.673,10351.152Z" fill="#161717"/>
      <path id="Path_275" data-name="Path 275" d="M7754.308,10523.9c-2.5.6-2.305-1.252-2.862-2.21-.614-1.058-.683-2.047.824-2.656q5.314-2.145,10.539-4.51c1.75-.8,2.342.266,2.777,1.52.318.917,1.629,2.114.059,2.86C7761.767,10520.75,7757.789,10522.384,7754.308,10523.9Z" fill="#161717"/>
      <path id="Path_276" data-name="Path 276" d="M7683.088,10534.205c1.753,0,3.511.087,5.257-.022,1.989-.124,2.8.5,2.8,2.673,0,2.3-1.076,2.615-2.941,2.549-3.025-.109-6.056-.106-9.084-.1-2.079.007-3.666-.084-3.461-3.04.2-2.912,1.855-2.339,3.606-2.173,1.268.121,2.545.146,3.818.213Z" fill="#161717"/>
      <path id="Path_277" data-name="Path 277" d="M8260.259,10170.847c-4.432-1.714-8.332-3.13-12.149-4.74-1.849-.78-.545-2.078-.234-3.224.35-1.286.917-2.061,2.341-1.5,3.71,1.458,7.395,2.981,11.113,4.415,1.542.595,1.313,1.5.69,2.614C8261.462,10169.413,8261.606,10171.108,8260.259,10170.847Z" fill="#161717"/>
      <path id="Path_278" data-name="Path 278" d="M8410.844,10519.04c-.874,3.807-1.706,7.235-2.435,10.685-.394,1.862-1.4,2.28-3.113,1.757-1.478-.452-2.673-.787-2.053-2.9a102.635,102.635,0,0,0,2.425-10.292c.37-2.02,1.292-2.27,3-1.75C8410.158,10516.985,8411.574,10517.342,8410.844,10519.04Z" fill="#161717"/>
      <path id="Path_279" data-name="Path 279" d="M8422.031,10417.691c0,1.768-.091,3.542.023,5.3.13,1.979-.826,2.391-2.592,2.428-1.88.04-2.58-.668-2.592-2.485-.022-3.214-.033-6.437-.3-9.637-.205-2.5,1.108-2.92,3.131-3.082,2.655-.213,2.286,1.529,2.271,3.133-.012,1.446,0,2.894,0,4.341Z" fill="#161717"/>
      <path id="Path_280" data-name="Path 280" d="M8309.186,10398.425c3.55,2.393,6.747,4.767,10.159,6.775,2.617,1.54,1.53,2.853.321,4.51-.92,1.261-1.67.973-2.74.219-3-2.112-6.088-4.1-9.1-6.2-.7-.485-1.86-.937-.958-2.183C8307.584,10400.557,8308.326,10399.58,8309.186,10398.425Z" fill="#161717"/>
      <path id="Path_281" data-name="Path 281" d="M7586.7,10498.416c-.119,1.94-3.152,3.314-4.812,2.078-2.7-2.008-5.241-4.223-7.969-6.186-1.737-1.251-1.74-2.238-.341-3.782,1.154-1.274,1.9-1.821,3.454-.461,2.649,2.316,5.511,4.39,8.3,6.55C7585.955,10497.1,7586.657,10497.5,7586.7,10498.416Z" fill="#161717"/>
      <path id="Path_282" data-name="Path 282" d="M7806.48,10406.844c.628.665,1.182,1.176,1.649,1.758,2.2,2.745,4.295,5.579,6.592,8.239,1.328,1.536.818,2.332-.535,3.426-1.563,1.266-2.572,1.341-3.825-.436-1.933-2.74-4.12-5.3-6.189-7.945-.545-.7-1.687-1.327-.766-2.37A31.277,31.277,0,0,1,7806.48,10406.844Z" fill="#161717"/>
      <path id="Path_283" data-name="Path 283" d="M8416.485,10444.469c0-1.767.056-3.536-.015-5.3-.084-2.116,1.177-2.2,2.806-2.178,1.858.019,2.58.667,2.415,2.594-.288,3.361-.5,6.738-.506,10.109-.006,2.112-.737,2.748-2.844,2.673-2.332-.082-2.627-1.167-2.341-3.089.235-1.584.235-3.2.339-4.807Z" fill="#161717"/>
      <path id="Path_284" data-name="Path 284" d="M8039.413,10157.817c1.817-.085,1.739,1.323,2.226,2.239.552,1.038,1.087,2.049-.476,2.725-3.662,1.585-7.351,3.115-10.964,4.807-1.641.769-2.062-.342-2.39-1.354-.3-.935-1.816-2.179-.4-2.909C8031.384,10161.282,8035.526,10159.573,8039.413,10157.817Z" fill="#161717"/>
      <path id="Path_285" data-name="Path 285" d="M8162.269,10736.726c1.855-.543,1.982.882,2.269,2.147.744,3.283,1.389,6.594,2.282,9.837.624,2.263-.69,2.729-2.341,3.229-1.974.6-2.532-.491-2.87-2.1-.695-3.295-1.358-6.6-2.207-9.856C8158.726,10737.392,8160.268,10736.962,8162.269,10736.726Z" fill="#161717"/>
      <path id="Path_286" data-name="Path 286" d="M8322.3,10711.916c-2.993,3.315-5.937,6.893-9.264,10.073-1.048,1-2.007-1.041-3-1.681-1.14-.729-.709-1.537.009-2.352q3.8-4.307,7.551-8.656c.721-.842,1.475-1.325,2.371-.414C8320.79,10709.73,8322.254,10710.087,8322.3,10711.916Z" fill="#161717"/>
      <path id="Path_287" data-name="Path 287" d="M8121.906,10709.314a31.025,31.025,0,0,1-3.023,2.655c-1.159.779-1.648-.458-2.234-1.08-2.3-2.441-4.486-5-6.859-7.373-1.412-1.409-1.577-2.31.016-3.811s2.523-1.326,3.822.2c2.172,2.557,4.487,4.993,6.729,7.492C8120.859,10707.96,8121.306,10708.569,8121.906,10709.314Z" fill="#161717"/>
      <path id="Path_288" data-name="Path 288" d="M8338.755,10690.486c-2.8,3.646-5.466,7.468-8.552,10.91-.9,1-2.037-.978-3.069-1.563-1.165-.661-.729-1.469-.06-2.352q3.483-4.594,6.833-9.286c.7-.976,1.439-1.276,2.345-.45C8337.105,10688.523,8338.562,10688.781,8338.755,10690.486Z" fill="#161717"/>
      <path id="Path_289" data-name="Path 289" d="M7867.149,10696.947c-1.571.065-1.8-1.284-2.5-2.06-.669-.735-1.221-1.646-.123-2.412,3.407-2.375,6.853-4.7,10.307-7,1.007-.672,1.8-.306,2.33.731.48.932,2.011,2.136,1.207,2.771C7874.745,10691.837,7870.854,10694.362,7867.149,10696.947Z" fill="#161717"/>
      <path id="Path_290" data-name="Path 290" d="M8363.178,10641.777c1.09,1.138,4.58.622,2.721,4.009-1.683,3.064-3.407,6.11-4.954,9.243-1.021,2.065-2.1,1.659-3.768.765-1.762-.945-1.742-1.765-.813-3.315,1.712-2.857,3.211-5.844,4.79-8.781C8361.593,10642.879,8361.836,10641.88,8363.178,10641.777Z" fill="#161717"/>
      <path id="Path_291" data-name="Path 291" d="M8298.552,10392.98a17.526,17.526,0,0,1-1.941,2.917c-.931.966-1.729-.219-2.476-.614-2.817-1.5-5.524-3.206-8.383-4.615-1.988-.979-2.4-1.841-1.256-3.972,1.223-2.282,2.357-1.412,3.77-.626,2.789,1.551,5.6,3.058,8.35,4.679C8297.373,10391.2,8298.487,10391.441,8298.552,10392.98Z" fill="#161717"/>
      <path id="Path_292" data-name="Path 292" d="M8169.649,10650.217c-1.96-.858-4.63-.854-2.887-4.126a80.363,80.363,0,0,0,3.8-8.747c.769-1.98,1.509-2.759,3.827-1.64,2.236,1.08,1.646,2.174.945,3.724-1.312,2.9-2.473,5.859-3.811,8.742C8171.118,10649.036,8171.122,10650.578,8169.649,10650.217Z" fill="#161717"/>
      <path id="Path_293" data-name="Path 293" d="M8428.994,10540.5c2.387,3.388,3.449,7.321,4.957,10.988.47,1.144,2.088,2.546-.039,3.658-1.691.884-3.422,2.037-4.452-1.018a79.607,79.607,0,0,0-3.854-9.336C8424.052,10541.6,8426.945,10541.965,8428.994,10540.5Z" fill="#161717"/>
      <path id="Path_294" data-name="Path 294" d="M8399.309,10557.572c-1.639-.639-3.961-.508-2.759-3.607a81.372,81.372,0,0,0,2.579-9.175c.432-1.677.838-3.008,3.146-2.332,2.129.625,2.75,1.446,1.911,3.7-1.1,2.965-1.648,6.13-2.575,9.165C8401.288,10556.384,8401.319,10558.121,8399.309,10557.572Z" fill="#161717"/>
      <path id="Path_295" data-name="Path 295" d="M8371.489,10633.081c-1.481-1.283-4.737-.95-2.936-4.333,1.64-3.076,3.016-6.3,4.37-9.516.833-1.978,1.926-1.547,3.381-.817,1.214.608,2.356.948,1.5,2.714-1.722,3.572-3.311,7.208-5.022,10.786C8372.554,10632.4,8371.929,10632.7,8371.489,10633.081Z" fill="#161717"/>
      <path id="Path_296" data-name="Path 296" d="M7766.421,10370.891c3.432,2.528,6.521,5.087,9.893,7.2,2.638,1.649,1.408,2.855.178,4.458-.949,1.238-1.68.994-2.744.179-2.919-2.235-5.892-4.4-8.89-6.531-.875-.621-1.581-1.227-.864-2.291C7764.677,10372.886,7765.528,10371.984,7766.421,10370.891Z" fill="#161717"/>
      <path id="Path_297" data-name="Path 297" d="M7987.667,10366.735a1.522,1.522,0,0,1-1.017,1.511q-5.571,2.29-11.123,4.628c-1.975.833-2.037-.953-2.6-1.926-.721-1.241-.883-2.316.91-3.006,3.445-1.327,6.8-2.884,10.224-4.271C7987.209,10362.4,7986.724,10365.447,7987.667,10366.735Z" fill="#161717"/>
      <path id="Path_298" data-name="Path 298" d="M8359.879,10548.45c4.072,1.051,7.6,1.992,11.154,2.866,1.966.483,1.908,1.559,1.332,3.188-.541,1.531-.865,2.515-2.919,1.853-3.32-1.07-6.743-1.846-10.156-2.6-1.939-.427-2.137-1.535-1.7-3.142C8357.982,10549.161,8358.283,10547.631,8359.879,10548.45Z" fill="#161717"/>
      <path id="Path_299" data-name="Path 299" d="M8270.476,10554.473c.1,1.866-1.469,2.014-2.563,2.241-3.906.813-7.21,4.237-11.394,3.079a2.441,2.441,0,0,1,.651-4.586,83.124,83.124,0,0,0,9.38-3.486C8269.9,10550.127,8269.744,10552.765,8270.476,10554.473Z" fill="#161717"/>
      <path id="Path_300" data-name="Path 300" d="M8342.516,10423.837c-.743.9-1.513,1.873-2.34,2.8-.79.883-1.433.153-2.013-.316-2.979-2.41-5.895-4.9-8.913-7.257-1.228-.958-1.156-1.79-.149-2.713.826-.756,1.233-2.829,2.822-1.654,3.458,2.556,6.716,5.383,10.038,8.121C8342.187,10423,8342.267,10423.365,8342.516,10423.837Z" fill="#161717"/>
      <path id="Path_301" data-name="Path 301" d="M7841.781,10663.3c1.868.607,4.2.465,3.259,3.538-.986,3.212-1.8,6.489-2.466,9.783-.454,2.255-1.634,2.274-3.448,1.8-1.9-.49-2.11-1.515-1.631-3.2.922-3.237,1.714-6.512,2.526-9.778C7840.29,10664.371,7840.288,10663.111,7841.781,10663.3Z" fill="#161717"/>
      <path id="Path_302" data-name="Path 302" d="M7813.584,10491.608c-.247.586-.3,1.146-.59,1.331-3.639,2.3-7.254,4.658-11,6.774-1.743.984-1.891-1.081-2.648-1.915-.951-1.046-.892-1.925.385-2.7,3.278-1.983,6.512-4.042,9.805-6C7812.642,10487.25,7812,10490.963,7813.584,10491.608Z" fill="#161717"/>
      <path id="Path_303" data-name="Path 303" d="M8406.81,10565.345c3.932,2.065,8.137,4.031,12.036,6.483,1.075.676-.625,2.185-1.083,3.292-.521,1.258-1.352.9-2.322.4q-5.115-2.621-10.314-5.077c-1.1-.519-1.479-1.14-.831-2.2C8404.923,10567.22,8404.975,10565.714,8406.81,10565.345Z" fill="#161717"/>
      <path id="Path_304" data-name="Path 304" d="M8151.971,10753.089c.152,1.642-1.2,1.763-2.035,2.321-.965.64-1.948,1.229-2.78-.228-1.972-3.455-3.939-6.913-5.96-10.34-.851-1.442.029-2.014,1.108-2.545.937-.461,2.1-1.838,2.909-.608C8147.651,10745.406,8149.773,10749.329,8151.971,10753.089Z" fill="#161717"/>
      <path id="Path_305" data-name="Path 305" d="M7821.969,10429c1.325.046,1.687.987,2.169,1.818,1.694,2.918,3.371,5.846,5.117,8.732.886,1.465,1.035,2.422-.833,3.371-1.714.87-2.739,1.222-3.786-.846a97.038,97.038,0,0,0-5.049-8.771C7817.451,10429.991,7820.936,10430.221,7821.969,10429Z" fill="#161717"/>
      <path id="Path_306" data-name="Path 306" d="M8397.43,10561.45c-.839,1.846-.65,4.593-4,3.109-3.218-1.426-6.549-2.607-9.867-3.79-1.382-.491-1.75-1.185-1.146-2.511.5-1.1.535-3.021,2.268-2.455,4.1,1.34,8.094,3.021,12.105,4.623C8397.111,10560.554,8397.247,10561.14,8397.43,10561.45Z" fill="#161717"/>
      <path id="Path_307" data-name="Path 307" d="M7947.247,10229.65a23.118,23.118,0,0,1-2.917-2.729c-.785-1.039.361-1.7.94-2.345,2.239-2.491,4.6-4.873,6.783-7.41,1.269-1.477,2.216-1.907,3.808-.313,1.437,1.439,1.578,2.382.071,3.857-2.389,2.339-4.555,4.907-6.843,7.351A23.018,23.018,0,0,1,7947.247,10229.65Z" fill="#161717"/>
      <path id="Path_308" data-name="Path 308" d="M7940.385,10238.536c-2.757,3.631-5.385,7.436-8.423,10.882-.9,1.022-2.152-.8-3.162-1.418-1.082-.661-.67-1.543-.026-2.405q3.432-4.592,6.781-9.248c.66-.918,1.384-1.395,2.335-.553C7938.79,10236.591,7940.166,10236.978,7940.385,10238.536Z" fill="#161717"/>
      <path id="Path_309" data-name="Path 309" d="M7824.542,10485.577c-1.863-.167-2.1-1.66-2.9-2.568-.912-1.028-.288-1.659.565-2.25,3.147-2.177,6.307-4.336,9.423-6.557.905-.646,1.779-.953,2.414.1.6,1,2.472,2.211,1.39,3.135C7831.935,10480.42,7828.08,10482.984,7824.542,10485.577Z" fill="#161717"/>
      <path id="Path_310" data-name="Path 310" d="M8396.706,10482.993c-.511,1.561-1.866,1.928-2.843,2.687-1.2.932-1.668-.252-2.187-.948-2.095-2.816-4.063-5.729-6.244-8.477-1.1-1.387-1.383-2.276.27-3.451,1.488-1.059,2.542-1.709,3.855.264,1.944,2.917,4.122,5.677,6.193,8.51C8396.108,10482.066,8396.429,10482.581,8396.706,10482.993Z" fill="#161717"/>
      <path id="Path_311" data-name="Path 311" d="M8381.864,10608.174c-1.964-.7-4.148-1.033-2.468-4.18a55.469,55.469,0,0,0,3.31-8.528c.7-2.077,1.627-2.772,3.867-1.871,2.3.929,1.711,2.14,1.018,3.75-1.271,2.951-2.36,5.979-3.594,8.948C8383.614,10607.214,8383.641,10608.764,8381.864,10608.174Z" fill="#161717"/>
      <path id="Path_312" data-name="Path 312" d="M7984.768,10194.41a29.624,29.624,0,0,1-2.271-2.825c-.741-1.168.381-1.715,1.09-2.235,2.957-2.167,6-4.221,8.927-6.425,1.446-1.089,2.374-.571,3.017.746.465.954,2.277,1.846.479,3.147q-5.035,3.645-10.113,7.23A4.8,4.8,0,0,1,7984.768,10194.41Z" fill="#161717"/>
      <path id="Path_313" data-name="Path 313" d="M8015.657,10168.851c2.017.188,2.079,1.725,2.79,2.672.829,1.1.239,1.706-.7,2.235-3.328,1.881-6.673,3.734-9.972,5.663-1.227.718-2.1.578-2.693-.717-.432-.941-1.9-2.2-.969-2.83C8007.914,10173.286,8011.957,10171.059,8015.657,10168.851Z" fill="#161717"/>
      <path id="Path_314" data-name="Path 314" d="M8272.423,10383.863c-4.227-1.956-8.347-3.654-12.242-5.77-1.509-.818.092-2.234.426-3.35s1.008-1.456,2.157-.921q5.407,2.511,10.867,4.9c1.142.5,1.357,1.149.84,2.223C8273.943,10382.043,8273.629,10383.286,8272.423,10383.863Z" fill="#161717"/>
      <path id="Path_315" data-name="Path 315" d="M8091.482,10680.541c1.019.04,11.227,8.414,11.211,9.119-.031,1.411-1.276,2.078-2.072,3.008-.927,1.085-1.658.274-2.388-.328q-4.245-3.5-8.487-7c-.744-.615-1.63-1.252-.677-2.313C8089.878,10682.125,8090.236,10680.714,8091.482,10680.541Z" fill="#161717"/>
      <path id="Path_316" data-name="Path 316" d="M7846.445,10469.875c-1.884.049-2.138-1.515-2.977-2.352-.937-.936-.347-1.719.489-2.363,3.041-2.346,6.113-4.651,9.112-7.048.911-.729,1.719-.975,2.35.078.612,1.019,2.641,2.1,1.648,3.031C7853.692,10464.369,7849.926,10467.1,7846.445,10469.875Z" fill="#161717"/>
      <path id="Path_317" data-name="Path 317" d="M7889.644,10682.589c-1.7.069-1.8-1.518-2.532-2.437a1.354,1.354,0,0,1,.5-2.315c3.517-1.876,7.056-3.711,10.571-5.59,1.015-.543,1.859-.545,2.294.638.4,1.1,2.144,2.509.919,3.29C7897.649,10678.563,7893.6,10680.477,7889.644,10682.589Z" fill="#161717"/>
      <path id="Path_318" data-name="Path 318" d="M7834.525,10452.79c1.643-.391,1.728,1.039,2.128,1.973,1.329,3.1,2.477,6.287,3.908,9.34.793,1.694.661,2.518-1.2,3.256-1.8.717-2.887.847-3.656-1.32a92.064,92.064,0,0,0-3.866-9.346C7830.345,10453.6,7833.085,10453.734,7834.525,10452.79Z" fill="#161717"/>
      <path id="Path_319" data-name="Path 319" d="M7527.926,10417.149c.126.7-1.393.6-2.291.99-.946.413-2.229,1.2-2.773-.437-1.353-4.073-2.732-8.151-3.774-12.31-.472-1.881,1.73-1.391,2.7-1.946a1.376,1.376,0,0,1,2.224.861C7525.2,10408.267,7526.42,10412.218,7527.926,10417.149Z" fill="#161717"/>
      <path id="Path_320" data-name="Path 320" d="M7913.44,10670.9c-1.82.1-1.583-1.654-2.209-2.619-.823-1.271-.249-1.978,1.068-2.473,3.577-1.344,7.132-2.75,10.672-4.189,1.345-.547,2.165-.24,2.435,1.2.208,1.1,1.857,2.477.059,3.286C7921.551,10667.864,7917.492,10669.306,7913.44,10670.9Z" fill="#161717"/>
      <path id="Path_321" data-name="Path 321" d="M8166.857,10662.007c-.877,3.741-1.846,7.464-2.594,11.231-.383,1.93-1.55,1.648-2.847,1.446-1.359-.211-2.638-.551-2.223-2.357.9-3.9,1.854-7.785,2.782-11.678.4-1.687,1.529-1.326,2.6-.874C8165.628,10660.216,8167.4,10659.973,8166.857,10662.007Z" fill="#161717"/>
      <path id="Path_322" data-name="Path 322" d="M8380.315,10462.105c-.89.806-1.776,1.712-2.77,2.48-.878.68-1.424-.054-1.957-.667-2.524-2.905-5.015-5.842-7.611-8.682-1.073-1.176-.743-2.039.368-2.681.936-.539,1.571-2.687,3-1.191,2.986,3.125,5.742,6.47,8.576,9.737A3.965,3.965,0,0,1,8380.315,10462.105Z" fill="#161717"/>
      <path id="Path_323" data-name="Path 323" d="M7552.47,10463.291c-.438,1.434-1.721,1.9-2.719,2.656-1.172.889-1.758-.1-2.273-.845-2.186-3.142-4.287-6.343-6.476-9.482-.667-.958-.815-1.781.326-2.327,1.062-.508,2.271-2.408,3.181-1.279C7547.4,10455.6,7549.865,10459.53,7552.47,10463.291Z" fill="#161717"/>
      <path id="Path_324" data-name="Path 324" d="M8362.628,10442.561c-.932.688-1.994,1.355-2.91,2.183s-1.459.144-1.98-.354c-2.771-2.646-5.433-5.412-8.275-7.978-1.477-1.333-.74-2.171.27-3.091.855-.781,1.512-2.392,3.055-.9,2.875,2.775,5.757,5.542,8.616,8.332A15.011,15.011,0,0,1,8362.628,10442.561Z" fill="#161717"/>
      <path id="Path_325" data-name="Path 325" d="M8285.12,10749.932c-.727.483-1.421.875-2.038,1.368-2.621,2.095-5.262,4.17-7.809,6.354-1.446,1.238-2.457,1.591-3.821-.249-1.234-1.664-1.218-2.573.507-3.818,2.717-1.962,5.225-4.21,7.853-6.3.681-.541,1.354-1.666,2.4-.708A42.508,42.508,0,0,1,8285.12,10749.932Z" fill="#161717"/>
      <path id="Path_326" data-name="Path 326" d="M8235.14,10572.529c-1.69.163-1.815-1.443-2.571-2.354s-.8-1.614.343-2.274q5.18-2.994,10.306-6.076c1.307-.782,2.159-.236,2.641.934.384.936,1.926,2.1.784,2.869C8242.946,10568.107,8239.018,10570.24,8235.14,10572.529Z" fill="#161717"/>
      <path id="Path_327" data-name="Path 327" d="M8350.467,10665.2c.9,1.118,4.344,1.021,2.072,4.2a97.046,97.046,0,0,0-5.421,8.529c-1.107,1.953-2.134,1.826-3.8.72-1.623-1.078-1.616-1.95-.568-3.462,1.919-2.767,3.594-5.7,5.418-8.533C8348.649,10665.908,8348.891,10664.717,8350.467,10665.2Z" fill="#0a0d0d"/>
      <path id="Path_328" data-name="Path 328" d="M8307.213,10195.7c-3.792-2.413-7.8-4.723-11.5-7.456-1.231-.911.605-2.189,1.069-3.264s1.329-1.074,2.319-.443c3.223,2.054,6.5,4.029,9.721,6.079.776.493,1.785,1.088.979,2.234C8309.106,10193.842,8308.761,10195.179,8307.213,10195.7Z" fill="#161717"/>
      <path id="Path_329" data-name="Path 329" d="M7798.331,10398.11c-.833.892-1.649,1.865-2.574,2.724-.782.724-1.436.154-2.035-.42-2.773-2.665-5.51-5.37-8.348-7.964-1.146-1.047-1-1.9.074-2.684.883-.645,1.365-2.8,2.874-1.5,3.274,2.818,6.314,5.91,9.437,8.9A4.993,4.993,0,0,1,7798.331,10398.11Z" fill="#161717"/>
      <path id="Path_330" data-name="Path 330" d="M7976.711,10201.609c-.741.519-1.431.918-2.022,1.43-2.416,2.088-4.888,4.122-7.168,6.353-1.532,1.5-2.53,1.822-4.2.021s-.769-2.649.557-3.781c2.549-2.177,5.033-4.431,7.578-6.614.666-.571,1.358-1.649,2.394-.689A43.1,43.1,0,0,1,7976.711,10201.609Z" fill="#161717"/>
      <path id="Path_331" data-name="Path 331" d="M8417.649,10516.737c.868-.034,1.057,1.759,1.534,2.9,1.484,3.532,4.872,6.415,4.251,10.557-.116.781-3.117,3.251-4.71-.168-1.41-3.028-3.064-5.943-4.533-8.946C8413.2,10519.052,8414.374,10517.011,8417.649,10516.737Z" fill="#161717"/>
      <path id="Path_332" data-name="Path 332" d="M8332.054,10208.078a32.308,32.308,0,0,1-2.53,3.01c-1.048.983-1.7-.241-2.354-.736-2.672-2.018-5.212-4.218-7.943-6.147-1.705-1.205-1.8-2.114-.571-3.817,1.358-1.878,2.378-1.467,3.82-.281,2.59,2.125,5.28,4.126,7.9,6.218A18.222,18.222,0,0,1,8332.054,10208.078Z" fill="#161717"/>
      <path id="Path_333" data-name="Path 333" d="M8083.768,10348.055c-1.607.105-3.232.095-4.816.344-2.4.376-2.038-1.335-2.252-2.7-.249-1.579.229-2.421,1.982-2.465,3.7-.093,7.4-.231,11.1-.479,1.988-.133,2.024,1.069,1.971,2.435-.048,1.215.4,2.738-1.706,2.7s-4.184-.008-6.276-.008Z" fill="#0a0d0d"/>
      <path id="Path_334" data-name="Path 334" d="M8397.052,10570.44c-1.332,3.99-2.576,7.965-4,11.873-.562,1.54-1.909.7-2.907.429-1.322-.356-2.383-.952-1.77-2.7,1.269-3.627,2.5-7.266,3.673-10.927.5-1.58,1.416-1.4,2.6-.92C8395.764,10568.644,8397.353,10568.541,8397.052,10570.44Z" fill="#161717"/>
      <path id="Path_335" data-name="Path 335" d="M7874.645,10440.419c1.66.158,2.1,1.569,2.938,2.437.942.969.075,1.662-.691,2.308-2.689,2.263-5.419,4.481-8,6.858-1.485,1.364-2.392,1.408-3.782-.244-1.4-1.672-1.138-2.566.434-3.795,2.64-2.064,5.136-4.313,7.7-6.477C7873.715,10441.1,7874.225,10440.742,7874.645,10440.419Z" fill="#161717"/>
      <path id="Path_336" data-name="Path 336" d="M8227.931,10787.164c-1.786-.219-1.813-1.751-2.466-2.754-.72-1.111-.156-1.74.821-2.233,3.562-1.8,7.136-3.574,10.675-5.415,1.66-.863,1.981.559,2.363,1.442.374.865,1.916,1.984.384,2.845C8235.819,10783.234,8231.793,10785.179,8227.931,10787.164Z" fill="#161717"/>
      <path id="Path_337" data-name="Path 337" d="M8351.712,10226.636a33.966,33.966,0,0,1-2.9,2.71c-1.137.843-1.621-.422-2.206-.989-2.523-2.45-4.9-5.064-7.512-7.407-1.623-1.453-.886-2.3.2-3.482,1.176-1.275,2.121-1.674,3.5-.213,2.521,2.676,5.182,5.218,7.763,7.838A14.767,14.767,0,0,1,8351.712,10226.636Z" fill="#161717"/>
      <path id="Path_338" data-name="Path 338" d="M7568.686,10482.274c-1.052.825-2.048,1.624-3.062,2.4-1.154.88-1.693-.186-2.292-.809-2.426-2.523-4.792-5.1-7.224-7.62-1.135-1.176-1.722-2.119-.05-3.445,1.392-1.1,2.334-1.926,3.856-.1,2.234,2.686,4.733,5.149,7.115,7.712C7567.455,10480.871,7567.861,10481.346,7568.686,10482.274Z" fill="#0a0d0d"/>
      <path id="Path_339" data-name="Path 339" d="M8189.217,10615.6c-2.478,3.762-4.817,7.553-7.431,11.146-.924,1.27-1.949-.3-2.841-.726-1.028-.5-1.973-1.19-1.047-2.58,2.205-3.309,4.376-6.639,6.6-9.935.567-.839,1.329-1.427,2.313-.5C8187.666,10613.822,8189.233,10614,8189.217,10615.6Z" fill="#161717"/>
      <path id="Path_340" data-name="Path 340" d="M8206.143,10595.742c-.562.662-.953,1.152-1.378,1.616-2.363,2.581-4.842,5.066-7.064,7.763-1.337,1.622-2.243,1.1-3.478.026-1.218-1.062-2-1.911-.492-3.436,2.569-2.6,4.976-5.365,7.471-8.042.623-.67,1.272-1.643,2.327-.688C8204.449,10593.815,8205.247,10594.785,8206.143,10595.742Z" fill="#161717"/>
      <path id="Path_341" data-name="Path 341" d="M8304.263,10731.126c-3.326,3.424-6.449,6.666-9.609,9.873-.734.745-1.453.379-2.033-.3-1.053-1.237-3.034-2.183-.74-4.182,2.667-2.323,5.105-4.91,7.667-7.356.64-.611,1.262-1.683,2.335-.61C8302.76,10729.426,8303.569,10730.37,8304.263,10731.126Z" fill="#0a0d0d"/>
      <path id="Path_342" data-name="Path 342" d="M7593.6,10327.723c-1.759,0-3.52-.039-5.278.011-2.016.056-2.249-1.121-2.27-2.779-.019-1.6.413-2.369,2.129-2.307,3.675.133,7.355.223,11.033.222,1.7,0,2.154.705,2.094,2.323-.063,1.71-.454,2.74-2.43,2.628-1.754-.1-3.518-.022-5.278-.022Z" fill="#0a0d0d"/>
      <path id="Path_343" data-name="Path 343" d="M7857.558,10564.868c0,1.755-.067,3.514.017,5.266.1,1.973-.979,2.326-2.661,2.4-1.835.076-2.578-.461-2.488-2.413a93.422,93.422,0,0,0,0-9.572c-.132-2.31.746-2.983,2.957-3.105,2.786-.155,2.1,1.643,2.131,3.12.027,1.436.006,2.872.006,4.31Z" fill="#0a0d0d"/>
      <path id="Path_344" data-name="Path 344" d="M8442.669,10577.236q-2.492.393-4.982.787c-.84-2.732-1.566-5.509-2.557-8.187-.756-2.045-.057-2.841,1.872-3.413,1.762-.523,2.623-.18,3.082,1.646C8440.857,10571.147,8441.8,10574.183,8442.669,10577.236Z" fill="#161717"/>
      <path id="Path_345" data-name="Path 345" d="M8379.63,10121c.585.57.414,2.669,2.035,2.376,1.819-.329.758-2.113.826-3.2.131-2.076.744-4.461-2.175-5.6,1.672-1.025,3.205-.425,5.161-.469-2.4,3.033-1.348,6.354-1.654,9.514-.1,1.064.818,2.982-1.128,2.927a1.986,1.986,0,0,1-1.759-3.062C8381.649,10121.946,8379.618,10122.01,8379.63,10121Z" fill="#161717"/>
      <path id="Path_346" data-name="Path 346" d="M8373.341,10114.27c4.168.186,3.684.075,2.794,4-.595,2.629-1.448,6.052,1.8,8.272a7.819,7.819,0,0,1-4.792-.092C8375.367,10123.532,8375.156,10117.885,8373.341,10114.27Z" fill="#161717"/>
      <path id="Path_347" data-name="Path 347" d="M8435.261,10579.166q-1.591,1.96-3.181,3.924-2.055-1.238-4.113-2.477c-1.553-.938-.5-1.894.031-2.78.624-1.049,1.121-2.561,2.836-1.543C8432.347,10577.186,8433.788,10578.2,8435.261,10579.166Z" fill="#161717"/>
      <path id="Path_348" data-name="Path 348" d="M8175.038,10830.631a26.281,26.281,0,1,1,26.268-26.5A26.343,26.343,0,0,1,8175.038,10830.631Zm20.939-26.088a21.076,21.076,0,1,0-21.348,20.9A21.115,21.115,0,0,0,8195.978,10804.543Z" fill="#f3f3f3"/>
      <path id="Path_349" data-name="Path 349" d="M7516.156,10302.32a28.133,28.133,0,1,1-28.2,28.18A28.068,28.068,0,0,1,7516.156,10302.32Zm-.144,43.077a14.894,14.894,0,0,0,15.122-14.8,15.144,15.144,0,0,0-14.728-15.31,15.357,15.357,0,0,0-15.443,15.157A15.093,15.093,0,0,0,7516.012,10345.4Z" fill="#f3f3f3"/>
      <path id="Path_350" data-name="Path 350" d="M7644.5,10344.141c10.993-7.151,15.335-16.584,10.26-28.741,3.445-.663,4.223,1.112,4.559,2.808,2.2,11.089,9.42,15.948,20.064,18.336,10.192,2.287,10,3.066,11.256-7.585,1.18-10.036-.235-19.917-1.719-29.795-.187-1.25-.836-2.458-.281-3.709,3.538-.289,5.037,1.714,6.163,4.776,5.429,14.774,11.1,29.459,16.52,44.237a6.935,6.935,0,0,0,4.749,4.76c6.682,2.3,13.264,4.906,19.8,7.6,2.6,1.068,5.373,2.143,7.007,5.149-3.658,1.242-7.053.311-10.348-.588-6.511-1.775-13.014-3.622-19.4-5.783a7.3,7.3,0,0,0-6.717.77c-13.326,7.795-26.776,15.377-40.1,23.177-2.634,1.543-4.941,2.137-7.749-.089,3.117-2.68,6.257-5.316,9.326-8.033a68.354,68.354,0,0,0,16.848-22.108c1.318-2.788.761-3.836-2.067-4.8-5.622-1.922-11.164-4.106-16.628-6.444a4.612,4.612,0,0,0-4.485.215c-3.688,1.965-7.428,3.834-11.164,5.706C7648.989,10344.7,7647.626,10345.788,7644.5,10344.141Z" fill="#6daebb"/>
      <path id="Path_351" data-name="Path 351" d="M7987.339,10651.919c5.588-2.208,11.32-1.171,16.585.115,7.358,1.8,12.651-.027,18.073-5.036,7.19-6.645,15.156-12.446,22.747-18.661,1.651-1.352,3.164-2.783,5.983-1.2-1.779,2.1-3.5,4.134-5.218,6.163a56.82,56.82,0,0,0-11.5,20.959c-.676,2.3-.23,3.128,2.087,3.563q7.337,1.375,14.589,3.174c1.955.486,3.017-.683,4.282-1.578a67.929,67.929,0,0,1,10.635-6.629c-6.889,7.421-8.849,15.457-4.157,24.814-4.032-2.189-5.246-5.8-7.138-8.81-1.569-2.5-3.046-3.967-6.313-4.01a42.514,42.514,0,0,1-11.4-1.795c-4.505-1.336-4.882.978-4.833,4.33.129,8.775,2.206,17.174,4.779,25.49.428,1.387,2.152,3.309.533,4.178-2,1.072-3.337-.868-4.355-2.669-6.166-10.9-12.438-21.747-18.566-32.67a6.681,6.681,0,0,0-5.132-3.621C8001.688,10656.579,7994.125,10655.822,7987.339,10651.919Z" fill="#6daebb"/>
      <path id="Path_352" data-name="Path 352" d="M8163.254,10142.569a7.893,7.893,0,1,1-15.784-.1,7.9,7.9,0,1,1,15.784.1Z" fill="#307997"/>
      <path id="Path_353" data-name="Path 353" d="M8067.044,10497.36c-4.959-11-9.515-21.051-12.666-31.683-1.374-4.638-1.518-9.153.609-13.586,3.065-6.388,9.778-9.52,15.907-7.463,6.664,2.236,11.214,10.135,9.6,17.466C8077.822,10474.22,8072.356,10485.3,8067.044,10497.36Zm.36-31.073a7.049,7.049,0,0,0,6.965-7.14,7.266,7.266,0,0,0-7.347-7.327,7.543,7.543,0,0,0-7.079,7.228A7.325,7.325,0,0,0,8067.4,10466.287Z" fill="#f3f3f3"/>
      <path id="Path_354" data-name="Path 354" d="M7911.919,10430.478a17.631,17.631,0,0,1-17.4-17.566,17.843,17.843,0,0,1,17.553-17.491c9.708-.006,17.906,8.309,17.628,17.878A17.576,17.576,0,0,1,7911.919,10430.478Zm10.592-17.455a10.388,10.388,0,1,0-10.418,10.414A10.408,10.408,0,0,0,7922.511,10413.022Z" fill="#f3f3f3"/>
      <path id="Path_355" data-name="Path 355" d="M8195.978,10804.543a21.076,21.076,0,1,1-20.958-21.3A21.124,21.124,0,0,1,8195.978,10804.543Zm-2.645.1a18.44,18.44,0,1,0-18.681,18.1A18.392,18.392,0,0,0,8193.333,10804.644Z" fill="#161717"/>
      <path id="Path_356" data-name="Path 356" d="M7516.012,10345.4a15.093,15.093,0,0,1-15.049-14.953,15.357,15.357,0,0,1,15.443-15.157,15.144,15.144,0,0,1,14.728,15.31A14.894,14.894,0,0,1,7516.012,10345.4Z" fill="#0a0d0d"/>
      <path id="Path_357" data-name="Path 357" d="M8067.4,10466.287a7.325,7.325,0,0,1-7.461-7.239,7.543,7.543,0,0,1,7.079-7.228,7.266,7.266,0,0,1,7.347,7.327A7.049,7.049,0,0,1,8067.4,10466.287Z" fill="#0a0d0d"/>
      <path id="Path_358" data-name="Path 358" d="M7922.511,10413.022a10.388,10.388,0,1,1-10.349-10.492A10.369,10.369,0,0,1,7922.511,10413.022Z" fill="#e92528"/>
      <path id="Path_359" data-name="Path 359" d="M8193.333,10804.644a18.311,18.311,0,0,1-18.681,18.1,18.415,18.415,0,1,1,18.681-18.1Zm-31.46-.716a13.131,13.131,0,1,0,26.251.634,13.13,13.13,0,0,0-26.251-.634Z" fill="#f3f3f3"/>
      <path id="Path_360" data-name="Path 360" d="M8161.873,10803.928a13.13,13.13,0,0,1,26.251.634,13.131,13.131,0,1,1-26.251-.634Z" fill="#307997"/>
    </g>
  </g>
</svg>
