<svg xmlns="http://www.w3.org/2000/svg" viewBox="0 0 79.68 79.68"><defs><style>.cls-1{fill:#b2b2b2;}</style></defs><g id="Layer_2" data-name="Layer 2"><g id="Layer_1-2" data-name="Layer 1"><path class="cls-1" d="M39.84,9A30.84,30.84,0,1,1,9,39.84,30.88,30.88,0,0,1,39.84,9m0-9A39.84,39.84,0,1,0,79.68,39.84,39.84,39.84,0,0,0,39.84,0Z"/><path class="cls-1" d="M39.84,55.78A15.94,15.94,0,1,1,55.78,39.84,16,16,0,0,1,39.84,55.78Z"/><path class="cls-1" d="M39.84,28.4A11.44,11.44,0,1,1,28.4,39.84,11.45,11.45,0,0,1,39.84,28.4m0-9A20.44,20.44,0,1,0,60.28,39.84,20.44,20.44,0,0,0,39.84,19.4Z"/></g></g></svg>