<svg xmlns="http://www.w3.org/2000/svg" width="335.378" height="269.217" viewBox="0 0 335.378 269.217"><defs><style>.a{fill:#8e8e8e;}.b{fill:#42869d;}</style></defs><g transform="translate(-546.981 -1712.833)"><g transform="translate(-1844)"><path class="a" d="M2726.358,1948.7a19.1,19.1,0,0,1-4.261,11.957,55.058,55.058,0,0,1-7.257,7.474,55.6,55.6,0,0,0-5.274,5.148,9.58,9.58,0,0,0-2.7,5.93,1.454,1.454,0,0,1-1.542,1.608,1.394,1.394,0,0,1-1.456-1.5c-.121-2.9-1.678-5.089-3.625-7.013-2.388-2.359-4.915-4.576-7.328-6.91-3.554-3.436-6.747-7.142-8-12.093a20.989,20.989,0,1,1,41.45-4.6Zm-20.987-10.717a10.42,10.42,0,1,0,.055,20.84,10.42,10.42,0,0,0-.055-20.84Z"/></g><g transform="translate(-1844)"><path class="a" d="M2436.509,1867.41c18.595.9,32.656,9.106,40.747,25.839,7.922,16.383,5.858,32.108-5.488,46.476-4.509,5.71-9.876,10.574-15.247,15.433a120.869,120.869,0,0,0-10.822,10.552c-3.171,3.687-5.7,7.682-5.928,12.746-.092,2.068-.953,3.568-3.206,3.594-2.191.026-3.292-1.287-3.35-3.432-.143-5.241-2.838-9.291-6.086-13.071-3.974-4.624-8.656-8.519-13.129-12.629a121.407,121.407,0,0,1-12.2-12.462c-11.765-14.427-14.14-30.308-6.128-47.056C2403.78,1876.459,2417.957,1868.258,2436.509,1867.41Zm22.39,44.959a22.452,22.452,0,1,0-22.561,22.237A22.455,22.455,0,0,0,2458.9,1912.369Z"/><path class="b" d="M2562.191,1898.551c.144,6.957-3.121,13.161-8.14,18.479-3.631,3.847-7.783,7.2-11.422,11.043-3.131,3.305-7.284,6.13-6.946,11.595a1.659,1.659,0,0,1-1.68,1.776,1.8,1.8,0,0,1-2.225-1.638c-.384-6.384-5.006-9.959-9.112-13.838-3.664-3.46-7.55-6.694-10.733-10.632-8.242-10.2-8.9-22.953-1.741-33.4a28.414,28.414,0,0,1,31.729-11.238C2554.087,1874.374,2562.177,1885.239,2562.191,1898.551Zm-28.451-15.158a14.342,14.342,0,0,0-14.149,14.054c-.093,7.022,7.214,15.142,13.537,15.044,7.727-.12,14.865-7.4,14.776-15.073A14.36,14.36,0,0,0,2533.74,1883.393Z"/><path class="a" d="M2526.354,1945.286c.29,1.563-.891,1.54-1.636,1.861-3.417,1.471-6.9,2.8-10.263,4.379-1.9.9-2.278-.173-2.985-1.521-.925-1.763-.3-2.458,1.323-3.076a102.206,102.206,0,0,0,9.96-4.1C2526.131,1941.109,2525.372,1944.364,2526.354,1945.286Z"/><path class="a" d="M2449.1,1978.659c-1.56-.153-1.345-1.668-1.9-2.571a1.271,1.271,0,0,1,.7-2.112c3.923-1.574,7.84-3.169,11.712-4.862,1.338-.585,1.681.285,1.869,1.112.222.986,1.815,2.262.343,2.973C2457.68,1975.2,2453.367,1976.857,2449.1,1978.659Z"/><path class="a" d="M2505.029,1954.315c.386,1.14-.607,1.291-1.229,1.556-3.654,1.556-7.391,2.93-10.981,4.616-1.963.922-2.132-.4-2.661-1.537-.585-1.257-1.009-2.25.905-2.94,3.37-1.216,6.624-2.748,9.941-4.114C2503.323,1950.942,2504.9,1951.908,2505.029,1954.315Z"/><path class="a" d="M2470.447,1969.762c-1.516-.24-1.3-1.7-1.872-2.571-.629-.963-.47-1.61.636-2.065q5.852-2.412,11.677-4.886c1.136-.481,1.741.034,1.972,1.054s1.738,2.361.312,3.049C2479.032,1966.341,2474.716,1967.976,2470.447,1969.762Z"/><path class="a" d="M2542.813,1941.912c.645-1.453,1.6-.766,2.4-.609,3.65.72,7.273,1.595,10.941,2.2,2.076.34,1.78,1.432,1.6,2.943-.235,1.977-1.141,2.2-2.831,1.789a102.143,102.143,0,0,0-10.536-2.251C2540.633,1945.482,2543.1,1943.228,2542.813,1941.912Z"/><path class="a" d="M2625.4,1958.1c1.2,1.009.166,2.136.109,3.192-.055,1.018-.535,1.622-1.773,1.346-4.125-.923-8.257-1.824-12.408-2.618-1.434-.275-1.225-1.186-.911-1.974.374-.939-.217-2.892,1.4-2.646C2616.364,1956.1,2620.857,1957.173,2625.4,1958.1Z"/><path class="a" d="M2565.5,1946.532c.326-1.159,1.23-.721,1.894-.587,3.893.784,7.751,1.765,11.666,2.405,2.14.351,1.529,1.54,1.324,2.774-.228,1.367-.44,2.425-2.409,1.912-3.467-.9-7.018-1.482-10.525-2.233C2565,1950.278,2564.253,1948.592,2565.5,1946.532Z"/><path class="a" d="M2602.759,1953.36c1.115,1.055.113,2.135.089,3.18-.026,1.149-.523,1.592-1.692,1.343q-6.19-1.323-12.393-2.579c-1.21-.246-1.417-1.013-1.03-1.984s-.1-2.93,1.467-2.691C2593.745,1951.324,2598.229,1952.418,2602.759,1953.36Z"/><path class="a" d="M2636.029,1961.7c.645-1.453,1.606-.766,2.4-.609,3.649.72,7.272,1.6,10.94,2.2,2.076.34,1.78,1.432,1.6,2.943-.235,1.977-1.142,2.2-2.832,1.789a102.208,102.208,0,0,0-10.535-2.251C2633.849,1965.275,2636.317,1963.021,2636.029,1961.7Z"/><path class="a" d="M2658.721,1966.325c.327-1.159,1.23-.721,1.894-.587,3.893.784,7.751,1.765,11.666,2.4,2.14.351,1.529,1.54,1.324,2.774-.228,1.367-.44,2.425-2.409,1.912-3.466-.9-7.017-1.482-10.525-2.233C2658.219,1970.071,2657.469,1968.385,2658.721,1966.325Z"/><path class="a" d="M2695.975,1973.153c1.115,1.055.113,2.135.09,3.18-.026,1.149-.524,1.592-1.693,1.342q-6.189-1.322-12.393-2.578c-1.209-.246-1.416-1.013-1.03-1.984s-.1-2.93,1.468-2.691C2686.961,1971.117,2691.445,1972.211,2695.975,1973.153Z"/></g><g transform="translate(-1844)"><path class="b" d="M2725.862,1841.348a15.5,15.5,0,0,1-3.457,9.7,44.717,44.717,0,0,1-5.889,6.064,44.886,44.886,0,0,0-4.28,4.179,7.766,7.766,0,0,0-2.193,4.811,1.18,1.18,0,0,1-1.252,1.305,1.13,1.13,0,0,1-1.181-1.217,8.46,8.46,0,0,0-2.942-5.691c-1.937-1.914-3.988-3.713-5.947-5.607-2.883-2.789-5.474-5.8-6.495-9.813a17.032,17.032,0,1,1,33.636-3.734Zm-17.03-8.7a8.455,8.455,0,1,0,.045,16.91,8.455,8.455,0,0,0-.045-16.91Z"/></g><g transform="translate(-1844)"><path class="a" d="M2563.733,1798.251c-3.5-3.136-7.044-6.235-10.5-9.421-2.09-1.925-2.568-4.851-.92-6.637,4.011-4.345,7.854-9.036,13.409-11.663a3.219,3.219,0,0,0,2.755.872q39.768-.079,79.536-.154c1.115.915,1.16,2.159,1.147,3.469-.068,6.656-.1,13.311-.145,19.967-2.12.81-1.257,2.382-.973,3.806l-.136.137c-1.419-.135-2.838-.388-4.257-.389Q2603.689,1798.218,2563.733,1798.251Z"/><path class="a" d="M2639.7,1732.32c10.174,0,20.348.087,30.52-.046a10.8,10.8,0,0,1,8.471,3.277c2.6,2.661,5.494,5.031,8.137,7.652,2.593,2.571,2.567,5.382-.019,7.919-3.168,3.11-6.482,6.072-9.771,9.057a7.808,7.808,0,0,1-5.563,1.82q-32.027-.048-64.052.015c-3.405.011-5.047-1.259-5-4.777q.126-10.1-.006-20.2c-.049-3.562,1.684-4.772,5.045-4.746C2618.207,1732.371,2628.954,1732.319,2639.7,1732.32Z"/><path class="a" d="M2617.62,1919.673q-.035-53.863-.089-107.726c-.009-5.54.205-8.034,1.408-7.757a15.476,15.476,0,0,0,6.242.016c1.054-.186,1.334,1.763,1.328,7q-.057,52.208,0,104.417c.009,5.986-.373,7.593-1.478,7.344a40.574,40.574,0,0,0-6.669-.5Z"/><path class="a" d="M2622.1,1727.744c-.286,0-.622.2-.849-.034-1.215-1.234-3.712,3.234-3.716-3.464-.005-8.677.874-11.224,4.191-11.407,3.969-.22,6.1,5.974,4.769,13.719-.239,1.393-.71,1.159-1.179,1.175C2624.241,1727.769,2623.168,1727.744,2622.1,1727.744Z"/><path class="a" d="M2563.733,1798.251q39.957-.015,79.913-.013c1.419,0,2.838.254,4.257.389-1.161,1.46-2.8,1.184-4.354,1.184q-37.122.009-74.245.005C2567.3,1799.816,2565.278,1799.884,2563.733,1798.251Z"/><path class="a" d="M2648.01,1771.248q-39.768.076-79.536.154a3.219,3.219,0,0,1-2.755-.872c1.412-1.028,3.039-.633,4.58-.634q35.863-.039,71.727.007C2644.067,1769.907,2646.391,1769.158,2648.01,1771.248Z"/><path class="a" d="M2648.039,1798.49c-.284-1.424-1.147-3,.973-3.806A3.329,3.329,0,0,1,2648.039,1798.49Z"/><path class="a" d="M2617.709,1848.944l1.5,1.083C2618.178,1850.4,2617.488,1850.3,2617.709,1848.944Z"/></g></g></svg>