<svg xmlns="http://www.w3.org/2000/svg" width="520.109" height="520.35" viewBox="0 0 520.109 520.35"><defs><style>.a{fill:#cef2e6;}.b{fill:#5a5d5c;}.c{fill:#fcfcfc;}.d{fill:#aebac2;}.e{fill:#f8c663;}</style></defs><g transform="translate(-5878.833 -534.961)"><path class="a" d="M6021.647,563.38c8.213-4.57,16.87-8.109,25.587-11.614,10.434-4.2,21.31-6.92,31.988-10.216,8.139-2.513,16.867-3.241,25.385-4.374a242.346,242.346,0,0,1,41.238-2.051,297.292,297.292,0,0,1,44.783,5.376,274.045,274.045,0,0,1,42.9,12.357,197.256,197.256,0,0,1,35,16.431c16.951,10.353,33.348,21.535,47.793,35.381a303.346,303.346,0,0,1,28.461,31A242.558,242.558,0,0,1,6375.3,685.85a266.119,266.119,0,0,1,19.786,63.89c3.285,18.747,4.145,37.576,3.772,56.492-.463,23.505-5.17,46.337-12.407,68.627-4.411,13.585-9.42,26.974-16.469,39.489-.431.764-.776,1.44-1.666,1.664-7.9-25.433-23.282-44.352-47.995-55.161A82.018,82.018,0,0,0,6264.3,856.9c-5.47,1.494-5.452,1.61-5.452-3.949q0-75.681.086-151.362a10.007,10.007,0,0,0-3.318-7.808q-30.479-30.268-60.752-60.744a12.358,12.358,0,0,0-9.67-3.925c-34.974.134-69.949-.028-104.922.2-4.681.03-6.406-1.16-7.4-5.846-3.829-18.134-13.239-32.975-27.215-45.231C6038.409,571.865,6029.816,568.055,6021.647,563.38Z"/><path class="a" d="M6267,1019.989c-.428,2.321-2.507,3.061-4.176,3.908-8.559,4.341-16.913,9.319-25.886,12.565-19.747,7.145-39.883,13.332-60.746,16.259a259.073,259.073,0,0,1-55.178,1.906c-11.95-.889-23.967-2.128-35.77-5.251-12.216-3.234-24.646-5.716-36.408-10.419a309.538,309.538,0,0,1-36.137-16.789c-8.95-4.993-17.161-10.874-25.7-16.378-14.757-9.507-27-21.682-39.054-34.154a224.544,224.544,0,0,1-28.617-37.281,269.7,269.7,0,0,1-27.5-57.71c-5.773-17.327-9.059-35.129-11.4-53.035a218.6,218.6,0,0,1-.706-46.2,288.467,288.467,0,0,1,4.239-32.942,245.042,245.042,0,0,1,13.061-44.541c3.4-8.372,6.542-16.834,10.826-24.819.97-1.808,1.955-3.408,3.993-4.081,5.824,13.813,13.731,26.04,25.586,35.618,22.684,18.326,48.059,23.644,76.156,16.454,5.6-1.433,5.549-1.656,5.549,4.341q0,104.159-.03,208.319c-.009,9.391,3.426,16.716,11.413,21.84,4.58,2.938,9.656,3.229,14.864,3.228,51.8-.019,103.6.053,155.393-.12,4.118-.014,5.761,1.311,6.976,5.023,5.732,17.51,16.755,31.168,31.727,41.61C6247.834,1013.174,6257.315,1016.874,6267,1019.989Z"/><path class="b" d="M6267,1019.989c-9.684-3.115-19.165-6.815-27.529-12.649-14.972-10.442-26-24.1-31.727-41.61-1.215-3.712-2.858-5.037-6.976-5.023-51.8.173-103.6.1-155.393.12-5.208,0-10.284-.29-14.864-3.228-7.987-5.124-11.422-12.449-11.413-21.84q.093-104.16.03-208.319c0-6,.054-5.774-5.549-4.341-28.1,7.19-53.472,1.872-76.156-16.454-11.855-9.578-19.762-21.8-25.586-35.618-3.659-12.176-5.725-24.488-4.339-37.3a83.772,83.772,0,0,1,19.577-45.839,83.977,83.977,0,0,1,88.822-26.056c1.9.581,3.833,1.037,5.751,1.551,8.169,4.676,16.762,8.486,24.018,14.85,13.976,12.256,23.386,27.1,27.215,45.231.99,4.686,2.715,5.876,7.4,5.846,34.973-.226,69.948-.064,104.922-.2a12.358,12.358,0,0,1,9.67,3.925q30.235,30.512,60.752,60.744a10.007,10.007,0,0,1,3.318,7.808q-.186,75.681-.086,151.362c0,5.559-.018,5.443,5.452,3.949a82.018,82.018,0,0,1,56.021,3.955c24.713,10.809,40.1,29.728,47.995,55.161,3.7,16.7,3.752,33.211-2.147,49.543-7.413,20.521-20.513,36.177-39.754,46.4-17.591,9.35-36.282,12.351-55.946,8.231A22.726,22.726,0,0,0,6267,1019.989Zm-187.08-385.064c-3.957-.9-4.922.639-4.9,4.635.152,34.8-15.056,60.751-45.732,77.244-4.348,2.337-5.82,4.813-4.8,9.268-.1,1.657-.282,3.313-.282,4.969q-.018,98.692,0,197.385c0,3-.125,6.005.073,8.99.747,11.268,7.652,18.2,18.968,18.231,52.311.149,104.622.075,156.933.181,3.7.007,4.313-1.27,3.812-4.694-5.476-37.461,11.887-71.238,45.525-88.39,3.37-1.719,4.313-3.731,4.3-7.324q-.177-62.463-.077-124.927c0-7.828-.077-15.659.081-23.484.09-4.436-1.194-6.238-6.2-6.073-12.646.416-25.327.387-37.975-.025-11.94-.388-20.547-8.423-21.694-20.022-1.312-13.275-.468-26.62-.41-39.928.021-4.774-.813-6.563-6.186-6.461-19.984.379-39.981.119-59.973.165C6107.557,634.7,6093.738,634.834,6079.919,634.925Zm206.317,224.024A78.933,78.933,0,0,0,6208,939.488c.579,42.6,36.864,78.127,79.439,77.314,44.432-.848,78.488-35.764,78.346-79.494C6365.641,893.659,6329.5,858.448,6286.236,858.949ZM5990.8,721.039c42.464.352,78.77-34.79,79.18-76.641.442-45.146-33.8-81.008-78.532-81.145-43.538-.134-78.772,34.156-79.286,78.519C5911.663,685.167,5947.1,720.676,5990.8,721.039Z"/><path class="c" d="M6079.919,634.925c13.819-.091,27.638-.229,41.457-.26,19.992-.046,39.989.214,59.973-.165,5.373-.1,6.207,1.687,6.186,6.461-.058,13.308-.9,26.653.41,39.928,1.147,11.6,9.754,19.634,21.694,20.022,12.648.412,25.329.441,37.975.025,5.007-.165,6.291,1.637,6.2,6.073-.158,7.825-.081,15.656-.081,23.484q0,62.465.077,124.927c.011,3.593-.932,5.605-4.3,7.324-33.638,17.152-51,50.929-45.525,88.39.5,3.424-.113,4.7-3.812,4.694-52.311-.106-104.622-.032-156.933-.181-11.316-.032-18.221-6.963-18.968-18.231-.2-2.985-.073-5.993-.073-8.99q-.008-98.693,0-197.385c0-1.656.184-3.312.282-4.968,15.557-4.106,27.381-13.752,37.31-25.843,6.435-7.837,10.9-16.809,14.41-26.458C6080.846,661,6079.952,647.986,6079.919,634.925ZM6139,825.938q31.729,0,63.458-.021c2.219,0,5.331.641,5.217-2.874-.1-3.255-3.133-2.737-5.384-2.909-.331-.025-.666,0-1,0q-62.21,0-124.418.027a17.615,17.615,0,0,0-4.429.443,2.8,2.8,0,0,0-2.2,2.98c.117,1.61,1.334,2.193,2.8,2.265,1.329.066,2.663.08,3.994.08Q6108.023,825.931,6139,825.938ZM6139,739v-.02q-31.463,0-62.923.023c-2.21,0-5.57-.7-5.552,2.5.016,3.024,3.309,2.412,5.54,2.533.332.018.666,0,1,0q61.925,0,123.85-.01a30.582,30.582,0,0,0,3.986-.131,2.3,2.3,0,0,0,2.142-2.366,2.334,2.334,0,0,0-2.132-2.39,29.372,29.372,0,0,0-3.985-.137Q6169.96,739,6139,739ZM6122.9,764.846v.018q23.951,0,47.9-.007a19.883,19.883,0,0,0,3.973-.2,2.559,2.559,0,0,0,2.13-2.93,2.489,2.489,0,0,0-2.14-2.418,19.671,19.671,0,0,0-3.481-.153q-47.4,0-94.8.02a32.424,32.424,0,0,0-3.984.122,2.451,2.451,0,0,0-2.354,2.7,2.542,2.542,0,0,0,2.371,2.721,30.351,30.351,0,0,0,3.983.122Q6099.7,764.851,6122.9,764.846ZM6134,785q28.455,0,56.91,0c1.164,0,2.331.024,3.49-.06,1.5-.108,2.63-.894,2.587-2.461A2.526,2.526,0,0,0,6194.35,780c-1.159-.085-2.327-.071-3.491-.071q-57.159-.014-114.319-.02c-1,0-2-.014-3,.017-1.615.052-3.267.494-3.121,2.384.12,1.565,1.491,2.541,3.17,2.655,1.159.079,2.328.038,3.492.038Q6105.541,785.008,6134,785Zm-4.95,55.963c-17.3,0-34.6-.044-51.9.051-2.42.014-6.459-1.317-6.531,2.384-.067,3.481,3.876,2.561,6.327,2.564q51.9.064,103.8.034c1,0,2,.013,2.994-.008,1.639-.034,3.081-.5,3.147-2.42.066-1.9-1.244-2.552-2.944-2.6-.831-.023-1.663-.007-2.494-.007Zm-4.976-35.89H6156q8.979,0,17.958-.005c1.4,0,2.783-.19,2.925-1.955.146-1.815-.94-2.757-2.644-2.97a24.151,24.151,0,0,0-2.987-.094q-47.888,0-95.774.014a14.515,14.515,0,0,0-3.456.264,2.233,2.233,0,0,0-1.774,2.618,2.168,2.168,0,0,0,1.962,1.955,28.822,28.822,0,0,0,3.978.172Q6100.127,805.09,6124.07,805.076Zm-21.338,76.837q14.457,0,28.913,0c2.042,0,4.367.044,4.29-2.813-.074-2.775-2.481-2.173-4.182-2.176q-28.414-.059-56.829-.013c-1.938,0-4.531-.377-4.589,2.457-.06,2.9,2.548,2.518,4.481,2.526C6084.121,881.925,6093.427,881.906,6102.732,881.913Z"/><path class="c" d="M6286.236,858.949c43.26-.5,79.405,34.71,79.546,78.359.142,43.73-33.914,78.646-78.346,79.494-42.575.813-78.86-34.712-79.439-77.314A78.933,78.933,0,0,1,6286.236,858.949Zm-9.545,114.319a4.893,4.893,0,0,0,3-1.637q24.339-24.424,48.7-48.828c1.989-1.992,2.349-3.734-.067-5.816a69.139,69.139,0,0,1-7.037-7.081c-2.736-3.154-4.952-2.839-7.742.084-6.5,6.808-13.066,13.574-19.948,19.989-5.079,4.733-9.01,10.532-14.57,14.83-2.139,1.653-3.182,1.448-4.8-.261-3.1-3.26-6.411-6.312-9.455-9.616-2.286-2.483-4.306-2.764-6.688-.207s-4.838,5.055-7.389,7.443c-2.5,2.337-2.406,4.312.05,6.7,7.629,7.43,15.123,15,22.665,22.517C6274.335,972.317,6275.092,973.528,6276.691,973.268Z"/><path class="c" d="M5990.8,721.039c-43.7-.363-79.14-35.872-78.638-79.267.514-44.363,35.748-78.653,79.286-78.519,44.732.137,78.974,36,78.532,81.145C6069.573,686.249,6033.267,721.391,5990.8,721.039Zm25.93-93.608c-.175-3.78-.477-6.935-.439-10.087.15-12.483-12.511-22.691-21.938-23.334-13.559-.925-24.643,6.246-27.879,18.916-1.528,5.98-1.258,12.224-1,18.367a14.481,14.481,0,0,1-2.442,8.8,32.758,32.758,0,0,0,5.888,41.77,33.2,33.2,0,0,0,41.415,2.542c12.956-9.4,17.679-26.539,10.7-40.866C6018.414,638.136,6015.2,633.167,6016.733,627.431Z"/><path class="a" d="M6079.919,634.925c.033,13.061.927,26.075-3.717,38.847-3.509,9.649-7.975,18.621-14.41,26.458-9.929,12.091-21.753,21.737-37.31,25.843-1.02-4.456.452-6.932,4.8-9.269,30.676-16.493,45.884-42.447,45.732-77.244C6075,635.564,6075.962,634.029,6079.919,634.925Z"/><path class="d" d="M6139,825.933q-30.979-.008-61.959-.008c-1.331,0-2.665-.014-3.994-.08-1.465-.072-2.682-.655-2.8-2.265a2.8,2.8,0,0,1,2.2-2.98,17.615,17.615,0,0,1,4.429-.443q62.21-.036,124.418-.027c.333,0,.668-.021,1,0,2.251.172,5.279-.346,5.384,2.909.114,3.515-3,2.871-5.217,2.874Q6170.732,825.968,6139,825.933Z"/><path class="d" d="M6139,739q30.963,0,61.925,0a29.372,29.372,0,0,1,3.985.137,2.334,2.334,0,0,1,2.132,2.39,2.3,2.3,0,0,1-2.142,2.366,30.582,30.582,0,0,1-3.986.131q-61.926.011-123.85.01c-.333,0-.667.016-1,0-2.231-.121-5.524.491-5.54-2.533-.018-3.2,3.342-2.5,5.552-2.5q31.46-.059,62.923-.023Z"/><path class="d" d="M6122.9,764.846q-23.2,0-46.4,0a30.351,30.351,0,0,1-3.983-.122,2.542,2.542,0,0,1-2.371-2.721,2.451,2.451,0,0,1,2.354-2.7,32.424,32.424,0,0,1,3.984-.122q47.4-.02,94.8-.02a19.671,19.671,0,0,1,3.481.153,2.489,2.489,0,0,1,2.14,2.418,2.559,2.559,0,0,1-2.13,2.93,19.883,19.883,0,0,1-3.973.2q-23.949.015-47.9.007Z"/><path class="d" d="M6134,785q-28.455,0-56.91,0c-1.164,0-2.333.041-3.492-.038-1.679-.114-3.05-1.09-3.17-2.655-.146-1.89,1.506-2.332,3.121-2.384,1-.031,2-.017,3-.017q57.159.008,114.319.02c1.164,0,2.332-.014,3.491.071a2.526,2.526,0,0,1,2.633,2.478c.043,1.567-1.083,2.353-2.587,2.461-1.159.084-2.326.059-3.49.06Z"/><path class="d" d="M6129.046,840.966h52.4c.831,0,1.663-.016,2.494.007,1.7.046,3.01.7,2.944,2.6-.066,1.92-1.508,2.386-3.147,2.42-1,.021-2,.008-2.994.008q-51.9,0-103.8-.034c-2.451,0-6.394.917-6.327-2.564.072-3.7,4.111-2.37,6.531-2.384C6094.447,840.922,6111.747,840.966,6129.046,840.966Z"/><path class="d" d="M6124.07,805.079q-23.943,0-47.887,0a28.822,28.822,0,0,1-3.978-.172,2.168,2.168,0,0,1-1.962-1.955,2.233,2.233,0,0,1,1.774-2.618,14.515,14.515,0,0,1,3.456-.264q47.887-.021,95.774-.014a24.151,24.151,0,0,1,2.987.094c1.7.213,2.79,1.155,2.644,2.97-.142,1.765-1.525,1.954-2.925,1.955q-8.979.012-17.958.005Q6140.032,805.076,6124.07,805.079Z"/><path class="d" d="M6102.732,881.909c-9.305,0-18.611.016-27.916-.019-1.933-.008-4.541.374-4.481-2.526.058-2.834,2.651-2.454,4.589-2.457q28.415-.035,56.829.013c1.7,0,4.108-.6,4.182,2.176.077,2.857-2.248,2.811-4.29,2.813Q6117.188,881.921,6102.732,881.909Z"/><path class="b" d="M6276.695,973.268c-1.6.26-2.36-.951-3.291-1.879-7.542-7.519-15.036-15.087-22.665-22.517-2.456-2.392-2.548-4.367-.05-6.7,2.551-2.388,5.007-4.886,7.389-7.443s4.4-2.276,6.688.207c3.044,3.3,6.36,6.356,9.455,9.616,1.623,1.709,2.666,1.914,4.8.261,5.56-4.3,9.491-10.1,14.57-14.83,6.882-6.415,13.448-13.181,19.948-19.989,2.79-2.923,5.006-3.238,7.742-.084a69.139,69.139,0,0,0,7.037,7.081c2.416,2.082,2.056,3.824.067,5.816q-24.365,24.4-48.7,48.828A4.894,4.894,0,0,1,6276.695,973.268Z"/><path class="b" d="M6016.733,627.431c-1.536,5.736,1.681,10.7,4.312,16.108,6.976,14.327,2.253,31.47-10.7,40.866a33.2,33.2,0,0,1-41.415-2.542,32.758,32.758,0,0,1-5.888-41.77,14.481,14.481,0,0,0,2.442-8.8c-.262-6.143-.532-12.387,1-18.367,3.236-12.67,14.32-19.841,27.879-18.916,9.427.643,22.088,10.851,21.938,23.334C6016.256,620.5,6016.558,623.651,6016.733,627.431Zm-25.487,2.094c-15.715.017-28.475,12.572-28.419,27.965a28.249,28.249,0,0,0,56.5-.265C6019.354,642.055,6006.636,629.508,5991.246,629.525Zm-20.446.807c4.8-1.9,4.8-1.9,5.048-8.244.356-9.045,6.674-15.43,15.427-15.592,7.622-.141,14.017,6,14.949,14.392.22,1.978.293,3.972.523,5.949a3.133,3.133,0,0,0,3.465,2.893c1.905-.138,1.078-2.08,1.108-3.2.081-2.988.021-5.991-.19-8.973a19.655,19.655,0,0,0-17.145-18.416c-7.346-1-17.411,1.8-21.766,12.834C5969.871,617.924,5971.27,624.092,5970.8,630.332Zm23.735-5.375c2.078-.5,4.773,1.519,6.062-.2,1.452-1.944.622-4.8-.388-7.117a9.8,9.8,0,0,0-11.019-5.624c-4.333.767-7.75,4.773-8.163,9.453-.241,2.73.141,4.4,3.646,3.689C5987.891,624.5,5991.218,623.87,5994.535,624.957Z"/><path class="e" d="M5991.246,629.525c15.39-.017,28.108,12.53,28.077,27.7a28.249,28.249,0,0,1-56.5.265C5962.771,642.1,5975.531,629.542,5991.246,629.525Zm7.6,23.37c-.34-3.929-1.616-6.734-5.144-7.717-3.192-.89-6.2-.7-8.476,2.315-2.128,2.821-3.195,6.366-.629,8.616,4.033,3.536,3.753,7.687,3.731,12.12-.01,2.132-.2,4.726,3.076,4.533,2.975-.176,2.464-2.705,2.465-4.569,0-4.275-.6-8.574,3.582-11.684C5998.441,655.777,5998.52,653.823,5998.85,652.9Z"/><path class="a" d="M5970.8,630.332c.47-6.24-.929-12.408,1.419-18.356,4.355-11.03,14.42-13.836,21.766-12.834a19.655,19.655,0,0,1,17.145,18.416c.211,2.982.271,5.985.19,8.973-.03,1.119.8,3.061-1.108,3.2a3.133,3.133,0,0,1-3.465-2.893c-.23-1.977-.3-3.971-.523-5.949-.932-8.391-7.327-14.533-14.949-14.392-8.753.162-15.071,6.547-15.427,15.592C5975.6,628.428,5975.6,628.428,5970.8,630.332Z"/><path class="c" d="M5994.536,624.954c-3.318-1.084-6.645-.451-9.863.2-3.5.709-3.887-.959-3.646-3.689.413-4.68,3.83-8.686,8.163-9.453a9.8,9.8,0,0,1,11.019,5.624c1.01,2.319,1.84,5.173.388,7.117C5999.308,626.476,5996.613,624.461,5994.536,624.954Z"/><path class="b" d="M5998.85,652.9c-.33.928-.409,2.882-1.4,3.614-4.184,3.11-3.579,7.409-3.582,11.684,0,1.864.51,4.393-2.465,4.569-3.273.193-3.086-2.4-3.076-4.533.022-4.433.3-8.584-3.731-12.12-2.566-2.25-1.5-5.795.629-8.616,2.276-3.017,5.284-3.2,8.476-2.315C5997.234,646.161,5998.51,648.966,5998.85,652.9Z"/></g></svg>