<svg xmlns="http://www.w3.org/2000/svg" width="746.609" height="635.001" viewBox="0 0 746.609 635.001"><defs><style>.a{fill:#a9d8e0;}.b{fill:#595b5c;}.c{fill:#d6dce0;}.d{fill:#fbdbb7;}.e{fill:#42869d;}.f{fill:#fdfdfd;}.g{fill:#dcf1fa;}.h{fill:#f14080;}</style></defs><g transform="translate(-4012.483 -479.159)"><path class="a" d="M4111.4,1107.153c-1.036-4.821-5.116-7.494-8.1-10.767-9.453-10.363-17.559-21.767-25.675-33.1a267.261,267.261,0,0,1-19.214-31.2c-9.4-17.9-18-36.185-24.719-55.376-5.736-16.374-10.1-33.161-14.2-49.877-2.422-9.879-3.338-20.59-4.375-30.986-1.968-19.724-3.2-39.514-2.37-59.335.276-6.563.293-13.291,2.437-19.682,5.74,8.348,13.865,10.872,23.7,10.845,65.662-.181,131.325-.062,196.986-.2a12.136,12.136,0,0,1,9.5,4.089q19.232,19.567,38.786,38.817c1.731,1.715,3.121,4.976,6.393,3.347,2.922-1.454,2.07-4.569,2.088-7.119.06-8.536.022-17.074.022-25.611,0-13.255,0-13.255,13.275-13.4,15.209-.166,23.823-8.8,23.823-23.86,0-67.279-.215-134.56.223-201.837.072-11.073-7.792-20.384-20.409-20.228-39.839.495-79.687.209-119.532.172-19.713-.019-39.426-.155-59.139-.237,3-5.7,8.111-9.435,12.928-13.3,10.924-8.754,21.83-17.583,33.3-25.583,9.51-6.632,19.686-12.352,29.8-18.056,11.315-6.378,23.378-11.232,35.188-16.615,14.035-6.4,28.707-10.611,43.341-14.973a317.408,317.408,0,0,1,43.474-9.254,386.01,386.01,0,0,1,65.257-4.6,355.416,355.416,0,0,1,61.32,6.71c11.307,2.206,22.533,4.664,33.565,7.938a362.758,362.758,0,0,1,50.374,18.624,421.834,421.834,0,0,1,47.4,25.33,319.163,319.163,0,0,1,35.677,25.7c15.078,12.747,29.687,26.249,42.534,41.363,11.19,13.163,22.089,26.579,31.679,41.015a330.123,330.123,0,0,1,23.537,40.647,431.975,431.975,0,0,1,17.174,40.137c6.257,17.513,10.8,35.468,14.96,53.495,1.832,7.941,2.123,16.459,3.44,24.508,3.329,20.348,3.1,40.7,3.225,61.119.1,16.843-3.56,33.274-5.466,49.9-2,17.48-7.079,34.313-12.284,51-4.168,13.361-10.086,26.169-15,39.3-4.035,10.774-10.847,20.153-15.13,30.8-.576,1.43-2.024,2.494-3,3.782-8.985,11.923-15.8,25.248-24.588,37.376-6.893,9.51-15.209,17.431-22.852,26.09a5.13,5.13,0,0,0-1.682,3.086c-11.276.175-8.839,1.875-11.034-8.493-2.346-11.083-4.739-22.163-6.69-33.318-.729-4.167-4.4-9.2,2.048-12.519.7-.359.672-2.654.533-4.005-.765-7.453-.64-14.96-1.969-22.391-3.435-19.207-10.508-36.505-24.894-50.27a83.7,83.7,0,0,0-47.805-23.09c-6.421-.849-10.211-3.753-13.616-8.514-3.521-4.924-6.956-9.613-14.519-8.437-5.263.818-6.955-2.134-5.685-7.354.774-3.18,3.559-3.05,5.682-3.76,13.392-4.478,24.754-11.924,33.644-22.913a99.59,99.59,0,0,0,21.28-48.741c.466-3.112,1.877-4.077,4.825-4.99,12.208-3.778,18.81-13.886,18.025-26.186-.39-6.117-3.377-10.716-7.5-14.846l.221-.141-.155.1c-2.634-1.7-1.624-4.378-1.633-6.657-.07-19.1.11-38.2-.117-57.3-.065-5.54.97-9.847,5.206-14.018,7.461-7.349,8.829-16.315,4.445-22.964-12.481-18.928-29.4-32.99-49.647-42.67-23.163-11.074-47.957-15.026-73.482-12.773-25.676,2.266-46.175,12.266-53.57,39.565-.659,2.432-1.781,2.941-4.247,2.906-10.3-.149-18.522,4.308-24.225,12.728a52.561,52.561,0,0,0-8.845,24.352c-2.308,22.9-.651,45.88-.97,68.821-.054,3.893-.906,6.992-3.526,9.832-9.733,10.548-7.5,31.967,10.413,38.314,5.543,1.963,6.7,4.624,7.657,9.395,4.579,22.924,14.173,43.025,33.453,57.449a74.925,74.925,0,0,0,23.311,11.5c4.245,1.295,3.168,4.478,3.277,7.386.091,2.41-1.194,3.535-3.358,3.077-9.557-2.02-14.288,4.035-18.939,10.732-1.744,2.512-3.477,5.426-7.452,5.487-6.545.1-12.783,2.059-18.943,4.067-1.927.629-3.571.95-5.072-.46-4.6-4.319-10.471-4.3-16.063-4.306q-90.538-.156-181.074.03a46.6,46.6,0,0,0-12.05,1.233c-10.23,2.783-13.971,9.322-13.968,23.282q.009,52.426.035,104.852c0,3.408,1.2,7.356-4.275,8.31-2.009.35-1.514,2.83-1.592,4.708-.2,4.782,2.985,8.539,3.932,13.016Z"/><path class="b" d="M4111.4,1107.153h88.767c-.947-4.477-4.131-8.234-3.932-13.016.078-1.878-.417-4.358,1.592-4.708,5.474-.954,4.274-4.9,4.275-8.31q.018-52.427-.035-104.852c0-13.96,3.738-20.5,13.968-23.282a46.6,46.6,0,0,1,12.05-1.233q90.537-.138,181.074-.03c5.592.01,11.465-.013,16.063,4.306,1.5,1.41,3.145,1.089,5.072.46,6.16-2.008,12.4-3.965,18.943-4.067,3.975-.061,5.708-2.975,7.452-5.487,4.651-6.7,9.382-12.752,18.939-10.732,2.164.458,3.449-.667,3.358-3.077-.109-2.908.968-6.091-3.277-7.386a74.925,74.925,0,0,1-23.311-11.5c-19.28-14.424-28.874-34.525-33.453-57.449-.953-4.771-2.114-7.432-7.657-9.395-17.914-6.347-20.146-27.766-10.413-38.314,2.62-2.84,3.472-5.939,3.526-9.832.319-22.941-1.338-45.921.97-68.821a52.561,52.561,0,0,1,8.845-24.352c5.7-8.42,13.922-12.877,24.225-12.728,2.466.035,3.588-.474,4.247-2.906,7.4-27.3,27.894-37.3,53.57-39.565,25.525-2.253,50.319,1.7,73.482,12.773,20.248,9.68,37.166,23.742,49.647,42.67,4.384,6.649,3.016,15.615-4.445,22.964-4.236,4.171-5.271,8.478-5.206,14.018.227,19.1.047,38.2.117,57.3.009,2.279-1,4.961,1.633,6.657l-.065.045c4.117,4.13,7.1,8.729,7.494,14.846.785,12.3-5.817,22.408-18.025,26.186-2.948.913-4.359,1.878-4.825,4.99a99.59,99.59,0,0,1-21.28,48.741c-8.89,10.989-20.252,18.435-33.644,22.913-2.123.71-4.908.58-5.682,3.76-1.27,5.22.422,8.172,5.685,7.354,7.563-1.176,11,3.513,14.519,8.437,3.4,4.761,7.195,7.665,13.616,8.514a83.7,83.7,0,0,1,47.805,23.09c14.386,13.765,21.459,31.063,24.894,50.27,1.329,7.431,1.2,14.938,1.969,22.391.139,1.351.164,3.646-.533,4.005-6.443,3.322-2.777,8.352-2.048,12.519,1.951,11.155,4.344,22.235,6.69,33.318,2.195,10.368-.242,8.668,11.034,8.493,11.374.063,22.748.066,34.121.232,2.594.038,6.543-1.126,6.482,3.276-.062,4.506-4.112,3.022-6.6,3.024q-138.67.113-277.342.068-167.32,0-334.642-.121c-3.068,0-8.74,2.469-8.806-3.038s5.552-3.01,8.638-3.124C4091.08,1107.075,4101.243,1107.211,4111.4,1107.153Zm206.183-18.368v-.182c34.15,0,68.3-.151,102.448.161,5.172.047,6.371-1.121,6.341-6.159-.208-35.771-.1-71.543-.1-107.315,0-13.052-3.935-16.882-17.242-16.882q-91.778,0-183.556.006c-1.625,0-3.255-.024-4.875.075-6.92.421-11.623,4.947-11.644,11.93-.114,38.006-.037,76.013-.148,114.02-.01,3.447,1,4.441,4.507,4.427C4248.066,1088.731,4282.824,1088.785,4317.582,1088.785ZM4590.928,801.6c0-18.131.031-33.166-.014-48.2-.021-7.258-.058-7.157-6.7-5.328-34.035,9.374-68.208,11.89-102.638,2.018-10.289-2.95-20.315-6.757-31.45-6.091-17.121,1.023-25.908,8.874-26.325,25.988-.559,22.941-.517,45.9-.5,68.85.008,12.3,2.991,24.075,7.356,35.517,8.6,22.543,23.812,38.445,47.183,45.431,17.2,5.142,34.741,5.1,52.348,1.519,14.557-2.958,27.167-9.57,37.212-20.324,13.121-14.045,19.867-31.374,22.53-50.129C4592.393,833.5,4590.306,815.95,4590.928,801.6Zm-54.38,193.192c-2.888,4.04-.738,8.172-.761,12.089-.183,31.291.039,62.585-.235,93.875-.049,5.563,1.763,6.906,6.954,6.734,10.759-.357,21.542-.312,32.307-.073,5.377.119,7.491-1.5,7.414-7.308-.3-22.754-.15-45.514-.009-68.271.012-2.027-1.395-5.649,2.619-5.553,3.177.076,3.655,3.148,3.325,5.538-1.278,9.245,3.239,16.87,6.481,24.88,1.017,2.514,2.422,3.244,5.184,2.445,10.5-3.04,20.994-6.2,31.656-8.563,4.731-1.048,5.819-3.215,5.7-7.488-.485-17.321-4.532-33.672-13.62-48.478-12.181-19.846-30.408-30.776-53.047-35.009-5.978-1.118-8.909.872-10.362,6.84-2.3,9.431-5.091,18.761-8.1,27.994-2.845,8.723-3.083,8.637-10.472,3.62C4539.934,996.944,4538.246,995.891,4536.548,994.789Zm-57.037-1.11c-3.2,2.057-5.473,3.03-7.1,4.65-6.01,5.981-7.883,2.817-9.6-2.626-3.392-10.768-6.584-21.6-9.731-32.444-.735-2.531-1.449-4.983-4.669-4.3-4.327.913-8.813.78-13.014,2.8-2.516,1.211-3.045,2.465-3.031,5.011.141,25.79.151,51.582.185,77.373.016,11.982-.111,23.965.086,35.944.049,3.021-.817,7.088,2.837,8.525,3.169,1.246,2.908,3.321,3.09,5.744.226,3-1.158,5.478-2.157,8.127-.852,2.256-1.142,4.609,2.443,4.633,12.363.084,24.728.071,37.09.226,3.786.048,3.561-2.424,3.563-4.9q.012-12.8.007-25.589C4479.512,1049.646,4479.511,1022.445,4479.511,993.679Zm5.871-21.144c0,44.505.031,87.72-.06,130.936-.007,3.429,1.512,3.931,4.4,3.9,11.164-.111,22.338-.3,33.491.075,4.7.156,5.627-1.372,5.608-5.783-.172-41.406-.1-82.813-.137-124.22,0-1.324.524-2.8-.927-4.329C4514.063,982.476,4500.085,982.133,4485.382,972.535Zm-167.2,122.64q-35.951,0-71.9,0c-13,0-26,.164-39-.047-5.36-.087-4.821,2.132-2.654,5.312,3.341,4.9,8.079,6.968,14,6.93,15.639-.1,31.279-.05,46.919-.051q74.948,0,149.9.062c5.666.013,10.378-1.515,14.059-5.785,1.3-1.513,2.807-3.521,2.053-5.417-.787-1.978-3.233-.95-4.911-.953Q4372.416,1095.138,4318.185,1095.175Zm210.234-150.312c0-4.264-.04-8.529.016-12.792.031-2.335-.072-3.535-3.313-3.06a122.041,122.041,0,0,1-35.169.246c-2.974-.428-4.073-.365-4.329,3.128a126.646,126.646,0,0,0,.056,23.7c1.013,8.867,5.3,14.455,13.823,16.361,8.878,1.986,17.549,2.134,24.618-5.6C4530.149,960.245,4528.241,952.4,4528.419,944.863Zm99.467,162.462c4.052,0,8.1-.013,12.156.006,1.74.009,3.426-.059,2.907-2.528-3.112-14.81-6.312-29.6-9.332-44.429-.558-2.742-1.682-3.151-4.165-2.429-6.778,1.971-13.557,4.012-20.45,5.488-3.817.817-5.049,2.055-4.095,6.079,1.724,7.266,2.951,14.655,4.227,22.02C4611.868,1107.322,4611.827,1107.329,4627.886,1107.325ZM4479.517,964.536c0-5.274-.2-10.559.062-15.82.218-4.33-1.056-6.357-5.783-6.1-5.264.281-15.1,8.553-15.639,13.787a6.583,6.583,0,0,0,.371,2.374c2.419,8.55,4.743,17.129,7.335,25.626,2.436,7.985,2.4,7.69,9.557,3.224,3.259-2.034,4.31-4.276,4.14-7.874C4479.321,974.688,4479.5,969.608,4479.517,964.536Zm56.083.156h.024c0,4.469.33,8.969-.086,13.4-.486,5.177,1.252,8.424,5.638,11.468,4.315,2.994,5.391,1.772,6.375-2.425,1.472-6.277,2.616-12.71,4.88-18.706,4.8-12.721,4.437-15.425-5.267-24.205-3.044-2.754-6.634-1.656-9.809-1.091-2.932.522-1.665,3.671-1.713,5.719C4535.517,954.128,4535.6,959.411,4535.6,964.692Zm52.563,94.911c0,15.656.009,29.862-.012,44.068,0,1.949.034,3.912,2.721,3.6,4.827-.566,9.906,1.575,14.463-1.313.34-.216.086-1.561-.073-2.343q-3.446-16.956-6.947-33.9c-.232-1.133-.137-3.015-1.689-2.684C4591.419,1068.137,4591.237,1063.3,4588.163,1059.6Zm9.183-235.134q0,7.593,0,15.185c0,1.724-.04,3.213,2.623,2.654,6.585-1.381,12.849-10.083,12.744-18.041-.1-7.885-6.211-16.084-12.608-17.434-2.565-.542-2.755.6-2.755,2.452Q4597.356,816.877,4597.346,824.469Zm-180.551.377h.029c0-4.852-.039-9.7.014-14.554.033-3.04-.481-4.691-4.144-3.005a19.741,19.741,0,0,0-11.061,17.4,18.466,18.466,0,0,0,10.9,16.736c2.865,1.227,4.471,1.208,4.306-2.629C4416.642,834.152,4416.795,829.5,4416.795,824.846Z"/><path class="b" d="M4130.91,581.6c19.713.082,39.426.218,59.139.237,39.845.037,79.693.323,119.532-.172,12.617-.156,20.481,9.155,20.409,20.228-.438,67.277-.224,134.558-.223,201.837,0,15.059-8.614,23.694-23.823,23.86-13.275.145-13.275.145-13.275,13.4,0,8.537.038,17.075-.022,25.611-.018,2.55.834,5.665-2.088,7.119-3.272,1.629-4.662-1.632-6.393-3.347q-19.5-19.306-38.786-38.817a12.136,12.136,0,0,0-9.5-4.089c-65.661.143-131.324.024-196.986.2-9.84.027-17.965-2.5-23.7-10.845a38.087,38.087,0,0,1-2.648-14.832q.126-99.675.07-199.352c.005-14.562,6.261-20.748,20.769-20.78Q4082.144,581.75,4130.91,581.6Zm-111.889,58.893c-.084,54.867-.282,109.735-.156,164.6.024,10.759,6.675,16.168,17.884,16.167q100.614-.013,201.228-.076a13.8,13.8,0,0,1,10.7,4.591c6.791,7,13.822,13.765,20.639,20.74,5.175,5.294,10.172,10.763,15.248,16.154l1.747-1.018V839.386c0-18.054,0-18.054,17.742-18.138,14.258-.067,19.544-5.3,19.549-19.469q.026-77.433.012-154.867a46.235,46.235,0,0,0-.113-4.87c-.18-1.691-1.31-1.766-2.629-1.183,3.294.187,2.706-2.37,2.746-4.177.108-4.875-.386-9.792.079-14.623.517-5.373-1.747-6.242-6.561-6.233q-127.76.215-255.52.124c-12.806,0-25.613.1-38.417-.062-3.439-.044-4.681,1.033-4.531,4.5C4018.963,627.084,4018.924,633.79,4019.021,640.491ZM4171.2,609.719q73.172,0,146.341-.039c1.934,0,4.333.982,5.755-.889,3.847-5.062-1.264-18.375-7.722-19.887a42.837,42.837,0,0,0-9.672-.836q-136.278-.055-272.555-.021c-10.8,0-14.314,4.016-14.718,15.412-.177,5.007,1.052,6.411,6.232,6.388C4073.637,609.63,4122.417,609.718,4171.2,609.719Z"/><path class="b" d="M4611.485,807.258l.154-.1-.22.141Z"/><path class="c" d="M4317.582,1088.785c-34.758,0-69.516-.054-104.274.081-3.508.014-4.517-.98-4.507-4.427.111-38.007.034-76.014.148-114.02.021-6.983,4.724-11.509,11.644-11.93,1.62-.1,3.25-.075,4.875-.075q91.778-.008,183.556-.006c13.307,0,17.238,3.83,17.242,16.882.009,35.772-.1,71.544.1,107.315.03,5.038-1.169,6.206-6.341,6.159-34.147-.312-68.3-.161-102.448-.161Zm-15.693-65.885a15.566,15.566,0,0,0,31.1,1.458c.317-8.828-6.593-16.331-15.174-16.479A15.577,15.577,0,0,0,4301.889,1022.9Z"/><path class="d" d="M4590.928,801.6c-.622,14.353,1.465,31.9-1,49.251-2.663,18.755-9.409,36.084-22.53,50.129-10.045,10.754-22.655,17.366-37.212,20.324-17.607,3.578-35.148,3.623-52.348-1.519-23.371-6.986-38.584-22.888-47.183-45.431-4.365-11.442-7.348-23.221-7.356-35.517-.016-22.95-.058-45.909.5-68.85.417-17.114,9.2-24.965,26.325-25.988,11.135-.666,21.161,3.141,31.45,6.091,34.43,9.872,68.6,7.356,102.638-2.018,6.641-1.829,6.678-1.93,6.7,5.328C4590.959,768.431,4590.928,783.466,4590.928,801.6Zm-83.854,63.184v.039c-6.3,0-12.6.016-18.9,0-9.112-.029-10.89,2.679-7.447,11.389,6.79,17.172,32.77,22.826,46.117,9.943,4.465-4.31,7.493-9.465,8.013-15.892.321-3.973-1.369-5.548-5.233-5.5C4522.11,864.845,4514.591,864.781,4507.074,864.781Zm3.215-46.238h-.021c0-3.853-.014-7.707.006-11.56.011-2.3-.757-4.235-3.325-4.062-2.155.145-2.816,2.025-2.816,4.039,0,4.868-.16,9.743.056,14.6.16,3.614-.423,6.121-4.045,8.25-5.389,3.166-6.811,9.679-4.435,15.52,1.856,4.563,8.881,8.051,14.249,7.127,1.7-.292,3.33-.738,3.348-2.787a3.057,3.057,0,0,0-2.92-3.284,28.011,28.011,0,0,1-4.17-.581c-2.64-.767-4.791-1.964-4.862-5.326-.07-3.325,1.079-5.565,4.439-6.194,3.813-.713,4.777-3.1,4.538-6.618C4510.126,824.64,4510.289,821.586,4510.289,818.543Zm35.261-28.35c-2.581.6-6.854-1.505-6.954,3.3-.088,4.187,4.1,3.185,6.559,3.348,6.313.417,12.4,1.355,18.064,4.37,1.716.913,3.884,2.421,5.3-.024,1.6-2.761-.421-4.173-2.682-5.618C4559.633,791.6,4552.6,791.22,4545.55,790.193Zm-66.429,3.509a3.36,3.36,0,0,0-2.373-3.338c-4.681-1.783-23.826,2.916-27.181,6.643-1.161,1.29-2.029,2.686-.862,4.332a2.694,2.694,0,0,0,3.78.862c7.143-4.548,15.268-4.962,23.318-5.756C4477.565,796.271,4478.887,795.508,4479.121,793.7Zm-18.751,27.51c-.071,4.53.275,9.2,6.144,9.253,5.623.051,6.686-4.43,6.7-8.976.016-4.436-.54-9.051-6.362-9.166C4460.96,812.206,4460.424,816.714,4460.37,821.212Zm96.442.411c.078-7.26-3.284-10.99-8.284-9.088-3.337,1.268-4.262,4.029-4.126,7.342.154,3.767-.81,8.022,3.583,10.159C4552.874,832.414,4556.736,828.659,4556.812,821.623Z"/><path class="e" d="M4536.548,994.789c1.7,1.1,3.386,2.155,5.031,3.272,7.389,5.017,7.627,5.1,10.472-3.62,3.011-9.233,5.8-18.563,8.1-27.994,1.453-5.968,4.384-7.958,10.362-6.84,22.639,4.233,40.866,15.163,53.047,35.009,9.088,14.806,13.135,31.157,13.62,48.478.12,4.273-.968,6.44-5.7,7.488-10.662,2.364-21.154,5.523-31.656,8.563-2.762.8-4.167.069-5.184-2.445-3.242-8.01-7.759-15.635-6.481-24.88.33-2.39-.148-5.462-3.325-5.538-4.014-.1-2.607,3.526-2.619,5.553-.141,22.757-.292,45.517.009,68.271.077,5.805-2.037,7.427-7.414,7.308-10.765-.239-21.548-.284-32.307.073-5.191.172-7-1.171-6.954-6.734.274-31.29.052-62.584.235-93.875C4535.81,1002.961,4533.66,998.829,4536.548,994.789Z"/><path class="e" d="M4479.511,993.679c0,28.766,0,55.967,0,83.168q0,12.795-.007,25.589c0,2.479.223,4.951-3.563,4.9-12.362-.155-24.727-.142-37.09-.226-3.585-.024-3.295-2.377-2.443-4.633,1-2.649,2.383-5.123,2.157-8.127-.182-2.423.079-4.5-3.09-5.744-3.654-1.437-2.788-5.5-2.837-8.525-.2-11.979-.07-23.962-.086-35.944-.034-25.791-.044-51.583-.185-77.373-.014-2.546.515-3.8,3.031-5.011,4.2-2.021,8.687-1.888,13.014-2.8,3.22-.679,3.934,1.773,4.669,4.3,3.147,10.843,6.339,21.676,9.731,32.444,1.714,5.443,3.587,8.607,9.6,2.626C4474.038,996.709,4476.31,995.736,4479.511,993.679Z"/><path class="f" d="M4485.382,972.535c14.7,9.6,28.681,9.941,42.372.581,1.451,1.532.926,3,.927,4.329.034,41.407-.035,82.814.137,124.22.019,4.411-.91,5.939-5.608,5.783-11.153-.371-22.327-.186-33.491-.075-2.885.029-4.4-.473-4.4-3.9C4485.413,1060.255,4485.382,1017.04,4485.382,972.535Z"/><path class="c" d="M4318.185,1095.179q54.231,0,108.462.048c1.678,0,4.124-1.025,4.911.953.754,1.9-.749,3.9-2.053,5.417-3.681,4.27-8.393,5.8-14.059,5.785q-74.949-.168-149.9-.062c-15.64,0-31.28-.051-46.919.051-5.917.038-10.655-2.029-14-6.93-2.167-3.18-2.706-5.4,2.654-5.312,13,.211,26,.05,39,.047Q4282.234,1095.171,4318.185,1095.179Z"/><path class="d" d="M4528.419,944.863c-.178,7.533,1.73,15.382-4.3,21.98-7.069,7.736-15.74,7.588-24.618,5.6-8.522-1.906-12.81-7.494-13.823-16.361a126.646,126.646,0,0,1-.056-23.7c.256-3.493,1.355-3.556,4.329-3.128a122.041,122.041,0,0,0,35.169-.246c3.241-.475,3.344.725,3.313,3.06C4528.379,936.334,4528.419,940.6,4528.419,944.863Z"/><path class="d" d="M4627.886,1107.324c-16.059.005-16.018,0-18.752-15.792-1.276-7.365-2.5-14.754-4.227-22.02-.954-4.024.278-5.262,4.095-6.079,6.893-1.476,13.672-3.517,20.45-5.488,2.483-.722,3.607-.313,4.165,2.429,3.02,14.828,6.22,29.619,9.332,44.429.519,2.469-1.167,2.537-2.907,2.528C4635.99,1107.312,4631.938,1107.325,4627.886,1107.324Z"/><path class="e" d="M4479.508,964.536c-.009,5.072-.187,10.152.052,15.212.17,3.6-.881,5.84-4.14,7.874-7.154,4.466-7.121,4.761-9.557-3.224-2.592-8.5-4.916-17.076-7.335-25.626a6.583,6.583,0,0,1-.371-2.374c.54-5.234,10.375-13.506,15.639-13.787,4.727-.252,6,1.775,5.783,6.1C4479.315,953.977,4479.517,959.262,4479.508,964.536Z"/><path class="e" d="M4535.6,964.692c0-5.281-.083-10.564.042-15.842.048-2.048-1.219-5.2,1.713-5.719,3.175-.565,6.765-1.663,9.809,1.091,9.7,8.78,10.071,11.484,5.267,24.205-2.264,6-3.408,12.429-4.88,18.706-.984,4.2-2.06,5.419-6.375,2.425-4.386-3.044-6.124-6.291-5.638-11.468.416-4.429.086-8.929.086-13.4Z"/><path class="g" d="M4588.163,1059.6c3.074,3.7,3.256,8.534,8.463,7.426,1.552-.331,1.457,1.551,1.689,2.684q3.482,16.948,6.947,33.9c.159.782.413,2.127.073,2.343-4.557,2.888-9.636.747-14.463,1.313-2.687.315-2.724-1.648-2.721-3.6C4588.172,1089.465,4588.163,1075.259,4588.163,1059.6Z"/><path class="d" d="M4597.35,824.469q0-7.591,0-15.184c0-1.85.19-2.994,2.755-2.452,6.4,1.35,12.5,9.549,12.608,17.434.1,7.958-6.159,16.66-12.744,18.041-2.663.559-2.62-.93-2.623-2.654Q4597.337,832.063,4597.35,824.469Z"/><path class="d" d="M4416.795,824.846c0,4.65-.153,9.306.047,13.947.165,3.837-1.441,3.856-4.306,2.629a18.466,18.466,0,0,1-10.9-16.736,19.741,19.741,0,0,1,11.061-17.4c3.663-1.686,4.177-.035,4.144,3.005-.053,4.851-.014,9.7-.014,14.554Z"/><path class="e" d="M4320.876,640.859l-7.69-.406h.2l-294.368.037c-.1-6.7-.058-13.407-.349-20.1-.15-3.471,1.092-4.548,4.531-4.5,12.8.165,25.611.064,38.417.062q127.761-.014,255.52-.124c4.814-.009,7.078.86,6.561,6.233-.465,4.831.029,9.748-.079,14.623C4323.582,638.489,4324.17,641.046,4320.876,640.859Z"/><path class="g" d="M4171.2,609.719c-48.78,0-97.56-.089-146.339.128-5.18.023-6.409-1.381-6.232-6.388.4-11.4,3.918-15.412,14.718-15.412q136.278-.008,272.555.021a42.837,42.837,0,0,1,9.672.836c6.458,1.512,11.569,14.825,7.722,19.887-1.422,1.871-3.821.887-5.755.889Q4244.368,609.755,4171.2,609.719Zm-113.57-12.209c-1.927-1.744-3.451-5.413-5.946-5.044-2.856.423-6.372,3.27-5.675,6.663.475,2.311.852,6.982,4.664,6.629C4054.631,605.391,4056.077,601.4,4057.627,597.51Zm-16.814,1.955c.316-4.287-2.129-5.565-5.619-5.61-3.444-.044-4.44,2.048-4.443,5.154,0,3.791,2.1,4.775,5.449,4.853S4041.22,602.731,4040.813,599.465Zm25.748,4.136c3.651-.081,5.663-1.271,5.444-4.717-.2-3.2-2.076-4.64-5.154-4.663s-4.232,1.678-4.3,4.593C4062.468,602.061,4063.716,603.817,4066.561,603.6Z"/><path class="b" d="M4301.889,1022.9a15.577,15.577,0,0,1,15.923-15.021c8.581.148,15.491,7.651,15.174,16.479a15.566,15.566,0,0,1-31.1-1.458Zm15.571-8.378a8.876,8.876,0,0,0-9.229,9.074,9.534,9.534,0,0,0,9.464,9.125c4.418-.013,8.629-4.363,8.752-9.041C4326.584,1018.428,4322.814,1014.584,4317.46,1014.522Z"/><path class="b" d="M4507.074,864.781c7.517,0,15.036.064,22.552-.027,3.864-.046,5.554,1.529,5.233,5.5-.52,6.427-3.548,11.582-8.013,15.892-13.347,12.883-39.327,7.229-46.117-9.943-3.443-8.71-1.665-11.418,7.447-11.389,6.3.02,12.6,0,18.9,0Zm.643,6.106v-.028c-6.061,0-12.126.126-18.183-.045-3.936-.112-3.9,1.489-2.491,4.35,1.1,2.242,2.915,2.468,5.035,2.454,5.657-.039,11.314-.005,16.97,0,4.648,0,9.3-.159,13.94.047,3.54.157,4.936-2.152,5.06-4.764.158-3.345-2.921-1.879-4.573-1.94C4518.229,870.765,4512.971,870.887,4507.717,870.887Z"/><path class="b" d="M4510.289,818.543c0,3.043-.163,6.1.042,9.125.239,3.521-.725,5.9-4.538,6.618-3.36.629-4.509,2.869-4.439,6.194.071,3.362,2.222,4.559,4.862,5.326a28.011,28.011,0,0,0,4.17.581,3.057,3.057,0,0,1,2.92,3.284c-.018,2.049-1.646,2.495-3.348,2.787-5.368.924-12.393-2.564-14.249-7.127-2.376-5.841-.954-12.354,4.435-15.52,3.622-2.129,4.205-4.636,4.045-8.25-.216-4.858-.055-9.733-.056-14.6,0-2.014.661-3.894,2.816-4.039,2.568-.173,3.336,1.757,3.325,4.062-.02,3.853-.006,7.707-.006,11.56Z"/><path class="b" d="M4545.55,790.193c7.045,1.027,14.083,1.407,20.289,5.375,2.261,1.445,4.284,2.857,2.682,5.618-1.418,2.445-3.586.937-5.3.024-5.662-3.015-11.751-3.953-18.064-4.37-2.459-.163-6.647.839-6.559-3.348C4538.7,788.688,4542.969,790.79,4545.55,790.193Z"/><path class="b" d="M4479.121,793.7c-.234,1.806-1.556,2.569-3.318,2.743-8.05.794-16.175,1.208-23.318,5.756a2.694,2.694,0,0,1-3.78-.862c-1.167-1.646-.3-3.042.862-4.332,3.355-3.727,22.5-8.426,27.181-6.643A3.36,3.36,0,0,1,4479.121,793.7Z"/><path class="b" d="M4460.37,821.212c.054-4.5.59-9.006,6.484-8.889,5.822.115,6.378,4.73,6.362,9.166-.016,4.546-1.079,9.027-6.7,8.976C4460.645,830.412,4460.3,825.742,4460.37,821.212Z"/><path class="b" d="M4556.812,821.623c-.076,7.036-3.938,10.791-8.827,8.413-4.393-2.137-3.429-6.392-3.583-10.159-.136-3.313.789-6.074,4.126-7.342C4553.528,810.633,4556.89,814.363,4556.812,821.623Z"/><path class="b" d="M4313.389,640.454h-.2l.092.391Z"/><path class="d" d="M4057.627,597.51c-1.55,3.886-3,7.881-6.957,8.248-3.812.353-4.189-4.318-4.664-6.629-.7-3.393,2.819-6.24,5.675-6.663C4054.176,592.1,4055.7,595.766,4057.627,597.51Z"/><path class="d" d="M4040.813,599.465c.407,3.266-1.275,4.473-4.613,4.4s-5.453-1.062-5.449-4.853c0-3.106,1-5.2,4.443-5.154C4038.684,593.9,4041.129,595.178,4040.813,599.465Z"/><path class="h" d="M4066.561,603.6c-2.845.216-4.093-1.54-4.013-4.787.071-2.915,1.24-4.615,4.3-4.593s4.951,1.461,5.154,4.663C4072.224,602.33,4070.212,603.52,4066.561,603.6Z"/><path class="f" d="M4317.46,1014.522c5.354.062,9.124,3.906,8.987,9.158-.123,4.678-4.334,9.028-8.752,9.041a9.534,9.534,0,0,1-9.464-9.125A8.876,8.876,0,0,1,4317.46,1014.522Z"/><path class="g" d="M4507.717,870.887c5.254,0,10.512-.122,15.758.071,1.652.061,4.731-1.405,4.573,1.94-.124,2.612-1.52,4.921-5.06,4.764-4.638-.206-9.292-.046-13.94-.047-5.656,0-11.313-.036-16.97,0-2.12.014-3.932-.212-5.035-2.454-1.409-2.861-1.445-4.462,2.491-4.35,6.057.171,12.122.045,18.183.045Z"/></g></svg>