<svg xmlns="http://www.w3.org/2000/svg" viewBox="0 0 650.82 262.88"><defs><style>.cls-1{fill:#8e8e8e;}.cls-2{fill:#42869d;}</style></defs><g id="Layer_2" data-name="Layer 2"><g id="Layer_1-2" data-name="Layer 1"><path class="cls-1" d="M45.53,148.24c18.59.9,32.65,9.11,40.74,25.84,7.93,16.38,5.86,32.11-5.48,46.48-4.51,5.71-9.88,10.57-15.25,15.43a121.07,121.07,0,0,0-10.82,10.55c-3.17,3.69-5.71,7.68-5.93,12.75-.09,2.07-.95,3.57-3.21,3.59s-3.29-1.29-3.35-3.43c-.14-5.24-2.83-9.29-6.08-13.07-4-4.63-8.66-8.52-13.13-12.63a121.62,121.62,0,0,1-12.2-12.46C-.94,206.86-3.32,191,4.69,174.23,12.8,157.29,27,149.09,45.53,148.24Zm22.39,45a22.46,22.46,0,1,0-22.56,22.24A22.46,22.46,0,0,0,67.92,193.2Z"/><path class="cls-2" d="M171.21,179.38c.14,7-3.12,13.16-8.14,18.48-3.63,3.85-7.78,7.2-11.42,11-3.13,3.31-7.29,6.13-7,11.6a1.67,1.67,0,0,1-1.68,1.78,1.8,1.8,0,0,1-2.22-1.64c-.39-6.39-5-10-9.12-13.84-3.66-3.46-7.55-6.69-10.73-10.63-8.24-10.2-8.89-23-1.74-33.4a28.42,28.42,0,0,1,31.73-11.24C163.11,155.21,171.2,166.07,171.21,179.38Zm-28.45-15.16a14.35,14.35,0,0,0-14.15,14.06c-.09,7,7.21,15.14,13.54,15,7.72-.12,14.86-7.4,14.77-15.07A14.37,14.37,0,0,0,142.76,164.22Z"/><path class="cls-1" d="M135.37,226.12c.29,1.56-.89,1.54-1.63,1.86-3.42,1.47-6.9,2.8-10.27,4.38-1.9.89-2.27-.18-3-1.52-.93-1.77-.3-2.46,1.32-3.08a102.07,102.07,0,0,0,10-4.1C135.15,221.94,134.39,225.2,135.37,226.12Z"/><path class="cls-1" d="M58.12,259.49c-1.56-.15-1.35-1.67-1.9-2.57a1.27,1.27,0,0,1,.7-2.11c3.93-1.58,7.84-3.17,11.71-4.86,1.34-.59,1.69.28,1.87,1.11s1.82,2.26.35,3C66.7,256,62.39,257.69,58.12,259.49Z"/><path class="cls-1" d="M114.05,235.15c.38,1.14-.61,1.29-1.23,1.55-3.66,1.56-7.39,2.93-11,4.62-2,.92-2.13-.41-2.66-1.54s-1-2.25.9-2.94c3.37-1.21,6.63-2.75,9.94-4.11C112.34,231.77,113.91,232.74,114.05,235.15Z"/><path class="cls-1" d="M79.47,250.59c-1.52-.24-1.3-1.69-1.88-2.57s-.47-1.61.64-2.06q5.85-2.42,11.68-4.89c1.13-.48,1.74,0,2,1.06s1.74,2.36.31,3C88.05,247.17,83.73,248.81,79.47,250.59Z"/><path class="cls-1" d="M151.83,222.74c.65-1.45,1.61-.76,2.4-.61,3.65.72,7.28,1.6,10.94,2.2,2.08.34,1.78,1.43,1.6,2.94-.23,2-1.14,2.2-2.83,1.79a103.3,103.3,0,0,0-10.53-2.25C149.65,226.31,152.12,224.06,151.83,222.74Z"/><path class="cls-1" d="M234.41,238.93c1.2,1,.17,2.14.11,3.2s-.53,1.62-1.77,1.34c-4.12-.92-8.26-1.82-12.41-2.62-1.43-.27-1.22-1.18-.91-2,.38-.94-.22-2.89,1.4-2.65C225.38,236.93,229.88,238,234.41,238.93Z"/><path class="cls-1" d="M174.52,227.36c.33-1.16,1.23-.72,1.9-.58,3.89.78,7.75,1.76,11.66,2.4,2.14.35,1.53,1.54,1.33,2.78s-.44,2.42-2.41,1.91c-3.47-.91-7-1.48-10.53-2.24C174,231.11,173.27,229.42,174.52,227.36Z"/><path class="cls-1" d="M211.78,234.19c1.11,1.06.11,2.14.09,3.18s-.53,1.59-1.7,1.34q-6.18-1.32-12.39-2.57c-1.21-.25-1.41-1-1-2s-.1-2.93,1.47-2.69C202.76,232.16,207.25,233.25,211.78,234.19Z"/><path class="cls-1" d="M245.05,242.54c.64-1.46,1.6-.77,2.4-.61,3.65.72,7.27,1.59,10.94,2.19,2.08.34,1.78,1.43,1.6,2.95-.23,2-1.14,2.19-2.83,1.78a103.49,103.49,0,0,0-10.54-2.25C242.87,246.11,245.34,243.85,245.05,242.54Z"/><path class="cls-1" d="M267.74,247.16c.33-1.16,1.23-.72,1.89-.59,3.9.78,7.76,1.76,11.67,2.4,2.14.36,1.53,1.54,1.32,2.78s-.44,2.42-2.4,1.91c-3.47-.9-7-1.48-10.53-2.23C267.24,250.9,266.49,249.22,267.74,247.16Z"/><path class="cls-1" d="M305,254c1.12,1.06.12,2.14.09,3.18s-.52,1.6-1.69,1.35q-6.19-1.32-12.39-2.58c-1.21-.25-1.42-1-1-2s-.1-2.93,1.47-2.69C296,252,300.46,253,305,254Z"/><path class="cls-1" d="M335.38,229.54a19.12,19.12,0,0,1-4.26,12,55.79,55.79,0,0,1-7.26,7.48,54.51,54.51,0,0,0-5.28,5.14,9.61,9.61,0,0,0-2.7,5.93c0,1-.56,1.62-1.54,1.61a1.39,1.39,0,0,1-1.46-1.5c-.12-2.9-1.67-5.09-3.62-7-2.39-2.36-4.92-4.58-7.33-6.91-3.55-3.44-6.75-7.14-8-12.09a21,21,0,1,1,41.45-4.6Zm-21-10.72A10.35,10.35,0,0,0,304,229.15a10.43,10.43,0,1,0,10.43-10.33Z"/><path class="cls-2" d="M334.88,122.18a15.5,15.5,0,0,1-3.46,9.7,44.46,44.46,0,0,1-5.89,6.07,45.53,45.53,0,0,0-4.28,4.17,7.82,7.82,0,0,0-2.19,4.82,1.17,1.17,0,0,1-1.25,1.3,1.13,1.13,0,0,1-1.18-1.22,8.49,8.49,0,0,0-2.94-5.69c-1.94-1.91-4-3.71-5.95-5.6-2.88-2.79-5.47-5.8-6.49-9.82a17,17,0,1,1,33.63-3.73Zm-17-8.7a8.46,8.46,0,1,0,0,16.91,8.46,8.46,0,0,0,0-16.91Z"/><path class="cls-1" d="M525.79,85.42c-3.51-3.14-7-6.24-10.5-9.42-2.09-1.93-2.57-4.85-.92-6.64,4-4.34,7.85-9,13.41-11.66a3.21,3.21,0,0,0,2.75.87l79.54-.15c1.11.91,1.16,2.15,1.14,3.46q-.09,10-.14,20c-2.12.81-1.26,2.38-1,3.81l-.14.13c-1.42-.13-2.84-.38-4.26-.38Q565.76,85.38,525.79,85.42Z"/><path class="cls-1" d="M601.76,19.49c10.17,0,20.35.08,30.52,0a10.8,10.8,0,0,1,8.47,3.28c2.6,2.66,5.49,5,8.14,7.65s2.56,5.38,0,7.92c-3.17,3.11-6.49,6.07-9.77,9.06a7.84,7.84,0,0,1-5.57,1.82q-32-.06-64,0c-3.4,0-5.05-1.26-5-4.78q.12-10.09,0-20.2c-.05-3.56,1.69-4.77,5-4.75C580.26,19.54,591,19.49,601.76,19.49Z"/><path class="cls-1" d="M579.68,206.84q0-53.86-.09-107.73c0-5.54.2-8,1.41-7.75a15.43,15.43,0,0,0,6.24,0c1-.18,1.33,1.77,1.33,7q-.06,52.2,0,104.41c0,6-.37,7.6-1.48,7.35a40.42,40.42,0,0,0-6.67-.51Z"/><path class="cls-1" d="M584.15,14.91c-.28,0-.62.2-.85,0-1.21-1.24-3.71,3.23-3.71-3.47,0-8.67.87-11.22,4.19-11.4,4-.22,6.1,6,4.77,13.72-.24,1.39-.71,1.15-1.18,1.17C586.3,14.94,585.23,14.91,584.15,14.91Z"/><path class="cls-1" d="M525.79,85.42q40,0,79.91,0c1.42,0,2.84.25,4.26.38-1.16,1.46-2.8,1.19-4.35,1.19H531.36C529.36,87,527.33,87.05,525.79,85.42Z"/><path class="cls-1" d="M610.07,58.42l-79.54.15a3.21,3.21,0,0,1-2.75-.87c1.41-1,3-.64,4.58-.64q35.85,0,71.72,0C606.12,57.07,608.45,56.32,610.07,58.42Z"/><path class="cls-1" d="M610.1,85.66c-.29-1.43-1.15-3,1-3.81A3.35,3.35,0,0,1,610.1,85.66Z"/><path class="cls-1" d="M579.77,136.11l1.49,1.08C580.23,137.56,579.54,137.46,579.77,136.11Z"/></g></g></svg>