<svg xmlns="http://www.w3.org/2000/svg" viewBox="0 0 62.06 65.57"><g id="Layer_2" data-name="Layer 2"><g id="Layer_1-2" data-name="Layer 1"><path d="M35,49.84l-3.6,4.06-4.06,4.57-.31.35-.51.51-.28.26-.12.11-.13.12L25.8,60l-.26.2a7.62,7.62,0,0,1-.64.48,12.82,12.82,0,0,1-1.2.77c-.21.13-.43.24-.65.36l-.11.06-.38.17a14.15,14.15,0,0,1-1.36.53,13.91,13.91,0,0,1-1.4.4l-.36.08-.14,0s.17,0,0,0-.51.09-.77.12a14.8,14.8,0,0,1-2.82.12h-.17l-.36,0-.72-.09a13.93,13.93,0,0,1-1.43-.29l-.65-.17-.35-.11-.15,0s-.28-.1-.16,0,0,0-.06,0l-.2-.07-.29-.12c-.25-.1-.49-.2-.73-.32-.43-.2-.86-.43-1.27-.67l-.64-.4c-.17-.11,0,0-.12-.09s-.24-.16-.35-.25a14.4,14.4,0,0,1-2.2-2l-.12-.12c-.12-.14.1.11,0,0l-.21-.25-.5-.64c-.29-.4-.56-.82-.82-1.24-.12-.19-.23-.39-.34-.59l-.17-.33-.08-.16c-.2-.44-.39-.9-.55-1.35s-.3-.92-.42-1.39c-.06-.22-.1-.44-.15-.65s0-.06,0,0a.77.77,0,0,1,0-.15c0-.13,0-.27-.07-.41a14.89,14.89,0,0,1-.16-2.83c0-.12,0-.24,0-.36a.86.86,0,0,0,0-.15c0,.21,0,0,0,0,0-.24,0-.48.08-.72a13.82,13.82,0,0,1,.26-1.43A12.41,12.41,0,0,1,3,44.34a1.21,1.21,0,0,1,.05-.14c0-.17-.06.15,0,0l.11-.3c.1-.24.2-.48.31-.72.21-.46.43-.9.68-1.33l.37-.6.2-.31c-.09.14.09-.12.12-.16a23.92,23.92,0,0,1,1.64-2l2.25-2.53,4.58-5.15c.15-.18.31-.35.47-.52A11.56,11.56,0,0,1,16,28.69c.41-.29.82-.55,1.25-.8.19-.12.4-.23.6-.33l.13-.07s-.18.09,0,0l.33-.15A14.78,14.78,0,0,1,21,26.39l.36-.08.11,0c.25-.05.51-.09.77-.12A13.81,13.81,0,0,1,23.7,26c.47,0,.94,0,1.4,0h.26c-.13,0,0,0,.05,0h.21l.72.1a14.51,14.51,0,0,1,2.82.69c-.19-.06.11.05.17.07l.29.12c.25.1.49.2.73.32.44.21.89.44,1.31.69l.6.37.13.09,0,0,.27.19q.57.43,1.11.9A1.13,1.13,0,0,0,35.3,28a16.59,16.59,0,0,0-22.84.78c-1.4,1.41-2.67,3-4,4.45S5.64,36.37,4.23,38a16.49,16.49,0,0,0,0,22.12A16.57,16.57,0,0,0,26.92,62a40.92,40.92,0,0,0,4.64-4.85l4.84-5.45.31-.35A1.12,1.12,0,1,0,35,49.84Z"/><path d="M27,15.74l3.61-4.06,4.06-4.57L35,6.76l.5-.51L35.78,6l.12-.11s.21-.2.14-.12a2.05,2.05,0,0,1,.22-.19,2.43,2.43,0,0,1,.25-.2c.21-.17.42-.33.64-.48a12.82,12.82,0,0,1,1.2-.77c.21-.13.43-.24.65-.36l.12-.06.38-.17A12.37,12.37,0,0,1,40.86,3a13,13,0,0,1,1.39-.4l.36-.08.15,0h0c.26,0,.51-.09.77-.12a14.9,14.9,0,0,1,2.83-.12h.16l.37,0,.72.09A14.3,14.3,0,0,1,49,2.68l.66.17L50,3l.14,0s.28.1.16.05.06,0,.07,0l.2.07.29.12c.24.1.48.2.72.32.44.2.86.43,1.28.67l.64.4.11.08L54,5a15.41,15.41,0,0,1,2.2,2l.11.12c.12.14-.1-.11,0,0a2.52,2.52,0,0,1,.21.25c.18.21.34.42.5.64.3.4.57.82.83,1.24l.33.59.17.33c-.08-.17.05.11.08.16A14.15,14.15,0,0,1,59,11.72c.16.46.3.92.42,1.39.06.21.1.44.15.65s0,.05,0,0a.4.4,0,0,1,0,.15c0,.13,0,.27.07.41a15.76,15.76,0,0,1,.16,2.83c0,.12,0,.24,0,.36a.74.74,0,0,0,0,.15c0-.21,0,0,0,0,0,.24-.05.48-.08.72-.06.48-.16,1-.26,1.43s-.25.94-.4,1.4c0,.05,0,.1-.05.15s.06-.15,0,0l-.11.3c-.1.24-.2.48-.31.72-.21.46-.43.9-.68,1.33l-.36.6-.21.31c.1-.14-.08.12-.12.16a23.92,23.92,0,0,1-1.64,2l-2.25,2.53-4.57,5.15c-.16.17-.31.35-.48.52a11.25,11.25,0,0,1-2.14,1.89,14.73,14.73,0,0,1-1.25.8c-.19.12-.4.23-.59.33l-.14.07s.18-.09,0,0l-.33.15a15.13,15.13,0,0,1-2.75.94l-.36.08-.11,0c-.25.05-.5.09-.77.12a13.56,13.56,0,0,1-1.43.13c-.47,0-.93,0-1.39,0h-.27c.13,0,0,0,0,0h-.2l-.72-.1a15.08,15.08,0,0,1-2.82-.69c.18.06-.12,0-.17-.07l-.3-.12c-.24-.1-.48-.2-.72-.32q-.67-.32-1.32-.69c-.2-.12-.4-.24-.59-.37l-.14-.09,0,0c-.08-.07-.18-.13-.26-.19-.39-.29-.76-.59-1.12-.9a1.12,1.12,0,1,0-1.49,1.68,16.58,16.58,0,0,0,22.83-.78c1.4-1.41,2.67-3,4-4.45l4.26-4.79A16.86,16.86,0,0,0,62.05,17,16.61,16.61,0,0,0,35.13,3.59,41.65,41.65,0,0,0,30.5,8.44l-4.84,5.45-.31.35A1.12,1.12,0,1,0,27,15.74Z"/></g></g></svg>