<svg xmlns="http://www.w3.org/2000/svg" width="937.707" height="353.013" viewBox="0 0 937.707 353.013">
  <g id="Group_455" data-name="Group 455" transform="translate(-183.373 -730.747)">
    <path id="Path_190" data-name="Path 190" d="M10163.709,10553.724l-866.336,4.895,157.923-195.246,362.87-157.625Z" transform="translate(-9114 -9475)" fill="#d5eaec"/>
    <path id="Path_191" data-name="Path 191" d="M9904.791,10558.618H9487.607l157.923-195.246,258.2,86.835Z" transform="translate(-9114 -9475)" fill="#00816f"/>
    <path id="Path_192" data-name="Path 192" d="M10209.062,10558.618H9916.428v-118.9l142.794-63.427Z" transform="translate(-9114 -9475)" fill="#00493d"/>
    <g id="Group_226" data-name="Group 226" transform="translate(-9114 -9475)">
      <path id="Path_197" data-name="Path 197" d="M9928.183,10502.092l52.567,55.89c-1.693,1.057-3.194.646-4.592.646q-72.483.035-144.968.073c-3.019,0-5.184-.617-7.309-3.068q-91.98-106.1-184.128-212.055c-.321-.369-.577-.794-1.347-1.868,2.059.485,3.529.742,4.945,1.178q95.123,29.281,190.231,58.6a16.086,16.086,0,0,0,7.793.642q108.708-18.85,217.455-37.479c2.09-.359,4.135-1.354,6.877-.676-2.214,4.2-4.327,8.271-6.488,12.312q-31.433,58.77-62.815,117.568c-1.4,2.635-2.829,3.831-5.969,4.016-19.618,1.146-39.223,2.571-58.83,3.906C9930.835,10501.83,9930.066,10501.918,9928.183,10502.092Z" fill="#924600"/>
      <path id="Path_198" data-name="Path 198" d="M9453.593,10557.953c2.765-3.351,5.459-6.658,8.2-9.928q82.913-99,165.768-198.041c2.412-2.889,3.85-3.44,6.15-.205,1.241,1.746,3,3.11,4.434,4.734,2.616,2.972,7.54,5.518,7.388,8.858-.149,3.263-4.291,6.392-6.79,9.492q-51.877,64.364-103.832,128.664a13.1,13.1,0,0,0-3.211,9.021c.192,14.654.075,29.313.078,43.968,0,2.156.466,4.219-3.082,4.2-24.652-.13-49.307-.073-73.959-.1C9454.48,10558.618,9454.225,10558.332,9453.593,10557.953Z" fill="#4c2200"/>
      <path id="Path_199" data-name="Path 199" d="M10074.256,10366.636c53.7,64.115,106.9,127.627,160.824,192.016h-5.128c-20.483,0-40.968-.134-61.449.107-4.143.049-4.854-1.319-4.794-5.036.21-12.816,0-25.641.136-38.46a11.772,11.772,0,0,0-2.83-8.128q-46.513-57.432-92.914-114.956c-2.771-3.416-3.564-6.064-1.207-10.064C10069.66,10377.422,10071.63,10372.26,10074.256,10366.636Z" fill="#4c2200"/>
      <path id="Path_200" data-name="Path 200" d="M9525.128,10460.034c0-21.62.048-41.721-.055-61.821-.015-2.806.8-3.747,3.648-3.673,6.976.182,13.96.169,20.937,0,2.732-.063,3.346,1,3.31,3.5-.125,8.8-.064,17.611-.045,26.417a5.373,5.373,0,0,1-1.091,3.717C9543.218,10438.442,9534.618,10448.71,9525.128,10460.034Z" fill="#4c2200"/>
      <path id="Path_201" data-name="Path 201" d="M10169.791,10469.481c-8.51-10.16-16.156-19.324-23.856-28.443a5.886,5.886,0,0,1-1.3-4.135c.036-7.812.1-15.625-.023-23.436-.038-2.468.5-3.6,3.278-3.515,6.146.185,12.3.137,18.45,0,2.542-.058,3.509.711,3.5,3.383C10169.747,10431.605,10169.791,10449.878,10169.791,10469.481Z" fill="#924600"/>
      <path id="Path_202" data-name="Path 202" d="M9672,10517.9c-4.2-.438-11.011,2.229-13.918-1.026-2.512-2.816-.88-9.5-.739-14.462.126-4.418-2.024-10.28.991-12.836,2.561-2.171,8.225-.74,12.517-.8,4.983-.065,9.972.07,14.953-.051,2.372-.058,3.191.8,3.157,3.176q-.163,11.461.007,22.926c.037,2.369-.689,3.213-3.109,3.117C9681.549,10517.776,9677.224,10517.9,9672,10517.9Z" fill="#fff5b2"/>
      <path id="Path_203" data-name="Path 203" d="M10096.787,10517.9c-4.314,0-8.631-.077-12.942.036-2.125.055-2.889-.652-2.858-2.843q.16-11.7-.006-23.393c-.039-2.585,1.2-2.972,3.366-2.952,8.3.075,16.6.112,24.892-.028,2.632-.044,3.472.873,3.428,3.442-.13,7.464-.157,14.934-.027,22.4.045,2.6-.783,3.506-3.407,3.387C10105.091,10517.761,10100.936,10517.9,10096.787,10517.9Z" fill="#fff5b2"/>
      <path id="Path_204" data-name="Path 204" d="M9629.957,10517.9c-4.318,0-8.639-.072-12.955.027-2.105.05-2.915-.649-2.886-2.853.1-7.8.082-15.611,0-23.415-.022-2.125.708-2.946,2.881-2.925q12.955.12,25.912.006c2.162-.018,2.918.82,2.9,2.939-.074,7.806-.1,15.612,0,23.416.028,2.206-.768,2.9-2.9,2.841C9638.6,10517.823,9634.276,10517.905,9629.957,10517.9Z" fill="#fff5b2"/>
      <path id="Path_205" data-name="Path 205" d="M9630.32,10529.6c3.817,0,7.657.26,11.447-.069,3.51-.306,4.146,1.17,4.062,4.26q-.284,10.45,0,20.912c.073,2.9-.541,4.136-3.8,4.038-7.962-.24-15.942-.273-23.9,0-3.5.12-4.106-1.222-4.024-4.283.183-6.8.213-13.616-.036-20.413-.123-3.35.633-4.823,4.307-4.522C9622.33,10529.847,9626.335,10529.6,9630.32,10529.6Z" fill="#fff5b2"/>
      <path id="Path_206" data-name="Path 206" d="M9672.737,10558.659c-3.984,0-7.972-.108-11.949.045-2.447.093-3.6-.486-3.545-3.254.159-7.63.1-15.268.034-22.9-.02-2.039.516-3.023,2.777-3,8.63.09,17.264.114,25.893,0,2.5-.033,3.043,1,3.011,3.259-.107,7.467-.184,14.939.019,22.4.082,3.031-1.143,3.6-3.793,3.49C9681.042,10558.524,9676.887,10558.654,9672.737,10558.659Z" fill="#fff5b2"/>
      <path id="Path_207" data-name="Path 207" d="M10096.369,10558.657c-4.163,0-8.329-.08-12.489.037-2.151.06-2.912-.692-2.886-2.871q.142-11.736,0-23.476c-.025-2.235.927-2.814,2.992-2.8,8.491.079,16.985.109,25.478,0,2.386-.031,3.234.748,3.2,3.142-.111,7.656-.138,15.317-.022,22.975.039,2.524-1.027,3.089-3.281,3.024C10105.031,10558.566,10100.7,10558.654,10096.369,10558.657Z" fill="#fff5b2"/>
      <path id="Path_208" data-name="Path 208" d="M10053.951,10488.771c4.157-.006,8.315.082,12.469-.043,2.144-.063,2.953.685,2.927,2.846q-.139,11.716-.053,23.437c.015,2.028-.457,2.946-2.758,2.91-8.479-.133-16.959-.122-25.438-.024-2.269.025-3.271-.5-3.226-3.021.14-7.644.117-15.293,0-22.939-.036-2.346.685-3.28,3.11-3.2C10045.3,10488.877,10049.628,10488.775,10053.951,10488.771Z" fill="#fff5b2"/>
      <path id="Path_209" data-name="Path 209" d="M10053.332,10558.649c-3.822,0-7.653-.167-11.462.052-2.884.166-4.145-.451-4.029-3.737.256-7.3.158-14.618.026-21.925-.044-2.473.515-3.547,3.271-3.493q12.458.245,24.921-.008c2.817-.062,3.278,1.132,3.246,3.517-.1,7.476-.166,14.954.012,22.426.066,2.813-1.089,3.308-3.524,3.215C10061.644,10558.536,10057.486,10558.651,10053.332,10558.649Z" fill="#fff5b2"/>
    </g>
    <path id="Path_210" data-name="Path 210" d="M9991.946,10497.826l-63.764,4.266-88.741-99.753,224.779-38.781a.991.991,0,0,1,1.043,1.443l-69.746,130.516A4.383,4.383,0,0,1,9991.946,10497.826Z" transform="translate(-9114 -9475)" fill="#7a3400"/>
  </g>
</svg>
