<svg id="Layer_1" data-name="Layer 1" xmlns="http://www.w3.org/2000/svg" viewBox="0 0 501.3 475.15"><defs><style>.cls-1{fill:#e03d51;fill-rule:evenodd;}.cls-2{fill:#b79e8a;}</style></defs><path class="cls-1" d="M215.42,304.68c-7.86,7.19-15.58,35.22-33.49,19.64-12-10.39-4.6-23.24,12.58-26.5,18.91-3.53,7.32-40.34,5.06-55.72-3.66-24.63-36.08,1.53-37.75-24.9-.73-12.65,14.92-26.37,31.09-5.33,11.32,14.78,26.7-7.45,33.23-16.37C238,179.05,192.58,175,211.69,153c8.59-9.85,27.56-8.32,25.9,16.65-1.07,17.11,26,11.45,35.08,12.05,24,1.53,39.68,15,42.48-9.19,3.73-32.76,51.73,2.53,23,14.71-26.77,11.32-7.66,14.58,1.86,39.28,10,26-1.8,45.54,23,40.81,36.48-6.85,15.24,52.47-10.32,20-11.92-15.18-26.37,10.52-36.89,20.91-22.77,22.37,22.84,25.5,4.33,46.67-9.19,10.52-25.43,6.52-25-15.38.4-20.71-43.68-16.91-71.64-34.29C219.61,302.75,219.14,301.82,215.42,304.68Zm78.69-79.89a5.34,5.34,0,1,1-9.19,3.73,3.78,3.78,0,0,1,.13-1.2,39.91,39.91,0,0,1-6.72.6,1.73,1.73,0,0,0-1.6.86,1.91,1.91,0,0,0-.13,1.8A18.55,18.55,0,0,0,312,222.92a18.86,18.86,0,0,0-.93-5.85,2,2,0,0,0-1.4-1.2,1.71,1.71,0,0,0-1.73.46A40.14,40.14,0,0,1,294.11,224.79Zm-40.35,1.26c0,.27.07.54.07.87a5.36,5.36,0,0,1-10.72,0,5.58,5.58,0,0,1,1.53-3.8,39.67,39.67,0,0,1-11.78-7.65,1.7,1.7,0,0,0-1.73-.47,2,2,0,0,0-1.4,1.2,18.92,18.92,0,0,0-.93,5.86,18.55,18.55,0,0,0,35.42,7.66,1.91,1.91,0,0,0-.14-1.8,1.87,1.87,0,0,0-1.59-.87A40.62,40.62,0,0,1,253.76,226.05ZM289.32,275a18.54,18.54,0,0,0-35.82-5.6,17.88,17.88,0,0,0-1.2,5.8,1.73,1.73,0,0,0,.8,1.59,1.75,1.75,0,0,0,1.8.2,42,42,0,0,1,18.1-2.92,45.08,45.08,0,0,1,13.72,2.79,2,2,0,0,0,1.8-.27A1.89,1.89,0,0,0,289.32,275Z"/><path class="cls-2" d="M144.92,273.29c9,26.21,15,52.45.9,78.92Q66.82,313.65,144.92,273.29Z"/><path class="cls-2" d="M118,206.11c-1.65-37.17,20-64.34,37.86-93.13a12.15,12.15,0,0,1,19.6-1.41C228.13,173.94,124.7,169.26,118,206.11Z"/></svg>