<svg xmlns="http://www.w3.org/2000/svg" viewBox="0 0 36.97 65.07"><defs><style>.cls-1{fill-rule:evenodd;}</style></defs><g id="Layer_2" data-name="Layer 2"><g id="Layer_1-2" data-name="Layer 1"><path class="cls-1" d="M18.82,0C8.6,0,0,8.73,0,19.12a1.46,1.46,0,0,0,1.43,1.49A1.46,1.46,0,0,0,2.9,19.16v0c0-8.73,7.33-16.18,15.92-16.18S34.69,10.33,34,19v.05A13,13,0,0,1,31.43,27,30.77,30.77,0,0,1,26,31.82c-4.16,3.28-8.62,7.88-8.62,18.91a1.45,1.45,0,1,0,2.89,0v0c0-10.29,3.5-13.44,7.49-16.59a31.11,31.11,0,0,0,5.95-5.35,16.19,16.19,0,0,0,3.21-9.56v0C37.69,8.76,29,0,18.82,0Z"/><path class="cls-1" d="M18.82,57.9a3.56,3.56,0,0,0-3.53,3.59,3.74,3.74,0,0,0,3.53,3.58,3.51,3.51,0,0,0,3.53-3.58A3.65,3.65,0,0,0,18.82,57.9Zm0,2.39A1.09,1.09,0,0,1,20,61.49a1.13,1.13,0,0,1-1.18,1.19,1.07,1.07,0,0,1-1.17-1.19C17.68,60.76,18,60.3,18.82,60.29Z"/></g></g></svg>