<svg xmlns="http://www.w3.org/2000/svg" width="238.132" height="288.649" viewBox="0 0 238.132 288.649"><defs><style>.a{fill:#8e8e8e;}.b{fill:#42869d;}.c{fill:#fcfcfc;}</style></defs><g transform="translate(-2431.934 -682.595)"><path class="a" d="M2616.958,894.577c-1.861,8.533-2.978,16.083-2.5,23.683a26.91,26.91,0,0,1-1.7,12.459c-5.961,13.958-.538,26.627,3.588,39.944H2491.679a64.771,64.771,0,0,0,.576-44.462c-3.826-11.109-2.3-22.421-3.308-34.653-12.51,16.193-14.565,33.81-12.78,52.342.3,3.165,1.062,6.292,1.271,9.46,1.007,15.286-1.355,17.8-16.387,17.79-7.7-.006-15.4-.211-23.084.091-4.121.162-5.624-1.283-5.784-5.327-.82-20.811-.137-40.978,10.261-60.282,3.552-6.594,6.333-8.44,13-9.051,10.127-.928,17.442-10.09,17.735-20.323.3-10.485-6.585-20.152-17.233-21.6-6.765-.92-7.323-3.748-6.486-9.129,1.222-7.857,1.866-15.806,3.152-23.65,2.85-17.386,17.2-30.287,34.52-30.578a38.787,38.787,0,0,0,16.05-3.627c5.081-2.35,10.488-3.5,15.976-4.594,13.422-2.686,16.856-11.4,9.378-22.7a19.1,19.1,0,0,1-2.625-5.758c-1.715-6.832-3.37-13.038-9.485-18.214-4.2-3.558-9.449-10.566-.255-16.244,2.068-1.277,1.329-4.43,1.868-6.722,2.928-12.447,6.591-25.179,20.716-28.535,10.113-2.4,20.976-3.7,31.439.073,11.638,4.191,16.1,13.785,18.823,24.771,1.094,4.406,1.89,8.4,5.455,12.439,4.1,4.638-.08,11.551-3.625,15.65a23.09,23.09,0,0,0-5.135,10.234c-1.537,6.137-6.054,11.445-7.808,16.7-2.893,8.67-10.947,12.635-13.813,20.513-3,8.244-1.787,15.831,3.951,22.279,5.69,6.392,12.989,9.046,21.545,6.711,8.736-2.385,14.7-8.057,15.693-17.006.638-5.73,3-6.188,7.571-5.757,13.792,1.3,25.691,5.832,34.034,19.233-2.451-.127-4.1-.259-5.746-.289-9.42-.17-16.362,3.98-20.543,12.354-3.93,7.869-2.9,15.547,2.314,22.447,5.491,7.259,13.35,10.367,21.837,7.809,6.925-2.087,8.527.536,10.464,6.146,4.339,12.567,5.354,25.38,4.3,38.45-1.359,16.875-.572,33.266,7.443,48.816,3.167,6.145,3.463,13.249,2.849,20.264-.287,3.27-1.427,4.553-4.881,4.477q-14.324-.315-28.656.021c-3.864.1-4.774-1.949-5.747-5.049a64.573,64.573,0,0,1-2.924-27.5c1.349-10.68-.644-20.378-5.266-29.889C2620.284,904.573,2618.977,900,2616.958,894.577Zm-83.118-70.1a21.608,21.608,0,1,0-21.828,21.309A21.321,21.321,0,0,0,2533.84,824.474Zm26.512,104.157a21.37,21.37,0,0,0,21.661-21.533,21.623,21.623,0,0,0-21.622-21.7,21.946,21.946,0,0,0-21.776,21.662A21.661,21.661,0,0,0,2560.352,928.631Z"/><path class="b" d="M2465.307,875.136c.192,8.068-5.529,13.971-13.762,14.2a13.522,13.522,0,0,1-13.739-13.365,13.743,13.743,0,0,1,13.7-14.355A14.028,14.028,0,0,1,2465.307,875.136Z"/><path class="b" d="M2640.557,818.336a13.754,13.754,0,0,1-1.006,27.489,13.8,13.8,0,0,1-13.388-13.812A13.977,13.977,0,0,1,2640.557,818.336Z"/><path class="b" d="M2597.926,793.013a13.6,13.6,0,0,1-13.8,14.168,14.029,14.029,0,0,1-13.735-13.572c-.232-8.593,6.052-13.573,16.989-13.462C2592.589,780.2,2597.86,786.631,2597.926,793.013Z"/><path class="c" d="M2533.84,824.474a21.608,21.608,0,0,1-43.212-.533,21.608,21.608,0,1,1,43.212.533Zm-21.828-14.061a13.81,13.81,0,0,0-13.539,13.659,13.481,13.481,0,0,0,14.061,13.842c7.973-.1,13.757-6.286,13.429-14.373A13.434,13.434,0,0,0,2512.012,810.413Z"/><path class="c" d="M2560.352,928.631a21.661,21.661,0,0,1-21.737-21.574,21.946,21.946,0,0,1,21.776-21.662,21.623,21.623,0,0,1,21.622,21.7A21.37,21.37,0,0,1,2560.352,928.631Zm.277-7.848a13.344,13.344,0,0,0,13.452-13.582,13.616,13.616,0,0,0-13.976-13.97,13.989,13.989,0,0,0-13.574,13.7A13.67,13.67,0,0,0,2560.629,920.783Z"/><path class="b" d="M2512.012,810.413a13.434,13.434,0,0,1,13.951,13.128c.328,8.087-5.456,14.278-13.429,14.373a13.481,13.481,0,0,1-14.061-13.842A13.81,13.81,0,0,1,2512.012,810.413Z"/><path class="b" d="M2560.629,920.783a13.67,13.67,0,0,1-14.1-13.852,13.989,13.989,0,0,1,13.574-13.7,13.616,13.616,0,0,1,13.976,13.97A13.344,13.344,0,0,1,2560.629,920.783Z"/></g></svg>