<svg xmlns="http://www.w3.org/2000/svg" viewBox="0 0 81.15 65.64"><defs><style>.cls-1{fill:#5a5d5c;}</style></defs><g id="Layer_2" data-name="Layer 2"><g id="Layer_1-2" data-name="Layer 1"><path class="cls-1" d="M27.84,65.6c-1.6.26-2.36-.95-3.29-1.88C17,56.2,9.51,48.64,1.88,41.21c-2.45-2.4-2.54-4.37,0-6.71s5-4.88,7.39-7.44,4.4-2.28,6.69.2c3,3.31,6.36,6.36,9.45,9.62,1.63,1.71,2.67,1.92,4.81.26,5.56-4.3,9.49-10.09,14.57-14.83,6.88-6.41,13.45-13.18,19.95-20,2.79-2.92,5-3.23,7.74-.08a69.2,69.2,0,0,0,7,7.08c2.41,2.08,2,3.82.06,5.82Q55.17,39.53,30.83,64A4.84,4.84,0,0,1,27.84,65.6Z"/></g></g></svg>