<svg xmlns="http://www.w3.org/2000/svg" viewBox="0 0 771.63 152.61"><defs><style>.cls-1{fill:#8e8e8e;}.cls-2{fill:#42869d;}</style></defs><g id="Layer_2" data-name="Layer 2"><g id="Layer_1-2" data-name="Layer 1"><path class="cls-1" d="M371.68,59.26C366.28,41.18,361,23,355.34,4.94,354,.76,355.34.57,359,.15c7.66-.87,12.35,2,16.68,8.41,10.85,16.15,22.62,31.68,33.87,47.57a7.68,7.68,0,0,0,6.8,3.77c11.19.39,22.22,2,32.55,6.67,4.38,2,9.64,3.94,9.7,9.57s-5.26,7.66-9.62,9.62c-10.48,4.71-21.67,6.33-33,6.74a6.85,6.85,0,0,0-6.06,3.25c-12.34,17.36-24.81,34.63-37.24,51.92-2.63,3.66-13.07,6.29-17,4.2-2.23-1.19-.64-2.91-.23-4.3,4.91-16.56,9.76-33.14,14.94-49.62,1.25-4,1.06-5.59-3.61-6.24a197.17,197.17,0,0,1-21.46-4.52c-3-.76-4.92-.33-7,1.89C333,94.62,327.41,99.92,322,105.34c-1.18,1.18-2.25,2.57-3.94,2.94s-3.49.88-4.76-.36c-1.1-1.08.2-2.5.52-3.71,1.83-6.73,3.78-13.43,5.7-20.14.52-1.82,1.1-3.75-1.74-3.95-2.66-.18-3.06-1.62-3.07-4s.48-3.73,3.1-3.93c2.87-.21,2.22-2.14,1.7-3.95-1.92-6.71-3.87-13.41-5.67-20.15-.33-1.2-1.68-2.61-.54-3.7s3.18-.7,4.77-.37,2.74,1.77,3.92,3c5.54,5.53,11.14,11,16.63,16.58,1.5,1.51,2.84,2.5,5.19,1.95C353,63.37,362.27,61.37,371.68,59.26Z"/><path class="cls-1" d="M64.7,76.31a32.51,32.51,0,0,1-32.6,32.22,32.35,32.35,0,0,1,.27-64.7A32.5,32.5,0,0,1,64.7,76.31ZM57.52,76A25.43,25.43,0,0,0,32.14,51C18.56,51.09,7,62.88,7.17,76.4a25.51,25.51,0,0,0,25.41,24.94A25.41,25.41,0,0,0,57.52,76Z"/><path class="cls-2" d="M739.13,43.83a32.35,32.35,0,1,1-32.2,32.61A32.58,32.58,0,0,1,739.13,43.83Zm.1,57.51a25.53,25.53,0,0,0,25.23-25.12c.06-13.57-11.65-25.28-25.16-25.18a25.15,25.15,0,1,0-.07,50.3Z"/><path class="cls-1" d="M129.5,76.4c-.49,2.78-2,4.57-4.92,4.46-3.21-.11-4.82-2.08-4.57-5.14.23-2.83,2.09-4.39,5-4.21S129.25,73.63,129.5,76.4Z"/><path class="cls-1" d="M651.75,76c-.29,2.75-1.48,4.7-4.48,4.87s-4.81-1.41-5-4.23c-.22-3,1.37-5,4.62-5.12C649.85,71.43,651.25,73.23,651.75,76Z"/><path class="cls-1" d="M154.77,80.9a4.39,4.39,0,0,1-4.5-4.72,4.28,4.28,0,0,1,4.61-4.67c3.23,0,5,1.87,4.85,4.92C159.63,79.24,157.84,80.84,154.77,80.9Z"/><path class="cls-1" d="M246.34,80.91c-3.38-.09-5.17-1.81-5.21-4.57,0-3,1.72-5,5-4.83a4.31,4.31,0,0,1,4.55,4.74A4.41,4.41,0,0,1,246.34,80.91Z"/><path class="cls-1" d="M525.75,80.92c-3-.19-4.77-1.9-4.77-4.7,0-3.07,1.86-4.85,5.07-4.7a4.32,4.32,0,0,1,4.44,4.86C530.4,79.15,528.62,80.83,525.75,80.92Z"/><path class="cls-1" d="M617.18,80.9c-3.39-.06-5.18-1.66-5.28-4.47-.1-3.05,1.62-4.94,4.84-4.92,3,0,4.61,1.9,4.62,4.67A4.37,4.37,0,0,1,617.18,80.9Z"/><path class="cls-1" d="M220.38,76c-.23,2.75-1.44,4.72-4.45,4.87-3.2.17-5-1.58-5-4.69,0-2.87,1.64-4.59,4.58-4.67S219.93,73.17,220.38,76Z"/><path class="cls-1" d="M560.81,76.43c-.44,2.75-1.88,4.54-4.85,4.44-3.22-.1-4.83-2.07-4.6-5.14.22-2.84,2-4.41,5-4.23S560.61,73.58,560.81,76.43Z"/><path class="cls-1" d="M275.68,71.45c3.23.09,5.06,1.55,5.21,4.49s-1.47,4.76-4.44,4.91-4.76-1.48-4.92-4.43S273,71.84,275.68,71.45Z"/><path class="cls-1" d="M500.16,76.07c-.17,2.77-1.49,4.67-4.52,4.78s-4.79-1.49-4.91-4.44,1.5-4.76,4.47-4.9S499.79,73,500.16,76.07Z"/><path class="cls-1" d="M190.07,76c-.32,3.37-2,5-4.93,4.9s-4.59-1.92-4.5-4.84,1.85-4.59,4.84-4.51S189.82,73.51,190.07,76Z"/><path class="cls-1" d="M591.06,76.05c-.18,2.86-1.55,4.74-4.57,4.81s-4.75-1.48-4.84-4.49,1.52-4.72,4.49-4.85S590.69,73.11,591.06,76.05Z"/><path class="cls-1" d="M99.12,76.22c-.31,3-1.89,4.7-4.87,4.62S89.71,79,89.76,76s1.85-4.56,4.79-4.49S99,73.42,99.12,76.22Z"/><path class="cls-1" d="M682,76c-.4,3.24-1.92,4.94-4.92,4.84s-4.56-1.92-4.49-4.83,1.86-4.53,4.82-4.48S681.72,73.5,682,76Z"/><path class="cls-1" d="M44.56,76A12.42,12.42,0,0,1,32.31,88.41,12.23,12.23,0,0,1,31.9,64,12.43,12.43,0,0,1,44.56,76Z"/><path class="cls-2" d="M739.48,88.41a12.23,12.23,0,1,1,12-12.69A12.41,12.41,0,0,1,739.48,88.41Z"/></g></g></svg>