<svg xmlns="http://www.w3.org/2000/svg" viewBox="0 0 64.33 59.14"><g id="Layer_2" data-name="Layer 2"><g id="Layer_1-2" data-name="Layer 1"><path d="M63.26,29.26a1.07,1.07,0,0,0-1.07,1.07v16.6A10.08,10.08,0,0,1,52.12,57H12.21A10.08,10.08,0,0,1,2.14,46.93V30.33a1.07,1.07,0,0,0-2.14,0v16.6A12.23,12.23,0,0,0,12.21,59.14H52.12A12.22,12.22,0,0,0,64.33,46.93V30.33A1.07,1.07,0,0,0,63.26,29.26Z"/><path d="M32.17,46a1.07,1.07,0,0,0,1.07-1.07V3.66L44.1,14.56A1.07,1.07,0,0,0,45.61,13L32.93.32a1.07,1.07,0,0,0-1.52,0h0L18.72,13a1.09,1.09,0,0,0,0,1.53,1.07,1.07,0,0,0,1.52,0L31.1,3.66V44.91A1.07,1.07,0,0,0,32.17,46Z"/></g></g></svg>