<svg xmlns="http://www.w3.org/2000/svg" width="105" height="101.389" viewBox="0 0 105 101.389"><defs><style>.a{fill:#EBEBEB;fill-rule:evenodd;}</style></defs><g transform="translate(-4891.109 -5065.623)"><path class="a" d="M4916.614,5140.486c-3.737,3.42-7.41,16.753-15.929,9.342-5.7-4.94-2.186-11.052,5.985-12.6,8.994-1.679,3.484-19.192,2.407-26.507-1.742-11.718-17.165.728-17.956-11.844-.349-6.017,7.093-12.541,14.789-2.534,5.384,7.031,12.7-3.547,15.8-7.79,5.637-7.823-15.961-9.754-6.872-20.237,4.085-4.687,13.111-3.959,12.319,7.917-.507,8.139,12.351,5.447,16.689,5.732,11.433.729,18.875,7.158,20.205-4.37,1.774-15.581,24.607,1.2,10.926,7-12.731,5.384-3.642,6.935.887,18.685,4.75,12.351-.855,21.661,10.957,19.413,17.355-3.262,7.252,24.955-4.908,9.532-5.669-7.22-12.541,5-17.545,9.944-10.831,10.641,10.862,12.129,2.058,22.2-4.37,5-12.1,3.1-11.907-7.315.19-9.849-20.775-8.044-34.076-16.31C4918.609,5139.567,4918.388,5139.124,4916.614,5140.486Zm37.433-38a2.542,2.542,0,1,1-4.37,1.773,1.749,1.749,0,0,1,.063-.57,19.047,19.047,0,0,1-3.2.285.828.828,0,0,0-.76.412.91.91,0,0,0-.063.855,8.821,8.821,0,0,0,16.848-3.642,8.975,8.975,0,0,0-.444-2.787.931.931,0,0,0-.665-.57.812.812,0,0,0-.823.222A19.072,19.072,0,0,1,4954.047,5102.483Zm-19.192.6c0,.126.032.253.032.411a2.55,2.55,0,0,1-5.1,0,2.648,2.648,0,0,1,.729-1.805,18.859,18.859,0,0,1-5.606-3.642.813.813,0,0,0-.823-.221.929.929,0,0,0-.665.57,9.018,9.018,0,0,0-.443,2.787,8.822,8.822,0,0,0,16.848,3.641.91.91,0,0,0-.064-.855.89.89,0,0,0-.76-.411A19.461,19.461,0,0,1,4934.855,5103.085Zm16.912,23.276a8.82,8.82,0,0,0-17.038-2.66,8.352,8.352,0,0,0-.57,2.755.895.895,0,0,0,1.235.855,20.03,20.03,0,0,1,8.614-1.393,21.51,21.51,0,0,1,6.524,1.33.924.924,0,0,0,.855-.127A.9.9,0,0,0,4951.767,5126.361Z"/></g></svg>