<svg xmlns="http://www.w3.org/2000/svg" width="476" height="476" viewBox="0 0 476 476"><defs><style>.a,.c{fill:none;stroke-miterlimit:10;}.a{stroke:#cbcbcb;stroke-linecap:round;stroke-width:3.5px;}.b{fill:#eee;}.c{stroke:#49d581;stroke-width:5px;}</style></defs><g transform="translate(-524.75 -1335.75)"><path class="a" d="M4330.19,7791.85a237.512,237.512,0,0,1,144.21-.28h.01" transform="translate(-3640 -6279)"/><circle class="a" cx="236.25" cy="236.25" r="236.25" transform="translate(526.5 1337.5)"/><path class="b" d="M4639,7852.75c0,130.48-105.77,236.25-236.25,236.25s-236.25-105.77-236.25-236.25a235.219,235.219,0,0,1,55.3-151.89L4331,7793h144l107.22-93.88A235.262,235.262,0,0,1,4639,7852.75Z" transform="translate(-3640 -6279)"/><line class="a" x1="108.19" y1="90.85" transform="translate(582 1422)"/><path class="a" d="M4582,7699l-107.59,92.57h-.01" transform="translate(-3640 -6279)"/><line class="c" x1="10.12" y2="124.58" transform="translate(768.88 1377)"/></g></svg>