<svg xmlns="http://www.w3.org/2000/svg" width="660.367" height="637.727" viewBox="0 0 660.367 637.727">
  <g id="Group_26" data-name="Group 26" transform="translate(-12810.93 -6730.611)">
    <g id="Path_900" data-name="Path 900" fill="#eee" stroke-miterlimit="10" fill-rule="evenodd">
      <path d="M 13250.9072265625 7367.83740234375 C 13246.15625 7367.83740234375 13241.5556640625 7366.9150390625 13237.234375 7365.0966796875 C 13232.7724609375 7363.21875 13228.6962890625 7360.4189453125 13225.1171875 7356.7744140625 C 13219.931640625 7351.4931640625 13215.916015625 7344.59033203125 13213.181640625 7336.25732421875 C 13210.21875 7327.22607421875 13208.826171875 7316.66162109375 13209.041015625 7304.85791015625 C 13209.125 7300.5 13208.529296875 7296.37255859375 13207.2685546875 7292.5888671875 C 13206.0576171875 7288.95458984375 13204.1884765625 7285.5029296875 13201.7138671875 7282.32958984375 C 13197.080078125 7276.38916015625 13190.240234375 7271.19580078125 13180.802734375 7266.4521484375 C 13172.6806640625 7262.3701171875 13162.751953125 7258.64697265625 13149.5546875 7254.7353515625 C 13137.791015625 7251.248046875 13124.9697265625 7248.06591796875 13111.39453125 7244.6962890625 C 13092.0283203125 7239.88916015625 13072.001953125 7234.91845703125 13052.1748046875 7228.38232421875 C 13041.4287109375 7224.83984375 13031.8720703125 7221.212890625 13022.958984375 7217.29345703125 C 13013.0009765625 7212.91455078125 13003.8017578125 7208.115234375 12995.6162109375 7203.02880859375 L 12995.61328125 7203.02685546875 L 12995.611328125 7203.025390625 C 12994.39453125 7202.24951171875 12993.2705078125 7201.51123046875 12992.279296875 7200.859375 C 12987.896484375 7197.9794921875 12985.2509765625 7196.2412109375 12982.439453125 7196.2412109375 C 12979.8876953125 7196.2412109375 12977.0078125 7197.6875 12972.1728515625 7201.39892578125 C 12966.1455078125 7206.923828125 12960.0341796875 7216.76953125 12953.564453125 7227.19189453125 C 12950.208984375 7232.59765625 12946.7392578125 7238.1875 12943.052734375 7243.5673828125 C 12938.87109375 7249.6708984375 12935.021484375 7254.58935546875 12931.2861328125 7258.60302734375 C 12926.7373046875 7263.490234375 12922.3251953125 7267.099609375 12917.796875 7269.63720703125 C 12915.3154296875 7271.02783203125 12912.77734375 7272.09375 12910.2529296875 7272.8056640625 C 12907.5849609375 7273.55810546875 12904.845703125 7273.939453125 12902.1103515625 7273.93994140625 C 12897.462890625 7273.9404296875 12892.6318359375 7272.83837890625 12887.75 7270.6640625 C 12882.5634765625 7268.3544921875 12877.14453125 7264.75634765625 12871.642578125 7259.97021484375 C 12864.2099609375 7253.52880859375 12859.0341796875 7246.58642578125 12856.2578125 7239.33740234375 C 12854.935546875 7235.88525390625 12854.16796875 7232.36376953125 12853.9765625 7228.86962890625 C 12853.7890625 7225.44921875 12854.150390625 7222.01953125 12855.0517578125 7218.67626953125 C 12857.453125 7209.76220703125 12863.6513671875 7201.49169921875 12872.974609375 7194.75927734375 C 12877.671875 7191.36767578125 12883.109375 7188.404296875 12889.13671875 7185.951171875 C 12895.3447265625 7183.4248046875 12902.1650390625 7181.4462890625 12909.408203125 7180.07080078125 C 12914.2587890625 7179.16552734375 12918.595703125 7177.46923828125 12922.298828125 7175.029296875 C 12925.8095703125 7172.7158203125 12928.85546875 7169.66455078125 12931.3515625 7165.96044921875 C 12949.08203125 7139.6484375 12937.7587890625 7083.88916015625 12929.4912109375 7043.17529296875 C 12927.2255859375 7032.01904296875 12925.2685546875 7022.38427734375 12924.0986328125 7014.431640625 C 12923.5224609375 7010.5615234375 12922.68359375 7006.9921875 12921.603515625 7003.82275390625 C 12920.5703125 7000.79345703125 12919.28515625 6998.0341796875 12917.783203125 6995.6220703125 C 12916.35546875 6993.3291015625 12914.68359375 6991.2734375 12912.814453125 6989.5126953125 C 12911.048828125 6987.84912109375 12909.0439453125 6986.3896484375 12906.8564453125 6985.1748046875 C 12902.8935546875 6982.97509765625 12898.21875 6981.4814453125 12892.5634765625 6980.6083984375 C 12888.0595703125 6979.9130859375 12883.0146484375 6979.60302734375 12876.205078125 6979.60302734375 C 12873.294921875 6979.60302734375 12870.30859375 6979.658203125 12867.4208984375 6979.71142578125 C 12864.5439453125 6979.7646484375 12861.5693359375 6979.8193359375 12858.6796875 6979.8193359375 C 12847.490234375 6979.81982421875 12835.92578125 6979.05615234375 12827.1484375 6973.513671875 C 12824.939453125 6972.119140625 12822.9462890625 6970.4404296875 12821.2216796875 6968.52392578125 C 12819.4013671875 6966.50048828125 12817.8154296875 6964.1376953125 12816.5078125 6961.501953125 C 12815.1416015625 6958.7470703125 12814.03125 6955.59765625 12813.2080078125 6952.1416015625 C 12812.353515625 6948.55029296875 12811.7802734375 6944.50732421875 12811.50390625 6940.12451171875 C 12810.7529296875 6927.146484375 12815.7041015625 6913.67822265625 12824.75 6904.0947265625 C 12828.537109375 6900.08154296875 12832.859375 6896.93310546875 12837.595703125 6894.73681640625 C 12842.642578125 6892.3974609375 12848.021484375 6891.2109375 12853.5849609375 6891.2109375 C 12861.716796875 6891.2109375 12870.037109375 6893.73046875 12878.3134765625 6898.69970703125 C 12887.4814453125 6904.2041015625 12896.505859375 6912.68408203125 12905.1328125 6923.9033203125 C 12908.96484375 6928.9072265625 12913.1220703125 6932.666015625 12917.4912109375 6935.07568359375 C 12921.5439453125 6937.3115234375 12925.8876953125 6938.4453125 12930.40234375 6938.4453125 C 12957.2734375 6938.4453125 12985.8837890625 6899.146484375 13001.25390625 6878.03369140625 C 13002.0126953125 6876.9912109375 13002.7294921875 6876.00634765625 13003.4189453125 6875.06396484375 C 13005.3486328125 6872.38525390625 13006.8212890625 6869.72412109375 13007.7939453125 6867.15771484375 C 13008.71875 6864.71826171875 13009.2216796875 6862.28076171875 13009.2900390625 6859.91259765625 C 13009.416015625 6855.52880859375 13008.1083984375 6851.24951171875 13005.291015625 6846.83056640625 C 13002.8779296875 6843.04638671875 12999.4375 6839.23583984375 12994.462890625 6834.8388671875 C 12990.0537109375 6830.94091796875 12985.1396484375 6827.197265625 12979.9365234375 6823.2333984375 C 12972.1787109375 6817.3232421875 12964.1572265625 6811.21142578125 12957.9033203125 6804.51611328125 C 12954.5146484375 6800.88916015625 12951.939453125 6797.41845703125 12950.0283203125 6793.90673828125 C 12947.8671875 6789.9345703125 12946.61328125 6786.02490234375 12946.193359375 6781.95361328125 C 12945.939453125 6779.490234375 12946.005859375 6776.95556640625 12946.390625 6774.42138671875 C 12946.7919921875 6771.77880859375 12947.5517578125 6769.05126953125 12948.650390625 6766.31396484375 C 12949.7880859375 6763.47509765625 12951.326171875 6760.5361328125 12953.220703125 6757.57763671875 C 12955.1787109375 6754.5205078125 12957.5791015625 6751.3466796875 12960.3544921875 6748.1455078125 C 12969.65234375 6737.478515625 12983.14453125 6731.11083984375 12996.4482421875 6731.11083984375 C 13001.673828125 6731.11083984375 13006.6689453125 6732.08349609375 13011.2958984375 6734.00244140625 C 13016.1923828125 6736.03369140625 13020.5673828125 6739.08642578125 13024.30078125 6743.07666015625 C 13029.47265625 6748.60546875 13033.3251953125 6755.83056640625 13035.75 6764.55126953125 C 13038.4072265625 6774.10595703125 13039.32421875 6785.40966796875 13038.474609375 6798.1484375 C 13038.1650390625 6803.11474609375 13038.6611328125 6807.62353515625 13039.9482421875 6811.5478515625 C 13041.15234375 6815.21826171875 13043.0849609375 6818.486328125 13045.693359375 6821.26171875 C 13048.19140625 6823.92041015625 13051.3896484375 6826.21142578125 13055.1962890625 6828.07080078125 C 13058.697265625 6829.7802734375 13062.8271484375 6831.17919921875 13067.470703125 6832.2294921875 C 13075.283203125 6833.99609375 13084.787109375 6834.85498046875 13096.52734375 6834.85498046875 C 13104.962890625 6834.85498046875 13113.44921875 6834.4189453125 13120.935546875 6834.03369140625 C 13127.1015625 6833.716796875 13132.92578125 6833.4169921875 13137.6845703125 6833.4169921875 C 13139.5849609375 6833.4169921875 13141.2109375 6833.46337890625 13142.65625 6833.55810546875 C 13163.15234375 6834.8642578125 13181.5 6839.06201171875 13197.6884765625 6842.76611328125 C 13211.9931640625 6846.0390625 13224.3486328125 6848.8662109375 13234.6513671875 6848.8662109375 C 13244.744140625 6848.8662109375 13251.91796875 6846.103515625 13257.2275390625 6840.171875 C 13260.181640625 6836.87255859375 13262.5439453125 6832.6357421875 13264.44921875 6827.21875 C 13266.4365234375 6821.5703125 13267.8642578125 6814.82470703125 13268.8134765625 6806.5966796875 C 13270.4033203125 6792.62841796875 13274.759765625 6782.00146484375 13281.76171875 6775.01220703125 C 13284.9267578125 6771.8525390625 13288.6328125 6769.45703125 13292.77734375 6767.8916015625 C 13296.6640625 6766.423828125 13300.9482421875 6765.6796875 13305.5107421875 6765.6796875 C 13311.6435546875 6765.6796875 13318.1201171875 6766.9921875 13324.7626953125 6769.58056640625 C 13331.01953125 6772.01953125 13337.279296875 6775.5859375 13342.86328125 6779.89453125 C 13354.6123046875 6788.9599609375 13362.6455078125 6800.53955078125 13364.9052734375 6811.6640625 C 13365.666015625 6815.41357421875 13365.7705078125 6819.09375 13365.2138671875 6822.60205078125 C 13364.6259765625 6826.31494140625 13363.291015625 6829.86767578125 13361.2470703125 6833.162109375 C 13356.7822265625 6840.35791015625 13348.96484375 6846.35888671875 13338.013671875 6850.99853515625 C 13312.57421875 6861.75634765625 13300.625 6870.21728515625 13298.0576171875 6879.2900390625 C 13297.423828125 6881.529296875 13297.3388671875 6883.84326171875 13297.796875 6886.36328125 C 13298.22265625 6888.703125 13299.12109375 6891.23046875 13300.544921875 6894.0908203125 C 13303.2666015625 6899.55908203125 13307.6396484375 6905.69482421875 13312.7041015625 6912.79931640625 C 13317.517578125 6919.55224609375 13322.9736328125 6927.20654296875 13328.400390625 6936.19775390625 C 13334.6806640625 6946.6025390625 13339.732421875 6956.8466796875 13343.8447265625 6967.51513671875 C 13354.3369140625 6994.7958984375 13356.8017578125 7019.81396484375 13358.7822265625 7039.91650390625 C 13359.5419921875 7047.6298828125 13360.259765625 7054.91552734375 13361.337890625 7061.2060546875 C 13362.5244140625 7068.1318359375 13364.041015625 7073.25 13366.1103515625 7077.3134765625 C 13368.455078125 7081.91845703125 13371.580078125 7085.2353515625 13375.6630859375 7087.4541015625 C 13380.0869140625 7089.8583984375 13385.6923828125 7091.02685546875 13392.7998046875 7091.02685546875 C 13398.2890625 7091.02685546875 13404.5654296875 7090.33984375 13411.9892578125 7088.9267578125 C 13417.888671875 7087.81787109375 13423.48828125 7087.255859375 13428.6328125 7087.255859375 C 13435.8232421875 7087.255859375 13442.2841796875 7088.34716796875 13447.8369140625 7090.5 C 13453.005859375 7092.50341796875 13457.41796875 7095.43310546875 13460.953125 7099.20849609375 C 13464.2451171875 7102.724609375 13466.7607421875 7106.95263671875 13468.4296875 7111.77392578125 C 13470 7116.30908203125 13470.796875 7121.283203125 13470.796875 7126.55859375 C 13470.7978515625 7132.6416015625 13469.7021484375 7139.0771484375 13467.62890625 7145.16943359375 C 13465.5556640625 7151.2626953125 13462.4873046875 7157.06396484375 13458.7548828125 7161.9453125 C 13450.4462890625 7172.81201171875 13439.369140625 7178.7978515625 13427.564453125 7178.80029296875 C 13427.5615234375 7178.80029296875 13427.5595703125 7178.80029296875 13427.556640625 7178.80029296875 C 13420.236328125 7178.80029296875 13412.7314453125 7176.5322265625 13405.2490234375 7172.05859375 C 13397.0283203125 7167.14306640625 13388.8408203125 7159.552734375 13380.912109375 7149.49755859375 C 13377.1962890625 7144.7646484375 13373.2451171875 7141.2109375 13369.16796875 7138.9345703125 C 13365.353515625 7136.8046875 13361.302734375 7135.72509765625 13357.12890625 7135.72509765625 C 13354.583984375 7135.72509765625 13351.9228515625 7136.12548828125 13349.21875 7136.91455078125 C 13346.6435546875 7137.66650390625 13343.947265625 7138.794921875 13341.2060546875 7140.26953125 C 13336.1552734375 7142.98583984375 13330.8779296875 7146.869140625 13325.0712890625 7152.140625 C 13314.322265625 7161.900390625 13303.84765625 7174.54150390625 13293.71875 7186.76611328125 C 13285.90234375 7196.19970703125 13278.51953125 7205.1103515625 13271.6484375 7211.89501953125 C 13258.681640625 7224.6337890625 13252.3642578125 7236.03369140625 13252.3330078125 7246.74609375 C 13252.3232421875 7250.21044921875 13252.951171875 7253.56884765625 13254.2529296875 7257.01416015625 C 13255.416015625 7260.095703125 13257.0966796875 7263.177734375 13259.390625 7266.4365234375 C 13263.6708984375 7272.51904296875 13269.5 7278.31201171875 13275.13671875 7283.9140625 C 13279.5869140625 7288.3369140625 13284.1884765625 7292.91015625 13288.0224609375 7297.6162109375 C 13292.3427734375 7302.919921875 13295.201171875 7307.82861328125 13296.7626953125 7312.6220703125 C 13297.6640625 7315.3916015625 13298.15625 7318.2099609375 13298.2265625 7320.9990234375 C 13298.3017578125 7323.982421875 13297.896484375 7327.0517578125 13297.0234375 7330.12158203125 C 13296.103515625 7333.35791015625 13294.62890625 7336.71435546875 13292.6416015625 7340.09716796875 C 13290.5625 7343.634765625 13287.8505859375 7347.3251953125 13284.580078125 7351.06591796875 C 13279.8544921875 7356.4765625 13274.4677734375 7360.6875 13268.5703125 7363.58203125 C 13265.7197265625 7364.98095703125 13262.7705078125 7366.05224609375 13259.8037109375 7366.765625 C 13256.8466796875 7367.47705078125 13253.853515625 7367.83740234375 13250.9072265625 7367.83740234375 Z M 13137.1171875 7060.80810546875 C 13131.6767578125 7060.80810546875 13126.26953125 7061.62255859375 13121.0458984375 7063.22802734375 C 13115.8642578125 7064.8212890625 13110.95703125 7067.1640625 13106.4599609375 7070.19091796875 C 13097.119140625 7076.47802734375 13090.009765625 7085.38671875 13085.900390625 7095.9541015625 C 13083.7841796875 7101.34130859375 13082.5595703125 7107.25732421875 13082.3603515625 7113.06494140625 L 13082.359375 7113.0810546875 L 13082.3583984375 7113.09765625 C 13082.193359375 7114.74951171875 13082.9287109375 7116.20166015625 13084.54296875 7117.4140625 C 13085.3916015625 7118.0498046875 13086.380859375 7118.38623046875 13087.404296875 7118.38623046875 C 13088.0830078125 7118.38623046875 13088.755859375 7118.24072265625 13089.40234375 7117.953125 C 13095.9482421875 7115.0830078125 13103.396484375 7112.86083984375 13111.541015625 7111.34716796875 C 13119.7353515625 7109.82421875 13128.45703125 7109.0517578125 13137.4658203125 7109.0517578125 C 13139.50390625 7109.0517578125 13141.580078125 7109.09228515625 13143.6357421875 7109.17236328125 L 13143.638671875 7109.17236328125 L 13143.642578125 7109.1728515625 C 13151.0615234375 7109.5634765625 13158.369140625 7110.49365234375 13165.361328125 7111.9375 C 13172.134765625 7113.33642578125 13178.6376953125 7115.2216796875 13184.6904296875 7117.54150390625 C 13185.2841796875 7117.73828125 13185.890625 7117.83740234375 13186.49609375 7117.837890625 C 13187.6259765625 7117.837890625 13188.693359375 7117.48486328125 13189.5830078125 7116.81787109375 C 13191.046875 7115.71923828125 13191.76171875 7114.29638671875 13191.765625 7112.46826171875 C 13191.076171875 7102.06982421875 13187.5205078125 7092.1142578125 13181.4833984375 7083.677734375 C 13175.28125 7075.00927734375 13166.7236328125 7068.3662109375 13156.73828125 7064.466796875 C 13150.4267578125 7062.0390625 13143.82421875 7060.80810546875 13137.1171875 7060.80810546875 Z M 13154.7939453125 6979.798828125 C 13156.943359375 6984.48828125 13159.748046875 6988.85546875 13163.12890625 6992.77880859375 C 13166.49609375 6996.68603515625 13170.38671875 7000.09765625 13174.693359375 7002.919921875 C 13183.6318359375 7008.77685546875 13194.0341796875 7011.873046875 13204.7763671875 7011.873046875 C 13212.1328125 7011.873046875 13219.28125 7010.421875 13226.0234375 7007.56005859375 C 13229.26171875 7006.18505859375 13232.38671875 7004.4833984375 13235.3134765625 7002.50341796875 C 13238.2109375 7000.5419921875 13240.9375 6998.2900390625 13243.416015625 6995.81103515625 C 13245.8955078125 6993.33203125 13248.146484375 6990.60546875 13250.1083984375 6987.70751953125 C 13252.087890625 6984.78173828125 13253.7900390625 6981.65576171875 13255.1640625 6978.41748046875 C 13258.0263671875 6971.67578125 13259.4775390625 6964.52685546875 13259.4775390625 6957.169921875 C 13259.4775390625 6951.2919921875 13258.5791015625 6945.63427734375 13256.73046875 6939.875 C 13256.1650390625 6938.61474609375 13255.048828125 6937.0361328125 13252.9306640625 6936.6123046875 L 13252.8994140625 6936.6064453125 L 13252.8701171875 6936.59619140625 C 13252.462890625 6936.4609375 13252.0361328125 6936.39208984375 13251.6005859375 6936.39208984375 C 13250.388671875 6936.39208984375 13249.15625 6936.92919921875 13248.2197265625 6937.86572265625 L 13248.2177734375 6937.86767578125 L 13248.2158203125 6937.869140625 C 13243.0791015625 6942.904296875 13236.953125 6947.62060546875 13230.0078125 6951.88720703125 C 13223.0849609375 6956.14013671875 13215.4892578125 6959.8564453125 13207.421875 6962.939453125 C 13208.6328125 6964.3505859375 13209.583984375 6965.90966796875 13210.25390625 6967.58349609375 C 13211.0341796875 6969.53662109375 13211.4306640625 6971.64501953125 13211.4306640625 6973.85009765625 C 13211.4306640625 6976.052734375 13210.9951171875 6978.19384765625 13210.1376953125 6980.21337890625 C 13209.3095703125 6982.16259765625 13208.125 6983.91552734375 13206.6181640625 6985.4228515625 C 13205.111328125 6986.93017578125 13203.3583984375 6988.1142578125 13201.4091796875 6988.9423828125 C 13199.3896484375 6989.80078125 13197.2490234375 6990.23583984375 13195.0458984375 6990.23583984375 C 13192.84375 6990.23583984375 13190.7021484375 6989.80078125 13188.6826171875 6988.9423828125 C 13186.7333984375 6988.1142578125 13184.98046875 6986.93017578125 13183.47265625 6985.4228515625 C 13181.9658203125 6983.91552734375 13180.78125 6982.16259765625 13179.953125 6980.21337890625 C 13179.095703125 6978.19384765625 13178.66015625 6976.052734375 13178.66015625 6973.85009765625 C 13178.66015625 6972.8876953125 13178.66015625 6971.8994140625 13178.8720703125 6970.8984375 C 13172.193359375 6972.00341796875 13165.6806640625 6972.56298828125 13159.501953125 6972.56298828125 C 13157.54296875 6972.56298828125 13156.005859375 6973.38818359375 13155.173828125 6974.88671875 L 13155.1669921875 6974.89794921875 L 13155.16015625 6974.9091796875 C 13154.2314453125 6976.3955078125 13154.0947265625 6978.22314453125 13154.7939453125 6979.798828125 Z M 13015.0126953125 6937.29443359375 C 13013.1630859375 6943.05517578125 13012.2646484375 6948.712890625 13012.2646484375 6954.5888671875 C 13012.2646484375 6961.9921875 13013.7158203125 6969.1689453125 13016.578125 6975.919921875 C 13017.9521484375 6979.162109375 13019.6533203125 6982.2890625 13021.634765625 6985.21337890625 C 13023.5947265625 6988.10791015625 13025.8466796875 6990.830078125 13028.326171875 6993.30322265625 C 13030.8037109375 6995.775390625 13033.5302734375 6998.01904296875 13036.4287109375 6999.97314453125 C 13039.353515625 7001.9443359375 13042.4794921875 7003.6376953125 13045.7197265625 7005.00537109375 C 13052.455078125 7007.84912109375 13059.6044921875 7009.291015625 13066.9677734375 7009.291015625 C 13077.708984375 7009.291015625 13088.111328125 7006.19482421875 13097.05078125 7000.337890625 C 13101.357421875 6997.515625 13105.248046875 6994.10400390625 13108.615234375 6990.19677734375 C 13111.9970703125 6986.27294921875 13114.80078125 6981.9052734375 13116.951171875 6977.21533203125 C 13117.6484375 6975.64013671875 13117.51171875 6973.8134765625 13116.5830078125 6972.328125 C 13115.6650390625 6970.85888671875 13114.0419921875 6969.98193359375 13112.2421875 6969.98193359375 C 13104.16015625 6969.98193359375 13095.365234375 6968.99755859375 13086.7646484375 6967.1328125 C 13086.7802734375 6967.28173828125 13086.7978515625 6967.43408203125 13086.81640625 6967.58984375 C 13086.8681640625 6968.03125 13086.927734375 6968.53125 13086.927734375 6969.0849609375 C 13086.927734375 6971.29052734375 13086.4912109375 6973.431640625 13085.630859375 6975.44921875 C 13084.798828125 6977.40087890625 13083.6064453125 6979.15380859375 13082.0888671875 6980.6591796875 C 13078.958984375 6983.76171875 13074.7880859375 6985.47021484375 13070.3427734375 6985.47021484375 C 13068.140625 6985.47021484375 13065.9990234375 6985.03515625 13063.9794921875 6984.1767578125 C 13062.0302734375 6983.3486328125 13060.2783203125 6982.16455078125 13058.7705078125 6980.6572265625 C 13057.263671875 6979.150390625 13056.0791015625 6977.3974609375 13055.2509765625 6975.4482421875 C 13054.3935546875 6973.42822265625 13053.9580078125 6971.28759765625 13053.9580078125 6969.0849609375 C 13053.9580078125 6965.0400390625 13055.45703125 6961.1103515625 13058.19140625 6957.94580078125 C 13044.46484375 6951.875 13032.490234375 6944.048828125 13023.5283203125 6935.28759765625 L 13023.5263671875 6935.28564453125 L 13023.5244140625 6935.28369140625 C 13022.587890625 6934.34716796875 13021.35546875 6933.81005859375 13020.142578125 6933.81005859375 C 13019.70703125 6933.81005859375 13019.279296875 6933.87890625 13018.873046875 6934.0146484375 L 13018.84375 6934.0244140625 L 13018.8134765625 6934.0302734375 C 13016.693359375 6934.455078125 13015.5771484375 6936.0341796875 13015.0126953125 6937.29443359375 Z" stroke="none"/>
      <path d="M 13250.9072265625 7367.33740234375 C 13262.56640625 7367.33740234375 13274.6640625 7361.65966796875 13284.2041015625 7350.73681640625 C 13339.4072265625 7287.591796875 13203.3857421875 7278.2587890625 13271.296875 7211.5390625 C 13295.8173828125 7187.32861328125 13327.4912109375 7135.22509765625 13357.12890625 7135.22509765625 C 13365.4130859375 7135.22509765625 13373.5400390625 7139.29833984375 13381.3046875 7149.18798828125 C 13397.8818359375 7170.21240234375 13413.8427734375 7178.302734375 13427.564453125 7178.30029296875 C 13473.453125 7178.29150390625 13494.2216796875 7087.755859375 13428.6328125 7087.755859375 C 13423.62890625 7087.755859375 13418.1201171875 7088.283203125 13412.0830078125 7089.41796875 C 13404.5966796875 7090.84326171875 13398.234375 7091.52685546875 13392.7998046875 7091.52685546875 C 13344.466796875 7091.52685546875 13370.1533203125 7037.3095703125 13343.3779296875 6967.69482421875 C 13314.982421875 6894.02490234375 13257.9931640625 6884.294921875 13337.818359375 6850.5380859375 C 13397.724609375 6825.16015625 13345.9716796875 6766.1796875 13305.5107421875 6766.1796875 C 13288.03515625 6766.1796875 13272.6650390625 6777.18505859375 13269.310546875 6806.65380859375 C 13265.4658203125 6839.974609375 13253.4814453125 6849.3662109375 13234.6513671875 6849.3662109375 C 13212.634765625 6849.3662109375 13181.2607421875 6836.5185546875 13142.623046875 6834.05712890625 C 13141.12890625 6833.958984375 13139.478515625 6833.9169921875 13137.6845703125 6833.9169921875 C 13127.1875 6833.9169921875 13111.947265625 6835.35498046875 13096.52734375 6835.35498046875 C 13066.6064453125 6835.35498046875 13035.994140625 6829.9423828125 13037.9755859375 6798.115234375 C 13041.138671875 6750.6796875 13019.3251953125 6731.6103515625 12996.4482421875 6731.6103515625 C 12983.4130859375 6731.6103515625 12970.0302734375 6737.8056640625 12960.732421875 6748.47314453125 C 12903.7431640625 6814.19921875 13039.16796875 6826.31201171875 13003.822265625 6875.35888671875 C 12988.9970703125 6895.630859375 12958.8505859375 6938.9453125 12930.40234375 6938.9453125 C 12921.5087890625 6938.9453125 12912.775390625 6934.70654296875 12904.736328125 6924.2080078125 C 12886.626953125 6900.658203125 12868.748046875 6891.7109375 12853.5849609375 6891.7109375 C 12828.3447265625 6891.7109375 12810.638671875 6916.5244140625 12812.0029296875 6940.0927734375 C 12814.25 6975.78515625 12835.2958984375 6979.3203125 12858.6796875 6979.3193359375 C 12864.4609375 6979.3193359375 12870.3876953125 6979.10302734375 12876.205078125 6979.10302734375 C 12898.826171875 6979.10302734375 12919.8388671875 6982.37646484375 12924.5927734375 7014.35888671875 C 12931.34375 7060.22802734375 12965.89453125 7170.0380859375 12909.5009765625 7180.56201171875 C 12858.26953125 7190.2919921875 12836.228515625 7228.6162109375 12871.970703125 7259.5927734375 C 12883.2841796875 7269.43408203125 12893.23046875 7273.44091796875 12902.1103515625 7273.43994140625 C 12935.158203125 7273.43603515625 12953.3837890625 7217.9189453125 12971.8515625 7201.01513671875 C 12976.66796875 7197.31640625 12979.6591796875 7195.7412109375 12982.439453125 7195.7412109375 C 12986.076171875 7195.7412109375 12989.3515625 7198.43896484375 12995.8798828125 7202.60400390625 C 13079.279296875 7254.43017578125 13210.7333984375 7243.11181640625 13209.541015625 7304.8671875 C 13208.7646484375 7347.45263671875 13229.076171875 7367.33740234375 13250.9072265625 7367.33740234375 M 13137.1171875 7060.30810546875 C 13143.7099609375 7060.30810546875 13150.4091796875 7061.49658203125 13156.919921875 7064.0009765625 C 13177.76953125 7072.14306640625 13190.8759765625 7091.40380859375 13192.265625 7112.4521484375 C 13192.265625 7114.43798828125 13191.470703125 7116.02685546875 13189.8828125 7117.2177734375 C 13188.8642578125 7117.98193359375 13187.68359375 7118.337890625 13186.49609375 7118.337890625 C 13185.830078125 7118.337890625 13185.1630859375 7118.22607421875 13184.521484375 7118.01220703125 C 13172.607421875 7113.44482421875 13158.70703125 7110.466796875 13143.6162109375 7109.671875 C 13141.5498046875 7109.591796875 13139.5 7109.55224609375 13137.4658203125 7109.55224609375 C 13119.3603515625 7109.55224609375 13102.6357421875 7112.697265625 13089.60546875 7118.41015625 C 13088.890625 7118.7275390625 13088.14453125 7118.88623046875 13087.404296875 7118.88623046875 C 13086.2939453125 7118.88623046875 13085.1962890625 7118.52880859375 13084.2431640625 7117.81396484375 C 13082.6552734375 7116.6220703125 13081.662109375 7115.0341796875 13081.8603515625 7113.0478515625 C 13082.05859375 7107.2900390625 13083.25 7101.3330078125 13085.4345703125 7095.77294921875 C 13094.0048828125 7073.7353515625 13114.958984375 7060.30810546875 13137.1171875 7060.30810546875 M 13179.556640625 6970.27587890625 C 13179.16015625 6971.466796875 13179.16015625 6972.6591796875 13179.16015625 6973.85009765625 C 13179.16015625 6982.5869140625 13186.30859375 6989.73583984375 13195.0458984375 6989.73583984375 C 13203.783203125 6989.73583984375 13210.9306640625 6982.5869140625 13210.9306640625 6973.85009765625 C 13210.9306640625 6969.48193359375 13209.3427734375 6965.708984375 13206.5634765625 6962.72998046875 C 13223.44140625 6956.3759765625 13237.73828125 6947.43994140625 13247.8662109375 6937.51220703125 C 13248.892578125 6936.4853515625 13250.244140625 6935.89208984375 13251.6005859375 6935.89208984375 C 13252.080078125 6935.89208984375 13252.5615234375 6935.96630859375 13253.0283203125 6936.1220703125 C 13255.013671875 6936.51904296875 13256.404296875 6937.9091796875 13257.1982421875 6939.69580078125 C 13258.9853515625 6945.255859375 13259.9775390625 6951.01513671875 13259.9775390625 6957.169921875 C 13259.9775390625 6987.5517578125 13235.1572265625 7012.373046875 13204.7763671875 7012.373046875 C 13182.3369140625 7012.373046875 13163.076171875 6999.06884765625 13154.3388671875 6980.005859375 C 13153.5439453125 6978.21923828125 13153.7431640625 6976.23291015625 13154.736328125 6974.64404296875 C 13155.728515625 6972.85693359375 13157.515625 6972.06298828125 13159.501953125 6972.06298828125 C 13165.8564453125 6972.06298828125 13172.607421875 6971.466796875 13179.556640625 6970.27587890625 M 13020.142578125 6933.31005859375 C 13021.4990234375 6933.31005859375 13022.8515625 6933.9033203125 13023.8779296875 6934.93017578125 C 13032.814453125 6943.6669921875 13044.92578125 6951.60986328125 13059.025390625 6957.76611328125 C 13056.2451171875 6960.7451171875 13054.4580078125 6964.7158203125 13054.4580078125 6969.0849609375 C 13054.4580078125 6977.82177734375 13061.6064453125 6984.97021484375 13070.3427734375 6984.97021484375 C 13079.279296875 6984.97021484375 13086.427734375 6977.82177734375 13086.427734375 6969.0849609375 C 13086.427734375 6968.091796875 13086.228515625 6967.296875 13086.228515625 6966.5029296875 C 13095.1650390625 6968.48876953125 13104.099609375 6969.48193359375 13112.2421875 6969.48193359375 C 13114.2265625 6969.48193359375 13116.0146484375 6970.47509765625 13117.0068359375 6972.06298828125 C 13118 6973.65185546875 13118.19921875 6975.63720703125 13117.4052734375 6977.423828125 C 13108.66796875 6996.48681640625 13089.40625 7009.791015625 13066.9677734375 7009.791015625 C 13036.5859375 7009.791015625 13011.7646484375 6985.1689453125 13011.7646484375 6954.5888671875 C 13011.7646484375 6948.43310546875 13012.7578125 6942.6748046875 13014.544921875 6937.115234375 C 13015.3388671875 6935.3271484375 13016.728515625 6933.93798828125 13018.71484375 6933.5400390625 C 13019.181640625 6933.38427734375 13019.662109375 6933.31005859375 13020.142578125 6933.31005859375 M 13250.9072265625 7368.33740234375 C 13246.0888671875 7368.33740234375 13241.423828125 7367.40234375 13237.041015625 7365.5576171875 C 13232.517578125 7363.65380859375 13228.3857421875 7360.81689453125 13224.7607421875 7357.125 C 13219.5205078125 7351.7880859375 13215.46484375 7344.81982421875 13212.70703125 7336.41357421875 C 13209.7265625 7327.32861328125 13208.3251953125 7316.708984375 13208.541015625 7304.84912109375 C 13208.6240234375 7300.5478515625 13208.0361328125 7296.47607421875 13206.7939453125 7292.7470703125 C 13205.6015625 7289.16650390625 13203.759765625 7285.76513671875 13201.3193359375 7282.63720703125 C 13196.732421875 7276.75634765625 13189.947265625 7271.6083984375 13180.578125 7266.89892578125 C 13172.4833984375 7262.83056640625 13162.580078125 7259.11767578125 13149.412109375 7255.21435546875 C 13137.66015625 7251.73095703125 13124.84375 7248.5498046875 13111.2744140625 7245.181640625 C 13091.8984375 7240.3720703125 13071.86328125 7235.3994140625 13052.0185546875 7228.857421875 C 13041.2568359375 7225.31005859375 13031.685546875 7221.6767578125 13022.7578125 7217.75146484375 C 13012.7783203125 7213.36279296875 13003.5576171875 7208.55224609375 12995.3525390625 7203.453125 L 12995.3466796875 7203.4501953125 L 12995.341796875 7203.44677734375 C 12994.123046875 7202.66943359375 12992.998046875 7201.93017578125 12992.0048828125 7201.27783203125 C 12987.7001953125 7198.44873046875 12985.1015625 7196.7412109375 12982.439453125 7196.7412109375 C 12980.0126953125 7196.7412109375 12977.22265625 7198.1552734375 12972.4951171875 7201.78173828125 C 12966.5224609375 7207.26318359375 12960.4345703125 7217.07177734375 12953.9892578125 7227.45556640625 C 12950.630859375 7232.8662109375 12947.158203125 7238.4609375 12943.4658203125 7243.849609375 C 12939.26953125 7249.97412109375 12935.4052734375 7254.91162109375 12931.65234375 7258.94384765625 C 12927.0673828125 7263.86962890625 12922.615234375 7267.51025390625 12918.041015625 7270.07373046875 C 12915.525390625 7271.4833984375 12912.951171875 7272.564453125 12910.388671875 7273.28662109375 C 12907.6767578125 7274.0517578125 12904.8916015625 7274.439453125 12902.1103515625 7274.43994140625 C 12897.392578125 7274.4404296875 12892.4921875 7273.32373046875 12887.5458984375 7271.12060546875 C 12882.3154296875 7268.791015625 12876.8544921875 7265.166015625 12871.314453125 7260.34716796875 C 12863.8203125 7253.85205078125 12858.5966796875 7246.84326171875 12855.791015625 7239.51611328125 C 12854.4501953125 7236.015625 12853.671875 7232.44287109375 12853.4775390625 7228.89697265625 C 12853.287109375 7225.42333984375 12853.654296875 7221.94091796875 12854.568359375 7218.54638671875 C 12857.0009765625 7209.52001953125 12863.2646484375 7201.154296875 12872.6826171875 7194.353515625 C 12877.4111328125 7190.93896484375 12882.8837890625 7187.95654296875 12888.9482421875 7185.48779296875 C 12895.1865234375 7182.94921875 12902.0390625 7180.96142578125 12909.314453125 7179.57958984375 C 12914.1015625 7178.68603515625 12918.3759765625 7177.01513671875 12922.0234375 7174.611328125 C 12925.4794921875 7172.3349609375 12928.4775390625 7169.330078125 12930.9365234375 7165.68115234375 C 12933.046875 7162.55029296875 12934.8193359375 7158.85693359375 12936.205078125 7154.70263671875 C 12937.51953125 7150.76611328125 12938.5244140625 7146.30126953125 12939.193359375 7141.431640625 C 12939.8203125 7136.8662109375 12940.169921875 7131.80615234375 12940.232421875 7126.392578125 C 12940.291015625 7121.384765625 12940.10546875 7115.91015625 12939.6806640625 7110.12109375 C 12938.9521484375 7100.185546875 12937.5146484375 7089.02490234375 12935.2841796875 7076.001953125 C 12933.3369140625 7064.62451171875 12931.033203125 7053.2822265625 12929.0009765625 7043.27490234375 C 12926.7333984375 7032.111328125 12924.775390625 7022.47021484375 12923.603515625 7014.50439453125 C 12923.033203125 7010.6650390625 12922.2001953125 7007.125 12921.1298828125 7003.984375 C 12920.109375 7000.99072265625 12918.8408203125 6998.26611328125 12917.3583984375 6995.88623046875 C 12914.5986328125 6991.45458984375 12911.083984375 6988.09375 12906.61328125 6985.61181640625 C 12902.7041015625 6983.44140625 12898.0830078125 6981.96630859375 12892.4873046875 6981.1025390625 C 12888.009765625 6980.41162109375 12882.98828125 6980.10302734375 12876.205078125 6980.10302734375 C 12873.2998046875 6980.10302734375 12870.3154296875 6980.158203125 12867.4296875 6980.21142578125 C 12864.55078125 6980.2646484375 12861.5732421875 6980.3193359375 12858.6796875 6980.3193359375 C 12847.4150390625 6980.31982421875 12835.7666015625 6979.546875 12826.8818359375 6973.9365234375 C 12824.6337890625 6972.517578125 12822.6044921875 6970.80908203125 12820.8505859375 6968.8583984375 C 12819 6966.80078125 12817.3876953125 6964.400390625 12816.060546875 6961.72412109375 C 12814.6767578125 6958.93505859375 12813.5537109375 6955.75 12812.7216796875 6952.25732421875 C 12811.8603515625 6948.638671875 12811.2822265625 6944.56689453125 12811.0048828125 6940.15576171875 L 12811.0048828125 6940.1533203125 L 12811.0048828125 6940.150390625 C 12810.24609375 6927.04052734375 12815.248046875 6913.43359375 12824.3857421875 6903.75146484375 C 12828.2177734375 6899.69189453125 12832.5908203125 6896.50634765625 12837.3857421875 6894.28369140625 C 12842.4990234375 6891.9130859375 12847.9482421875 6890.7109375 12853.5849609375 6890.7109375 C 12861.80859375 6890.7109375 12870.21484375 6893.25439453125 12878.5703125 6898.27099609375 C 12887.79296875 6903.80810546875 12896.86328125 6912.32958984375 12905.529296875 6923.5986328125 C 12909.3193359375 6928.5478515625 12913.4248046875 6932.26171875 12917.732421875 6934.6376953125 C 12921.7109375 6936.83251953125 12925.9736328125 6937.9453125 12930.40234375 6937.9453125 C 12933.5673828125 6937.9453125 12936.8994140625 6937.37841796875 12940.306640625 6936.26123046875 C 12943.513671875 6935.20947265625 12946.873046875 6933.6416015625 12950.29296875 6931.60107421875 C 12956.3857421875 6927.9658203125 12962.9150390625 6922.6806640625 12969.697265625 6915.89306640625 C 12975.1953125 6910.390625 12980.8662109375 6903.9287109375 12987.0322265625 6896.1376953125 C 12992.3056640625 6889.47509765625 12997.04296875 6882.9677734375 13000.849609375 6877.7392578125 C 13001.607421875 6876.69775390625 13002.32421875 6875.7138671875 13003.0126953125 6874.771484375 C 13004.9189453125 6872.12646484375 13006.3701171875 6869.50537109375 13007.326171875 6866.98046875 C 13008.2314453125 6864.59326171875 13008.7236328125 6862.21044921875 13008.7900390625 6859.8984375 C 13008.9130859375 6855.61767578125 13007.630859375 6851.43115234375 13004.869140625 6847.09912109375 C 13002.515625 6843.40673828125 12999.0029296875 6839.51904296875 12994.1318359375 6835.21337890625 C 12989.736328125 6831.32763671875 12984.8291015625 6827.58935546875 12979.6337890625 6823.63134765625 C 12971.859375 6817.7080078125 12963.8203125 6811.58349609375 12957.5380859375 6804.857421875 C 12954.1201171875 6801.19921875 12951.5205078125 6797.6953125 12949.5888671875 6794.1455078125 C 12947.4267578125 6790.17041015625 12946.1171875 6786.0859375 12945.6962890625 6782.0048828125 C 12945.4375 6779.4990234375 12945.5048828125 6776.92236328125 12945.896484375 6774.34619140625 C 12946.3037109375 6771.666015625 12947.0732421875 6768.90087890625 12948.185546875 6766.12744140625 C 12949.3359375 6763.259765625 12950.888671875 6760.29296875 12952.7998046875 6757.30810546875 C 12954.7705078125 6754.23046875 12957.185546875 6751.03759765625 12959.9765625 6747.81787109375 C 12969.369140625 6737.04248046875 12983.001953125 6730.61083984375 12996.4482421875 6730.61083984375 C 13001.740234375 6730.61083984375 13006.7998046875 6731.59619140625 13011.4873046875 6733.54052734375 C 13016.4501953125 6735.59912109375 13020.8837890625 6738.6923828125 13024.666015625 6742.73486328125 C 13029.8935546875 6748.3232421875 13033.78515625 6755.6181640625 13036.232421875 6764.4169921875 C 13038.904296875 6774.02685546875 13039.826171875 6785.38671875 13038.9736328125 6798.181640625 C 13038.66796875 6803.08203125 13039.15625 6807.5283203125 13040.423828125 6811.39208984375 C 13041.6044921875 6814.9921875 13043.5 6818.19775390625 13046.0576171875 6820.91943359375 C 13048.5146484375 6823.53369140625 13051.6630859375 6825.78857421875 13055.416015625 6827.62158203125 C 13058.8818359375 6829.31396484375 13062.974609375 6830.7001953125 13067.5810546875 6831.74169921875 C 13075.3564453125 6833.50048828125 13084.8251953125 6834.35498046875 13096.52734375 6834.35498046875 C 13104.9501953125 6834.35498046875 13113.4296875 6833.9189453125 13120.91015625 6833.5341796875 C 13127.0830078125 6833.216796875 13132.9130859375 6832.9169921875 13137.6845703125 6832.9169921875 C 13139.595703125 6832.9169921875 13141.232421875 6832.9638671875 13142.6884765625 6833.0595703125 C 13163.224609375 6834.36767578125 13181.59375 6838.5703125 13197.7998046875 6842.27880859375 C 13212.0751953125 6845.544921875 13224.4052734375 6848.3662109375 13234.6513671875 6848.3662109375 C 13244.591796875 6848.3662109375 13251.6474609375 6845.65625 13256.85546875 6839.83837890625 C 13259.7646484375 6836.5888671875 13262.09375 6832.40673828125 13263.9775390625 6827.052734375 C 13265.953125 6821.43994140625 13267.3720703125 6814.7294921875 13268.3173828125 6806.5390625 C 13269.919921875 6792.45654296875 13274.3251953125 6781.7294921875 13281.4091796875 6774.658203125 C 13284.6240234375 6771.4482421875 13288.3896484375 6769.0146484375 13292.6005859375 6767.42431640625 C 13296.5439453125 6765.9345703125 13300.8876953125 6765.1796875 13305.5107421875 6765.1796875 C 13311.7060546875 6765.1796875 13318.244140625 6766.50341796875 13324.9443359375 6769.11474609375 C 13331.2451171875 6771.57080078125 13337.546875 6775.16162109375 13343.1689453125 6779.4990234375 C 13355.0107421875 6788.63623046875 13363.1123046875 6800.32421875 13365.39453125 6811.56494140625 C 13366.16796875 6815.373046875 13366.2734375 6819.11279296875 13365.7080078125 6822.68017578125 C 13365.109375 6826.45947265625 13363.7509765625 6830.07470703125 13361.671875 6833.42578125 C 13357.1513671875 6840.7109375 13349.2568359375 6846.7783203125 13338.2080078125 6851.458984375 C 13325.1953125 6856.9619140625 13315.7724609375 6861.8603515625 13309.4013671875 6866.43359375 C 13306.25390625 6868.693359375 13303.8408203125 6870.8642578125 13302.025390625 6873.07080078125 C 13300.2939453125 6875.17333984375 13299.154296875 6877.25244140625 13298.5390625 6879.42626953125 C 13297.9267578125 6881.59033203125 13297.8447265625 6883.83056640625 13298.2890625 6886.27392578125 C 13298.705078125 6888.56640625 13299.58984375 6891.05078125 13300.9921875 6893.86767578125 C 13303.6962890625 6899.30126953125 13308.0595703125 6905.421875 13313.111328125 6912.5087890625 C 13317.9296875 6919.26953125 13323.3916015625 6926.931640625 13328.828125 6935.939453125 C 13335.1240234375 6946.36962890625 13340.1884765625 6956.63916015625 13344.310546875 6967.3349609375 C 13354.828125 6994.67919921875 13357.2958984375 7019.73486328125 13359.279296875 7039.86767578125 C 13360.0380859375 7047.57177734375 13360.7548828125 7054.8486328125 13361.830078125 7061.12158203125 C 13363.0087890625 7067.99658203125 13364.5107421875 7073.0693359375 13366.556640625 7077.0869140625 C 13368.853515625 7081.5986328125 13371.91015625 7084.84619140625 13375.9013671875 7087.0146484375 C 13380.25 7089.3779296875 13385.7783203125 7090.52685546875 13392.7998046875 7090.52685546875 C 13398.2568359375 7090.52685546875 13404.50390625 7089.8427734375 13411.896484375 7088.435546875 C 13417.826171875 7087.32080078125 13423.45703125 7086.755859375 13428.6328125 7086.755859375 C 13435.884765625 7086.755859375 13442.4072265625 7087.85888671875 13448.017578125 7090.03369140625 C 13453.2568359375 7092.064453125 13457.7314453125 7095.0361328125 13461.3173828125 7098.86669921875 C 13464.658203125 7102.4345703125 13467.2099609375 7106.72216796875 13468.90234375 7111.6103515625 C 13470.4912109375 7116.1982421875 13471.296875 7121.2275390625 13471.296875 7126.55859375 C 13471.2978515625 7132.6953125 13470.193359375 7139.1865234375 13468.1025390625 7145.33056640625 C 13466.01171875 7151.474609375 13462.9169921875 7157.3251953125 13459.15234375 7162.2490234375 C 13450.74609375 7173.2421875 13439.5283203125 7179.2978515625 13427.564453125 7179.30029296875 L 13427.564453125 7179.30029296875 L 13427.5595703125 7179.30029296875 C 13420.1435546875 7179.30078125 13412.55078125 7177.0078125 13404.98828125 7172.48583984375 C 13396.7177734375 7167.5390625 13388.484375 7159.9091796875 13380.51953125 7149.80712890625 C 13376.84375 7145.12548828125 13372.943359375 7141.615234375 13368.923828125 7139.37109375 C 13365.185546875 7137.28369140625 13361.216796875 7136.22509765625 13357.12890625 7136.22509765625 C 13354.630859375 7136.22509765625 13352.0166015625 7136.61865234375 13349.3583984375 7137.39453125 C 13346.81640625 7138.13671875 13344.1533203125 7139.251953125 13341.443359375 7140.7099609375 C 13336.4287109375 7143.40673828125 13331.18359375 7147.2666015625 13325.4072265625 7152.51123046875 C 13314.6845703125 7162.2470703125 13304.2216796875 7174.8740234375 13294.1044921875 7187.0849609375 C 13286.279296875 7196.52880859375 13278.888671875 7205.44873046875 13271.9990234375 7212.25048828125 C 13259.1328125 7224.89208984375 13252.86328125 7236.17578125 13252.8330078125 7246.74755859375 C 13252.8232421875 7250.14990234375 13253.4404296875 7253.4501953125 13254.7197265625 7256.83740234375 C 13255.869140625 7259.87890625 13257.5302734375 7262.9248046875 13259.7998046875 7266.14892578125 C 13264.0546875 7272.19580078125 13269.8671875 7277.97265625 13275.4892578125 7283.5595703125 C 13279.9482421875 7287.9912109375 13284.5595703125 7292.57421875 13288.41015625 7297.30078125 C 13290.49609375 7299.861328125 13292.1953125 7302.25537109375 13293.6064453125 7304.62060546875 C 13295.201171875 7307.29296875 13296.388671875 7309.85986328125 13297.23828125 7312.46728515625 C 13298.154296875 7315.28271484375 13298.6552734375 7318.14892578125 13298.7265625 7320.98681640625 C 13298.802734375 7324.0205078125 13298.3916015625 7327.1396484375 13297.5048828125 7330.25830078125 C 13296.572265625 7333.53564453125 13295.0810546875 7336.93115234375 13293.072265625 7340.3505859375 C 13290.978515625 7343.9150390625 13288.248046875 7347.630859375 13284.95703125 7351.39501953125 C 13280.1875 7356.85546875 13274.748046875 7361.10693359375 13268.791015625 7364.03076171875 C 13265.9072265625 7365.4462890625 13262.9228515625 7366.52978515625 13259.9208984375 7367.251953125 C 13256.92578125 7367.97216796875 13253.892578125 7368.33740234375 13250.9072265625 7368.33740234375 Z M 13137.1171875 7061.30810546875 C 13131.7265625 7061.30810546875 13126.369140625 7062.11474609375 13121.1923828125 7063.7060546875 C 13116.05859375 7065.28466796875 13111.1953125 7067.60595703125 13106.7392578125 7070.60595703125 C 13097.4833984375 7076.8359375 13090.4384765625 7085.66357421875 13086.3662109375 7096.13525390625 C 13084.26953125 7101.4716796875 13083.0576171875 7107.33056640625 13082.859375 7113.08203125 L 13082.8583984375 7113.11474609375 L 13082.85546875 7113.14697265625 C 13082.708984375 7114.61328125 13083.3779296875 7115.9140625 13084.84375 7117.01416015625 C 13085.6044921875 7117.58447265625 13086.490234375 7117.88623046875 13087.404296875 7117.88623046875 C 13088.0126953125 7117.88623046875 13088.6171875 7117.7548828125 13089.19921875 7117.49609375 C 13095.783203125 7114.60986328125 13103.267578125 7112.37646484375 13111.44921875 7110.85546875 C 13119.673828125 7109.3271484375 13128.4267578125 7108.5517578125 13137.4658203125 7108.5517578125 C 13139.509765625 7108.5517578125 13141.591796875 7108.5927734375 13143.6552734375 7108.6728515625 L 13143.662109375 7108.6728515625 L 13143.6689453125 7108.67333984375 C 13151.11328125 7109.0654296875 13158.4453125 7109.9990234375 13165.4619140625 7111.44775390625 C 13172.2587890625 7112.8515625 13178.7841796875 7114.7431640625 13184.8583984375 7117.0703125 C 13185.3974609375 7117.24755859375 13185.9482421875 7117.33740234375 13186.49609375 7117.337890625 C 13187.517578125 7117.337890625 13188.48046875 7117.01953125 13189.2822265625 7116.41796875 C 13190.6083984375 7115.42333984375 13191.2578125 7114.13671875 13191.265625 7112.48388671875 C 13190.5791015625 7102.1845703125 13187.056640625 7092.3251953125 13181.0771484375 7083.96875 C 13174.931640625 7075.380859375 13166.4541015625 7068.798828125 13156.560546875 7064.93408203125 L 13156.560546875 7064.9345703125 C 13150.3046875 7062.5283203125 13143.7626953125 7061.30810546875 13137.1171875 7061.30810546875 Z M 13155.25 6979.59423828125 C 13157.3798828125 6984.2392578125 13160.158203125 6988.56591796875 13163.5078125 6992.45263671875 C 13166.84375 6996.32421875 13170.69921875 6999.705078125 13174.9677734375 7002.50146484375 C 13183.82421875 7008.30517578125 13194.1318359375 7011.373046875 13204.7763671875 7011.373046875 C 13212.0654296875 7011.373046875 13219.1484375 7009.93505859375 13225.828125 7007.099609375 C 13229.0361328125 7005.7373046875 13232.1337890625 7004.05126953125 13235.033203125 7002.08935546875 C 13237.904296875 7000.1455078125 13240.6064453125 6997.91455078125 13243.0625 6995.45751953125 C 13245.51953125 6993.0009765625 13247.75 6990.29931640625 13249.6943359375 6987.42724609375 C 13251.65625 6984.5283203125 13253.341796875 6981.43115234375 13254.7041015625 6978.22216796875 C 13257.5400390625 6971.54248046875 13258.9775390625 6964.45947265625 13258.9775390625 6957.169921875 C 13258.9775390625 6951.353515625 13258.08984375 6945.75439453125 13256.2626953125 6940.0546875 C 13255.7431640625 6938.90625 13254.728515625 6937.48193359375 13252.83203125 6937.1025390625 L 13252.771484375 6937.09033203125 L 13252.7119140625 6937.07080078125 C 13252.3564453125 6936.9521484375 13251.982421875 6936.89208984375 13251.6005859375 6936.89208984375 C 13250.51953125 6936.89208984375 13249.4169921875 6937.37548828125 13248.5732421875 6938.21923828125 L 13248.5703125 6938.22265625 L 13248.56640625 6938.22607421875 C 13243.40234375 6943.28759765625 13237.2470703125 6948.02734375 13230.26953125 6952.3134765625 C 13223.505859375 6956.46826171875 13216.1044921875 6960.1123046875 13208.2490234375 6963.15673828125 C 13210.6630859375 6966.20654296875 13211.9306640625 6969.87451171875 13211.9306640625 6973.85009765625 C 13211.9306640625 6976.1201171875 13211.482421875 6978.3271484375 13210.59765625 6980.4091796875 C 13209.744140625 6982.41748046875 13208.5244140625 6984.2236328125 13206.9716796875 6985.7763671875 C 13205.4189453125 6987.3291015625 13203.61328125 6988.54931640625 13201.60546875 6989.40283203125 C 13199.5224609375 6990.287109375 13197.31640625 6990.73583984375 13195.0458984375 6990.73583984375 C 13192.775390625 6990.73583984375 13190.568359375 6990.287109375 13188.486328125 6989.40283203125 C 13186.478515625 6988.54931640625 13184.671875 6987.3291015625 13183.119140625 6985.7763671875 C 13181.56640625 6984.2236328125 13180.3466796875 6982.41748046875 13179.4931640625 6980.4091796875 C 13178.6083984375 6978.3271484375 13178.16015625 6976.1201171875 13178.16015625 6973.85009765625 C 13178.16015625 6973.08447265625 13178.16015625 6972.30322265625 13178.2626953125 6971.50390625 C 13171.798828125 6972.5390625 13165.4951171875 6973.06298828125 13159.501953125 6973.06298828125 C 13158.25 6973.06298828125 13156.55859375 6973.42138671875 13155.6103515625 6975.12939453125 L 13155.59765625 6975.15234375 L 13155.583984375 6975.17431640625 C 13154.744140625 6976.51904296875 13154.619140625 6978.1708984375 13155.25 6979.59423828125 Z M 13015.4794921875 6937.47412109375 C 13013.6533203125 6943.17529296875 13012.7646484375 6948.77490234375 13012.7646484375 6954.5888671875 C 13012.7646484375 6961.92431640625 13014.2021484375 6969.03564453125 13017.0380859375 6975.724609375 C 13018.400390625 6978.9375 13020.0859375 6982.03515625 13022.048828125 6984.93310546875 C 13023.9912109375 6987.80126953125 13026.2216796875 6990.49853515625 13028.6787109375 6992.94921875 C 13031.134765625 6995.39892578125 13033.8359375 6997.62255859375 13036.708984375 6999.55859375 C 13039.6064453125 7001.51171875 13042.703125 7003.189453125 13045.9140625 7004.544921875 C 13052.587890625 7007.3623046875 13059.671875 7008.791015625 13066.9677734375 7008.791015625 C 13077.611328125 7008.791015625 13087.9189453125 7005.72314453125 13096.7763671875 6999.91943359375 C 13101.0439453125 6997.123046875 13104.900390625 6993.7421875 13108.236328125 6989.87060546875 C 13111.5859375 6985.9833984375 13114.365234375 6981.65673828125 13116.494140625 6977.01123046875 C 13117.1240234375 6975.587890625 13116.9990234375 6973.93701171875 13116.1591796875 6972.59326171875 C 13115.3330078125 6971.27099609375 13113.869140625 6970.48193359375 13112.2421875 6970.48193359375 C 13104.337890625 6970.48193359375 13095.7578125 6969.544921875 13087.3408203125 6967.76708984375 C 13087.3857421875 6968.162109375 13087.427734375 6968.60009765625 13087.427734375 6969.0849609375 C 13087.427734375 6971.3583984375 13086.9775390625 6973.5654296875 13086.0908203125 6975.64501953125 C 13085.2333984375 6977.65673828125 13084.0048828125 6979.462890625 13082.4404296875 6981.01416015625 C 13079.216796875 6984.2099609375 13074.919921875 6985.97021484375 13070.3427734375 6985.97021484375 C 13068.072265625 6985.97021484375 13065.8662109375 6985.521484375 13063.7841796875 6984.63720703125 C 13061.775390625 6983.78369140625 13059.9697265625 6982.56396484375 13058.4169921875 6981.01123046875 C 13056.8642578125 6979.4580078125 13055.64453125 6977.65234375 13054.791015625 6975.64404296875 C 13053.90625 6973.56201171875 13053.4580078125 6971.35498046875 13053.4580078125 6969.0849609375 C 13053.4580078125 6965.13623046875 13054.84375 6961.2958984375 13057.384765625 6958.1337890625 C 13043.8564453125 6952.07763671875 13032.05078125 6944.31884765625 13023.1787109375 6935.6455078125 L 13023.1748046875 6935.64111328125 L 13023.1708984375 6935.63720703125 C 13022.328125 6934.7939453125 13021.2236328125 6934.31005859375 13020.142578125 6934.31005859375 C 13019.7607421875 6934.31005859375 13019.38671875 6934.37060546875 13019.0302734375 6934.48876953125 L 13018.9716796875 6934.50830078125 L 13018.9111328125 6934.5205078125 C 13017.013671875 6934.90087890625 13016 6936.32568359375 13015.4794921875 6937.47412109375 Z" stroke="none" fill="#666"/>
    </g>
    <path id="Path_901" data-name="Path 901" d="M13274.455,7283.955h-70.96a34.788,34.788,0,0,1,6.02,20.9c-1.19,65.32,47.261,77.24,74.66,45.86C13311.034,7320,13292.614,7302,13274.455,7283.955Z" fill="#bae089" fill-rule="evenodd"/>
  </g>
</svg>
