<svg xmlns="http://www.w3.org/2000/svg" width="660.367" height="637.728" viewBox="0 0 660.367 637.728">
  <g id="Group_537" data-name="Group 537" transform="translate(-3761.471 -2022.461)">
    <g id="Group_5" data-name="Group 5" transform="translate(-11392 -6227)">
      <g id="Group_517" data-name="Group 517">
        <g id="Group_516" data-name="Group 516">
          <path id="Path_864" data-name="Path 864" d="M15593.448,8886.688a35.534,35.534,0,0,1-25.789-11.062c-7.624-7.765-16.6-23.075-16.076-51.917.315-16.36-8.657-28.564-28.239-38.406-17.8-8.945-42.866-15.168-69.407-21.756-38.03-9.438-81.135-20.139-115.779-41.668-1.221-.779-2.323-1.5-3.337-2.169-4.382-2.88-7.028-4.618-9.839-4.618-2.556,0-5.438,1.45-10.283,5.17-6,5.5-12.116,15.349-18.592,25.78-13.6,21.911-29.016,46.746-51.454,46.749-9.694,0-19.66-4.568-30.468-13.969-14.49-12.56-20.383-27.225-16.591-41.295,4.954-18.387,25.782-33.179,54.356-38.605,9.438-1.762,16.822-6.509,21.943-14.111,17.731-26.312,6.407-82.072-1.862-122.787-2.265-11.155-4.222-20.789-5.392-28.741-4.777-32.14-26.279-34.828-47.893-34.828-2.91,0-5.9.055-8.784.107s-5.853.108-8.741.108c-22.605,0-44.869-3.063-47.176-39.7a49.33,49.33,0,0,1,13.245-36.029c7.841-8.309,18.081-12.884,28.835-12.884,12.047,0,30.771,5.672,51.548,32.692,7.391,9.649,15.892,14.542,25.27,14.542,26.871,0,55.481-39.3,70.853-60.414l2.164-2.967c15.79-21.911-3.286-36.444-23.481-51.831-15.733-11.986-32-24.381-33.744-41.28-1.083-10.51,3.549-21.568,14.162-33.809,9.3-10.666,22.789-17.034,36.093-17.034a37.217,37.217,0,0,1,27.853,11.966c10.9,11.65,15.8,30.693,14.175,55.072-.6,9.6,1.831,17.378,7.219,23.112,11.45,12.185,34.5,13.594,50.832,13.594,8.439,0,16.926-.437,24.414-.821,6.165-.316,11.987-.617,16.747-.617,1.9,0,3.524.047,4.969.142,20.5,1.306,38.845,5.5,55.033,9.209,14.3,3.272,26.66,6.1,36.963,6.1,20.8,0,30.7-12.246,34.163-42.27,1.738-15.281,8.819-40.917,36.7-40.917,25.263,0,54.681,22.776,59.394,45.984,3.369,16.592-6.181,30.562-26.892,39.334-25.439,10.759-37.389,19.22-39.956,28.292-2.625,9.278,4.619,19.442,14.646,33.51,9.75,13.678,21.885,30.7,31.141,54.716,10.492,27.28,12.957,52.3,14.938,72.4,3.14,31.874,5.035,51.112,34.019,51.112a103.557,103.557,0,0,0,19.189-2.1,90.739,90.739,0,0,1,16.644-1.671c14.021,0,24.895,4.021,32.319,11.951,6.439,6.878,9.843,16.336,9.844,27.352,0,24.705-17.752,52.236-43.231,52.241h-.007c-15.4,0-31.529-10.133-46.646-29.3-7.276-9.269-15.056-13.772-23.783-13.772-21.118,0-43.586,27.116-63.409,51.04-7.817,9.434-15.2,18.345-22.071,25.13-12.968,12.739-19.285,24.139-19.316,34.851-.041,14.464,11.572,26.006,22.8,37.168,17.929,17.817,36.467,36.241,9.443,67.152C15617.813,8880.576,15605.539,8886.688,15593.448,8886.688Zm-113.79-307.029a54.663,54.663,0,0,0-51.216,35.146,52.233,52.233,0,0,0-3.54,17.111,5.224,5.224,0,0,0,5.042,5.321,4.891,4.891,0,0,0,2-.435c13.283-5.822,29.9-8.9,48.061-8.9,2.04,0,4.116.041,6.173.121a136.117,136.117,0,0,1,41.064,8.372,5.716,5.716,0,0,0,1.795.292,5.314,5.314,0,0,0,5.271-5.386,55.6,55.6,0,0,0-35.027-47.984A54.442,54.442,0,0,0,15479.658,8579.659Zm41.755-89.91a119.227,119.227,0,0,1-19.37,1.665,4.681,4.681,0,0,0-4.328,2.324,5.239,5.239,0,0,0-.378,4.916,54.812,54.812,0,0,0,104.683-22.633,55.789,55.789,0,0,0-2.755-17.321,5.343,5.343,0,0,0-3.793-3.237,4.2,4.2,0,0,0-1.33-.22,4.863,4.863,0,0,0-3.381,1.473c-10.382,10.178-24.477,18.838-40.8,25.074a16.433,16.433,0,1,1-28.762,10.911A14.041,14.041,0,0,1,15521.413,8489.749Zm-158.729-37.088a4.028,4.028,0,0,0-1.27.2,5.4,5.4,0,0,0-3.871,3.3,55.773,55.773,0,0,0-2.737,17.272,54.812,54.812,0,0,0,104.686,22.627,5.224,5.224,0,0,0-.367-4.889,5.064,5.064,0,0,0-4.342-2.347,122.292,122.292,0,0,1-25.477-2.849c.015.149.033.3.052.458a12.451,12.451,0,0,1,.11,1.493,16.485,16.485,0,0,1-32.97,0,17.034,17.034,0,0,1,4.233-11.139c-13.727-6.071-25.7-13.9-34.663-22.657A4.862,4.862,0,0,0,15362.685,8452.661Z" fill="#eee" fill-rule="evenodd"/>
          <path id="Path_865" data-name="Path 865" d="M15338.99,8250.461c22.876,0,44.689,19.07,41.527,66.5-1.98,31.824,28.633,37.24,58.551,37.24,15.426,0,30.662-1.439,41.16-1.439,1.793,0,3.443.042,4.937.141,38.637,2.462,70.012,15.31,92.028,15.31,18.831,0,30.814-9.392,34.659-42.712,3.354-29.469,18.725-40.475,36.2-40.475,40.461,0,92.214,58.98,32.307,84.358-79.825,33.758-22.835,43.487,5.56,117.156,26.775,69.615,1.089,123.833,49.423,123.833a104.494,104.494,0,0,0,19.283-2.109,89.837,89.837,0,0,1,16.55-1.661c65.588,0,44.82,90.544-1.068,90.544-13.722,0-29.683-8.088-46.261-29.112-7.764-9.89-15.892-13.962-24.176-13.963-29.637,0-61.311,52.1-85.832,76.313-67.911,66.721,68.11,76.054,12.908,139.2-9.54,10.923-21.638,16.6-33.3,16.6-21.831,0-42.144-19.886-41.366-62.472,1.191-61.755-130.262-50.437-213.662-102.264-6.528-4.164-9.8-6.862-13.439-6.862-2.779,0-5.771,1.575-10.588,5.274-18.469,16.9-36.694,72.425-69.741,72.425-8.88,0-18.826-4.006-30.14-13.847-35.743-30.978-13.7-69.3,37.53-79.031,56.394-10.524,21.842-120.334,15.091-166.2-4.754-31.982-25.766-35.255-48.387-35.255-5.817,0-11.745.216-17.526.216-23.383,0-44.429-3.534-46.677-39.226-1.364-23.571,16.338-48.383,41.582-48.383,15.162,0,33.044,8.95,51.151,32.5,8.041,10.5,16.771,14.738,25.666,14.738,28.446,0,58.6-43.315,73.421-63.586,35.346-49.047-100.08-61.16-43.09-126.887,9.3-10.667,22.681-16.862,35.716-16.862m70.519,278.181a55.452,55.452,0,0,0,50.438-32.366,5.7,5.7,0,0,0-.4-5.361,5.587,5.587,0,0,0-4.766-2.582,121.583,121.583,0,0,1-26.012-2.979c0,.795.2,1.589.2,2.581a15.985,15.985,0,0,1-31.97,0,16.6,16.6,0,0,1,4.567-11.317c-14.1-6.156-26.211-14.1-35.147-22.836a5.344,5.344,0,0,0-3.735-1.62,4.521,4.521,0,0,0-1.428.229,5.84,5.84,0,0,0-4.17,3.574,56.5,56.5,0,0,0-2.779,17.476,55.211,55.211,0,0,0,55.2,55.2m128.078-20.055a15.931,15.931,0,0,1-15.885-15.886,11.009,11.009,0,0,1,.4-3.574,119.313,119.313,0,0,1-20.056,1.787,5.171,5.171,0,0,0-4.766,2.581,5.7,5.7,0,0,0-.4,5.362,55.312,55.312,0,0,0,105.64-22.836,56.493,56.493,0,0,0-2.779-17.475,5.841,5.841,0,0,0-4.17-3.575,4.55,4.55,0,0,0-1.429-.229,5.347,5.347,0,0,0-3.734,1.62c-10.127,9.929-24.424,18.864-41.3,25.219a16.015,16.015,0,0,1-11.519,27.006m-107.643,129.15a5.409,5.409,0,0,0,2.2-.478c13.03-5.712,29.754-8.856,47.858-8.856q3.053,0,6.152.12a134.712,134.712,0,0,1,40.906,8.34,6.244,6.244,0,0,0,1.974.325,5.592,5.592,0,0,0,3.387-1.119,5.662,5.662,0,0,0,2.383-4.767,55.761,55.761,0,0,0-35.346-48.451,55.3,55.3,0,0,0-71.485,31.771,52.64,52.64,0,0,0-3.573,17.276,5.723,5.723,0,0,0,5.542,5.838m-90.954-388.276c-13.446,0-27.08,6.432-36.471,17.205-10.709,12.352-15.381,23.535-14.282,34.19,1.765,17.113,18.121,29.575,33.938,41.626,10.274,7.826,19.978,15.22,25.236,23.468,5.792,9.085,5.2,17.879-1.858,27.675-.685.936-1.406,1.928-2.16,2.962-15.318,21.042-43.833,60.209-70.449,60.209-9.215,0-17.583-4.827-24.872-14.346-20.9-27.184-39.786-32.889-51.945-32.889-10.895,0-21.265,4.632-29.2,13.039a49.841,49.841,0,0,0-13.38,36.4c2.334,37.067,24.832,40.168,47.675,40.168,2.9,0,5.873-.055,8.753-.108s5.868-.107,8.773-.107c21.395,0,42.679,2.657,47.4,34.4,1.173,7.965,3.131,17.605,5.4,28.769,8.251,40.627,19.551,96.268,1.937,122.407-5.045,7.485-12.318,12.162-21.619,13.9-28.768,5.463-49.744,20.4-54.749,38.968-3.844,14.266,2.1,29.111,16.748,41.8,10.9,9.48,20.973,14.091,30.794,14.091,22.716,0,38.209-24.961,51.879-46.983,6.444-10.385,12.534-20.193,18.507-25.675,4.727-3.627,7.517-5.041,9.943-5.041,2.661,0,5.259,1.707,9.563,4.535,1.016.667,2.121,1.393,3.339,2.17,34.723,21.578,77.867,32.287,115.934,41.736,26.513,6.58,51.555,12.8,69.3,21.717,19.389,9.745,28.274,21.8,27.963,37.949-.529,29.016,8.528,44.443,16.22,52.276a36.022,36.022,0,0,0,26.146,11.213c12.234,0,24.645-6.176,34.05-16.942,27.331-31.264,8.623-49.856-9.469-67.836-11.158-11.089-22.7-22.558-22.655-36.812.03-10.571,6.3-21.854,19.164-34.5,6.892-6.8,14.282-15.724,22.108-25.168,19.752-23.841,42.14-50.861,63.022-50.858,8.565,0,16.216,4.442,23.39,13.58,15.216,19.3,31.483,29.5,47.047,29.5,25.771,0,43.731-27.791,43.731-52.734,0-11.145-3.45-20.723-9.977-27.7-7.524-8.038-18.521-12.113-32.687-12.113a91.286,91.286,0,0,0-16.734,1.679,103.048,103.048,0,0,1-19.1,2.092c-28.53,0-30.409-19.069-33.521-50.661-1.984-20.132-4.451-45.187-14.969-72.531-9.278-24.071-21.434-41.125-31.2-54.826-9.946-13.953-17.133-24.035-14.572-33.082,2.521-8.911,14.385-17.275,39.669-27.968,20.954-8.877,30.609-23.045,27.188-39.895-4.754-23.409-34.415-46.385-59.884-46.385-9.556,0-17.89,3.277-24.1,9.479-7.084,7.071-11.489,17.8-13.092,31.882-4.241,36.76-18.687,41.826-33.665,41.826-10.247,0-22.576-2.82-36.854-6.088-16.206-3.708-34.574-7.911-55.113-9.22-1.452-.095-3.088-.143-5-.143-4.771,0-10.6.3-16.773.618-7.481.385-15.96.821-24.387.821-16.245,0-39.15-1.393-50.469-13.438-5.289-5.629-7.673-13.279-7.084-22.739,1.635-24.517-3.312-43.689-14.309-55.442a37.706,37.706,0,0,0-28.217-12.125Zm19.032,206.863a4.854,4.854,0,0,1,3.431-2.952l.061-.013.06-.02a3.479,3.479,0,0,1,1.11-.179,4.356,4.356,0,0,1,3.028,1.327c8.878,8.681,20.683,16.438,34.213,22.5a17.472,17.472,0,0,0-3.926,10.95,16.985,16.985,0,0,0,33.97,0,11.43,11.43,0,0,0-.087-1.316,122.542,122.542,0,0,0,24.9,2.714,4.566,4.566,0,0,1,3.918,2.112,4.722,4.722,0,0,1,.331,4.425,54.312,54.312,0,0,1-103.726-22.429,55.271,55.271,0,0,1,2.716-17.116Zm192.768,25.684c16.11-6.241,30.027-14.843,40.317-24.931a4.357,4.357,0,0,1,3.034-1.335,3.519,3.519,0,0,1,1.112.179l.06.021.061.012a4.857,4.857,0,0,1,3.431,2.953,55.288,55.288,0,0,1,2.715,17.115,54.311,54.311,0,0,1-103.729,22.419,4.719,4.719,0,0,1,.336-4.415l.013-.022.013-.021a4.2,4.2,0,0,1,3.892-2.067,119.215,119.215,0,0,0,18.761-1.559,18.386,18.386,0,0,0-.1,2.346,16.886,16.886,0,1,0,30.088-10.693Zm-120.846,154.729a4.728,4.728,0,0,1-4.547-4.739l0-.032v-.033a51.723,51.723,0,0,1,3.506-16.943,54.18,54.18,0,0,1,94.712-12.17,55.266,55.266,0,0,1,10.188,28.516,4.666,4.666,0,0,1-1.982,3.934,4.606,4.606,0,0,1-2.787.92,5.268,5.268,0,0,1-1.658-.273,136.569,136.569,0,0,0-41.169-8.39c-2.077-.081-4.16-.122-6.205-.122-18.228,0-34.917,3.092-48.26,8.94a4.4,4.4,0,0,1-1.8.394Z" fill="#666"/>
        </g>
      </g>
    </g>
    <g id="Group_20" data-name="Group 20" transform="translate(-11392 -6227)">
      <path id="Path_886" data-name="Path 886" d="M15754.58,8608.18c-74.062,14.1-38.921-44.279-68.7-121.72-28.4-73.67-85.39-83.4-5.56-117.16,85.779-36.34-57.391-141.58-68.511-43.88-8.34,72.28-55,31.97-126.689,27.4-27.2-1.79-107.82,15.09-104.641-35.94,1.051-15.83-.67-28.5-4.3-38.36h-81.21c-33.08,56.03,84.58,69.511,51.351,115.6-19.46,26.61-65.33,92.93-99.08,48.85-48.261-62.75-94.92-21.84-92.74,15.891,4.97,78.83,101.67.79,112.59,74.26,6.75,45.87,41.311,155.68-15.09,166.21-51.23,9.729-73.271,48.05-37.53,79.03,53.42,46.46,76.45-37.141,99.88-58.58,11.12-8.54,12.511-5.761,24.03,1.59,83.4,51.82,214.85,40.51,213.661,102.26-1.191,65.33,47.259,77.25,74.659,45.87,55.21-63.14-80.811-72.48-12.9-139.2,31.371-30.97,74.46-107.62,110-62.35C15800.059,8764.66,15863.4,8587.73,15754.58,8608.18Zm-400.321-134.83a56.7,56.7,0,0,1,2.78-17.47,5.863,5.863,0,0,1,4.17-3.58,5.115,5.115,0,0,1,5.17,1.391c8.93,8.739,21.05,16.68,35.14,22.84a16.6,16.6,0,0,0-4.559,11.319,15.985,15.985,0,0,0,31.969,0c0-.989-.2-1.79-.2-2.58a121.935,121.935,0,0,0,26.011,2.98,5.594,5.594,0,0,1,4.77,2.58,5.684,5.684,0,0,1,.391,5.36,55.312,55.312,0,0,1-105.641-22.841Zm178.12,162.631a5.807,5.807,0,0,1-5.36.8,134.4,134.4,0,0,0-40.9-8.34c-20.46-.8-39.521,2.38-54.021,8.729a5.6,5.6,0,0,1-7.739-5.36,52.746,52.746,0,0,1,3.569-17.27,55.307,55.307,0,0,1,106.84,16.68A5.661,5.661,0,0,1,15532.379,8635.98Zm14.9-104.841a55.466,55.466,0,0,1-50.44-32.37,5.662,5.662,0,0,1,.4-5.359,5.159,5.159,0,0,1,4.761-2.58,119.418,119.418,0,0,0,20.059-1.79,10.912,10.912,0,0,0-.4,3.57,15.886,15.886,0,1,0,27.4-11.12c16.881-6.351,31.181-15.29,41.311-25.21a5.078,5.078,0,0,1,5.16-1.391,5.832,5.832,0,0,1,4.17,3.57,56.4,56.4,0,0,1,2.779,17.47A55.338,55.338,0,0,1,15547.279,8531.14Z" fill="#e08675" fill-rule="evenodd"/>
    </g>
  </g>
</svg>
