<svg xmlns="http://www.w3.org/2000/svg" width="660.367" height="637.727" viewBox="0 0 660.367 637.727">
  <g id="Group_1" data-name="Group 1" transform="translate(-12477.823 -7524.77)">
    <g id="Group_509" data-name="Group 509">
      <g id="Group_508" data-name="Group 508">
        <path id="Path_856" data-name="Path 856" d="M12917.8,8162a35.539,35.539,0,0,1-25.789-11.062c-7.624-7.765-16.6-23.075-16.076-51.917.315-16.36-8.656-28.564-28.238-38.406-17.8-8.946-42.866-15.168-69.407-21.756-38.031-9.439-81.135-20.139-115.78-41.668-1.22-.779-2.323-1.5-3.337-2.169-4.383-2.88-7.028-4.618-9.84-4.618-2.554,0-5.437,1.45-10.282,5.17-6,5.5-12.116,15.348-18.592,25.78-13.6,21.911-29.015,46.746-51.454,46.749-9.694,0-19.66-4.569-30.467-13.97-14.491-12.558-20.383-27.224-16.591-41.294,4.954-18.386,25.781-33.179,54.355-38.6,9.439-1.762,16.821-6.509,21.944-14.111,17.73-26.313,6.407-82.073-1.863-122.788-2.264-11.155-4.221-20.789-5.391-28.741-4.778-32.139-26.28-34.828-47.894-34.828-2.909,0-5.9.055-8.783.108s-5.854.108-8.741.108c-22.606,0-44.869-3.064-47.176-39.695a49.331,49.331,0,0,1,13.244-36.03c7.842-8.308,18.081-12.883,28.835-12.883,12.048,0,30.771,5.671,51.549,32.692,7.389,9.649,15.89,14.542,25.269,14.542,26.87,0,55.482-39.3,70.854-60.414l2.163-2.967c15.79-21.911-3.285-36.444-23.48-51.831-15.734-11.986-32-24.381-33.745-41.28-1.083-10.51,3.549-21.569,14.162-33.809,9.3-10.666,22.79-17.034,36.093-17.034a37.219,37.219,0,0,1,27.854,11.966c10.9,11.649,15.8,30.693,14.175,55.072-.6,9.6,1.831,17.378,7.218,23.112,11.451,12.185,34.5,13.594,50.832,13.594,8.44,0,16.926-.436,24.413-.821,6.166-.317,11.989-.617,16.749-.617,1.9,0,3.524.046,4.968.141,20.5,1.306,38.845,5.5,55.032,9.208,14.306,3.273,26.662,6.1,36.964,6.1,20.8,0,30.7-12.246,34.162-42.269,1.74-15.281,8.821-40.917,36.7-40.917,25.261,0,54.68,22.777,59.393,45.985,3.369,16.591-6.18,30.56-26.891,39.334-25.44,10.758-37.39,19.219-39.956,28.291-2.625,9.279,4.619,19.443,14.646,33.51,9.75,13.678,21.886,30.7,31.142,54.715,10.492,27.281,12.957,52.3,14.937,72.4,3.141,31.873,5.035,51.112,34.02,51.112a103.561,103.561,0,0,0,19.188-2.1,90.792,90.792,0,0,1,16.645-1.671c14.02,0,24.894,4.021,32.318,11.952,6.44,6.878,9.844,16.336,9.845,27.35,0,24.706-17.752,52.237-43.232,52.242h-.006c-15.4,0-31.53-10.132-46.646-29.3-7.275-9.268-15.056-13.772-23.782-13.772-21.118,0-43.587,27.116-63.409,51.04-7.818,9.434-15.2,18.345-22.073,25.13-12.966,12.739-19.284,24.138-19.315,34.851-.041,14.464,11.572,26.006,22.8,37.167,17.927,17.818,36.467,36.242,9.442,67.153C12942.164,8155.884,12929.891,8162,12917.8,8162Zm-113.79-307.03a54.666,54.666,0,0,0-51.216,35.146,52.264,52.264,0,0,0-3.54,17.112,5.224,5.224,0,0,0,5.042,5.321,4.887,4.887,0,0,0,2-.434c13.284-5.823,29.9-8.9,48.062-8.9,2.04,0,4.115.041,6.173.121a136.155,136.155,0,0,1,41.063,8.372,5.706,5.706,0,0,0,1.795.292,5.315,5.315,0,0,0,5.272-5.385,55.6,55.6,0,0,0-35.028-47.985A54.46,54.46,0,0,0,12804.01,7854.967Zm41.755-89.909a119.164,119.164,0,0,1-19.37,1.665,4.681,4.681,0,0,0-4.327,2.323,5.234,5.234,0,0,0-.378,4.916,54.811,54.811,0,0,0,104.683-22.632,55.828,55.828,0,0,0-2.755-17.322,5.344,5.344,0,0,0-3.793-3.236,4.216,4.216,0,0,0-1.33-.221,4.857,4.857,0,0,0-3.381,1.474c-10.382,10.178-24.478,18.838-40.8,25.074a16.433,16.433,0,1,1-28.763,10.911A14.037,14.037,0,0,1,12845.765,7765.058Zm-158.728-37.088a4.029,4.029,0,0,0-1.271.2,5.394,5.394,0,0,0-3.87,3.3,55.735,55.735,0,0,0-2.737,17.272,54.811,54.811,0,0,0,104.685,22.627,5.22,5.22,0,0,0-.367-4.888,5.064,5.064,0,0,0-4.342-2.347,122.211,122.211,0,0,1-25.476-2.849c.014.15.033.3.051.458a12.455,12.455,0,0,1,.111,1.494,16.486,16.486,0,0,1-32.971,0,17.035,17.035,0,0,1,4.233-11.139c-13.726-6.071-25.7-13.9-34.663-22.658A4.863,4.863,0,0,0,12687.037,7727.97Z" fill="#eee" fill-rule="evenodd"/>
        <path id="Path_857" data-name="Path 857" d="M12663.342,7525.77c22.876,0,44.69,19.069,41.528,66.5-1.981,31.824,28.632,37.24,58.55,37.24,15.426,0,30.662-1.439,41.161-1.439,1.792,0,3.443.042,4.936.14,38.638,2.462,70.013,15.31,92.028,15.31,18.831,0,30.815-9.392,34.66-42.713,3.354-29.468,18.724-40.474,36.2-40.474,40.461,0,92.214,58.981,32.306,84.358-79.825,33.757-22.835,43.487,5.561,117.157,26.774,69.615,1.089,123.833,49.423,123.833a104.564,104.564,0,0,0,19.282-2.109,89.811,89.811,0,0,1,16.551-1.662c65.588,0,44.819,90.544-1.069,90.544-13.721,0-29.682-8.088-46.26-29.112-7.765-9.89-15.893-13.962-24.176-13.963-29.638,0-61.312,52.1-85.832,76.314-67.911,66.719,68.109,76.052,12.907,139.2-9.54,10.922-21.638,16.6-33.3,16.6-21.831,0-42.143-19.884-41.366-62.47,1.191-61.756-130.262-50.437-213.661-102.264-6.528-4.165-9.8-6.862-13.44-6.862-2.779,0-5.77,1.575-10.587,5.274-18.469,16.9-36.7,72.425-69.742,72.425-8.88,0-18.826-4.006-30.139-13.847-35.743-30.977-13.7-69.3,37.528-79.031,56.4-10.525,21.844-120.334,15.093-166.2-4.754-31.982-25.767-35.255-48.388-35.255-5.816,0-11.745.216-17.525.216-23.383,0-44.43-3.534-46.677-39.226-1.364-23.571,16.338-48.382,41.58-48.382,15.163,0,33.046,8.95,51.152,32.5,8.041,10.5,16.771,14.738,25.666,14.738,28.447,0,58.6-43.316,73.421-63.586,35.345-49.047-100.08-61.16-43.09-126.887,9.3-10.667,22.681-16.862,35.716-16.862m70.52,278.181a55.451,55.451,0,0,0,50.437-32.367,5.7,5.7,0,0,0-.4-5.361,5.586,5.586,0,0,0-4.767-2.582,121.681,121.681,0,0,1-26.012-2.978c0,.794.2,1.588.2,2.581a15.986,15.986,0,0,1-31.971,0,16.6,16.6,0,0,1,4.567-11.318c-14.1-6.156-26.211-14.1-35.146-22.836a5.347,5.347,0,0,0-3.735-1.62,4.49,4.49,0,0,0-1.428.23,5.836,5.836,0,0,0-4.17,3.574,56.492,56.492,0,0,0-2.779,17.474,55.212,55.212,0,0,0,55.2,55.2m128.078-20.056a15.932,15.932,0,0,1-15.886-15.885,10.989,10.989,0,0,1,.4-3.575,119.3,119.3,0,0,1-20.057,1.788,5.173,5.173,0,0,0-4.766,2.581,5.7,5.7,0,0,0-.4,5.361,55.312,55.312,0,0,0,105.64-22.835,56.488,56.488,0,0,0-2.78-17.474,5.835,5.835,0,0,0-4.17-3.575,4.531,4.531,0,0,0-1.428-.23,5.352,5.352,0,0,0-3.735,1.62c-10.127,9.929-24.424,18.864-41.3,25.219a16.012,16.012,0,0,1-11.517,27M12754.3,7913.046a5.4,5.4,0,0,0,2.2-.477c13.031-5.712,29.754-8.857,47.859-8.857q3.051,0,6.151.12a134.7,134.7,0,0,1,40.906,8.34,6.23,6.23,0,0,0,1.974.325,5.592,5.592,0,0,0,3.388-1.119,5.661,5.661,0,0,0,2.383-4.766,55.761,55.761,0,0,0-35.346-48.451,55.294,55.294,0,0,0-71.485,31.771,52.647,52.647,0,0,0-3.574,17.276,5.724,5.724,0,0,0,5.542,5.838m-90.954-388.276c-13.447,0-27.08,6.432-36.47,17.205-10.709,12.352-15.381,23.534-14.283,34.189,1.764,17.115,18.121,29.576,33.938,41.627,10.273,7.827,19.977,15.219,25.235,23.468,5.792,9.085,5.2,17.879-1.857,27.675-.686.936-1.407,1.928-2.16,2.962-15.319,21.042-43.833,60.209-70.45,60.209-9.214,0-17.583-4.827-24.872-14.346-20.9-27.183-39.786-32.888-51.946-32.888-10.894,0-21.264,4.63-29.2,13.039a49.831,49.831,0,0,0-13.38,36.4c2.334,37.067,24.832,40.168,47.675,40.168,2.895,0,5.873-.055,8.753-.108s5.868-.108,8.772-.108c21.4,0,42.68,2.657,47.4,34.4,1.172,7.964,3.13,17.6,5.4,28.769,8.25,40.627,19.552,96.268,1.938,122.407-5.045,7.486-12.319,12.162-21.62,13.9-28.767,5.463-49.744,20.394-54.749,38.967-3.843,14.266,2.1,29.111,16.748,41.8,10.9,9.481,20.973,14.091,30.794,14.091,22.716,0,38.209-24.961,51.879-46.984,6.445-10.384,12.534-20.193,18.507-25.675,4.728-3.626,7.518-5.04,9.943-5.04,2.662,0,5.259,1.707,9.563,4.535,1.016.667,2.12,1.393,3.339,2.17,34.722,21.577,77.866,32.287,115.933,41.735,26.513,6.581,51.555,12.8,69.3,21.718,19.39,9.745,28.275,21.8,27.963,37.949-.528,29.016,8.528,44.444,16.221,52.277a36.021,36.021,0,0,0,26.146,11.212c12.235,0,24.646-6.175,34.05-16.942,27.331-31.264,8.623-49.856-9.469-67.836-11.158-11.09-22.7-22.557-22.655-36.812.03-10.572,6.3-21.855,19.164-34.5,6.893-6.8,14.282-15.724,22.107-25.168,19.753-23.841,42.141-50.862,63.024-50.859,8.564,0,16.216,4.443,23.39,13.58,15.215,19.3,31.481,29.5,47.045,29.5,25.773,0,43.733-27.791,43.733-52.734,0-11.146-3.45-20.723-9.978-27.7-7.523-8.038-18.521-12.113-32.686-12.113a91.291,91.291,0,0,0-16.735,1.679,103.072,103.072,0,0,1-19.1,2.092c-28.53,0-30.409-19.069-33.521-50.661-1.983-20.132-4.451-45.188-14.968-72.531-9.279-24.072-21.434-41.125-31.2-54.827-9.946-13.953-17.132-24.035-14.572-33.082,2.521-8.911,14.386-17.275,39.669-27.968,20.954-8.876,30.609-23.044,27.188-39.894-4.754-23.409-34.416-46.385-59.884-46.385-9.557,0-17.891,3.278-24.1,9.479-7.084,7.071-11.488,17.8-13.092,31.882-4.241,36.758-18.687,41.826-33.665,41.826-10.247,0-22.576-2.822-36.853-6.088-16.206-3.708-34.574-7.911-55.113-9.22-1.453-.095-3.088-.142-5-.142-4.772,0-10.6.3-16.774.618-7.48.384-15.96.821-24.387.821-16.245,0-39.15-1.393-50.468-13.438-5.289-5.629-7.673-13.28-7.084-22.74,1.634-24.516-3.313-43.69-14.31-55.443a37.707,37.707,0,0,0-28.217-12.124Zm19.031,206.863a4.863,4.863,0,0,1,3.432-2.953l.062-.012.059-.019a3.49,3.49,0,0,1,1.111-.179,4.361,4.361,0,0,1,3.028,1.327c8.878,8.681,20.683,16.439,34.213,22.5a17.474,17.474,0,0,0-3.927,10.951,16.986,16.986,0,0,0,33.971,0,11.425,11.425,0,0,0-.087-1.317,122.473,122.473,0,0,0,24.9,2.714,4.567,4.567,0,0,1,3.918,2.112,4.723,4.723,0,0,1,.331,4.425,54.311,54.311,0,0,1-103.725-22.43,55.294,55.294,0,0,1,2.714-17.115Zm192.769,25.684c16.11-6.241,30.027-14.843,40.317-24.932a4.367,4.367,0,0,1,3.035-1.334,3.5,3.5,0,0,1,1.112.179l.058.02.062.012a4.859,4.859,0,0,1,3.432,2.953,55.286,55.286,0,0,1,2.715,17.115,54.312,54.312,0,0,1-103.73,22.419,4.722,4.722,0,0,1,.335-4.415l.015-.022.012-.022a4.2,4.2,0,0,1,3.892-2.067,119.229,119.229,0,0,0,18.762-1.559,18.212,18.212,0,0,0-.1,2.346,16.887,16.887,0,1,0,30.088-10.693ZM12754.3,7912.046a4.732,4.732,0,0,1-4.547-4.739l0-.032v-.033a51.774,51.774,0,0,1,3.506-16.944,54.18,54.18,0,0,1,94.712-12.17,55.267,55.267,0,0,1,10.188,28.516,4.669,4.669,0,0,1-1.983,3.934,4.608,4.608,0,0,1-2.787.919,5.235,5.235,0,0,1-1.657-.274,136.618,136.618,0,0,0-41.17-8.39c-2.076-.08-4.159-.121-6.2-.121-18.229,0-34.917,3.092-48.261,8.941a4.407,4.407,0,0,1-1.8.393Z" fill="#666"/>
      </g>
    </g>
    <g id="Group_13" data-name="Group 13">
      <path id="Path_879" data-name="Path 879" d="M13079.019,7883.36c-35.55,6.77-45.939-3.16-50.42-23.87h-201.17a55.812,55.812,0,0,1,31.771,46.91,5.658,5.658,0,0,1-2.391,4.76,5.8,5.8,0,0,1-5.359.8,134.435,134.435,0,0,0-40.9-8.34c-20.46-.8-39.52,2.38-54.01,8.73a5.611,5.611,0,0,1-7.75-5.36,52.487,52.487,0,0,1,3.58-17.27,55.35,55.35,0,0,1,28.24-30.23h-179.261c9.25,49.34,15.36,107.5-24.92,115.02-51.229,9.73-73.27,48.05-37.529,79.03,53.42,46.46,76.449-37.13,99.88-58.58,11.12-8.54,12.51-5.76,24.029,1.59,83.4,51.83,214.851,40.51,213.66,102.26-1.189,65.33,47.26,77.25,74.67,45.87,55.2-63.14-80.819-72.48-12.91-139.2,31.37-30.97,74.461-107.62,110.011-62.35C13124.489,8039.84,13187.829,7862.91,13079.019,7883.36Z" fill="#d3c98c" fill-rule="evenodd"/>
    </g>
  </g>
</svg>
