<svg xmlns="http://www.w3.org/2000/svg" width="660.368" height="637.727" viewBox="0 0 660.368 637.727">
  <g id="Group_7" data-name="Group 7" transform="translate(-14352.305 -7524.77)">
    <g id="Group_521" data-name="Group 521">
      <g id="Group_520" data-name="Group 520">
        <path id="Path_868" data-name="Path 868" d="M14792.283,8162a35.532,35.532,0,0,1-25.789-11.062c-7.624-7.765-16.6-23.075-16.077-51.917.316-16.36-8.657-28.564-28.239-38.406-17.8-8.946-42.866-15.168-69.406-21.756-38.03-9.439-81.136-20.139-115.779-41.668-1.221-.779-2.324-1.5-3.337-2.169-4.383-2.88-7.029-4.618-9.84-4.618-2.556,0-5.438,1.45-10.282,5.17-6,5.5-12.117,15.348-18.592,25.78-13.6,21.911-29.017,46.746-51.454,46.749-9.7,0-19.66-4.569-30.469-13.97-14.489-12.558-20.383-27.224-16.591-41.294,4.954-18.386,25.782-33.179,54.357-38.6,9.438-1.762,16.821-6.509,21.942-14.111,17.731-26.313,6.407-82.073-1.861-122.788-2.266-11.155-4.223-20.789-5.393-28.741-4.776-32.139-26.278-34.828-47.892-34.828-2.911,0-5.9.055-8.785.108s-5.852.108-8.741.108c-22.6,0-44.869-3.064-47.176-39.695a49.336,49.336,0,0,1,13.245-36.03c7.841-8.308,18.082-12.883,28.835-12.883,12.047,0,30.771,5.671,51.548,32.692,7.391,9.649,15.892,14.542,25.271,14.542,26.87,0,55.48-39.3,70.852-60.414l2.164-2.967c15.79-21.911-3.286-36.444-23.48-51.831-15.733-11.986-32-24.381-33.744-41.28-1.083-10.51,3.549-21.569,14.161-33.809,9.3-10.666,22.789-17.034,36.094-17.034a37.218,37.218,0,0,1,27.852,11.966c10.9,11.649,15.8,30.693,14.175,55.072-.6,9.6,1.831,17.378,7.22,23.112,11.449,12.185,34.5,13.594,50.832,13.594,8.438,0,16.926-.436,24.413-.821,6.165-.317,11.987-.617,16.748-.617,1.9,0,3.523.046,4.969.141,20.5,1.306,38.844,5.5,55.032,9.208,14.306,3.273,26.66,6.1,36.964,6.1,20.8,0,30.7-12.246,34.162-42.269,1.738-15.281,8.819-40.917,36.7-40.917,25.263,0,54.682,22.777,59.395,45.985,3.369,16.591-6.182,30.56-26.893,39.334-25.438,10.758-37.389,19.219-39.956,28.291-2.625,9.279,4.619,19.443,14.647,33.51,9.75,13.678,21.884,30.7,31.14,54.715,10.492,27.281,12.957,52.3,14.938,72.4,3.139,31.873,5.035,51.112,34.018,51.112a103.571,103.571,0,0,0,19.19-2.1,90.771,90.771,0,0,1,16.643-1.671c14.021,0,24.9,4.021,32.32,11.952,6.438,6.878,9.842,16.336,9.843,27.35,0,24.706-17.752,52.237-43.23,52.242h-.008c-15.4,0-31.528-10.132-46.645-29.3-7.277-9.268-15.056-13.772-23.784-13.772-21.118,0-43.586,27.116-63.409,51.04-7.816,9.434-15.2,18.345-22.071,25.13-12.968,12.739-19.284,24.138-19.316,34.851-.041,14.464,11.573,26.006,22.8,37.167,17.929,17.818,36.467,36.242,9.444,67.153C14816.647,8155.884,14804.374,8162,14792.283,8162Zm-113.79-307.03a54.664,54.664,0,0,0-51.216,35.146,52.214,52.214,0,0,0-3.54,17.112,5.222,5.222,0,0,0,5.042,5.321,4.9,4.9,0,0,0,2-.434c13.282-5.823,29.9-8.9,48.06-8.9,2.04,0,4.117.041,6.173.121a136.168,136.168,0,0,1,41.065,8.372,5.7,5.7,0,0,0,1.795.292,5.313,5.313,0,0,0,5.271-5.385,55.6,55.6,0,0,0-35.026-47.985A54.468,54.468,0,0,0,14678.493,7854.967Zm41.755-89.909a119.184,119.184,0,0,1-19.371,1.665,4.682,4.682,0,0,0-4.328,2.323,5.24,5.24,0,0,0-.378,4.916,54.811,54.811,0,0,0,104.683-22.632,55.771,55.771,0,0,0-2.755-17.322,5.344,5.344,0,0,0-3.793-3.236,4.208,4.208,0,0,0-1.33-.221,4.86,4.86,0,0,0-3.381,1.474c-10.382,10.178-24.476,18.838-40.8,25.074a16.432,16.432,0,1,1-28.761,10.911A14.037,14.037,0,0,1,14720.248,7765.058Zm-158.729-37.088a4.032,4.032,0,0,0-1.27.2,5.4,5.4,0,0,0-3.871,3.3,55.763,55.763,0,0,0-2.737,17.272,54.812,54.812,0,0,0,104.687,22.627,5.223,5.223,0,0,0-.368-4.888,5.063,5.063,0,0,0-4.341-2.347,122.244,122.244,0,0,1-25.478-2.849c.016.15.033.3.053.458a12.481,12.481,0,0,1,.109,1.494,16.485,16.485,0,0,1-32.97,0,17.031,17.031,0,0,1,4.234-11.139c-13.728-6.071-25.7-13.9-34.663-22.658A4.867,4.867,0,0,0,14561.519,7727.97Z" fill="#eee" fill-rule="evenodd"/>
        <path id="Path_869" data-name="Path 869" d="M14537.824,7525.77c22.877,0,44.69,19.069,41.528,66.5-1.981,31.824,28.633,37.24,58.55,37.24,15.426,0,30.662-1.439,41.161-1.439,1.792,0,3.442.042,4.936.14,38.638,2.462,70.012,15.31,92.029,15.31,18.83,0,30.813-9.392,34.658-42.713,3.354-29.468,18.726-40.474,36.2-40.474,40.46,0,92.214,58.981,32.307,84.358-79.825,33.757-22.836,43.487,5.56,117.157,26.775,69.615,1.089,123.833,49.423,123.833a104.572,104.572,0,0,0,19.282-2.109,89.818,89.818,0,0,1,16.55-1.662c65.589,0,44.821,90.544-1.068,90.544-13.722,0-29.683-8.088-46.26-29.112-7.765-9.89-15.892-13.962-24.176-13.963-29.638,0-61.312,52.1-85.832,76.314-67.911,66.719,68.11,76.052,12.907,139.2-9.54,10.922-21.637,16.6-33.3,16.6-21.831,0-42.143-19.884-41.366-62.47,1.192-61.756-130.262-50.437-213.662-102.264-6.528-4.165-9.8-6.862-13.439-6.862-2.779,0-5.771,1.575-10.588,5.274-18.468,16.9-36.693,72.425-69.741,72.425-8.88,0-18.826-4.006-30.14-13.847-35.743-30.977-13.7-69.3,37.53-79.031,56.395-10.525,21.843-120.334,15.091-166.2-4.754-31.982-25.766-35.255-48.386-35.255-5.818,0-11.746.216-17.527.216-23.383,0-44.429-3.534-46.676-39.226-1.365-23.571,16.337-48.382,41.581-48.382,15.162,0,33.045,8.95,51.151,32.5,8.042,10.5,16.771,14.738,25.667,14.738,28.445,0,58.6-43.316,73.42-63.586,35.346-49.047-100.079-61.16-43.09-126.887,9.3-10.667,22.681-16.862,35.716-16.862m70.52,278.181a55.451,55.451,0,0,0,50.437-32.367,5.694,5.694,0,0,0-.4-5.361,5.584,5.584,0,0,0-4.765-2.582,121.676,121.676,0,0,1-26.013-2.978c0,.794.2,1.588.2,2.581a15.986,15.986,0,0,1-31.971,0,16.6,16.6,0,0,1,4.568-11.318c-14.1-6.156-26.212-14.1-35.147-22.836a5.349,5.349,0,0,0-3.735-1.62,4.49,4.49,0,0,0-1.428.23,5.834,5.834,0,0,0-4.17,3.574,56.493,56.493,0,0,0-2.78,17.474,55.212,55.212,0,0,0,55.2,55.2m128.078-20.056a15.932,15.932,0,0,1-15.886-15.885,11.015,11.015,0,0,1,.4-3.575,119.258,119.258,0,0,1-20.056,1.788,5.17,5.17,0,0,0-4.765,2.581,5.694,5.694,0,0,0-.4,5.361,55.311,55.311,0,0,0,105.639-22.835,56.488,56.488,0,0,0-2.779-17.474,5.835,5.835,0,0,0-4.17-3.575,4.531,4.531,0,0,0-1.428-.23,5.352,5.352,0,0,0-3.735,1.62c-10.127,9.929-24.424,18.864-41.3,25.219a16.014,16.014,0,0,1-11.518,27m-107.643,129.151a5.4,5.4,0,0,0,2.2-.477c13.031-5.712,29.755-8.857,47.859-8.857q3.051,0,6.152.12a134.691,134.691,0,0,1,40.905,8.34,6.234,6.234,0,0,0,1.974.325,5.592,5.592,0,0,0,3.388-1.119,5.663,5.663,0,0,0,2.383-4.766,55.761,55.761,0,0,0-35.346-48.451,55.294,55.294,0,0,0-71.485,31.771,52.622,52.622,0,0,0-3.574,17.276,5.724,5.724,0,0,0,5.543,5.838m-90.955-388.276c-13.446,0-27.079,6.432-36.471,17.205-10.709,12.352-15.38,23.534-14.281,34.189,1.764,17.115,18.12,29.576,33.938,41.627,10.273,7.827,19.977,15.219,25.235,23.468,5.792,9.085,5.2,17.879-1.858,27.675-.685.936-1.406,1.928-2.159,2.962-15.318,21.042-43.833,60.209-70.449,60.209-9.215,0-17.583-4.827-24.873-14.346-20.9-27.183-39.785-32.888-51.945-32.888-10.894,0-21.264,4.63-29.2,13.039a49.843,49.843,0,0,0-13.38,36.4c2.335,37.067,24.832,40.168,47.675,40.168,2.9,0,5.873-.055,8.753-.108s5.869-.108,8.774-.108c21.395,0,42.678,2.657,47.4,34.4,1.173,7.964,3.131,17.6,5.4,28.769,8.251,40.627,19.551,96.268,1.938,122.407-5.045,7.486-12.318,12.162-21.62,13.9-28.767,5.463-49.744,20.394-54.748,38.967-3.845,14.266,2.1,29.111,16.747,41.8,10.9,9.481,20.973,14.091,30.794,14.091,22.717,0,38.21-24.961,51.879-46.984,6.445-10.384,12.534-20.193,18.507-25.675,4.728-3.626,7.517-5.04,9.943-5.04,2.661,0,5.26,1.707,9.563,4.535,1.016.667,2.12,1.393,3.339,2.17,34.722,21.577,77.866,32.287,115.934,41.735,26.513,6.581,51.555,12.8,69.3,21.718,19.389,9.745,28.274,21.8,27.963,37.949-.528,29.016,8.529,44.444,16.22,52.277a36.025,36.025,0,0,0,26.146,11.212c12.234,0,24.646-6.175,34.05-16.942,27.331-31.264,8.624-49.856-9.468-67.836-11.158-11.09-22.7-22.557-22.656-36.812.03-10.572,6.3-21.855,19.165-34.5,6.891-6.8,14.282-15.724,22.107-25.168,19.752-23.841,42.141-50.862,63.023-50.859,8.565,0,16.216,4.443,23.389,13.58,15.216,19.3,31.483,29.5,47.047,29.5,25.771,0,43.732-27.791,43.732-52.734,0-11.146-3.45-20.723-9.978-27.7-7.523-8.038-18.521-12.113-32.687-12.113a91.27,91.27,0,0,0-16.733,1.679,103.09,103.09,0,0,1-19.1,2.092c-28.53,0-30.409-19.069-33.521-50.661-1.983-20.132-4.451-45.188-14.969-72.531-9.277-24.072-21.434-41.125-31.2-54.827-9.947-13.953-17.134-24.035-14.572-33.082,2.521-8.911,14.384-17.275,39.668-27.968,20.955-8.876,30.61-23.044,27.188-39.894-4.754-23.409-34.416-46.385-59.884-46.385-9.556,0-17.891,3.278-24.1,9.479-7.084,7.071-11.489,17.8-13.092,31.882-4.241,36.758-18.687,41.826-33.665,41.826-10.246,0-22.576-2.822-36.853-6.088-16.206-3.708-34.575-7.911-55.114-9.22-1.451-.095-3.088-.142-5-.142-4.772,0-10.6.3-16.773.618-7.482.384-15.961.821-24.388.821-16.244,0-39.15-1.393-50.468-13.438-5.29-5.629-7.673-13.28-7.084-22.74,1.635-24.516-3.313-43.69-14.31-55.443a37.705,37.705,0,0,0-28.217-12.124Zm19.032,206.863a4.858,4.858,0,0,1,3.431-2.953l.061-.012.06-.019a3.49,3.49,0,0,1,1.111-.179,4.361,4.361,0,0,1,3.028,1.327c8.877,8.681,20.682,16.439,34.213,22.5a17.474,17.474,0,0,0-3.927,10.951,16.986,16.986,0,0,0,33.971,0,11.425,11.425,0,0,0-.087-1.317,122.467,122.467,0,0,0,24.9,2.714,4.565,4.565,0,0,1,3.917,2.112,4.723,4.723,0,0,1,.331,4.425,54.312,54.312,0,0,1-103.726-22.43,55.267,55.267,0,0,1,2.716-17.115Zm192.768,25.684c16.11-6.241,30.027-14.843,40.317-24.932a4.365,4.365,0,0,1,3.035-1.334,3.49,3.49,0,0,1,1.111.179l.06.02.061.012a4.855,4.855,0,0,1,3.431,2.953,55.257,55.257,0,0,1,2.715,17.115,54.311,54.311,0,0,1-103.729,22.419,4.719,4.719,0,0,1,.336-4.415l.014-.022.013-.022a4.2,4.2,0,0,1,3.891-2.067,119.22,119.22,0,0,0,18.762-1.559,18.212,18.212,0,0,0-.1,2.346,16.886,16.886,0,1,0,30.088-10.693Zm-120.845,154.729a4.73,4.73,0,0,1-4.548-4.739l0-.032v-.033a51.722,51.722,0,0,1,3.5-16.944,54.181,54.181,0,0,1,94.712-12.17,55.276,55.276,0,0,1,10.188,28.516,4.673,4.673,0,0,1-1.982,3.934,4.611,4.611,0,0,1-2.788.919,5.235,5.235,0,0,1-1.657-.274,136.612,136.612,0,0,0-41.17-8.39c-2.076-.08-4.159-.121-6.2-.121-18.229,0-34.917,3.092-48.261,8.941a4.406,4.406,0,0,1-1.8.393Z" fill="#666"/>
      </g>
    </g>
    <g id="Group_15" data-name="Group 15">
      <path id="Path_881" data-name="Path 881" d="M14953.519,7883.36c-70.689,13.46-41.9-39.1-65.02-111.23h-91.26a55.328,55.328,0,0,1-101.471,1.82,5.694,5.694,0,0,1-.47-1.82h-36.82a55.341,55.341,0,0,1-99.989,0h-175.34c30.909,5.26,75.649-12.42,82.869,36.17,6.761,45.87,41.311,155.68-15.09,166.21-51.229,9.73-73.27,48.05-37.529,79.03,53.42,46.46,76.449-37.13,99.88-58.58,11.12-8.54,12.51-5.76,24.029,1.59,83.4,51.83,214.851,40.51,213.66,102.26-1.189,65.33,47.26,77.25,74.67,45.87,55.2-63.14-80.819-72.48-12.91-139.2,31.37-30.97,74.461-107.62,110.011-62.35C14998.989,8039.84,15062.329,7862.91,14953.519,7883.36Zm-222.21,27.8a5.8,5.8,0,0,1-5.359.8,134.435,134.435,0,0,0-40.9-8.34c-20.46-.8-39.52,2.38-54.01,8.73a5.6,5.6,0,0,1-7.75-5.36,52.487,52.487,0,0,1,3.58-17.27,55.3,55.3,0,0,1,106.83,16.68A5.658,5.658,0,0,1,14731.309,7911.16Zm-10.109-139.03a15.875,15.875,0,0,0,30.55,0Zm-122.42,0a15.886,15.886,0,0,0,13,6.79,16.066,16.066,0,0,0,13.18-6.79Z" fill="#ceb495" fill-rule="evenodd"/>
    </g>
  </g>
</svg>
