<svg xmlns="http://www.w3.org/2000/svg" width="660.367" height="637.727" viewBox="0 0 660.367 637.727">
  <g id="Group_2" data-name="Group 2" transform="translate(-12366.86 -8249.376)">
    <g id="Group_511" data-name="Group 511">
      <g id="Group_510" data-name="Group 510">
        <path id="Path_858" data-name="Path 858" d="M12806.838,8886.6a35.533,35.533,0,0,1-25.789-11.062c-7.624-7.765-16.6-23.075-16.076-51.917.315-16.36-8.656-28.564-28.238-38.406-17.8-8.945-42.867-15.168-69.408-21.756-38.03-9.438-81.134-20.139-115.779-41.668-1.221-.779-2.323-1.5-3.337-2.169-4.383-2.88-7.028-4.618-9.84-4.618-2.554,0-5.437,1.45-10.282,5.17-6,5.494-12.116,15.349-18.592,25.78-13.6,21.911-29.015,46.746-51.454,46.749-9.694,0-19.66-4.569-30.468-13.97-14.49-12.559-20.382-27.225-16.59-41.294,4.954-18.387,25.781-33.18,54.355-38.606,9.438-1.761,16.821-6.508,21.943-14.11,17.731-26.312,6.408-82.072-1.862-122.787-2.265-11.155-4.222-20.789-5.392-28.741-4.777-32.14-26.279-34.828-47.893-34.828-2.91,0-5.9.055-8.784.107s-5.853.108-8.741.108c-22.605,0-44.869-3.063-47.176-39.7a49.33,49.33,0,0,1,13.245-36.029c7.842-8.309,18.081-12.884,28.835-12.884,12.048,0,30.77,5.672,51.549,32.692,7.389,9.649,15.89,14.541,25.269,14.541,26.87,0,55.482-39.3,70.853-60.413l2.164-2.967c15.79-21.911-3.285-36.444-23.481-51.831-15.733-11.986-32-24.381-33.744-41.28-1.083-10.51,3.549-21.568,14.161-33.809,9.3-10.666,22.79-17.034,36.094-17.034a37.22,37.22,0,0,1,27.854,11.966c10.9,11.649,15.8,30.693,14.174,55.072-.6,9.6,1.831,17.378,7.219,23.111,11.45,12.186,34.5,13.595,50.832,13.595,8.44,0,16.926-.437,24.413-.821,6.165-.317,11.989-.617,16.748-.617,1.9,0,3.524.046,4.969.142,20.5,1.306,38.845,5.5,55.032,9.208,14.306,3.272,26.661,6.1,36.964,6.1,20.8,0,30.7-12.246,34.162-42.269,1.739-15.281,8.821-40.917,36.7-40.917,25.261,0,54.68,22.776,59.393,45.984,3.369,16.592-6.181,30.561-26.892,39.334-25.439,10.759-37.389,19.219-39.956,28.291-2.625,9.279,4.62,19.443,14.646,33.511,9.75,13.678,21.885,30.7,31.142,54.715,10.491,27.28,12.957,52.3,14.937,72.4,3.14,31.873,5.035,51.112,34.02,51.112a103.482,103.482,0,0,0,19.188-2.1,90.821,90.821,0,0,1,16.645-1.67c14.02,0,24.894,4.021,32.318,11.951,6.439,6.878,9.843,16.336,9.844,27.351,0,24.706-17.752,52.236-43.231,52.242h-.007c-15.4,0-31.529-10.133-46.646-29.3-7.275-9.268-15.056-13.771-23.783-13.771-21.117,0-43.586,27.115-63.409,51.04-7.817,9.434-15.2,18.345-22.072,25.13-12.967,12.738-19.284,24.138-19.315,34.851-.041,14.464,11.572,26.006,22.8,37.167,17.927,17.818,36.466,36.242,9.442,67.153C12831.2,8880.49,12818.929,8886.6,12806.838,8886.6Zm-113.79-307.029a54.665,54.665,0,0,0-51.216,35.146,52.239,52.239,0,0,0-3.54,17.112,5.224,5.224,0,0,0,5.042,5.32,4.89,4.89,0,0,0,2-.434c13.283-5.823,29.9-8.9,48.061-8.9,2.04,0,4.116.04,6.174.121a136.146,136.146,0,0,1,41.063,8.371,5.72,5.72,0,0,0,1.795.292,5.312,5.312,0,0,0,5.271-5.385,55.6,55.6,0,0,0-35.027-47.985A54.459,54.459,0,0,0,12693.048,8579.573Zm41.755-89.909a119.227,119.227,0,0,1-19.37,1.665,4.68,4.68,0,0,0-4.327,2.323,5.237,5.237,0,0,0-.379,4.916,54.812,54.812,0,0,0,104.683-22.633,55.793,55.793,0,0,0-2.755-17.321,5.345,5.345,0,0,0-3.793-3.237,4.223,4.223,0,0,0-1.33-.22,4.856,4.856,0,0,0-3.38,1.474c-10.383,10.178-24.478,18.838-40.8,25.074a16.433,16.433,0,1,1-28.762,10.911A14.041,14.041,0,0,1,12734.8,8489.664Zm-158.729-37.088a4,4,0,0,0-1.27.2,5.394,5.394,0,0,0-3.871,3.3,55.764,55.764,0,0,0-2.737,17.272,54.812,54.812,0,0,0,104.686,22.626,5.222,5.222,0,0,0-.367-4.888,5.064,5.064,0,0,0-4.342-2.347,122.292,122.292,0,0,1-25.477-2.849c.015.148.034.3.052.458a12.422,12.422,0,0,1,.111,1.493,16.486,16.486,0,0,1-32.971,0,17.034,17.034,0,0,1,4.233-11.139c-13.726-6.071-25.7-13.9-34.663-22.658A4.867,4.867,0,0,0,12576.074,8452.576Z" fill="#eee" fill-rule="evenodd"/>
        <path id="Path_859" data-name="Path 859" d="M12552.38,8250.376c22.876,0,44.69,19.069,41.528,66.5-1.982,31.823,28.632,37.24,58.55,37.24,15.425,0,30.662-1.439,41.161-1.439,1.791,0,3.442.042,4.935.141,38.639,2.462,70.014,15.31,92.029,15.31,18.831,0,30.815-9.392,34.659-42.713,3.354-29.469,18.725-40.474,36.2-40.474,40.46,0,92.214,58.98,32.306,84.357-79.825,33.757-22.835,43.487,5.56,117.157,26.775,69.615,1.09,123.833,49.424,123.833a104.493,104.493,0,0,0,19.282-2.109,89.839,89.839,0,0,1,16.551-1.661c65.588,0,44.819,90.544-1.069,90.544-13.721,0-29.682-8.089-46.26-29.112-7.766-9.89-15.893-13.962-24.177-13.963-29.638,0-61.311,52.1-85.832,76.313-67.91,66.72,68.11,76.053,12.907,139.2-9.54,10.922-21.637,16.6-33.3,16.6-21.831,0-42.142-19.885-41.365-62.47,1.191-61.756-130.262-50.437-213.662-102.264-6.528-4.165-9.8-6.862-13.439-6.862-2.78,0-5.771,1.575-10.587,5.273-18.469,16.9-36.7,72.425-69.742,72.425-8.88,0-18.827-4-30.14-13.846-35.742-30.978-13.7-69.3,37.529-79.031,56.395-10.525,21.844-120.334,15.093-166.2-4.755-31.982-25.768-35.255-48.388-35.255-5.817,0-11.745.216-17.526.216-23.383,0-44.429-3.534-46.677-39.226-1.364-23.571,16.339-48.384,41.581-48.384,15.162,0,33.045,8.951,51.152,32.5,8.041,10.5,16.771,14.737,25.666,14.737,28.446,0,58.6-43.316,73.421-63.585,35.345-49.047-100.08-61.16-43.09-126.887,9.3-10.667,22.68-16.862,35.716-16.862m70.52,278.181a55.451,55.451,0,0,0,50.437-32.366,5.7,5.7,0,0,0-.4-5.361,5.588,5.588,0,0,0-4.767-2.582,121.661,121.661,0,0,1-26.013-2.979c0,.795.2,1.589.2,2.581a15.986,15.986,0,0,1-31.971,0,16.6,16.6,0,0,1,4.567-11.318c-14.1-6.155-26.211-14.1-35.147-22.835a5.343,5.343,0,0,0-3.734-1.62,4.512,4.512,0,0,0-1.428.229,5.841,5.841,0,0,0-4.171,3.574,56.525,56.525,0,0,0-2.779,17.474,55.212,55.212,0,0,0,55.2,55.2m128.077-20.056a15.933,15.933,0,0,1-15.886-15.885,10.992,10.992,0,0,1,.4-3.575,119.224,119.224,0,0,1-20.056,1.788,5.173,5.173,0,0,0-4.766,2.581,5.7,5.7,0,0,0-.4,5.361,55.312,55.312,0,0,0,105.64-22.836,56.487,56.487,0,0,0-2.779-17.474,5.837,5.837,0,0,0-4.17-3.575,4.521,4.521,0,0,0-1.428-.229,5.344,5.344,0,0,0-3.735,1.62c-10.127,9.929-24.424,18.863-41.3,25.219a16.013,16.013,0,0,1-11.518,27m-107.643,129.151a5.406,5.406,0,0,0,2.2-.478c13.031-5.712,29.754-8.856,47.858-8.856q3.051,0,6.152.12a134.689,134.689,0,0,1,40.906,8.34,6.236,6.236,0,0,0,1.973.324,5.6,5.6,0,0,0,3.389-1.118,5.665,5.665,0,0,0,2.383-4.767,55.762,55.762,0,0,0-35.347-48.451,55.3,55.3,0,0,0-71.484,31.771,52.617,52.617,0,0,0-3.574,17.276,5.724,5.724,0,0,0,5.542,5.838m-90.954-388.276c-13.447,0-27.08,6.432-36.47,17.205-10.71,12.351-15.381,23.534-14.283,34.188,1.764,17.115,18.121,29.576,33.938,41.628,10.272,7.826,19.977,15.219,25.234,23.468,5.792,9.085,5.2,17.879-1.856,27.675-.687.936-1.407,1.928-2.16,2.962-15.319,21.042-43.833,60.208-70.45,60.208-9.215,0-17.583-4.826-24.872-14.345-20.9-27.184-39.786-32.89-51.946-32.89-10.894,0-21.264,4.632-29.2,13.04a49.833,49.833,0,0,0-13.381,36.4c2.334,37.068,24.832,40.169,47.675,40.169,2.895,0,5.874-.055,8.753-.108s5.869-.107,8.773-.107c21.4,0,42.68,2.657,47.4,34.4,1.173,7.964,3.131,17.6,5.4,28.768,8.25,40.628,19.552,96.269,1.937,122.407-5.044,7.486-12.318,12.163-21.619,13.9-28.767,5.463-49.744,20.395-54.749,38.967-3.844,14.267,2.1,29.111,16.748,41.8,10.9,9.481,20.972,14.091,30.794,14.091,22.716,0,38.209-24.96,51.879-46.983,6.445-10.384,12.534-20.192,18.506-25.675,4.729-3.626,7.518-5.04,9.944-5.04,2.661,0,5.259,1.707,9.563,4.535,1.017.667,2.121,1.393,3.34,2.17,34.722,21.577,77.866,32.287,115.933,41.735,26.513,6.581,51.555,12.8,69.3,21.718,19.391,9.745,28.275,21.8,27.964,37.949-.528,29.016,8.528,44.443,16.221,52.276a36.017,36.017,0,0,0,26.145,11.212c12.235,0,24.646-6.175,34.051-16.942,27.33-31.263,8.623-49.855-9.469-67.835-11.158-11.09-22.7-22.558-22.656-36.812.031-10.571,6.3-21.854,19.165-34.5,6.892-6.8,14.282-15.724,22.107-25.169,19.753-23.84,42.141-50.86,63.023-50.857,8.565,0,16.217,4.442,23.39,13.58,15.216,19.3,31.482,29.5,47.046,29.5,25.772,0,43.732-27.792,43.732-52.734,0-11.146-3.449-20.723-9.977-27.7-7.524-8.038-18.521-12.112-32.686-12.112a91.28,91.28,0,0,0-16.735,1.679,103.039,103.039,0,0,1-19.1,2.092c-28.531,0-30.409-19.069-33.521-50.661-1.984-20.132-4.452-45.187-14.968-72.531-9.279-24.071-21.435-41.125-31.2-54.826-9.946-13.953-17.132-24.035-14.572-33.083,2.521-8.91,14.386-17.274,39.669-27.968,20.954-8.876,30.609-23.044,27.188-39.894-4.753-23.409-34.415-46.385-59.883-46.385-9.557,0-17.892,3.277-24.1,9.479-7.084,7.071-11.488,17.8-13.091,31.882-4.242,36.759-18.687,41.826-33.665,41.826-10.247,0-22.577-2.822-36.853-6.088-16.206-3.709-34.575-7.912-55.113-9.22-1.453-.1-3.089-.143-5-.143-4.772,0-10.6.3-16.774.618-7.481.384-15.961.821-24.387.821-16.245,0-39.15-1.394-50.468-13.438-5.29-5.629-7.673-13.279-7.084-22.739,1.634-24.517-3.314-43.69-14.31-55.443a37.709,37.709,0,0,0-28.217-12.124Zm19.031,206.863a4.861,4.861,0,0,1,3.431-2.953l.062-.012.06-.02a3.49,3.49,0,0,1,1.111-.179,4.351,4.351,0,0,1,3.027,1.327c8.879,8.68,20.684,16.438,34.214,22.5a17.471,17.471,0,0,0-3.927,10.95,16.986,16.986,0,0,0,33.971,0,11.415,11.415,0,0,0-.087-1.316,122.533,122.533,0,0,0,24.9,2.714,4.564,4.564,0,0,1,3.917,2.111,4.724,4.724,0,0,1,.332,4.426,54.312,54.312,0,0,1-103.726-22.431,55.291,55.291,0,0,1,2.715-17.114Zm192.769,25.683c16.11-6.24,30.027-14.842,40.317-24.931a4.363,4.363,0,0,1,3.035-1.334,3.49,3.49,0,0,1,1.111.179l.059.021.061.012a4.858,4.858,0,0,1,3.432,2.952,55.264,55.264,0,0,1,2.715,17.115,54.312,54.312,0,0,1-103.73,22.42,4.719,4.719,0,0,1,.336-4.415l.015-.022.012-.023a4.2,4.2,0,0,1,3.892-2.065,119.232,119.232,0,0,0,18.762-1.56,18.056,18.056,0,0,0-.1,2.347,16.887,16.887,0,1,0,30.089-10.694Zm-120.846,154.73a4.732,4.732,0,0,1-4.547-4.739l0-.032v-.033a51.743,51.743,0,0,1,3.506-16.943,54.179,54.179,0,0,1,94.711-12.17,55.274,55.274,0,0,1,10.189,28.516,4.666,4.666,0,0,1-1.983,3.934,4.606,4.606,0,0,1-2.788.919,5.244,5.244,0,0,1-1.657-.273,136.6,136.6,0,0,0-41.169-8.39c-2.076-.08-4.159-.121-6.205-.121-18.228,0-34.917,3.092-48.261,8.94a4.407,4.407,0,0,1-1.8.394Z" fill="#666"/>
      </g>
    </g>
    <g id="Group_17" data-name="Group 17">
      <path id="Path_883" data-name="Path 883" d="M12968.019,8608.18c-74.069,14.1-38.92-44.279-68.71-121.72-15.21-39.47-38.64-60.59-44.83-76.88h-306.119c-22.631,29.77-59.41,70.31-87.69,33.39-48.25-62.75-94.92-21.84-92.729,15.891,4.96,78.83,101.67.79,112.59,74.26,6.75,45.87,41.3,155.68-15.09,166.21-51.23,9.729-73.28,48.05-37.53,79.03,53.41,46.46,76.45-37.141,99.88-58.58,11.12-8.54,12.51-5.761,24.02,1.59,83.4,51.82,214.86,40.51,213.67,102.26-1.189,65.33,47.261,77.25,74.66,45.87,55.2-63.14-80.819-72.48-12.91-139.2,31.381-30.97,74.471-107.62,110.011-62.35C13013.489,8764.66,13076.839,8587.73,12968.019,8608.18ZM12567.7,8473.35a56.437,56.437,0,0,1,2.779-17.47,5.829,5.829,0,0,1,4.171-3.58,5.1,5.1,0,0,1,5.159,1.391c8.94,8.739,21.051,16.68,35.15,22.84a16.609,16.609,0,0,0-4.57,11.319,15.986,15.986,0,0,0,31.971,0c0-.989-.2-1.79-.2-2.58a122.083,122.083,0,0,0,26.02,2.98,5.577,5.577,0,0,1,4.761,2.58,5.688,5.688,0,0,1,.4,5.36,55.311,55.311,0,0,1-105.64-22.841Zm178.12,162.631a5.811,5.811,0,0,1-5.36.8,134.547,134.547,0,0,0-40.91-8.34c-20.45-.8-39.51,2.38-54.01,8.729a5.6,5.6,0,0,1-7.74-5.36,52.5,52.5,0,0,1,3.57-17.27,55.3,55.3,0,0,1,106.83,16.68A5.652,5.652,0,0,1,12745.819,8635.98Zm14.89-104.841a55.465,55.465,0,0,1-50.44-32.37,5.713,5.713,0,0,1,.4-5.359,5.167,5.167,0,0,1,4.771-2.58,119.415,119.415,0,0,0,20.05-1.79,11.145,11.145,0,0,0-.391,3.57,15.886,15.886,0,1,0,27.4-11.12c16.88-6.351,31.17-15.29,41.3-25.21a5.084,5.084,0,0,1,5.16-1.391,5.794,5.794,0,0,1,4.17,3.57,56.4,56.4,0,0,1,2.78,17.47A55.338,55.338,0,0,1,12760.709,8531.14Z" fill="#ce9e8d" fill-rule="evenodd"/>
    </g>
  </g>
</svg>
