<svg xmlns="http://www.w3.org/2000/svg" width="660.368" height="637.727" viewBox="0 0 660.368 637.727">
  <g id="Group_3" data-name="Group 3" transform="translate(-13346.482 -8249.376)">
    <g id="Group_513" data-name="Group 513">
      <g id="Group_512" data-name="Group 512">
        <path id="Path_860" data-name="Path 860" d="M13786.461,8886.6a35.533,35.533,0,0,1-25.789-11.062c-7.624-7.765-16.6-23.075-16.077-51.917.316-16.36-8.656-28.564-28.238-38.406-17.8-8.945-42.866-15.168-69.407-21.756-38.03-9.438-81.135-20.139-115.779-41.668-1.221-.779-2.324-1.5-3.337-2.169-4.383-2.88-7.029-4.618-9.84-4.618-2.555,0-5.438,1.45-10.282,5.17-6,5.494-12.117,15.349-18.592,25.78-13.6,21.911-29.017,46.746-51.454,46.749-9.7,0-19.66-4.569-30.468-13.97-14.49-12.559-20.383-27.225-16.591-41.294,4.953-18.387,25.781-33.18,54.356-38.606,9.438-1.761,16.821-6.508,21.943-14.11,17.73-26.312,6.407-82.072-1.862-122.787-2.265-11.155-4.222-20.789-5.392-28.741-4.777-32.14-26.279-34.828-47.893-34.828-2.911,0-5.9.055-8.785.107s-5.852.108-8.74.108c-22.605,0-44.869-3.063-47.177-39.7a49.334,49.334,0,0,1,13.245-36.029c7.841-8.309,18.082-12.884,28.835-12.884,12.047,0,30.771,5.672,51.548,32.692,7.391,9.649,15.892,14.541,25.271,14.541,26.87,0,55.48-39.3,70.852-60.413l2.164-2.967c15.79-21.911-3.286-36.444-23.48-51.831-15.733-11.986-32-24.381-33.744-41.28-1.083-10.51,3.549-21.568,14.161-33.809,9.3-10.666,22.79-17.034,36.094-17.034a37.213,37.213,0,0,1,27.852,11.966c10.9,11.649,15.8,30.693,14.176,55.072-.6,9.6,1.831,17.378,7.219,23.111,11.45,12.186,34.5,13.595,50.832,13.595,8.438,0,16.926-.437,24.413-.821,6.165-.317,11.988-.617,16.748-.617,1.9,0,3.523.046,4.969.142,20.5,1.306,38.844,5.5,55.032,9.208,14.306,3.272,26.661,6.1,36.964,6.1,20.8,0,30.7-12.246,34.162-42.269,1.739-15.281,8.82-40.917,36.7-40.917,25.262,0,54.681,22.776,59.394,45.984,3.369,16.592-6.181,30.561-26.892,39.334-25.439,10.759-37.39,19.219-39.956,28.291-2.625,9.279,4.619,19.443,14.646,33.511,9.75,13.678,21.884,30.7,31.141,54.715,10.491,27.28,12.957,52.3,14.938,72.4,3.139,31.873,5.035,51.112,34.018,51.112a103.484,103.484,0,0,0,19.19-2.1,90.817,90.817,0,0,1,16.643-1.67c14.021,0,24.9,4.021,32.32,11.951,6.439,6.878,9.842,16.336,9.843,27.351,0,24.706-17.752,52.236-43.23,52.242h-.007c-15.4,0-31.529-10.133-46.646-29.3-7.276-9.268-15.056-13.771-23.784-13.771-21.117,0-43.586,27.115-63.408,51.04-7.817,9.434-15.2,18.345-22.072,25.13-12.967,12.738-19.284,24.138-19.316,34.851-.041,14.464,11.573,26.006,22.8,37.167,17.928,17.818,36.467,36.242,9.443,67.153C13810.825,8880.49,13798.552,8886.6,13786.461,8886.6Zm-113.79-307.029a54.665,54.665,0,0,0-51.216,35.146,52.239,52.239,0,0,0-3.54,17.112,5.222,5.222,0,0,0,5.042,5.32,4.9,4.9,0,0,0,2-.434c13.283-5.823,29.9-8.9,48.06-8.9,2.04,0,4.117.04,6.174.121a136.153,136.153,0,0,1,41.064,8.371,5.716,5.716,0,0,0,1.795.292,5.314,5.314,0,0,0,5.271-5.385,55.6,55.6,0,0,0-35.027-47.985A54.463,54.463,0,0,0,13672.671,8579.573Zm41.755-89.909a119.23,119.23,0,0,1-19.371,1.665,4.682,4.682,0,0,0-4.328,2.323,5.243,5.243,0,0,0-.378,4.916,54.812,54.812,0,0,0,104.684-22.633,55.793,55.793,0,0,0-2.755-17.321,5.345,5.345,0,0,0-3.793-3.237,4.227,4.227,0,0,0-1.33-.22,4.86,4.86,0,0,0-3.381,1.474c-10.383,10.178-24.477,18.838-40.8,25.074a16.432,16.432,0,1,1-28.761,10.911A14.041,14.041,0,0,1,13714.426,8489.664Zm-158.729-37.088a4,4,0,0,0-1.27.2,5.4,5.4,0,0,0-3.872,3.3,55.763,55.763,0,0,0-2.736,17.272,54.812,54.812,0,0,0,104.686,22.626,5.219,5.219,0,0,0-.368-4.888,5.062,5.062,0,0,0-4.341-2.347,122.292,122.292,0,0,1-25.477-2.849c.015.148.032.3.052.458a12.435,12.435,0,0,1,.11,1.493,16.486,16.486,0,0,1-32.971,0,17.035,17.035,0,0,1,4.234-11.139c-13.728-6.071-25.7-13.9-34.663-22.658A4.869,4.869,0,0,0,13555.7,8452.576Z" fill="#eee" fill-rule="evenodd"/>
        <path id="Path_861" data-name="Path 861" d="M13532,8250.376c22.877,0,44.691,19.069,41.529,66.5-1.982,31.823,28.632,37.24,58.549,37.24,15.426,0,30.662-1.439,41.161-1.439,1.792,0,3.442.042,4.936.141,38.639,2.462,70.013,15.31,92.029,15.31,18.83,0,30.813-9.392,34.659-42.713,3.354-29.469,18.725-40.474,36.2-40.474,40.46,0,92.214,58.98,32.306,84.357-79.825,33.757-22.836,43.487,5.56,117.157,26.775,69.615,1.09,123.833,49.424,123.833a104.484,104.484,0,0,0,19.281-2.109,89.853,89.853,0,0,1,16.55-1.661c65.59,0,44.821,90.544-1.068,90.544-13.721,0-29.683-8.089-46.259-29.112-7.766-9.89-15.893-13.962-24.177-13.963-29.638,0-61.312,52.1-85.832,76.313-67.91,66.72,68.11,76.053,12.907,139.2-9.54,10.922-21.637,16.6-33.3,16.6-21.831,0-42.142-19.885-41.366-62.47,1.192-61.756-130.262-50.437-213.662-102.264-6.527-4.165-9.8-6.862-13.439-6.862-2.779,0-5.771,1.575-10.586,5.273-18.469,16.9-36.7,72.425-69.743,72.425-8.88,0-18.826-4-30.139-13.846-35.743-30.978-13.7-69.3,37.529-79.031,56.395-10.525,21.844-120.334,15.092-166.2-4.755-31.982-25.767-35.255-48.387-35.255-5.817,0-11.746.216-17.526.216-23.384,0-44.43-3.534-46.677-39.226-1.364-23.571,16.337-48.384,41.581-48.384,15.162,0,33.045,8.951,51.151,32.5,8.042,10.5,16.771,14.737,25.667,14.737,28.446,0,58.6-43.316,73.42-63.585,35.346-49.047-100.079-61.16-43.09-126.887,9.3-10.667,22.681-16.862,35.716-16.862m70.521,278.181a55.451,55.451,0,0,0,50.436-32.366,5.7,5.7,0,0,0-.4-5.361,5.582,5.582,0,0,0-4.765-2.582,121.661,121.661,0,0,1-26.013-2.979c0,.795.2,1.589.2,2.581a15.986,15.986,0,0,1-31.972,0,16.605,16.605,0,0,1,4.568-11.318c-14.1-6.155-26.212-14.1-35.147-22.835a5.345,5.345,0,0,0-3.734-1.62,4.523,4.523,0,0,0-1.429.229,5.836,5.836,0,0,0-4.17,3.574,56.5,56.5,0,0,0-2.779,17.474,55.211,55.211,0,0,0,55.2,55.2M13730.6,8508.5a15.933,15.933,0,0,1-15.886-15.885,10.992,10.992,0,0,1,.4-3.575,119.227,119.227,0,0,1-20.057,1.788,5.172,5.172,0,0,0-4.765,2.581,5.7,5.7,0,0,0-.4,5.361,55.312,55.312,0,0,0,105.64-22.836,56.487,56.487,0,0,0-2.78-17.474,5.833,5.833,0,0,0-4.17-3.575,4.511,4.511,0,0,0-1.427-.229,5.348,5.348,0,0,0-3.736,1.62c-10.127,9.929-24.424,18.863-41.3,25.219a16.013,16.013,0,0,1-11.518,27m-107.643,129.151a5.4,5.4,0,0,0,2.2-.478c13.032-5.712,29.755-8.856,47.859-8.856q3.051,0,6.152.12a134.677,134.677,0,0,1,40.905,8.34,6.247,6.247,0,0,0,1.974.324,5.6,5.6,0,0,0,3.388-1.118,5.663,5.663,0,0,0,2.384-4.767,55.764,55.764,0,0,0-35.347-48.451,55.3,55.3,0,0,0-71.484,31.771,52.618,52.618,0,0,0-3.575,17.276,5.725,5.725,0,0,0,5.543,5.838M13532,8249.376c-13.446,0-27.079,6.432-36.47,17.205-10.709,12.351-15.38,23.534-14.282,34.188,1.764,17.115,18.12,29.576,33.938,41.628,10.272,7.826,19.976,15.219,25.234,23.468,5.792,9.085,5.2,17.879-1.857,27.675-.686.936-1.407,1.928-2.159,2.962-15.319,21.042-43.833,60.208-70.45,60.208-9.215,0-17.583-4.826-24.873-14.345-20.9-27.184-39.785-32.89-51.945-32.89-10.894,0-21.264,4.632-29.2,13.04a49.841,49.841,0,0,0-13.381,36.4c2.335,37.068,24.832,40.169,47.676,40.169,2.895,0,5.873-.055,8.753-.108s5.869-.107,8.773-.107c21.4,0,42.679,2.657,47.4,34.4,1.172,7.964,3.13,17.6,5.4,28.768,8.251,40.628,19.552,96.269,1.938,122.407-5.044,7.486-12.318,12.163-21.62,13.9-28.766,5.463-49.744,20.395-54.748,38.967-3.844,14.267,2.1,29.111,16.747,41.8,10.9,9.481,20.973,14.091,30.794,14.091,22.717,0,38.21-24.96,51.879-46.983,6.446-10.384,12.534-20.192,18.507-25.675,4.729-3.626,7.518-5.04,9.943-5.04,2.662,0,5.26,1.707,9.563,4.535,1.017.667,2.121,1.393,3.34,2.17,34.721,21.577,77.865,32.287,115.933,41.735,26.513,6.581,51.555,12.8,69.3,21.718,19.39,9.745,28.275,21.8,27.963,37.949-.527,29.016,8.529,44.443,16.221,52.276a36.021,36.021,0,0,0,26.146,11.212c12.235,0,24.646-6.175,34.05-16.942,27.331-31.263,8.624-49.855-9.468-67.835-11.158-11.09-22.7-22.558-22.656-36.812.03-10.571,6.3-21.854,19.165-34.5,6.892-6.8,14.282-15.724,22.107-25.169,19.752-23.84,42.141-50.86,63.023-50.857,8.565,0,16.217,4.442,23.39,13.58,15.215,19.3,31.482,29.5,47.046,29.5,25.771,0,43.732-27.792,43.732-52.734,0-11.146-3.449-20.723-9.978-27.7-7.523-8.038-18.521-12.112-32.687-12.112a91.268,91.268,0,0,0-16.733,1.679,103.047,103.047,0,0,1-19.1,2.092c-28.531,0-30.409-19.069-33.522-50.661-1.983-20.132-4.451-45.187-14.968-72.531-9.278-24.071-21.435-41.125-31.2-54.826-9.946-13.953-17.133-24.035-14.572-33.083,2.521-8.91,14.384-17.274,39.668-27.968,20.955-8.876,30.61-23.044,27.188-39.894-4.753-23.409-34.416-46.385-59.883-46.385-9.557,0-17.892,3.277-24.1,9.479-7.084,7.071-11.489,17.8-13.092,31.882-4.241,36.759-18.687,41.826-33.665,41.826-10.246,0-22.576-2.822-36.853-6.088-16.205-3.709-34.574-7.912-55.113-9.22-1.452-.1-3.088-.143-5-.143-4.772,0-10.6.3-16.773.618-7.481.384-15.961.821-24.388.821-16.244,0-39.15-1.394-50.467-13.438-5.29-5.629-7.673-13.279-7.084-22.739,1.634-24.517-3.314-43.69-14.311-55.443a37.707,37.707,0,0,0-28.217-12.124Zm19.032,206.863a4.859,4.859,0,0,1,3.431-2.953l.062-.012.059-.02a3.5,3.5,0,0,1,1.112-.179,4.351,4.351,0,0,1,3.027,1.327c8.877,8.68,20.683,16.438,34.214,22.5a17.472,17.472,0,0,0-3.928,10.95,16.986,16.986,0,0,0,33.972,0,11.188,11.188,0,0,0-.088-1.316,122.535,122.535,0,0,0,24.9,2.714,4.564,4.564,0,0,1,3.917,2.111,4.724,4.724,0,0,1,.331,4.426,54.311,54.311,0,0,1-103.725-22.431,55.262,55.262,0,0,1,2.715-17.114Zm192.769,25.683c16.109-6.24,30.026-14.842,40.316-24.931a4.365,4.365,0,0,1,3.036-1.334,3.488,3.488,0,0,1,1.11.179l.06.021.061.012a4.858,4.858,0,0,1,3.432,2.952,55.293,55.293,0,0,1,2.715,17.115,54.312,54.312,0,0,1-103.73,22.42,4.719,4.719,0,0,1,.336-4.415l.015-.022.012-.023a4.2,4.2,0,0,1,3.891-2.065,119.234,119.234,0,0,0,18.763-1.56,18.056,18.056,0,0,0-.1,2.347,16.887,16.887,0,1,0,30.089-10.694Zm-120.846,154.73a4.732,4.732,0,0,1-4.548-4.739l0-.032v-.033a51.742,51.742,0,0,1,3.5-16.943,54.18,54.18,0,0,1,94.712-12.17,55.274,55.274,0,0,1,10.189,28.516,4.674,4.674,0,0,1-1.983,3.934,4.606,4.606,0,0,1-2.788.919,5.235,5.235,0,0,1-1.657-.273,136.612,136.612,0,0,0-41.17-8.39c-2.075-.08-4.158-.121-6.2-.121-18.229,0-34.917,3.092-48.261,8.94a4.411,4.411,0,0,1-1.8.394Z" fill="#666"/>
      </g>
    </g>
    <g id="Group_18" data-name="Group 18">
      <path id="Path_884" data-name="Path 884" d="M13947.639,8608.18c-74.069,14.1-38.92-44.279-68.71-121.72-28.4-73.67-85.38-83.4-5.56-117.16a74.8,74.8,0,0,0,7.05-3.41h-96.74c-8.64,3.42-19.62,2.521-32.71,0h-209.35c5.03,8.25,5.609,17.33-2.25,28.23-19.46,26.61-65.32,92.93-99.08,48.85-48.25-62.75-94.92-21.84-92.73,15.891,4.96,78.83,101.66.79,112.591,74.26,6.75,45.87,41.3,155.68-15.1,166.21-51.229,9.729-73.27,48.05-37.53,79.03,53.421,46.46,76.45-37.141,99.881-58.58,11.119-8.54,12.51-5.761,24.029,1.59,83.4,51.82,214.86,40.51,213.66,102.26-1.189,65.33,47.26,77.25,74.67,45.87,55.2-63.14-80.819-72.48-12.91-139.2,31.37-30.97,74.46-107.62,110.011-62.35C13993.109,8764.66,14056.449,8587.73,13947.639,8608.18Zm-400.319-134.83a56.408,56.408,0,0,1,2.779-17.47,5.829,5.829,0,0,1,4.17-3.58,5.1,5.1,0,0,1,5.16,1.391c8.94,8.739,21.05,16.68,35.15,22.84a16.609,16.609,0,0,0-4.57,11.319,15.985,15.985,0,0,0,31.97,0c0-.989-.2-1.79-.2-2.58a122,122,0,0,0,26.01,2.98,5.579,5.579,0,0,1,4.77,2.58,5.715,5.715,0,0,1,.4,5.36,55.311,55.311,0,0,1-105.64-22.841Zm178.12,162.631a5.827,5.827,0,0,1-5.37.8,134.421,134.421,0,0,0-40.9-8.34c-20.45-.8-39.52,2.38-54.01,8.729a5.611,5.611,0,0,1-7.75-5.36,52.487,52.487,0,0,1,3.58-17.27,55.3,55.3,0,0,1,106.83,16.68A5.679,5.679,0,0,1,13725.439,8635.98Zm14.89-104.841a55.465,55.465,0,0,1-50.44-32.37,5.713,5.713,0,0,1,.4-5.359,5.161,5.161,0,0,1,4.76-2.58,119.44,119.44,0,0,0,20.061-1.79,10.887,10.887,0,0,0-.4,3.57,15.886,15.886,0,1,0,27.41-11.12c16.87-6.351,31.17-15.29,41.3-25.21a5.078,5.078,0,0,1,5.16-1.391,5.794,5.794,0,0,1,4.17,3.57,56.4,56.4,0,0,1,2.78,17.47A55.338,55.338,0,0,1,13740.329,8531.14Z" fill="#d39785" fill-rule="evenodd"/>
    </g>
  </g>
</svg>
