<svg xmlns="http://www.w3.org/2000/svg" width="660.367" height="637.727" viewBox="0 0 660.367 637.727">
  <g id="Group_8" data-name="Group 8" transform="translate(-15264.424 -7524.77)">
    <g id="Group_523" data-name="Group 523">
      <g id="Group_522" data-name="Group 522">
        <path id="Path_870" data-name="Path 870" d="M15704.4,8162a35.532,35.532,0,0,1-25.789-11.062c-7.624-7.765-16.6-23.075-16.076-51.917.314-16.36-8.657-28.564-28.239-38.406-17.8-8.946-42.867-15.168-69.408-21.756-38.029-9.439-81.134-20.139-115.778-41.668-1.222-.779-2.323-1.5-3.337-2.169-4.384-2.88-7.028-4.618-9.841-4.618-2.554,0-5.437,1.45-10.281,5.17-6,5.5-12.116,15.348-18.593,25.78-13.6,21.911-29.015,46.746-51.453,46.749-9.694,0-19.66-4.569-30.469-13.97-14.489-12.558-20.382-27.224-16.59-41.294,4.954-18.386,25.782-33.179,54.356-38.6,9.438-1.762,16.82-6.509,21.942-14.111,17.732-26.313,6.408-82.073-1.861-122.788-2.266-11.155-4.223-20.789-5.393-28.741-4.776-32.139-26.278-34.828-47.892-34.828-2.91,0-5.9.055-8.784.108s-5.853.108-8.741.108c-22.605,0-44.87-3.064-47.176-39.695a49.332,49.332,0,0,1,13.245-36.03c7.841-8.308,18.081-12.883,28.835-12.883,12.047,0,30.769,5.671,51.548,32.692,7.389,9.649,15.89,14.542,25.27,14.542,26.869,0,55.481-39.3,70.853-60.414l2.164-2.967c15.79-21.911-3.286-36.444-23.482-51.831-15.732-11.986-32-24.381-33.744-41.28-1.083-10.51,3.55-21.569,14.161-33.809,9.3-10.666,22.79-17.034,36.095-17.034a37.22,37.22,0,0,1,27.853,11.966c10.9,11.649,15.8,30.693,14.174,55.072-.6,9.6,1.831,17.378,7.22,23.112,11.449,12.185,34.494,13.594,50.831,13.594,8.44,0,16.927-.436,24.413-.821,6.165-.317,11.989-.617,16.748-.617,1.9,0,3.525.046,4.97.141,20.5,1.306,38.845,5.5,55.031,9.208,14.307,3.273,26.661,6.1,36.965,6.1,20.8,0,30.7-12.246,34.161-42.269,1.74-15.281,8.821-40.917,36.7-40.917,25.261,0,54.68,22.777,59.394,45.985,3.368,16.591-6.182,30.56-26.892,39.334-25.439,10.758-37.389,19.219-39.957,28.291-2.625,9.279,4.62,19.443,14.647,33.51,9.75,13.678,21.885,30.7,31.141,54.715,10.492,27.281,12.957,52.3,14.938,72.4,3.14,31.873,5.034,51.112,34.019,51.112a103.57,103.57,0,0,0,19.189-2.1,90.782,90.782,0,0,1,16.644-1.671c14.021,0,24.895,4.021,32.319,11.952,6.438,6.878,9.843,16.336,9.844,27.35,0,24.706-17.752,52.237-43.232,52.242h-.007c-15.4,0-31.528-10.132-46.645-29.3-7.276-9.268-15.057-13.772-23.783-13.772-21.118,0-43.586,27.116-63.409,51.04-7.817,9.434-15.2,18.345-22.073,25.13-12.967,12.739-19.283,24.138-19.314,34.851-.041,14.464,11.572,26.006,22.8,37.167,17.927,17.818,36.466,36.242,9.443,67.153C15728.765,8155.884,15716.492,8162,15704.4,8162Zm-113.79-307.03a54.666,54.666,0,0,0-51.217,35.146,52.238,52.238,0,0,0-3.539,17.112,5.224,5.224,0,0,0,5.042,5.321,4.891,4.891,0,0,0,2-.434c13.282-5.823,29.9-8.9,48.061-8.9,2.04,0,4.116.041,6.173.121a136.162,136.162,0,0,1,41.064,8.372,5.7,5.7,0,0,0,1.795.292,5.312,5.312,0,0,0,5.271-5.385,55.6,55.6,0,0,0-35.026-47.985A54.464,54.464,0,0,0,15590.611,7854.967Zm41.755-89.909a119.182,119.182,0,0,1-19.37,1.665,4.682,4.682,0,0,0-4.328,2.323,5.234,5.234,0,0,0-.378,4.916,54.811,54.811,0,0,0,104.682-22.632,55.771,55.771,0,0,0-2.755-17.322,5.342,5.342,0,0,0-3.792-3.236,4.213,4.213,0,0,0-1.331-.221,4.858,4.858,0,0,0-3.38,1.474c-10.382,10.178-24.477,18.838-40.8,25.074a16.433,16.433,0,1,1-28.762,10.911A14.037,14.037,0,0,1,15632.366,7765.058Zm-158.729-37.088a4.026,4.026,0,0,0-1.269.2,5.392,5.392,0,0,0-3.871,3.3,55.765,55.765,0,0,0-2.738,17.272,54.812,54.812,0,0,0,104.687,22.627,5.225,5.225,0,0,0-.367-4.888,5.064,5.064,0,0,0-4.342-2.347,122.244,122.244,0,0,1-25.478-2.849c.016.15.034.3.052.458a12.256,12.256,0,0,1,.111,1.494,16.485,16.485,0,0,1-32.97,0,17.039,17.039,0,0,1,4.232-11.139c-13.726-6.071-25.7-13.9-34.662-22.658A4.867,4.867,0,0,0,15473.637,7727.97Z" fill="#eee" fill-rule="evenodd"/>
        <path id="Path_871" data-name="Path 871" d="M15449.943,7525.77c22.876,0,44.689,19.069,41.527,66.5-1.981,31.824,28.632,37.24,58.551,37.24,15.425,0,30.661-1.439,41.16-1.439,1.791,0,3.443.042,4.936.14,38.638,2.462,70.013,15.31,92.029,15.31,18.83,0,30.814-9.392,34.658-42.713,3.354-29.468,18.726-40.474,36.2-40.474,40.461,0,92.214,58.981,32.306,84.358-79.824,33.757-22.835,43.487,5.561,117.157,26.775,69.615,1.089,123.833,49.423,123.833a104.573,104.573,0,0,0,19.283-2.109,89.8,89.8,0,0,1,16.55-1.662c65.588,0,44.82,90.544-1.069,90.544-13.721,0-29.682-8.088-46.26-29.112-7.765-9.89-15.892-13.962-24.176-13.963-29.637,0-61.312,52.1-85.832,76.314-67.911,66.719,68.11,76.052,12.907,139.2-9.54,10.922-21.638,16.6-33.3,16.6-21.831,0-42.144-19.884-41.366-62.47,1.19-61.756-130.262-50.437-213.662-102.264-6.529-4.165-9.8-6.862-13.44-6.862-2.778,0-5.77,1.575-10.587,5.274-18.469,16.9-36.694,72.425-69.741,72.425-8.881,0-18.826-4.006-30.14-13.847-35.743-30.977-13.7-69.3,37.529-79.031,56.394-10.525,21.843-120.334,15.092-166.2-4.754-31.982-25.766-35.255-48.387-35.255-5.817,0-11.745.216-17.526.216-23.383,0-44.429-3.534-46.677-39.226-1.364-23.571,16.338-48.382,41.581-48.382,15.162,0,33.045,8.95,51.152,32.5,8.041,10.5,16.771,14.738,25.666,14.738,28.445,0,58.6-43.316,73.421-63.586,35.345-49.047-100.08-61.16-43.091-126.887,9.3-10.667,22.681-16.862,35.717-16.862m70.519,278.181a55.452,55.452,0,0,0,50.438-32.367,5.7,5.7,0,0,0-.4-5.361,5.586,5.586,0,0,0-4.766-2.582,121.7,121.7,0,0,1-26.014-2.978c0,.794.2,1.588.2,2.581a15.985,15.985,0,0,1-31.97,0,16.607,16.607,0,0,1,4.566-11.318c-14.1-6.156-26.211-14.1-35.146-22.836a5.347,5.347,0,0,0-3.735-1.62,4.49,4.49,0,0,0-1.428.23,5.836,5.836,0,0,0-4.17,3.574,56.493,56.493,0,0,0-2.78,17.474,55.213,55.213,0,0,0,55.2,55.2m128.078-20.056a15.931,15.931,0,0,1-15.885-15.885,11.041,11.041,0,0,1,.4-3.575,119.273,119.273,0,0,1-20.055,1.788,5.171,5.171,0,0,0-4.766,2.581,5.7,5.7,0,0,0-.4,5.361,55.311,55.311,0,0,0,105.639-22.835,56.487,56.487,0,0,0-2.778-17.474,5.837,5.837,0,0,0-4.17-3.575,4.542,4.542,0,0,0-1.429-.23,5.348,5.348,0,0,0-3.734,1.62c-10.127,9.929-24.425,18.864-41.3,25.219a16.013,16.013,0,0,1-11.517,27M15540.9,7913.046a5.4,5.4,0,0,0,2.2-.477c13.031-5.712,29.754-8.857,47.859-8.857q3.051,0,6.152.12a134.7,134.7,0,0,1,40.905,8.34,6.234,6.234,0,0,0,1.974.325,5.592,5.592,0,0,0,3.388-1.119,5.661,5.661,0,0,0,2.383-4.766,55.761,55.761,0,0,0-35.346-48.451,55.294,55.294,0,0,0-71.485,31.771,52.62,52.62,0,0,0-3.573,17.276,5.724,5.724,0,0,0,5.542,5.838m-90.954-388.276c-13.447,0-27.08,6.432-36.471,17.205-10.71,12.352-15.381,23.534-14.282,34.189,1.764,17.115,18.12,29.576,33.938,41.627,10.274,7.827,19.978,15.219,25.235,23.468,5.792,9.085,5.2,17.879-1.857,27.675-.685.936-1.407,1.928-2.16,2.962-15.318,21.042-43.833,60.209-70.449,60.209-9.216,0-17.583-4.827-24.872-14.346-20.9-27.183-39.786-32.888-51.946-32.888-10.895,0-21.264,4.63-29.2,13.039a49.835,49.835,0,0,0-13.38,36.4c2.334,37.067,24.832,40.168,47.675,40.168,2.9,0,5.873-.055,8.752-.108s5.869-.108,8.774-.108c21.395,0,42.679,2.657,47.4,34.4,1.173,7.964,3.131,17.6,5.4,28.769,8.25,40.627,19.551,96.268,1.936,122.407-5.044,7.486-12.317,12.162-21.619,13.9-28.767,5.463-49.743,20.394-54.748,38.967-3.845,14.266,2.1,29.111,16.747,41.8,10.9,9.481,20.973,14.091,30.795,14.091,22.716,0,38.209-24.961,51.879-46.984,6.444-10.384,12.533-20.193,18.506-25.675,4.728-3.626,7.518-5.04,9.943-5.04,2.661,0,5.26,1.707,9.563,4.535,1.016.667,2.121,1.393,3.339,2.17,34.722,21.577,77.867,32.287,115.933,41.735,26.514,6.581,51.556,12.8,69.3,21.718,19.39,9.745,28.274,21.8,27.964,37.949-.529,29.016,8.528,44.444,16.22,52.277a36.021,36.021,0,0,0,26.146,11.212c12.233,0,24.645-6.175,34.05-16.942,27.33-31.264,8.623-49.856-9.469-67.836-11.158-11.09-22.7-22.557-22.656-36.812.031-10.572,6.3-21.855,19.165-34.5,6.892-6.8,14.282-15.724,22.106-25.168,19.753-23.841,42.142-50.862,63.024-50.859,8.565,0,16.216,4.443,23.389,13.58,15.216,19.3,31.483,29.5,47.046,29.5,25.773,0,43.733-27.791,43.733-52.734,0-11.146-3.45-20.723-9.977-27.7-7.524-8.038-18.521-12.113-32.687-12.113a91.3,91.3,0,0,0-16.735,1.679,103.072,103.072,0,0,1-19.1,2.092c-28.531,0-30.409-19.069-33.521-50.661-1.984-20.132-4.452-45.188-14.969-72.531-9.278-24.072-21.434-41.125-31.2-54.827-9.946-13.953-17.133-24.035-14.572-33.082,2.521-8.911,14.385-17.275,39.669-27.968,20.954-8.876,30.608-23.044,27.187-39.894-4.753-23.409-34.415-46.385-59.883-46.385-9.556,0-17.891,3.278-24.1,9.479-7.084,7.071-11.489,17.8-13.093,31.882-4.24,36.758-18.687,41.826-33.664,41.826-10.247,0-22.576-2.822-36.854-6.088-16.206-3.708-34.575-7.911-55.113-9.22-1.453-.095-3.089-.142-5-.142-4.771,0-10.6.3-16.773.618-7.482.384-15.961.821-24.387.821-16.245,0-39.15-1.393-50.469-13.438-5.29-5.629-7.673-13.28-7.084-22.74,1.634-24.516-3.313-43.69-14.309-55.443a37.707,37.707,0,0,0-28.217-12.124Zm19.03,206.863a4.863,4.863,0,0,1,3.432-2.953l.062-.012.06-.019a3.479,3.479,0,0,1,1.11-.179,4.361,4.361,0,0,1,3.028,1.327c8.878,8.681,20.683,16.439,34.213,22.5a17.473,17.473,0,0,0-3.926,10.951,16.985,16.985,0,0,0,33.97,0,11.425,11.425,0,0,0-.087-1.317,122.474,122.474,0,0,0,24.9,2.714,4.568,4.568,0,0,1,3.918,2.112,4.725,4.725,0,0,1,.331,4.425,54.312,54.312,0,0,1-103.727-22.43,55.324,55.324,0,0,1,2.715-17.115Zm192.77,25.684c16.109-6.241,30.026-14.843,40.316-24.932a4.369,4.369,0,0,1,3.035-1.334,3.5,3.5,0,0,1,1.112.179l.058.02.062.012a4.859,4.859,0,0,1,3.432,2.953,55.285,55.285,0,0,1,2.714,17.115,54.311,54.311,0,0,1-103.729,22.419,4.722,4.722,0,0,1,.336-4.415l.014-.022.012-.022a4.2,4.2,0,0,1,3.893-2.067,119.217,119.217,0,0,0,18.761-1.559,18.386,18.386,0,0,0-.1,2.346,16.886,16.886,0,1,0,30.088-10.693ZM15540.9,7912.046a4.732,4.732,0,0,1-4.548-4.739l0-.032v-.033a51.725,51.725,0,0,1,3.507-16.944,54.18,54.18,0,0,1,94.711-12.17,55.276,55.276,0,0,1,10.188,28.516,4.671,4.671,0,0,1-1.982,3.934,4.613,4.613,0,0,1-2.788.919,5.235,5.235,0,0,1-1.657-.274,136.6,136.6,0,0,0-41.169-8.39c-2.077-.08-4.16-.121-6.205-.121-18.228,0-34.917,3.092-48.261,8.941a4.4,4.4,0,0,1-1.8.393Z" fill="#666"/>
      </g>
    </g>
    <g id="Group_16" data-name="Group 16">
      <path id="Path_882" data-name="Path 882" d="M15865.58,7883.36c-74.071,14.1-38.921-44.28-68.711-121.72a199.232,199.232,0,0,0-16.59-33.2h-303.4c.17.14.331.28.49.44,8.939,8.73,21.051,16.68,35.149,22.83a16.614,16.614,0,0,0-4.569,11.32,15.986,15.986,0,0,0,31.971,0c0-.99-.191-1.79-.191-2.58a121.964,121.964,0,0,0,26.011,2.98,5.579,5.579,0,0,1,4.761,2.58,5.661,5.661,0,0,1,.4,5.36,55.311,55.311,0,0,1-105.641-22.84,56.4,56.4,0,0,1,2.781-17.47,6.526,6.526,0,0,1,2.029-2.62H15400.6c-10.59,5.35-21.409,6.49-31.569,0h-103.5a43.571,43.571,0,0,0-.03,5.6c4.96,78.83,101.67.79,112.59,74.26,6.75,45.87,41.3,155.68-15.09,166.21-51.23,9.73-73.271,48.05-37.53,79.03,53.41,46.46,76.451-37.13,99.88-58.58,11.12-8.54,12.511-5.76,24.03,1.59,83.4,51.83,214.85,40.51,213.661,102.26-1.191,65.33,47.259,77.25,74.659,45.87,55.2-63.14-80.82-72.48-12.909-139.2,31.38-30.97,74.469-107.62,110.009-62.35C15911.049,8039.84,15974.4,7862.91,15865.58,7883.36Zm-222.2,27.8a5.805,5.805,0,0,1-5.36.8,134.555,134.555,0,0,0-40.909-8.34c-20.45-.8-39.511,2.38-54.011,8.73a5.6,5.6,0,0,1-7.739-5.36,52.746,52.746,0,0,1,3.569-17.27,55.3,55.3,0,0,1,106.83,16.68A5.651,5.651,0,0,1,15643.379,7911.16Zm14.89-104.84a55.442,55.442,0,0,1-50.43-32.37,5.692,5.692,0,0,1,.39-5.36,5.177,5.177,0,0,1,4.771-2.58,119.461,119.461,0,0,0,20.049-1.79,11.2,11.2,0,0,0-.39,3.58,15.886,15.886,0,1,0,27.4-11.12c16.881-6.36,31.181-15.29,41.3-25.22a5.083,5.083,0,0,1,5.159-1.39,5.8,5.8,0,0,1,4.171,3.57,56.448,56.448,0,0,1,2.779,17.48A55.336,55.336,0,0,1,15658.269,7806.32Z" fill="#cea695" fill-rule="evenodd"/>
    </g>
  </g>
</svg>
